G04 #@! TF.GenerationSoftware,KiCad,Pcbnew,(5.1.2-1)-1*
G04 #@! TF.CreationDate,2019-09-19T03:42:36+01:00*
G04 #@! TF.ProjectId,USB,5553422e-6b69-4636-9164-5f7063625858,rev?*
G04 #@! TF.SameCoordinates,Original*
G04 #@! TF.FileFunction,Copper,L1,Top*
G04 #@! TF.FilePolarity,Positive*
%FSLAX46Y46*%
G04 Gerber Fmt 4.6, Leading zero omitted, Abs format (unit mm)*
G04 Created by KiCad (PCBNEW (5.1.2-1)-1) date 2019-09-19 03:42:36*
%MOMM*%
%LPD*%
G04 APERTURE LIST*
%ADD10C,0.100000*%
%ADD11C,2.500000*%
%ADD12C,0.600000*%
%ADD13R,1.200000X0.400000*%
%ADD14C,0.875000*%
%ADD15R,2.900000X5.400000*%
%ADD16C,1.500000*%
%ADD17R,1.500000X1.500000*%
%ADD18O,1.700000X1.700000*%
%ADD19R,1.700000X1.700000*%
%ADD20C,3.500000*%
%ADD21C,1.700000*%
%ADD22O,2.200000X2.200000*%
%ADD23R,2.200000X2.200000*%
%ADD24C,0.800000*%
%ADD25C,0.250000*%
%ADD26C,0.200000*%
G04 APERTURE END LIST*
D10*
G36*
X167267504Y-89921004D02*
G01*
X167291773Y-89924604D01*
X167315571Y-89930565D01*
X167338671Y-89938830D01*
X167360849Y-89949320D01*
X167381893Y-89961933D01*
X167401598Y-89976547D01*
X167419777Y-89993023D01*
X167436253Y-90011202D01*
X167450867Y-90030907D01*
X167463480Y-90051951D01*
X167473970Y-90074129D01*
X167482235Y-90097229D01*
X167488196Y-90121027D01*
X167491796Y-90145296D01*
X167493000Y-90169800D01*
X167493000Y-93169800D01*
X167491796Y-93194304D01*
X167488196Y-93218573D01*
X167482235Y-93242371D01*
X167473970Y-93265471D01*
X167463480Y-93287649D01*
X167450867Y-93308693D01*
X167436253Y-93328398D01*
X167419777Y-93346577D01*
X167401598Y-93363053D01*
X167381893Y-93377667D01*
X167360849Y-93390280D01*
X167338671Y-93400770D01*
X167315571Y-93409035D01*
X167291773Y-93414996D01*
X167267504Y-93418596D01*
X167243000Y-93419800D01*
X165243000Y-93419800D01*
X165218496Y-93418596D01*
X165194227Y-93414996D01*
X165170429Y-93409035D01*
X165147329Y-93400770D01*
X165125151Y-93390280D01*
X165104107Y-93377667D01*
X165084402Y-93363053D01*
X165066223Y-93346577D01*
X165049747Y-93328398D01*
X165035133Y-93308693D01*
X165022520Y-93287649D01*
X165012030Y-93265471D01*
X165003765Y-93242371D01*
X164997804Y-93218573D01*
X164994204Y-93194304D01*
X164993000Y-93169800D01*
X164993000Y-90169800D01*
X164994204Y-90145296D01*
X164997804Y-90121027D01*
X165003765Y-90097229D01*
X165012030Y-90074129D01*
X165022520Y-90051951D01*
X165035133Y-90030907D01*
X165049747Y-90011202D01*
X165066223Y-89993023D01*
X165084402Y-89976547D01*
X165104107Y-89961933D01*
X165125151Y-89949320D01*
X165147329Y-89938830D01*
X165170429Y-89930565D01*
X165194227Y-89924604D01*
X165218496Y-89921004D01*
X165243000Y-89919800D01*
X167243000Y-89919800D01*
X167267504Y-89921004D01*
X167267504Y-89921004D01*
G37*
D11*
X166243000Y-91669800D03*
D10*
G36*
X167267504Y-96421004D02*
G01*
X167291773Y-96424604D01*
X167315571Y-96430565D01*
X167338671Y-96438830D01*
X167360849Y-96449320D01*
X167381893Y-96461933D01*
X167401598Y-96476547D01*
X167419777Y-96493023D01*
X167436253Y-96511202D01*
X167450867Y-96530907D01*
X167463480Y-96551951D01*
X167473970Y-96574129D01*
X167482235Y-96597229D01*
X167488196Y-96621027D01*
X167491796Y-96645296D01*
X167493000Y-96669800D01*
X167493000Y-99669800D01*
X167491796Y-99694304D01*
X167488196Y-99718573D01*
X167482235Y-99742371D01*
X167473970Y-99765471D01*
X167463480Y-99787649D01*
X167450867Y-99808693D01*
X167436253Y-99828398D01*
X167419777Y-99846577D01*
X167401598Y-99863053D01*
X167381893Y-99877667D01*
X167360849Y-99890280D01*
X167338671Y-99900770D01*
X167315571Y-99909035D01*
X167291773Y-99914996D01*
X167267504Y-99918596D01*
X167243000Y-99919800D01*
X165243000Y-99919800D01*
X165218496Y-99918596D01*
X165194227Y-99914996D01*
X165170429Y-99909035D01*
X165147329Y-99900770D01*
X165125151Y-99890280D01*
X165104107Y-99877667D01*
X165084402Y-99863053D01*
X165066223Y-99846577D01*
X165049747Y-99828398D01*
X165035133Y-99808693D01*
X165022520Y-99787649D01*
X165012030Y-99765471D01*
X165003765Y-99742371D01*
X164997804Y-99718573D01*
X164994204Y-99694304D01*
X164993000Y-99669800D01*
X164993000Y-96669800D01*
X164994204Y-96645296D01*
X164997804Y-96621027D01*
X165003765Y-96597229D01*
X165012030Y-96574129D01*
X165022520Y-96551951D01*
X165035133Y-96530907D01*
X165049747Y-96511202D01*
X165066223Y-96493023D01*
X165084402Y-96476547D01*
X165104107Y-96461933D01*
X165125151Y-96449320D01*
X165147329Y-96438830D01*
X165170429Y-96430565D01*
X165194227Y-96424604D01*
X165218496Y-96421004D01*
X165243000Y-96419800D01*
X167243000Y-96419800D01*
X167267504Y-96421004D01*
X167267504Y-96421004D01*
G37*
D11*
X166243000Y-98169800D03*
D10*
G36*
X137121903Y-109708122D02*
G01*
X137136464Y-109710282D01*
X137150743Y-109713859D01*
X137164603Y-109718818D01*
X137177910Y-109725112D01*
X137190536Y-109732680D01*
X137202359Y-109741448D01*
X137213266Y-109751334D01*
X137223152Y-109762241D01*
X137231920Y-109774064D01*
X137239488Y-109786690D01*
X137245782Y-109799997D01*
X137250741Y-109813857D01*
X137254318Y-109828136D01*
X137256478Y-109842697D01*
X137257200Y-109857400D01*
X137257200Y-110157400D01*
X137256478Y-110172103D01*
X137254318Y-110186664D01*
X137250741Y-110200943D01*
X137245782Y-110214803D01*
X137239488Y-110228110D01*
X137231920Y-110240736D01*
X137223152Y-110252559D01*
X137213266Y-110263466D01*
X137202359Y-110273352D01*
X137190536Y-110282120D01*
X137177910Y-110289688D01*
X137164603Y-110295982D01*
X137150743Y-110300941D01*
X137136464Y-110304518D01*
X137121903Y-110306678D01*
X137107200Y-110307400D01*
X135457200Y-110307400D01*
X135442497Y-110306678D01*
X135427936Y-110304518D01*
X135413657Y-110300941D01*
X135399797Y-110295982D01*
X135386490Y-110289688D01*
X135373864Y-110282120D01*
X135362041Y-110273352D01*
X135351134Y-110263466D01*
X135341248Y-110252559D01*
X135332480Y-110240736D01*
X135324912Y-110228110D01*
X135318618Y-110214803D01*
X135313659Y-110200943D01*
X135310082Y-110186664D01*
X135307922Y-110172103D01*
X135307200Y-110157400D01*
X135307200Y-109857400D01*
X135307922Y-109842697D01*
X135310082Y-109828136D01*
X135313659Y-109813857D01*
X135318618Y-109799997D01*
X135324912Y-109786690D01*
X135332480Y-109774064D01*
X135341248Y-109762241D01*
X135351134Y-109751334D01*
X135362041Y-109741448D01*
X135373864Y-109732680D01*
X135386490Y-109725112D01*
X135399797Y-109718818D01*
X135413657Y-109713859D01*
X135427936Y-109710282D01*
X135442497Y-109708122D01*
X135457200Y-109707400D01*
X137107200Y-109707400D01*
X137121903Y-109708122D01*
X137121903Y-109708122D01*
G37*
D12*
X136282200Y-110007400D03*
D10*
G36*
X137121903Y-110978122D02*
G01*
X137136464Y-110980282D01*
X137150743Y-110983859D01*
X137164603Y-110988818D01*
X137177910Y-110995112D01*
X137190536Y-111002680D01*
X137202359Y-111011448D01*
X137213266Y-111021334D01*
X137223152Y-111032241D01*
X137231920Y-111044064D01*
X137239488Y-111056690D01*
X137245782Y-111069997D01*
X137250741Y-111083857D01*
X137254318Y-111098136D01*
X137256478Y-111112697D01*
X137257200Y-111127400D01*
X137257200Y-111427400D01*
X137256478Y-111442103D01*
X137254318Y-111456664D01*
X137250741Y-111470943D01*
X137245782Y-111484803D01*
X137239488Y-111498110D01*
X137231920Y-111510736D01*
X137223152Y-111522559D01*
X137213266Y-111533466D01*
X137202359Y-111543352D01*
X137190536Y-111552120D01*
X137177910Y-111559688D01*
X137164603Y-111565982D01*
X137150743Y-111570941D01*
X137136464Y-111574518D01*
X137121903Y-111576678D01*
X137107200Y-111577400D01*
X135457200Y-111577400D01*
X135442497Y-111576678D01*
X135427936Y-111574518D01*
X135413657Y-111570941D01*
X135399797Y-111565982D01*
X135386490Y-111559688D01*
X135373864Y-111552120D01*
X135362041Y-111543352D01*
X135351134Y-111533466D01*
X135341248Y-111522559D01*
X135332480Y-111510736D01*
X135324912Y-111498110D01*
X135318618Y-111484803D01*
X135313659Y-111470943D01*
X135310082Y-111456664D01*
X135307922Y-111442103D01*
X135307200Y-111427400D01*
X135307200Y-111127400D01*
X135307922Y-111112697D01*
X135310082Y-111098136D01*
X135313659Y-111083857D01*
X135318618Y-111069997D01*
X135324912Y-111056690D01*
X135332480Y-111044064D01*
X135341248Y-111032241D01*
X135351134Y-111021334D01*
X135362041Y-111011448D01*
X135373864Y-111002680D01*
X135386490Y-110995112D01*
X135399797Y-110988818D01*
X135413657Y-110983859D01*
X135427936Y-110980282D01*
X135442497Y-110978122D01*
X135457200Y-110977400D01*
X137107200Y-110977400D01*
X137121903Y-110978122D01*
X137121903Y-110978122D01*
G37*
D12*
X136282200Y-111277400D03*
D10*
G36*
X137121903Y-112248122D02*
G01*
X137136464Y-112250282D01*
X137150743Y-112253859D01*
X137164603Y-112258818D01*
X137177910Y-112265112D01*
X137190536Y-112272680D01*
X137202359Y-112281448D01*
X137213266Y-112291334D01*
X137223152Y-112302241D01*
X137231920Y-112314064D01*
X137239488Y-112326690D01*
X137245782Y-112339997D01*
X137250741Y-112353857D01*
X137254318Y-112368136D01*
X137256478Y-112382697D01*
X137257200Y-112397400D01*
X137257200Y-112697400D01*
X137256478Y-112712103D01*
X137254318Y-112726664D01*
X137250741Y-112740943D01*
X137245782Y-112754803D01*
X137239488Y-112768110D01*
X137231920Y-112780736D01*
X137223152Y-112792559D01*
X137213266Y-112803466D01*
X137202359Y-112813352D01*
X137190536Y-112822120D01*
X137177910Y-112829688D01*
X137164603Y-112835982D01*
X137150743Y-112840941D01*
X137136464Y-112844518D01*
X137121903Y-112846678D01*
X137107200Y-112847400D01*
X135457200Y-112847400D01*
X135442497Y-112846678D01*
X135427936Y-112844518D01*
X135413657Y-112840941D01*
X135399797Y-112835982D01*
X135386490Y-112829688D01*
X135373864Y-112822120D01*
X135362041Y-112813352D01*
X135351134Y-112803466D01*
X135341248Y-112792559D01*
X135332480Y-112780736D01*
X135324912Y-112768110D01*
X135318618Y-112754803D01*
X135313659Y-112740943D01*
X135310082Y-112726664D01*
X135307922Y-112712103D01*
X135307200Y-112697400D01*
X135307200Y-112397400D01*
X135307922Y-112382697D01*
X135310082Y-112368136D01*
X135313659Y-112353857D01*
X135318618Y-112339997D01*
X135324912Y-112326690D01*
X135332480Y-112314064D01*
X135341248Y-112302241D01*
X135351134Y-112291334D01*
X135362041Y-112281448D01*
X135373864Y-112272680D01*
X135386490Y-112265112D01*
X135399797Y-112258818D01*
X135413657Y-112253859D01*
X135427936Y-112250282D01*
X135442497Y-112248122D01*
X135457200Y-112247400D01*
X137107200Y-112247400D01*
X137121903Y-112248122D01*
X137121903Y-112248122D01*
G37*
D12*
X136282200Y-112547400D03*
D10*
G36*
X137121903Y-113518122D02*
G01*
X137136464Y-113520282D01*
X137150743Y-113523859D01*
X137164603Y-113528818D01*
X137177910Y-113535112D01*
X137190536Y-113542680D01*
X137202359Y-113551448D01*
X137213266Y-113561334D01*
X137223152Y-113572241D01*
X137231920Y-113584064D01*
X137239488Y-113596690D01*
X137245782Y-113609997D01*
X137250741Y-113623857D01*
X137254318Y-113638136D01*
X137256478Y-113652697D01*
X137257200Y-113667400D01*
X137257200Y-113967400D01*
X137256478Y-113982103D01*
X137254318Y-113996664D01*
X137250741Y-114010943D01*
X137245782Y-114024803D01*
X137239488Y-114038110D01*
X137231920Y-114050736D01*
X137223152Y-114062559D01*
X137213266Y-114073466D01*
X137202359Y-114083352D01*
X137190536Y-114092120D01*
X137177910Y-114099688D01*
X137164603Y-114105982D01*
X137150743Y-114110941D01*
X137136464Y-114114518D01*
X137121903Y-114116678D01*
X137107200Y-114117400D01*
X135457200Y-114117400D01*
X135442497Y-114116678D01*
X135427936Y-114114518D01*
X135413657Y-114110941D01*
X135399797Y-114105982D01*
X135386490Y-114099688D01*
X135373864Y-114092120D01*
X135362041Y-114083352D01*
X135351134Y-114073466D01*
X135341248Y-114062559D01*
X135332480Y-114050736D01*
X135324912Y-114038110D01*
X135318618Y-114024803D01*
X135313659Y-114010943D01*
X135310082Y-113996664D01*
X135307922Y-113982103D01*
X135307200Y-113967400D01*
X135307200Y-113667400D01*
X135307922Y-113652697D01*
X135310082Y-113638136D01*
X135313659Y-113623857D01*
X135318618Y-113609997D01*
X135324912Y-113596690D01*
X135332480Y-113584064D01*
X135341248Y-113572241D01*
X135351134Y-113561334D01*
X135362041Y-113551448D01*
X135373864Y-113542680D01*
X135386490Y-113535112D01*
X135399797Y-113528818D01*
X135413657Y-113523859D01*
X135427936Y-113520282D01*
X135442497Y-113518122D01*
X135457200Y-113517400D01*
X137107200Y-113517400D01*
X137121903Y-113518122D01*
X137121903Y-113518122D01*
G37*
D12*
X136282200Y-113817400D03*
D10*
G36*
X137121903Y-114788122D02*
G01*
X137136464Y-114790282D01*
X137150743Y-114793859D01*
X137164603Y-114798818D01*
X137177910Y-114805112D01*
X137190536Y-114812680D01*
X137202359Y-114821448D01*
X137213266Y-114831334D01*
X137223152Y-114842241D01*
X137231920Y-114854064D01*
X137239488Y-114866690D01*
X137245782Y-114879997D01*
X137250741Y-114893857D01*
X137254318Y-114908136D01*
X137256478Y-114922697D01*
X137257200Y-114937400D01*
X137257200Y-115237400D01*
X137256478Y-115252103D01*
X137254318Y-115266664D01*
X137250741Y-115280943D01*
X137245782Y-115294803D01*
X137239488Y-115308110D01*
X137231920Y-115320736D01*
X137223152Y-115332559D01*
X137213266Y-115343466D01*
X137202359Y-115353352D01*
X137190536Y-115362120D01*
X137177910Y-115369688D01*
X137164603Y-115375982D01*
X137150743Y-115380941D01*
X137136464Y-115384518D01*
X137121903Y-115386678D01*
X137107200Y-115387400D01*
X135457200Y-115387400D01*
X135442497Y-115386678D01*
X135427936Y-115384518D01*
X135413657Y-115380941D01*
X135399797Y-115375982D01*
X135386490Y-115369688D01*
X135373864Y-115362120D01*
X135362041Y-115353352D01*
X135351134Y-115343466D01*
X135341248Y-115332559D01*
X135332480Y-115320736D01*
X135324912Y-115308110D01*
X135318618Y-115294803D01*
X135313659Y-115280943D01*
X135310082Y-115266664D01*
X135307922Y-115252103D01*
X135307200Y-115237400D01*
X135307200Y-114937400D01*
X135307922Y-114922697D01*
X135310082Y-114908136D01*
X135313659Y-114893857D01*
X135318618Y-114879997D01*
X135324912Y-114866690D01*
X135332480Y-114854064D01*
X135341248Y-114842241D01*
X135351134Y-114831334D01*
X135362041Y-114821448D01*
X135373864Y-114812680D01*
X135386490Y-114805112D01*
X135399797Y-114798818D01*
X135413657Y-114793859D01*
X135427936Y-114790282D01*
X135442497Y-114788122D01*
X135457200Y-114787400D01*
X137107200Y-114787400D01*
X137121903Y-114788122D01*
X137121903Y-114788122D01*
G37*
D12*
X136282200Y-115087400D03*
D10*
G36*
X137121903Y-116058122D02*
G01*
X137136464Y-116060282D01*
X137150743Y-116063859D01*
X137164603Y-116068818D01*
X137177910Y-116075112D01*
X137190536Y-116082680D01*
X137202359Y-116091448D01*
X137213266Y-116101334D01*
X137223152Y-116112241D01*
X137231920Y-116124064D01*
X137239488Y-116136690D01*
X137245782Y-116149997D01*
X137250741Y-116163857D01*
X137254318Y-116178136D01*
X137256478Y-116192697D01*
X137257200Y-116207400D01*
X137257200Y-116507400D01*
X137256478Y-116522103D01*
X137254318Y-116536664D01*
X137250741Y-116550943D01*
X137245782Y-116564803D01*
X137239488Y-116578110D01*
X137231920Y-116590736D01*
X137223152Y-116602559D01*
X137213266Y-116613466D01*
X137202359Y-116623352D01*
X137190536Y-116632120D01*
X137177910Y-116639688D01*
X137164603Y-116645982D01*
X137150743Y-116650941D01*
X137136464Y-116654518D01*
X137121903Y-116656678D01*
X137107200Y-116657400D01*
X135457200Y-116657400D01*
X135442497Y-116656678D01*
X135427936Y-116654518D01*
X135413657Y-116650941D01*
X135399797Y-116645982D01*
X135386490Y-116639688D01*
X135373864Y-116632120D01*
X135362041Y-116623352D01*
X135351134Y-116613466D01*
X135341248Y-116602559D01*
X135332480Y-116590736D01*
X135324912Y-116578110D01*
X135318618Y-116564803D01*
X135313659Y-116550943D01*
X135310082Y-116536664D01*
X135307922Y-116522103D01*
X135307200Y-116507400D01*
X135307200Y-116207400D01*
X135307922Y-116192697D01*
X135310082Y-116178136D01*
X135313659Y-116163857D01*
X135318618Y-116149997D01*
X135324912Y-116136690D01*
X135332480Y-116124064D01*
X135341248Y-116112241D01*
X135351134Y-116101334D01*
X135362041Y-116091448D01*
X135373864Y-116082680D01*
X135386490Y-116075112D01*
X135399797Y-116068818D01*
X135413657Y-116063859D01*
X135427936Y-116060282D01*
X135442497Y-116058122D01*
X135457200Y-116057400D01*
X137107200Y-116057400D01*
X137121903Y-116058122D01*
X137121903Y-116058122D01*
G37*
D12*
X136282200Y-116357400D03*
D10*
G36*
X137121903Y-117328122D02*
G01*
X137136464Y-117330282D01*
X137150743Y-117333859D01*
X137164603Y-117338818D01*
X137177910Y-117345112D01*
X137190536Y-117352680D01*
X137202359Y-117361448D01*
X137213266Y-117371334D01*
X137223152Y-117382241D01*
X137231920Y-117394064D01*
X137239488Y-117406690D01*
X137245782Y-117419997D01*
X137250741Y-117433857D01*
X137254318Y-117448136D01*
X137256478Y-117462697D01*
X137257200Y-117477400D01*
X137257200Y-117777400D01*
X137256478Y-117792103D01*
X137254318Y-117806664D01*
X137250741Y-117820943D01*
X137245782Y-117834803D01*
X137239488Y-117848110D01*
X137231920Y-117860736D01*
X137223152Y-117872559D01*
X137213266Y-117883466D01*
X137202359Y-117893352D01*
X137190536Y-117902120D01*
X137177910Y-117909688D01*
X137164603Y-117915982D01*
X137150743Y-117920941D01*
X137136464Y-117924518D01*
X137121903Y-117926678D01*
X137107200Y-117927400D01*
X135457200Y-117927400D01*
X135442497Y-117926678D01*
X135427936Y-117924518D01*
X135413657Y-117920941D01*
X135399797Y-117915982D01*
X135386490Y-117909688D01*
X135373864Y-117902120D01*
X135362041Y-117893352D01*
X135351134Y-117883466D01*
X135341248Y-117872559D01*
X135332480Y-117860736D01*
X135324912Y-117848110D01*
X135318618Y-117834803D01*
X135313659Y-117820943D01*
X135310082Y-117806664D01*
X135307922Y-117792103D01*
X135307200Y-117777400D01*
X135307200Y-117477400D01*
X135307922Y-117462697D01*
X135310082Y-117448136D01*
X135313659Y-117433857D01*
X135318618Y-117419997D01*
X135324912Y-117406690D01*
X135332480Y-117394064D01*
X135341248Y-117382241D01*
X135351134Y-117371334D01*
X135362041Y-117361448D01*
X135373864Y-117352680D01*
X135386490Y-117345112D01*
X135399797Y-117338818D01*
X135413657Y-117333859D01*
X135427936Y-117330282D01*
X135442497Y-117328122D01*
X135457200Y-117327400D01*
X137107200Y-117327400D01*
X137121903Y-117328122D01*
X137121903Y-117328122D01*
G37*
D12*
X136282200Y-117627400D03*
D10*
G36*
X132171903Y-117328122D02*
G01*
X132186464Y-117330282D01*
X132200743Y-117333859D01*
X132214603Y-117338818D01*
X132227910Y-117345112D01*
X132240536Y-117352680D01*
X132252359Y-117361448D01*
X132263266Y-117371334D01*
X132273152Y-117382241D01*
X132281920Y-117394064D01*
X132289488Y-117406690D01*
X132295782Y-117419997D01*
X132300741Y-117433857D01*
X132304318Y-117448136D01*
X132306478Y-117462697D01*
X132307200Y-117477400D01*
X132307200Y-117777400D01*
X132306478Y-117792103D01*
X132304318Y-117806664D01*
X132300741Y-117820943D01*
X132295782Y-117834803D01*
X132289488Y-117848110D01*
X132281920Y-117860736D01*
X132273152Y-117872559D01*
X132263266Y-117883466D01*
X132252359Y-117893352D01*
X132240536Y-117902120D01*
X132227910Y-117909688D01*
X132214603Y-117915982D01*
X132200743Y-117920941D01*
X132186464Y-117924518D01*
X132171903Y-117926678D01*
X132157200Y-117927400D01*
X130507200Y-117927400D01*
X130492497Y-117926678D01*
X130477936Y-117924518D01*
X130463657Y-117920941D01*
X130449797Y-117915982D01*
X130436490Y-117909688D01*
X130423864Y-117902120D01*
X130412041Y-117893352D01*
X130401134Y-117883466D01*
X130391248Y-117872559D01*
X130382480Y-117860736D01*
X130374912Y-117848110D01*
X130368618Y-117834803D01*
X130363659Y-117820943D01*
X130360082Y-117806664D01*
X130357922Y-117792103D01*
X130357200Y-117777400D01*
X130357200Y-117477400D01*
X130357922Y-117462697D01*
X130360082Y-117448136D01*
X130363659Y-117433857D01*
X130368618Y-117419997D01*
X130374912Y-117406690D01*
X130382480Y-117394064D01*
X130391248Y-117382241D01*
X130401134Y-117371334D01*
X130412041Y-117361448D01*
X130423864Y-117352680D01*
X130436490Y-117345112D01*
X130449797Y-117338818D01*
X130463657Y-117333859D01*
X130477936Y-117330282D01*
X130492497Y-117328122D01*
X130507200Y-117327400D01*
X132157200Y-117327400D01*
X132171903Y-117328122D01*
X132171903Y-117328122D01*
G37*
D12*
X131332200Y-117627400D03*
D10*
G36*
X132171903Y-116058122D02*
G01*
X132186464Y-116060282D01*
X132200743Y-116063859D01*
X132214603Y-116068818D01*
X132227910Y-116075112D01*
X132240536Y-116082680D01*
X132252359Y-116091448D01*
X132263266Y-116101334D01*
X132273152Y-116112241D01*
X132281920Y-116124064D01*
X132289488Y-116136690D01*
X132295782Y-116149997D01*
X132300741Y-116163857D01*
X132304318Y-116178136D01*
X132306478Y-116192697D01*
X132307200Y-116207400D01*
X132307200Y-116507400D01*
X132306478Y-116522103D01*
X132304318Y-116536664D01*
X132300741Y-116550943D01*
X132295782Y-116564803D01*
X132289488Y-116578110D01*
X132281920Y-116590736D01*
X132273152Y-116602559D01*
X132263266Y-116613466D01*
X132252359Y-116623352D01*
X132240536Y-116632120D01*
X132227910Y-116639688D01*
X132214603Y-116645982D01*
X132200743Y-116650941D01*
X132186464Y-116654518D01*
X132171903Y-116656678D01*
X132157200Y-116657400D01*
X130507200Y-116657400D01*
X130492497Y-116656678D01*
X130477936Y-116654518D01*
X130463657Y-116650941D01*
X130449797Y-116645982D01*
X130436490Y-116639688D01*
X130423864Y-116632120D01*
X130412041Y-116623352D01*
X130401134Y-116613466D01*
X130391248Y-116602559D01*
X130382480Y-116590736D01*
X130374912Y-116578110D01*
X130368618Y-116564803D01*
X130363659Y-116550943D01*
X130360082Y-116536664D01*
X130357922Y-116522103D01*
X130357200Y-116507400D01*
X130357200Y-116207400D01*
X130357922Y-116192697D01*
X130360082Y-116178136D01*
X130363659Y-116163857D01*
X130368618Y-116149997D01*
X130374912Y-116136690D01*
X130382480Y-116124064D01*
X130391248Y-116112241D01*
X130401134Y-116101334D01*
X130412041Y-116091448D01*
X130423864Y-116082680D01*
X130436490Y-116075112D01*
X130449797Y-116068818D01*
X130463657Y-116063859D01*
X130477936Y-116060282D01*
X130492497Y-116058122D01*
X130507200Y-116057400D01*
X132157200Y-116057400D01*
X132171903Y-116058122D01*
X132171903Y-116058122D01*
G37*
D12*
X131332200Y-116357400D03*
D10*
G36*
X132171903Y-114788122D02*
G01*
X132186464Y-114790282D01*
X132200743Y-114793859D01*
X132214603Y-114798818D01*
X132227910Y-114805112D01*
X132240536Y-114812680D01*
X132252359Y-114821448D01*
X132263266Y-114831334D01*
X132273152Y-114842241D01*
X132281920Y-114854064D01*
X132289488Y-114866690D01*
X132295782Y-114879997D01*
X132300741Y-114893857D01*
X132304318Y-114908136D01*
X132306478Y-114922697D01*
X132307200Y-114937400D01*
X132307200Y-115237400D01*
X132306478Y-115252103D01*
X132304318Y-115266664D01*
X132300741Y-115280943D01*
X132295782Y-115294803D01*
X132289488Y-115308110D01*
X132281920Y-115320736D01*
X132273152Y-115332559D01*
X132263266Y-115343466D01*
X132252359Y-115353352D01*
X132240536Y-115362120D01*
X132227910Y-115369688D01*
X132214603Y-115375982D01*
X132200743Y-115380941D01*
X132186464Y-115384518D01*
X132171903Y-115386678D01*
X132157200Y-115387400D01*
X130507200Y-115387400D01*
X130492497Y-115386678D01*
X130477936Y-115384518D01*
X130463657Y-115380941D01*
X130449797Y-115375982D01*
X130436490Y-115369688D01*
X130423864Y-115362120D01*
X130412041Y-115353352D01*
X130401134Y-115343466D01*
X130391248Y-115332559D01*
X130382480Y-115320736D01*
X130374912Y-115308110D01*
X130368618Y-115294803D01*
X130363659Y-115280943D01*
X130360082Y-115266664D01*
X130357922Y-115252103D01*
X130357200Y-115237400D01*
X130357200Y-114937400D01*
X130357922Y-114922697D01*
X130360082Y-114908136D01*
X130363659Y-114893857D01*
X130368618Y-114879997D01*
X130374912Y-114866690D01*
X130382480Y-114854064D01*
X130391248Y-114842241D01*
X130401134Y-114831334D01*
X130412041Y-114821448D01*
X130423864Y-114812680D01*
X130436490Y-114805112D01*
X130449797Y-114798818D01*
X130463657Y-114793859D01*
X130477936Y-114790282D01*
X130492497Y-114788122D01*
X130507200Y-114787400D01*
X132157200Y-114787400D01*
X132171903Y-114788122D01*
X132171903Y-114788122D01*
G37*
D12*
X131332200Y-115087400D03*
D10*
G36*
X132171903Y-113518122D02*
G01*
X132186464Y-113520282D01*
X132200743Y-113523859D01*
X132214603Y-113528818D01*
X132227910Y-113535112D01*
X132240536Y-113542680D01*
X132252359Y-113551448D01*
X132263266Y-113561334D01*
X132273152Y-113572241D01*
X132281920Y-113584064D01*
X132289488Y-113596690D01*
X132295782Y-113609997D01*
X132300741Y-113623857D01*
X132304318Y-113638136D01*
X132306478Y-113652697D01*
X132307200Y-113667400D01*
X132307200Y-113967400D01*
X132306478Y-113982103D01*
X132304318Y-113996664D01*
X132300741Y-114010943D01*
X132295782Y-114024803D01*
X132289488Y-114038110D01*
X132281920Y-114050736D01*
X132273152Y-114062559D01*
X132263266Y-114073466D01*
X132252359Y-114083352D01*
X132240536Y-114092120D01*
X132227910Y-114099688D01*
X132214603Y-114105982D01*
X132200743Y-114110941D01*
X132186464Y-114114518D01*
X132171903Y-114116678D01*
X132157200Y-114117400D01*
X130507200Y-114117400D01*
X130492497Y-114116678D01*
X130477936Y-114114518D01*
X130463657Y-114110941D01*
X130449797Y-114105982D01*
X130436490Y-114099688D01*
X130423864Y-114092120D01*
X130412041Y-114083352D01*
X130401134Y-114073466D01*
X130391248Y-114062559D01*
X130382480Y-114050736D01*
X130374912Y-114038110D01*
X130368618Y-114024803D01*
X130363659Y-114010943D01*
X130360082Y-113996664D01*
X130357922Y-113982103D01*
X130357200Y-113967400D01*
X130357200Y-113667400D01*
X130357922Y-113652697D01*
X130360082Y-113638136D01*
X130363659Y-113623857D01*
X130368618Y-113609997D01*
X130374912Y-113596690D01*
X130382480Y-113584064D01*
X130391248Y-113572241D01*
X130401134Y-113561334D01*
X130412041Y-113551448D01*
X130423864Y-113542680D01*
X130436490Y-113535112D01*
X130449797Y-113528818D01*
X130463657Y-113523859D01*
X130477936Y-113520282D01*
X130492497Y-113518122D01*
X130507200Y-113517400D01*
X132157200Y-113517400D01*
X132171903Y-113518122D01*
X132171903Y-113518122D01*
G37*
D12*
X131332200Y-113817400D03*
D10*
G36*
X132171903Y-112248122D02*
G01*
X132186464Y-112250282D01*
X132200743Y-112253859D01*
X132214603Y-112258818D01*
X132227910Y-112265112D01*
X132240536Y-112272680D01*
X132252359Y-112281448D01*
X132263266Y-112291334D01*
X132273152Y-112302241D01*
X132281920Y-112314064D01*
X132289488Y-112326690D01*
X132295782Y-112339997D01*
X132300741Y-112353857D01*
X132304318Y-112368136D01*
X132306478Y-112382697D01*
X132307200Y-112397400D01*
X132307200Y-112697400D01*
X132306478Y-112712103D01*
X132304318Y-112726664D01*
X132300741Y-112740943D01*
X132295782Y-112754803D01*
X132289488Y-112768110D01*
X132281920Y-112780736D01*
X132273152Y-112792559D01*
X132263266Y-112803466D01*
X132252359Y-112813352D01*
X132240536Y-112822120D01*
X132227910Y-112829688D01*
X132214603Y-112835982D01*
X132200743Y-112840941D01*
X132186464Y-112844518D01*
X132171903Y-112846678D01*
X132157200Y-112847400D01*
X130507200Y-112847400D01*
X130492497Y-112846678D01*
X130477936Y-112844518D01*
X130463657Y-112840941D01*
X130449797Y-112835982D01*
X130436490Y-112829688D01*
X130423864Y-112822120D01*
X130412041Y-112813352D01*
X130401134Y-112803466D01*
X130391248Y-112792559D01*
X130382480Y-112780736D01*
X130374912Y-112768110D01*
X130368618Y-112754803D01*
X130363659Y-112740943D01*
X130360082Y-112726664D01*
X130357922Y-112712103D01*
X130357200Y-112697400D01*
X130357200Y-112397400D01*
X130357922Y-112382697D01*
X130360082Y-112368136D01*
X130363659Y-112353857D01*
X130368618Y-112339997D01*
X130374912Y-112326690D01*
X130382480Y-112314064D01*
X130391248Y-112302241D01*
X130401134Y-112291334D01*
X130412041Y-112281448D01*
X130423864Y-112272680D01*
X130436490Y-112265112D01*
X130449797Y-112258818D01*
X130463657Y-112253859D01*
X130477936Y-112250282D01*
X130492497Y-112248122D01*
X130507200Y-112247400D01*
X132157200Y-112247400D01*
X132171903Y-112248122D01*
X132171903Y-112248122D01*
G37*
D12*
X131332200Y-112547400D03*
D10*
G36*
X132171903Y-110978122D02*
G01*
X132186464Y-110980282D01*
X132200743Y-110983859D01*
X132214603Y-110988818D01*
X132227910Y-110995112D01*
X132240536Y-111002680D01*
X132252359Y-111011448D01*
X132263266Y-111021334D01*
X132273152Y-111032241D01*
X132281920Y-111044064D01*
X132289488Y-111056690D01*
X132295782Y-111069997D01*
X132300741Y-111083857D01*
X132304318Y-111098136D01*
X132306478Y-111112697D01*
X132307200Y-111127400D01*
X132307200Y-111427400D01*
X132306478Y-111442103D01*
X132304318Y-111456664D01*
X132300741Y-111470943D01*
X132295782Y-111484803D01*
X132289488Y-111498110D01*
X132281920Y-111510736D01*
X132273152Y-111522559D01*
X132263266Y-111533466D01*
X132252359Y-111543352D01*
X132240536Y-111552120D01*
X132227910Y-111559688D01*
X132214603Y-111565982D01*
X132200743Y-111570941D01*
X132186464Y-111574518D01*
X132171903Y-111576678D01*
X132157200Y-111577400D01*
X130507200Y-111577400D01*
X130492497Y-111576678D01*
X130477936Y-111574518D01*
X130463657Y-111570941D01*
X130449797Y-111565982D01*
X130436490Y-111559688D01*
X130423864Y-111552120D01*
X130412041Y-111543352D01*
X130401134Y-111533466D01*
X130391248Y-111522559D01*
X130382480Y-111510736D01*
X130374912Y-111498110D01*
X130368618Y-111484803D01*
X130363659Y-111470943D01*
X130360082Y-111456664D01*
X130357922Y-111442103D01*
X130357200Y-111427400D01*
X130357200Y-111127400D01*
X130357922Y-111112697D01*
X130360082Y-111098136D01*
X130363659Y-111083857D01*
X130368618Y-111069997D01*
X130374912Y-111056690D01*
X130382480Y-111044064D01*
X130391248Y-111032241D01*
X130401134Y-111021334D01*
X130412041Y-111011448D01*
X130423864Y-111002680D01*
X130436490Y-110995112D01*
X130449797Y-110988818D01*
X130463657Y-110983859D01*
X130477936Y-110980282D01*
X130492497Y-110978122D01*
X130507200Y-110977400D01*
X132157200Y-110977400D01*
X132171903Y-110978122D01*
X132171903Y-110978122D01*
G37*
D12*
X131332200Y-111277400D03*
D10*
G36*
X132171903Y-109708122D02*
G01*
X132186464Y-109710282D01*
X132200743Y-109713859D01*
X132214603Y-109718818D01*
X132227910Y-109725112D01*
X132240536Y-109732680D01*
X132252359Y-109741448D01*
X132263266Y-109751334D01*
X132273152Y-109762241D01*
X132281920Y-109774064D01*
X132289488Y-109786690D01*
X132295782Y-109799997D01*
X132300741Y-109813857D01*
X132304318Y-109828136D01*
X132306478Y-109842697D01*
X132307200Y-109857400D01*
X132307200Y-110157400D01*
X132306478Y-110172103D01*
X132304318Y-110186664D01*
X132300741Y-110200943D01*
X132295782Y-110214803D01*
X132289488Y-110228110D01*
X132281920Y-110240736D01*
X132273152Y-110252559D01*
X132263266Y-110263466D01*
X132252359Y-110273352D01*
X132240536Y-110282120D01*
X132227910Y-110289688D01*
X132214603Y-110295982D01*
X132200743Y-110300941D01*
X132186464Y-110304518D01*
X132171903Y-110306678D01*
X132157200Y-110307400D01*
X130507200Y-110307400D01*
X130492497Y-110306678D01*
X130477936Y-110304518D01*
X130463657Y-110300941D01*
X130449797Y-110295982D01*
X130436490Y-110289688D01*
X130423864Y-110282120D01*
X130412041Y-110273352D01*
X130401134Y-110263466D01*
X130391248Y-110252559D01*
X130382480Y-110240736D01*
X130374912Y-110228110D01*
X130368618Y-110214803D01*
X130363659Y-110200943D01*
X130360082Y-110186664D01*
X130357922Y-110172103D01*
X130357200Y-110157400D01*
X130357200Y-109857400D01*
X130357922Y-109842697D01*
X130360082Y-109828136D01*
X130363659Y-109813857D01*
X130368618Y-109799997D01*
X130374912Y-109786690D01*
X130382480Y-109774064D01*
X130391248Y-109762241D01*
X130401134Y-109751334D01*
X130412041Y-109741448D01*
X130423864Y-109732680D01*
X130436490Y-109725112D01*
X130449797Y-109718818D01*
X130463657Y-109713859D01*
X130477936Y-109710282D01*
X130492497Y-109708122D01*
X130507200Y-109707400D01*
X132157200Y-109707400D01*
X132171903Y-109708122D01*
X132171903Y-109708122D01*
G37*
D12*
X131332200Y-110007400D03*
D10*
G36*
X188314703Y-102795722D02*
G01*
X188329264Y-102797882D01*
X188343543Y-102801459D01*
X188357403Y-102806418D01*
X188370710Y-102812712D01*
X188383336Y-102820280D01*
X188395159Y-102829048D01*
X188406066Y-102838934D01*
X188415952Y-102849841D01*
X188424720Y-102861664D01*
X188432288Y-102874290D01*
X188438582Y-102887597D01*
X188443541Y-102901457D01*
X188447118Y-102915736D01*
X188449278Y-102930297D01*
X188450000Y-102945000D01*
X188450000Y-103245000D01*
X188449278Y-103259703D01*
X188447118Y-103274264D01*
X188443541Y-103288543D01*
X188438582Y-103302403D01*
X188432288Y-103315710D01*
X188424720Y-103328336D01*
X188415952Y-103340159D01*
X188406066Y-103351066D01*
X188395159Y-103360952D01*
X188383336Y-103369720D01*
X188370710Y-103377288D01*
X188357403Y-103383582D01*
X188343543Y-103388541D01*
X188329264Y-103392118D01*
X188314703Y-103394278D01*
X188300000Y-103395000D01*
X186650000Y-103395000D01*
X186635297Y-103394278D01*
X186620736Y-103392118D01*
X186606457Y-103388541D01*
X186592597Y-103383582D01*
X186579290Y-103377288D01*
X186566664Y-103369720D01*
X186554841Y-103360952D01*
X186543934Y-103351066D01*
X186534048Y-103340159D01*
X186525280Y-103328336D01*
X186517712Y-103315710D01*
X186511418Y-103302403D01*
X186506459Y-103288543D01*
X186502882Y-103274264D01*
X186500722Y-103259703D01*
X186500000Y-103245000D01*
X186500000Y-102945000D01*
X186500722Y-102930297D01*
X186502882Y-102915736D01*
X186506459Y-102901457D01*
X186511418Y-102887597D01*
X186517712Y-102874290D01*
X186525280Y-102861664D01*
X186534048Y-102849841D01*
X186543934Y-102838934D01*
X186554841Y-102829048D01*
X186566664Y-102820280D01*
X186579290Y-102812712D01*
X186592597Y-102806418D01*
X186606457Y-102801459D01*
X186620736Y-102797882D01*
X186635297Y-102795722D01*
X186650000Y-102795000D01*
X188300000Y-102795000D01*
X188314703Y-102795722D01*
X188314703Y-102795722D01*
G37*
D12*
X187475000Y-103095000D03*
D10*
G36*
X188314703Y-104065722D02*
G01*
X188329264Y-104067882D01*
X188343543Y-104071459D01*
X188357403Y-104076418D01*
X188370710Y-104082712D01*
X188383336Y-104090280D01*
X188395159Y-104099048D01*
X188406066Y-104108934D01*
X188415952Y-104119841D01*
X188424720Y-104131664D01*
X188432288Y-104144290D01*
X188438582Y-104157597D01*
X188443541Y-104171457D01*
X188447118Y-104185736D01*
X188449278Y-104200297D01*
X188450000Y-104215000D01*
X188450000Y-104515000D01*
X188449278Y-104529703D01*
X188447118Y-104544264D01*
X188443541Y-104558543D01*
X188438582Y-104572403D01*
X188432288Y-104585710D01*
X188424720Y-104598336D01*
X188415952Y-104610159D01*
X188406066Y-104621066D01*
X188395159Y-104630952D01*
X188383336Y-104639720D01*
X188370710Y-104647288D01*
X188357403Y-104653582D01*
X188343543Y-104658541D01*
X188329264Y-104662118D01*
X188314703Y-104664278D01*
X188300000Y-104665000D01*
X186650000Y-104665000D01*
X186635297Y-104664278D01*
X186620736Y-104662118D01*
X186606457Y-104658541D01*
X186592597Y-104653582D01*
X186579290Y-104647288D01*
X186566664Y-104639720D01*
X186554841Y-104630952D01*
X186543934Y-104621066D01*
X186534048Y-104610159D01*
X186525280Y-104598336D01*
X186517712Y-104585710D01*
X186511418Y-104572403D01*
X186506459Y-104558543D01*
X186502882Y-104544264D01*
X186500722Y-104529703D01*
X186500000Y-104515000D01*
X186500000Y-104215000D01*
X186500722Y-104200297D01*
X186502882Y-104185736D01*
X186506459Y-104171457D01*
X186511418Y-104157597D01*
X186517712Y-104144290D01*
X186525280Y-104131664D01*
X186534048Y-104119841D01*
X186543934Y-104108934D01*
X186554841Y-104099048D01*
X186566664Y-104090280D01*
X186579290Y-104082712D01*
X186592597Y-104076418D01*
X186606457Y-104071459D01*
X186620736Y-104067882D01*
X186635297Y-104065722D01*
X186650000Y-104065000D01*
X188300000Y-104065000D01*
X188314703Y-104065722D01*
X188314703Y-104065722D01*
G37*
D12*
X187475000Y-104365000D03*
D10*
G36*
X188314703Y-105335722D02*
G01*
X188329264Y-105337882D01*
X188343543Y-105341459D01*
X188357403Y-105346418D01*
X188370710Y-105352712D01*
X188383336Y-105360280D01*
X188395159Y-105369048D01*
X188406066Y-105378934D01*
X188415952Y-105389841D01*
X188424720Y-105401664D01*
X188432288Y-105414290D01*
X188438582Y-105427597D01*
X188443541Y-105441457D01*
X188447118Y-105455736D01*
X188449278Y-105470297D01*
X188450000Y-105485000D01*
X188450000Y-105785000D01*
X188449278Y-105799703D01*
X188447118Y-105814264D01*
X188443541Y-105828543D01*
X188438582Y-105842403D01*
X188432288Y-105855710D01*
X188424720Y-105868336D01*
X188415952Y-105880159D01*
X188406066Y-105891066D01*
X188395159Y-105900952D01*
X188383336Y-105909720D01*
X188370710Y-105917288D01*
X188357403Y-105923582D01*
X188343543Y-105928541D01*
X188329264Y-105932118D01*
X188314703Y-105934278D01*
X188300000Y-105935000D01*
X186650000Y-105935000D01*
X186635297Y-105934278D01*
X186620736Y-105932118D01*
X186606457Y-105928541D01*
X186592597Y-105923582D01*
X186579290Y-105917288D01*
X186566664Y-105909720D01*
X186554841Y-105900952D01*
X186543934Y-105891066D01*
X186534048Y-105880159D01*
X186525280Y-105868336D01*
X186517712Y-105855710D01*
X186511418Y-105842403D01*
X186506459Y-105828543D01*
X186502882Y-105814264D01*
X186500722Y-105799703D01*
X186500000Y-105785000D01*
X186500000Y-105485000D01*
X186500722Y-105470297D01*
X186502882Y-105455736D01*
X186506459Y-105441457D01*
X186511418Y-105427597D01*
X186517712Y-105414290D01*
X186525280Y-105401664D01*
X186534048Y-105389841D01*
X186543934Y-105378934D01*
X186554841Y-105369048D01*
X186566664Y-105360280D01*
X186579290Y-105352712D01*
X186592597Y-105346418D01*
X186606457Y-105341459D01*
X186620736Y-105337882D01*
X186635297Y-105335722D01*
X186650000Y-105335000D01*
X188300000Y-105335000D01*
X188314703Y-105335722D01*
X188314703Y-105335722D01*
G37*
D12*
X187475000Y-105635000D03*
D10*
G36*
X188314703Y-106605722D02*
G01*
X188329264Y-106607882D01*
X188343543Y-106611459D01*
X188357403Y-106616418D01*
X188370710Y-106622712D01*
X188383336Y-106630280D01*
X188395159Y-106639048D01*
X188406066Y-106648934D01*
X188415952Y-106659841D01*
X188424720Y-106671664D01*
X188432288Y-106684290D01*
X188438582Y-106697597D01*
X188443541Y-106711457D01*
X188447118Y-106725736D01*
X188449278Y-106740297D01*
X188450000Y-106755000D01*
X188450000Y-107055000D01*
X188449278Y-107069703D01*
X188447118Y-107084264D01*
X188443541Y-107098543D01*
X188438582Y-107112403D01*
X188432288Y-107125710D01*
X188424720Y-107138336D01*
X188415952Y-107150159D01*
X188406066Y-107161066D01*
X188395159Y-107170952D01*
X188383336Y-107179720D01*
X188370710Y-107187288D01*
X188357403Y-107193582D01*
X188343543Y-107198541D01*
X188329264Y-107202118D01*
X188314703Y-107204278D01*
X188300000Y-107205000D01*
X186650000Y-107205000D01*
X186635297Y-107204278D01*
X186620736Y-107202118D01*
X186606457Y-107198541D01*
X186592597Y-107193582D01*
X186579290Y-107187288D01*
X186566664Y-107179720D01*
X186554841Y-107170952D01*
X186543934Y-107161066D01*
X186534048Y-107150159D01*
X186525280Y-107138336D01*
X186517712Y-107125710D01*
X186511418Y-107112403D01*
X186506459Y-107098543D01*
X186502882Y-107084264D01*
X186500722Y-107069703D01*
X186500000Y-107055000D01*
X186500000Y-106755000D01*
X186500722Y-106740297D01*
X186502882Y-106725736D01*
X186506459Y-106711457D01*
X186511418Y-106697597D01*
X186517712Y-106684290D01*
X186525280Y-106671664D01*
X186534048Y-106659841D01*
X186543934Y-106648934D01*
X186554841Y-106639048D01*
X186566664Y-106630280D01*
X186579290Y-106622712D01*
X186592597Y-106616418D01*
X186606457Y-106611459D01*
X186620736Y-106607882D01*
X186635297Y-106605722D01*
X186650000Y-106605000D01*
X188300000Y-106605000D01*
X188314703Y-106605722D01*
X188314703Y-106605722D01*
G37*
D12*
X187475000Y-106905000D03*
D10*
G36*
X183364703Y-106605722D02*
G01*
X183379264Y-106607882D01*
X183393543Y-106611459D01*
X183407403Y-106616418D01*
X183420710Y-106622712D01*
X183433336Y-106630280D01*
X183445159Y-106639048D01*
X183456066Y-106648934D01*
X183465952Y-106659841D01*
X183474720Y-106671664D01*
X183482288Y-106684290D01*
X183488582Y-106697597D01*
X183493541Y-106711457D01*
X183497118Y-106725736D01*
X183499278Y-106740297D01*
X183500000Y-106755000D01*
X183500000Y-107055000D01*
X183499278Y-107069703D01*
X183497118Y-107084264D01*
X183493541Y-107098543D01*
X183488582Y-107112403D01*
X183482288Y-107125710D01*
X183474720Y-107138336D01*
X183465952Y-107150159D01*
X183456066Y-107161066D01*
X183445159Y-107170952D01*
X183433336Y-107179720D01*
X183420710Y-107187288D01*
X183407403Y-107193582D01*
X183393543Y-107198541D01*
X183379264Y-107202118D01*
X183364703Y-107204278D01*
X183350000Y-107205000D01*
X181700000Y-107205000D01*
X181685297Y-107204278D01*
X181670736Y-107202118D01*
X181656457Y-107198541D01*
X181642597Y-107193582D01*
X181629290Y-107187288D01*
X181616664Y-107179720D01*
X181604841Y-107170952D01*
X181593934Y-107161066D01*
X181584048Y-107150159D01*
X181575280Y-107138336D01*
X181567712Y-107125710D01*
X181561418Y-107112403D01*
X181556459Y-107098543D01*
X181552882Y-107084264D01*
X181550722Y-107069703D01*
X181550000Y-107055000D01*
X181550000Y-106755000D01*
X181550722Y-106740297D01*
X181552882Y-106725736D01*
X181556459Y-106711457D01*
X181561418Y-106697597D01*
X181567712Y-106684290D01*
X181575280Y-106671664D01*
X181584048Y-106659841D01*
X181593934Y-106648934D01*
X181604841Y-106639048D01*
X181616664Y-106630280D01*
X181629290Y-106622712D01*
X181642597Y-106616418D01*
X181656457Y-106611459D01*
X181670736Y-106607882D01*
X181685297Y-106605722D01*
X181700000Y-106605000D01*
X183350000Y-106605000D01*
X183364703Y-106605722D01*
X183364703Y-106605722D01*
G37*
D12*
X182525000Y-106905000D03*
D10*
G36*
X183364703Y-105335722D02*
G01*
X183379264Y-105337882D01*
X183393543Y-105341459D01*
X183407403Y-105346418D01*
X183420710Y-105352712D01*
X183433336Y-105360280D01*
X183445159Y-105369048D01*
X183456066Y-105378934D01*
X183465952Y-105389841D01*
X183474720Y-105401664D01*
X183482288Y-105414290D01*
X183488582Y-105427597D01*
X183493541Y-105441457D01*
X183497118Y-105455736D01*
X183499278Y-105470297D01*
X183500000Y-105485000D01*
X183500000Y-105785000D01*
X183499278Y-105799703D01*
X183497118Y-105814264D01*
X183493541Y-105828543D01*
X183488582Y-105842403D01*
X183482288Y-105855710D01*
X183474720Y-105868336D01*
X183465952Y-105880159D01*
X183456066Y-105891066D01*
X183445159Y-105900952D01*
X183433336Y-105909720D01*
X183420710Y-105917288D01*
X183407403Y-105923582D01*
X183393543Y-105928541D01*
X183379264Y-105932118D01*
X183364703Y-105934278D01*
X183350000Y-105935000D01*
X181700000Y-105935000D01*
X181685297Y-105934278D01*
X181670736Y-105932118D01*
X181656457Y-105928541D01*
X181642597Y-105923582D01*
X181629290Y-105917288D01*
X181616664Y-105909720D01*
X181604841Y-105900952D01*
X181593934Y-105891066D01*
X181584048Y-105880159D01*
X181575280Y-105868336D01*
X181567712Y-105855710D01*
X181561418Y-105842403D01*
X181556459Y-105828543D01*
X181552882Y-105814264D01*
X181550722Y-105799703D01*
X181550000Y-105785000D01*
X181550000Y-105485000D01*
X181550722Y-105470297D01*
X181552882Y-105455736D01*
X181556459Y-105441457D01*
X181561418Y-105427597D01*
X181567712Y-105414290D01*
X181575280Y-105401664D01*
X181584048Y-105389841D01*
X181593934Y-105378934D01*
X181604841Y-105369048D01*
X181616664Y-105360280D01*
X181629290Y-105352712D01*
X181642597Y-105346418D01*
X181656457Y-105341459D01*
X181670736Y-105337882D01*
X181685297Y-105335722D01*
X181700000Y-105335000D01*
X183350000Y-105335000D01*
X183364703Y-105335722D01*
X183364703Y-105335722D01*
G37*
D12*
X182525000Y-105635000D03*
D10*
G36*
X183364703Y-104065722D02*
G01*
X183379264Y-104067882D01*
X183393543Y-104071459D01*
X183407403Y-104076418D01*
X183420710Y-104082712D01*
X183433336Y-104090280D01*
X183445159Y-104099048D01*
X183456066Y-104108934D01*
X183465952Y-104119841D01*
X183474720Y-104131664D01*
X183482288Y-104144290D01*
X183488582Y-104157597D01*
X183493541Y-104171457D01*
X183497118Y-104185736D01*
X183499278Y-104200297D01*
X183500000Y-104215000D01*
X183500000Y-104515000D01*
X183499278Y-104529703D01*
X183497118Y-104544264D01*
X183493541Y-104558543D01*
X183488582Y-104572403D01*
X183482288Y-104585710D01*
X183474720Y-104598336D01*
X183465952Y-104610159D01*
X183456066Y-104621066D01*
X183445159Y-104630952D01*
X183433336Y-104639720D01*
X183420710Y-104647288D01*
X183407403Y-104653582D01*
X183393543Y-104658541D01*
X183379264Y-104662118D01*
X183364703Y-104664278D01*
X183350000Y-104665000D01*
X181700000Y-104665000D01*
X181685297Y-104664278D01*
X181670736Y-104662118D01*
X181656457Y-104658541D01*
X181642597Y-104653582D01*
X181629290Y-104647288D01*
X181616664Y-104639720D01*
X181604841Y-104630952D01*
X181593934Y-104621066D01*
X181584048Y-104610159D01*
X181575280Y-104598336D01*
X181567712Y-104585710D01*
X181561418Y-104572403D01*
X181556459Y-104558543D01*
X181552882Y-104544264D01*
X181550722Y-104529703D01*
X181550000Y-104515000D01*
X181550000Y-104215000D01*
X181550722Y-104200297D01*
X181552882Y-104185736D01*
X181556459Y-104171457D01*
X181561418Y-104157597D01*
X181567712Y-104144290D01*
X181575280Y-104131664D01*
X181584048Y-104119841D01*
X181593934Y-104108934D01*
X181604841Y-104099048D01*
X181616664Y-104090280D01*
X181629290Y-104082712D01*
X181642597Y-104076418D01*
X181656457Y-104071459D01*
X181670736Y-104067882D01*
X181685297Y-104065722D01*
X181700000Y-104065000D01*
X183350000Y-104065000D01*
X183364703Y-104065722D01*
X183364703Y-104065722D01*
G37*
D12*
X182525000Y-104365000D03*
D10*
G36*
X183364703Y-102795722D02*
G01*
X183379264Y-102797882D01*
X183393543Y-102801459D01*
X183407403Y-102806418D01*
X183420710Y-102812712D01*
X183433336Y-102820280D01*
X183445159Y-102829048D01*
X183456066Y-102838934D01*
X183465952Y-102849841D01*
X183474720Y-102861664D01*
X183482288Y-102874290D01*
X183488582Y-102887597D01*
X183493541Y-102901457D01*
X183497118Y-102915736D01*
X183499278Y-102930297D01*
X183500000Y-102945000D01*
X183500000Y-103245000D01*
X183499278Y-103259703D01*
X183497118Y-103274264D01*
X183493541Y-103288543D01*
X183488582Y-103302403D01*
X183482288Y-103315710D01*
X183474720Y-103328336D01*
X183465952Y-103340159D01*
X183456066Y-103351066D01*
X183445159Y-103360952D01*
X183433336Y-103369720D01*
X183420710Y-103377288D01*
X183407403Y-103383582D01*
X183393543Y-103388541D01*
X183379264Y-103392118D01*
X183364703Y-103394278D01*
X183350000Y-103395000D01*
X181700000Y-103395000D01*
X181685297Y-103394278D01*
X181670736Y-103392118D01*
X181656457Y-103388541D01*
X181642597Y-103383582D01*
X181629290Y-103377288D01*
X181616664Y-103369720D01*
X181604841Y-103360952D01*
X181593934Y-103351066D01*
X181584048Y-103340159D01*
X181575280Y-103328336D01*
X181567712Y-103315710D01*
X181561418Y-103302403D01*
X181556459Y-103288543D01*
X181552882Y-103274264D01*
X181550722Y-103259703D01*
X181550000Y-103245000D01*
X181550000Y-102945000D01*
X181550722Y-102930297D01*
X181552882Y-102915736D01*
X181556459Y-102901457D01*
X181561418Y-102887597D01*
X181567712Y-102874290D01*
X181575280Y-102861664D01*
X181584048Y-102849841D01*
X181593934Y-102838934D01*
X181604841Y-102829048D01*
X181616664Y-102820280D01*
X181629290Y-102812712D01*
X181642597Y-102806418D01*
X181656457Y-102801459D01*
X181670736Y-102797882D01*
X181685297Y-102795722D01*
X181700000Y-102795000D01*
X183350000Y-102795000D01*
X183364703Y-102795722D01*
X183364703Y-102795722D01*
G37*
D12*
X182525000Y-103095000D03*
D13*
X149431700Y-105816400D03*
X149431700Y-105181400D03*
X149431700Y-104546400D03*
X149431700Y-103911400D03*
X149431700Y-103276400D03*
X149431700Y-102641400D03*
X149431700Y-102006400D03*
X149431700Y-101371400D03*
X154631700Y-101371400D03*
X154631700Y-102006400D03*
X154631700Y-102641400D03*
X154631700Y-103276400D03*
X154631700Y-103911400D03*
X154631700Y-104546400D03*
X154631700Y-105181400D03*
X154631700Y-105816400D03*
D10*
G36*
X140321291Y-109914453D02*
G01*
X140342526Y-109917603D01*
X140363350Y-109922819D01*
X140383562Y-109930051D01*
X140402968Y-109939230D01*
X140421381Y-109950266D01*
X140438624Y-109963054D01*
X140454530Y-109977470D01*
X140468946Y-109993376D01*
X140481734Y-110010619D01*
X140492770Y-110029032D01*
X140501949Y-110048438D01*
X140509181Y-110068650D01*
X140514397Y-110089474D01*
X140517547Y-110110709D01*
X140518600Y-110132150D01*
X140518600Y-110644650D01*
X140517547Y-110666091D01*
X140514397Y-110687326D01*
X140509181Y-110708150D01*
X140501949Y-110728362D01*
X140492770Y-110747768D01*
X140481734Y-110766181D01*
X140468946Y-110783424D01*
X140454530Y-110799330D01*
X140438624Y-110813746D01*
X140421381Y-110826534D01*
X140402968Y-110837570D01*
X140383562Y-110846749D01*
X140363350Y-110853981D01*
X140342526Y-110859197D01*
X140321291Y-110862347D01*
X140299850Y-110863400D01*
X139862350Y-110863400D01*
X139840909Y-110862347D01*
X139819674Y-110859197D01*
X139798850Y-110853981D01*
X139778638Y-110846749D01*
X139759232Y-110837570D01*
X139740819Y-110826534D01*
X139723576Y-110813746D01*
X139707670Y-110799330D01*
X139693254Y-110783424D01*
X139680466Y-110766181D01*
X139669430Y-110747768D01*
X139660251Y-110728362D01*
X139653019Y-110708150D01*
X139647803Y-110687326D01*
X139644653Y-110666091D01*
X139643600Y-110644650D01*
X139643600Y-110132150D01*
X139644653Y-110110709D01*
X139647803Y-110089474D01*
X139653019Y-110068650D01*
X139660251Y-110048438D01*
X139669430Y-110029032D01*
X139680466Y-110010619D01*
X139693254Y-109993376D01*
X139707670Y-109977470D01*
X139723576Y-109963054D01*
X139740819Y-109950266D01*
X139759232Y-109939230D01*
X139778638Y-109930051D01*
X139798850Y-109922819D01*
X139819674Y-109917603D01*
X139840909Y-109914453D01*
X139862350Y-109913400D01*
X140299850Y-109913400D01*
X140321291Y-109914453D01*
X140321291Y-109914453D01*
G37*
D14*
X140081100Y-110388400D03*
D10*
G36*
X138746291Y-109914453D02*
G01*
X138767526Y-109917603D01*
X138788350Y-109922819D01*
X138808562Y-109930051D01*
X138827968Y-109939230D01*
X138846381Y-109950266D01*
X138863624Y-109963054D01*
X138879530Y-109977470D01*
X138893946Y-109993376D01*
X138906734Y-110010619D01*
X138917770Y-110029032D01*
X138926949Y-110048438D01*
X138934181Y-110068650D01*
X138939397Y-110089474D01*
X138942547Y-110110709D01*
X138943600Y-110132150D01*
X138943600Y-110644650D01*
X138942547Y-110666091D01*
X138939397Y-110687326D01*
X138934181Y-110708150D01*
X138926949Y-110728362D01*
X138917770Y-110747768D01*
X138906734Y-110766181D01*
X138893946Y-110783424D01*
X138879530Y-110799330D01*
X138863624Y-110813746D01*
X138846381Y-110826534D01*
X138827968Y-110837570D01*
X138808562Y-110846749D01*
X138788350Y-110853981D01*
X138767526Y-110859197D01*
X138746291Y-110862347D01*
X138724850Y-110863400D01*
X138287350Y-110863400D01*
X138265909Y-110862347D01*
X138244674Y-110859197D01*
X138223850Y-110853981D01*
X138203638Y-110846749D01*
X138184232Y-110837570D01*
X138165819Y-110826534D01*
X138148576Y-110813746D01*
X138132670Y-110799330D01*
X138118254Y-110783424D01*
X138105466Y-110766181D01*
X138094430Y-110747768D01*
X138085251Y-110728362D01*
X138078019Y-110708150D01*
X138072803Y-110687326D01*
X138069653Y-110666091D01*
X138068600Y-110644650D01*
X138068600Y-110132150D01*
X138069653Y-110110709D01*
X138072803Y-110089474D01*
X138078019Y-110068650D01*
X138085251Y-110048438D01*
X138094430Y-110029032D01*
X138105466Y-110010619D01*
X138118254Y-109993376D01*
X138132670Y-109977470D01*
X138148576Y-109963054D01*
X138165819Y-109950266D01*
X138184232Y-109939230D01*
X138203638Y-109930051D01*
X138223850Y-109922819D01*
X138244674Y-109917603D01*
X138265909Y-109914453D01*
X138287350Y-109913400D01*
X138724850Y-109913400D01*
X138746291Y-109914453D01*
X138746291Y-109914453D01*
G37*
D14*
X138506100Y-110388400D03*
D10*
G36*
X187895291Y-110460553D02*
G01*
X187916526Y-110463703D01*
X187937350Y-110468919D01*
X187957562Y-110476151D01*
X187976968Y-110485330D01*
X187995381Y-110496366D01*
X188012624Y-110509154D01*
X188028530Y-110523570D01*
X188042946Y-110539476D01*
X188055734Y-110556719D01*
X188066770Y-110575132D01*
X188075949Y-110594538D01*
X188083181Y-110614750D01*
X188088397Y-110635574D01*
X188091547Y-110656809D01*
X188092600Y-110678250D01*
X188092600Y-111190750D01*
X188091547Y-111212191D01*
X188088397Y-111233426D01*
X188083181Y-111254250D01*
X188075949Y-111274462D01*
X188066770Y-111293868D01*
X188055734Y-111312281D01*
X188042946Y-111329524D01*
X188028530Y-111345430D01*
X188012624Y-111359846D01*
X187995381Y-111372634D01*
X187976968Y-111383670D01*
X187957562Y-111392849D01*
X187937350Y-111400081D01*
X187916526Y-111405297D01*
X187895291Y-111408447D01*
X187873850Y-111409500D01*
X187436350Y-111409500D01*
X187414909Y-111408447D01*
X187393674Y-111405297D01*
X187372850Y-111400081D01*
X187352638Y-111392849D01*
X187333232Y-111383670D01*
X187314819Y-111372634D01*
X187297576Y-111359846D01*
X187281670Y-111345430D01*
X187267254Y-111329524D01*
X187254466Y-111312281D01*
X187243430Y-111293868D01*
X187234251Y-111274462D01*
X187227019Y-111254250D01*
X187221803Y-111233426D01*
X187218653Y-111212191D01*
X187217600Y-111190750D01*
X187217600Y-110678250D01*
X187218653Y-110656809D01*
X187221803Y-110635574D01*
X187227019Y-110614750D01*
X187234251Y-110594538D01*
X187243430Y-110575132D01*
X187254466Y-110556719D01*
X187267254Y-110539476D01*
X187281670Y-110523570D01*
X187297576Y-110509154D01*
X187314819Y-110496366D01*
X187333232Y-110485330D01*
X187352638Y-110476151D01*
X187372850Y-110468919D01*
X187393674Y-110463703D01*
X187414909Y-110460553D01*
X187436350Y-110459500D01*
X187873850Y-110459500D01*
X187895291Y-110460553D01*
X187895291Y-110460553D01*
G37*
D14*
X187655100Y-110934500D03*
D10*
G36*
X189470291Y-110460553D02*
G01*
X189491526Y-110463703D01*
X189512350Y-110468919D01*
X189532562Y-110476151D01*
X189551968Y-110485330D01*
X189570381Y-110496366D01*
X189587624Y-110509154D01*
X189603530Y-110523570D01*
X189617946Y-110539476D01*
X189630734Y-110556719D01*
X189641770Y-110575132D01*
X189650949Y-110594538D01*
X189658181Y-110614750D01*
X189663397Y-110635574D01*
X189666547Y-110656809D01*
X189667600Y-110678250D01*
X189667600Y-111190750D01*
X189666547Y-111212191D01*
X189663397Y-111233426D01*
X189658181Y-111254250D01*
X189650949Y-111274462D01*
X189641770Y-111293868D01*
X189630734Y-111312281D01*
X189617946Y-111329524D01*
X189603530Y-111345430D01*
X189587624Y-111359846D01*
X189570381Y-111372634D01*
X189551968Y-111383670D01*
X189532562Y-111392849D01*
X189512350Y-111400081D01*
X189491526Y-111405297D01*
X189470291Y-111408447D01*
X189448850Y-111409500D01*
X189011350Y-111409500D01*
X188989909Y-111408447D01*
X188968674Y-111405297D01*
X188947850Y-111400081D01*
X188927638Y-111392849D01*
X188908232Y-111383670D01*
X188889819Y-111372634D01*
X188872576Y-111359846D01*
X188856670Y-111345430D01*
X188842254Y-111329524D01*
X188829466Y-111312281D01*
X188818430Y-111293868D01*
X188809251Y-111274462D01*
X188802019Y-111254250D01*
X188796803Y-111233426D01*
X188793653Y-111212191D01*
X188792600Y-111190750D01*
X188792600Y-110678250D01*
X188793653Y-110656809D01*
X188796803Y-110635574D01*
X188802019Y-110614750D01*
X188809251Y-110594538D01*
X188818430Y-110575132D01*
X188829466Y-110556719D01*
X188842254Y-110539476D01*
X188856670Y-110523570D01*
X188872576Y-110509154D01*
X188889819Y-110496366D01*
X188908232Y-110485330D01*
X188927638Y-110476151D01*
X188947850Y-110468919D01*
X188968674Y-110463703D01*
X188989909Y-110460553D01*
X189011350Y-110459500D01*
X189448850Y-110459500D01*
X189470291Y-110460553D01*
X189470291Y-110460553D01*
G37*
D14*
X189230100Y-110934500D03*
D10*
G36*
X191277691Y-99776053D02*
G01*
X191298926Y-99779203D01*
X191319750Y-99784419D01*
X191339962Y-99791651D01*
X191359368Y-99800830D01*
X191377781Y-99811866D01*
X191395024Y-99824654D01*
X191410930Y-99839070D01*
X191425346Y-99854976D01*
X191438134Y-99872219D01*
X191449170Y-99890632D01*
X191458349Y-99910038D01*
X191465581Y-99930250D01*
X191470797Y-99951074D01*
X191473947Y-99972309D01*
X191475000Y-99993750D01*
X191475000Y-100431250D01*
X191473947Y-100452691D01*
X191470797Y-100473926D01*
X191465581Y-100494750D01*
X191458349Y-100514962D01*
X191449170Y-100534368D01*
X191438134Y-100552781D01*
X191425346Y-100570024D01*
X191410930Y-100585930D01*
X191395024Y-100600346D01*
X191377781Y-100613134D01*
X191359368Y-100624170D01*
X191339962Y-100633349D01*
X191319750Y-100640581D01*
X191298926Y-100645797D01*
X191277691Y-100648947D01*
X191256250Y-100650000D01*
X190743750Y-100650000D01*
X190722309Y-100648947D01*
X190701074Y-100645797D01*
X190680250Y-100640581D01*
X190660038Y-100633349D01*
X190640632Y-100624170D01*
X190622219Y-100613134D01*
X190604976Y-100600346D01*
X190589070Y-100585930D01*
X190574654Y-100570024D01*
X190561866Y-100552781D01*
X190550830Y-100534368D01*
X190541651Y-100514962D01*
X190534419Y-100494750D01*
X190529203Y-100473926D01*
X190526053Y-100452691D01*
X190525000Y-100431250D01*
X190525000Y-99993750D01*
X190526053Y-99972309D01*
X190529203Y-99951074D01*
X190534419Y-99930250D01*
X190541651Y-99910038D01*
X190550830Y-99890632D01*
X190561866Y-99872219D01*
X190574654Y-99854976D01*
X190589070Y-99839070D01*
X190604976Y-99824654D01*
X190622219Y-99811866D01*
X190640632Y-99800830D01*
X190660038Y-99791651D01*
X190680250Y-99784419D01*
X190701074Y-99779203D01*
X190722309Y-99776053D01*
X190743750Y-99775000D01*
X191256250Y-99775000D01*
X191277691Y-99776053D01*
X191277691Y-99776053D01*
G37*
D14*
X191000000Y-100212500D03*
D10*
G36*
X191277691Y-101351053D02*
G01*
X191298926Y-101354203D01*
X191319750Y-101359419D01*
X191339962Y-101366651D01*
X191359368Y-101375830D01*
X191377781Y-101386866D01*
X191395024Y-101399654D01*
X191410930Y-101414070D01*
X191425346Y-101429976D01*
X191438134Y-101447219D01*
X191449170Y-101465632D01*
X191458349Y-101485038D01*
X191465581Y-101505250D01*
X191470797Y-101526074D01*
X191473947Y-101547309D01*
X191475000Y-101568750D01*
X191475000Y-102006250D01*
X191473947Y-102027691D01*
X191470797Y-102048926D01*
X191465581Y-102069750D01*
X191458349Y-102089962D01*
X191449170Y-102109368D01*
X191438134Y-102127781D01*
X191425346Y-102145024D01*
X191410930Y-102160930D01*
X191395024Y-102175346D01*
X191377781Y-102188134D01*
X191359368Y-102199170D01*
X191339962Y-102208349D01*
X191319750Y-102215581D01*
X191298926Y-102220797D01*
X191277691Y-102223947D01*
X191256250Y-102225000D01*
X190743750Y-102225000D01*
X190722309Y-102223947D01*
X190701074Y-102220797D01*
X190680250Y-102215581D01*
X190660038Y-102208349D01*
X190640632Y-102199170D01*
X190622219Y-102188134D01*
X190604976Y-102175346D01*
X190589070Y-102160930D01*
X190574654Y-102145024D01*
X190561866Y-102127781D01*
X190550830Y-102109368D01*
X190541651Y-102089962D01*
X190534419Y-102069750D01*
X190529203Y-102048926D01*
X190526053Y-102027691D01*
X190525000Y-102006250D01*
X190525000Y-101568750D01*
X190526053Y-101547309D01*
X190529203Y-101526074D01*
X190534419Y-101505250D01*
X190541651Y-101485038D01*
X190550830Y-101465632D01*
X190561866Y-101447219D01*
X190574654Y-101429976D01*
X190589070Y-101414070D01*
X190604976Y-101399654D01*
X190622219Y-101386866D01*
X190640632Y-101375830D01*
X190660038Y-101366651D01*
X190680250Y-101359419D01*
X190701074Y-101354203D01*
X190722309Y-101351053D01*
X190743750Y-101350000D01*
X191256250Y-101350000D01*
X191277691Y-101351053D01*
X191277691Y-101351053D01*
G37*
D14*
X191000000Y-101787500D03*
D10*
G36*
X186027691Y-110526053D02*
G01*
X186048926Y-110529203D01*
X186069750Y-110534419D01*
X186089962Y-110541651D01*
X186109368Y-110550830D01*
X186127781Y-110561866D01*
X186145024Y-110574654D01*
X186160930Y-110589070D01*
X186175346Y-110604976D01*
X186188134Y-110622219D01*
X186199170Y-110640632D01*
X186208349Y-110660038D01*
X186215581Y-110680250D01*
X186220797Y-110701074D01*
X186223947Y-110722309D01*
X186225000Y-110743750D01*
X186225000Y-111256250D01*
X186223947Y-111277691D01*
X186220797Y-111298926D01*
X186215581Y-111319750D01*
X186208349Y-111339962D01*
X186199170Y-111359368D01*
X186188134Y-111377781D01*
X186175346Y-111395024D01*
X186160930Y-111410930D01*
X186145024Y-111425346D01*
X186127781Y-111438134D01*
X186109368Y-111449170D01*
X186089962Y-111458349D01*
X186069750Y-111465581D01*
X186048926Y-111470797D01*
X186027691Y-111473947D01*
X186006250Y-111475000D01*
X185568750Y-111475000D01*
X185547309Y-111473947D01*
X185526074Y-111470797D01*
X185505250Y-111465581D01*
X185485038Y-111458349D01*
X185465632Y-111449170D01*
X185447219Y-111438134D01*
X185429976Y-111425346D01*
X185414070Y-111410930D01*
X185399654Y-111395024D01*
X185386866Y-111377781D01*
X185375830Y-111359368D01*
X185366651Y-111339962D01*
X185359419Y-111319750D01*
X185354203Y-111298926D01*
X185351053Y-111277691D01*
X185350000Y-111256250D01*
X185350000Y-110743750D01*
X185351053Y-110722309D01*
X185354203Y-110701074D01*
X185359419Y-110680250D01*
X185366651Y-110660038D01*
X185375830Y-110640632D01*
X185386866Y-110622219D01*
X185399654Y-110604976D01*
X185414070Y-110589070D01*
X185429976Y-110574654D01*
X185447219Y-110561866D01*
X185465632Y-110550830D01*
X185485038Y-110541651D01*
X185505250Y-110534419D01*
X185526074Y-110529203D01*
X185547309Y-110526053D01*
X185568750Y-110525000D01*
X186006250Y-110525000D01*
X186027691Y-110526053D01*
X186027691Y-110526053D01*
G37*
D14*
X185787500Y-111000000D03*
D10*
G36*
X184452691Y-110526053D02*
G01*
X184473926Y-110529203D01*
X184494750Y-110534419D01*
X184514962Y-110541651D01*
X184534368Y-110550830D01*
X184552781Y-110561866D01*
X184570024Y-110574654D01*
X184585930Y-110589070D01*
X184600346Y-110604976D01*
X184613134Y-110622219D01*
X184624170Y-110640632D01*
X184633349Y-110660038D01*
X184640581Y-110680250D01*
X184645797Y-110701074D01*
X184648947Y-110722309D01*
X184650000Y-110743750D01*
X184650000Y-111256250D01*
X184648947Y-111277691D01*
X184645797Y-111298926D01*
X184640581Y-111319750D01*
X184633349Y-111339962D01*
X184624170Y-111359368D01*
X184613134Y-111377781D01*
X184600346Y-111395024D01*
X184585930Y-111410930D01*
X184570024Y-111425346D01*
X184552781Y-111438134D01*
X184534368Y-111449170D01*
X184514962Y-111458349D01*
X184494750Y-111465581D01*
X184473926Y-111470797D01*
X184452691Y-111473947D01*
X184431250Y-111475000D01*
X183993750Y-111475000D01*
X183972309Y-111473947D01*
X183951074Y-111470797D01*
X183930250Y-111465581D01*
X183910038Y-111458349D01*
X183890632Y-111449170D01*
X183872219Y-111438134D01*
X183854976Y-111425346D01*
X183839070Y-111410930D01*
X183824654Y-111395024D01*
X183811866Y-111377781D01*
X183800830Y-111359368D01*
X183791651Y-111339962D01*
X183784419Y-111319750D01*
X183779203Y-111298926D01*
X183776053Y-111277691D01*
X183775000Y-111256250D01*
X183775000Y-110743750D01*
X183776053Y-110722309D01*
X183779203Y-110701074D01*
X183784419Y-110680250D01*
X183791651Y-110660038D01*
X183800830Y-110640632D01*
X183811866Y-110622219D01*
X183824654Y-110604976D01*
X183839070Y-110589070D01*
X183854976Y-110574654D01*
X183872219Y-110561866D01*
X183890632Y-110550830D01*
X183910038Y-110541651D01*
X183930250Y-110534419D01*
X183951074Y-110529203D01*
X183972309Y-110526053D01*
X183993750Y-110525000D01*
X184431250Y-110525000D01*
X184452691Y-110526053D01*
X184452691Y-110526053D01*
G37*
D14*
X184212500Y-111000000D03*
D10*
G36*
X132599891Y-103056453D02*
G01*
X132621126Y-103059603D01*
X132641950Y-103064819D01*
X132662162Y-103072051D01*
X132681568Y-103081230D01*
X132699981Y-103092266D01*
X132717224Y-103105054D01*
X132733130Y-103119470D01*
X132747546Y-103135376D01*
X132760334Y-103152619D01*
X132771370Y-103171032D01*
X132780549Y-103190438D01*
X132787781Y-103210650D01*
X132792997Y-103231474D01*
X132796147Y-103252709D01*
X132797200Y-103274150D01*
X132797200Y-103786650D01*
X132796147Y-103808091D01*
X132792997Y-103829326D01*
X132787781Y-103850150D01*
X132780549Y-103870362D01*
X132771370Y-103889768D01*
X132760334Y-103908181D01*
X132747546Y-103925424D01*
X132733130Y-103941330D01*
X132717224Y-103955746D01*
X132699981Y-103968534D01*
X132681568Y-103979570D01*
X132662162Y-103988749D01*
X132641950Y-103995981D01*
X132621126Y-104001197D01*
X132599891Y-104004347D01*
X132578450Y-104005400D01*
X132140950Y-104005400D01*
X132119509Y-104004347D01*
X132098274Y-104001197D01*
X132077450Y-103995981D01*
X132057238Y-103988749D01*
X132037832Y-103979570D01*
X132019419Y-103968534D01*
X132002176Y-103955746D01*
X131986270Y-103941330D01*
X131971854Y-103925424D01*
X131959066Y-103908181D01*
X131948030Y-103889768D01*
X131938851Y-103870362D01*
X131931619Y-103850150D01*
X131926403Y-103829326D01*
X131923253Y-103808091D01*
X131922200Y-103786650D01*
X131922200Y-103274150D01*
X131923253Y-103252709D01*
X131926403Y-103231474D01*
X131931619Y-103210650D01*
X131938851Y-103190438D01*
X131948030Y-103171032D01*
X131959066Y-103152619D01*
X131971854Y-103135376D01*
X131986270Y-103119470D01*
X132002176Y-103105054D01*
X132019419Y-103092266D01*
X132037832Y-103081230D01*
X132057238Y-103072051D01*
X132077450Y-103064819D01*
X132098274Y-103059603D01*
X132119509Y-103056453D01*
X132140950Y-103055400D01*
X132578450Y-103055400D01*
X132599891Y-103056453D01*
X132599891Y-103056453D01*
G37*
D14*
X132359700Y-103530400D03*
D10*
G36*
X131024891Y-103056453D02*
G01*
X131046126Y-103059603D01*
X131066950Y-103064819D01*
X131087162Y-103072051D01*
X131106568Y-103081230D01*
X131124981Y-103092266D01*
X131142224Y-103105054D01*
X131158130Y-103119470D01*
X131172546Y-103135376D01*
X131185334Y-103152619D01*
X131196370Y-103171032D01*
X131205549Y-103190438D01*
X131212781Y-103210650D01*
X131217997Y-103231474D01*
X131221147Y-103252709D01*
X131222200Y-103274150D01*
X131222200Y-103786650D01*
X131221147Y-103808091D01*
X131217997Y-103829326D01*
X131212781Y-103850150D01*
X131205549Y-103870362D01*
X131196370Y-103889768D01*
X131185334Y-103908181D01*
X131172546Y-103925424D01*
X131158130Y-103941330D01*
X131142224Y-103955746D01*
X131124981Y-103968534D01*
X131106568Y-103979570D01*
X131087162Y-103988749D01*
X131066950Y-103995981D01*
X131046126Y-104001197D01*
X131024891Y-104004347D01*
X131003450Y-104005400D01*
X130565950Y-104005400D01*
X130544509Y-104004347D01*
X130523274Y-104001197D01*
X130502450Y-103995981D01*
X130482238Y-103988749D01*
X130462832Y-103979570D01*
X130444419Y-103968534D01*
X130427176Y-103955746D01*
X130411270Y-103941330D01*
X130396854Y-103925424D01*
X130384066Y-103908181D01*
X130373030Y-103889768D01*
X130363851Y-103870362D01*
X130356619Y-103850150D01*
X130351403Y-103829326D01*
X130348253Y-103808091D01*
X130347200Y-103786650D01*
X130347200Y-103274150D01*
X130348253Y-103252709D01*
X130351403Y-103231474D01*
X130356619Y-103210650D01*
X130363851Y-103190438D01*
X130373030Y-103171032D01*
X130384066Y-103152619D01*
X130396854Y-103135376D01*
X130411270Y-103119470D01*
X130427176Y-103105054D01*
X130444419Y-103092266D01*
X130462832Y-103081230D01*
X130482238Y-103072051D01*
X130502450Y-103064819D01*
X130523274Y-103059603D01*
X130544509Y-103056453D01*
X130565950Y-103055400D01*
X131003450Y-103055400D01*
X131024891Y-103056453D01*
X131024891Y-103056453D01*
G37*
D14*
X130784700Y-103530400D03*
D10*
G36*
X191277691Y-105351053D02*
G01*
X191298926Y-105354203D01*
X191319750Y-105359419D01*
X191339962Y-105366651D01*
X191359368Y-105375830D01*
X191377781Y-105386866D01*
X191395024Y-105399654D01*
X191410930Y-105414070D01*
X191425346Y-105429976D01*
X191438134Y-105447219D01*
X191449170Y-105465632D01*
X191458349Y-105485038D01*
X191465581Y-105505250D01*
X191470797Y-105526074D01*
X191473947Y-105547309D01*
X191475000Y-105568750D01*
X191475000Y-106006250D01*
X191473947Y-106027691D01*
X191470797Y-106048926D01*
X191465581Y-106069750D01*
X191458349Y-106089962D01*
X191449170Y-106109368D01*
X191438134Y-106127781D01*
X191425346Y-106145024D01*
X191410930Y-106160930D01*
X191395024Y-106175346D01*
X191377781Y-106188134D01*
X191359368Y-106199170D01*
X191339962Y-106208349D01*
X191319750Y-106215581D01*
X191298926Y-106220797D01*
X191277691Y-106223947D01*
X191256250Y-106225000D01*
X190743750Y-106225000D01*
X190722309Y-106223947D01*
X190701074Y-106220797D01*
X190680250Y-106215581D01*
X190660038Y-106208349D01*
X190640632Y-106199170D01*
X190622219Y-106188134D01*
X190604976Y-106175346D01*
X190589070Y-106160930D01*
X190574654Y-106145024D01*
X190561866Y-106127781D01*
X190550830Y-106109368D01*
X190541651Y-106089962D01*
X190534419Y-106069750D01*
X190529203Y-106048926D01*
X190526053Y-106027691D01*
X190525000Y-106006250D01*
X190525000Y-105568750D01*
X190526053Y-105547309D01*
X190529203Y-105526074D01*
X190534419Y-105505250D01*
X190541651Y-105485038D01*
X190550830Y-105465632D01*
X190561866Y-105447219D01*
X190574654Y-105429976D01*
X190589070Y-105414070D01*
X190604976Y-105399654D01*
X190622219Y-105386866D01*
X190640632Y-105375830D01*
X190660038Y-105366651D01*
X190680250Y-105359419D01*
X190701074Y-105354203D01*
X190722309Y-105351053D01*
X190743750Y-105350000D01*
X191256250Y-105350000D01*
X191277691Y-105351053D01*
X191277691Y-105351053D01*
G37*
D14*
X191000000Y-105787500D03*
D10*
G36*
X191277691Y-103776053D02*
G01*
X191298926Y-103779203D01*
X191319750Y-103784419D01*
X191339962Y-103791651D01*
X191359368Y-103800830D01*
X191377781Y-103811866D01*
X191395024Y-103824654D01*
X191410930Y-103839070D01*
X191425346Y-103854976D01*
X191438134Y-103872219D01*
X191449170Y-103890632D01*
X191458349Y-103910038D01*
X191465581Y-103930250D01*
X191470797Y-103951074D01*
X191473947Y-103972309D01*
X191475000Y-103993750D01*
X191475000Y-104431250D01*
X191473947Y-104452691D01*
X191470797Y-104473926D01*
X191465581Y-104494750D01*
X191458349Y-104514962D01*
X191449170Y-104534368D01*
X191438134Y-104552781D01*
X191425346Y-104570024D01*
X191410930Y-104585930D01*
X191395024Y-104600346D01*
X191377781Y-104613134D01*
X191359368Y-104624170D01*
X191339962Y-104633349D01*
X191319750Y-104640581D01*
X191298926Y-104645797D01*
X191277691Y-104648947D01*
X191256250Y-104650000D01*
X190743750Y-104650000D01*
X190722309Y-104648947D01*
X190701074Y-104645797D01*
X190680250Y-104640581D01*
X190660038Y-104633349D01*
X190640632Y-104624170D01*
X190622219Y-104613134D01*
X190604976Y-104600346D01*
X190589070Y-104585930D01*
X190574654Y-104570024D01*
X190561866Y-104552781D01*
X190550830Y-104534368D01*
X190541651Y-104514962D01*
X190534419Y-104494750D01*
X190529203Y-104473926D01*
X190526053Y-104452691D01*
X190525000Y-104431250D01*
X190525000Y-103993750D01*
X190526053Y-103972309D01*
X190529203Y-103951074D01*
X190534419Y-103930250D01*
X190541651Y-103910038D01*
X190550830Y-103890632D01*
X190561866Y-103872219D01*
X190574654Y-103854976D01*
X190589070Y-103839070D01*
X190604976Y-103824654D01*
X190622219Y-103811866D01*
X190640632Y-103800830D01*
X190660038Y-103791651D01*
X190680250Y-103784419D01*
X190701074Y-103779203D01*
X190722309Y-103776053D01*
X190743750Y-103775000D01*
X191256250Y-103775000D01*
X191277691Y-103776053D01*
X191277691Y-103776053D01*
G37*
D14*
X191000000Y-104212500D03*
D10*
G36*
X128014291Y-114562153D02*
G01*
X128035526Y-114565303D01*
X128056350Y-114570519D01*
X128076562Y-114577751D01*
X128095968Y-114586930D01*
X128114381Y-114597966D01*
X128131624Y-114610754D01*
X128147530Y-114625170D01*
X128161946Y-114641076D01*
X128174734Y-114658319D01*
X128185770Y-114676732D01*
X128194949Y-114696138D01*
X128202181Y-114716350D01*
X128207397Y-114737174D01*
X128210547Y-114758409D01*
X128211600Y-114779850D01*
X128211600Y-115217350D01*
X128210547Y-115238791D01*
X128207397Y-115260026D01*
X128202181Y-115280850D01*
X128194949Y-115301062D01*
X128185770Y-115320468D01*
X128174734Y-115338881D01*
X128161946Y-115356124D01*
X128147530Y-115372030D01*
X128131624Y-115386446D01*
X128114381Y-115399234D01*
X128095968Y-115410270D01*
X128076562Y-115419449D01*
X128056350Y-115426681D01*
X128035526Y-115431897D01*
X128014291Y-115435047D01*
X127992850Y-115436100D01*
X127480350Y-115436100D01*
X127458909Y-115435047D01*
X127437674Y-115431897D01*
X127416850Y-115426681D01*
X127396638Y-115419449D01*
X127377232Y-115410270D01*
X127358819Y-115399234D01*
X127341576Y-115386446D01*
X127325670Y-115372030D01*
X127311254Y-115356124D01*
X127298466Y-115338881D01*
X127287430Y-115320468D01*
X127278251Y-115301062D01*
X127271019Y-115280850D01*
X127265803Y-115260026D01*
X127262653Y-115238791D01*
X127261600Y-115217350D01*
X127261600Y-114779850D01*
X127262653Y-114758409D01*
X127265803Y-114737174D01*
X127271019Y-114716350D01*
X127278251Y-114696138D01*
X127287430Y-114676732D01*
X127298466Y-114658319D01*
X127311254Y-114641076D01*
X127325670Y-114625170D01*
X127341576Y-114610754D01*
X127358819Y-114597966D01*
X127377232Y-114586930D01*
X127396638Y-114577751D01*
X127416850Y-114570519D01*
X127437674Y-114565303D01*
X127458909Y-114562153D01*
X127480350Y-114561100D01*
X127992850Y-114561100D01*
X128014291Y-114562153D01*
X128014291Y-114562153D01*
G37*
D14*
X127736600Y-114998600D03*
D10*
G36*
X128014291Y-112987153D02*
G01*
X128035526Y-112990303D01*
X128056350Y-112995519D01*
X128076562Y-113002751D01*
X128095968Y-113011930D01*
X128114381Y-113022966D01*
X128131624Y-113035754D01*
X128147530Y-113050170D01*
X128161946Y-113066076D01*
X128174734Y-113083319D01*
X128185770Y-113101732D01*
X128194949Y-113121138D01*
X128202181Y-113141350D01*
X128207397Y-113162174D01*
X128210547Y-113183409D01*
X128211600Y-113204850D01*
X128211600Y-113642350D01*
X128210547Y-113663791D01*
X128207397Y-113685026D01*
X128202181Y-113705850D01*
X128194949Y-113726062D01*
X128185770Y-113745468D01*
X128174734Y-113763881D01*
X128161946Y-113781124D01*
X128147530Y-113797030D01*
X128131624Y-113811446D01*
X128114381Y-113824234D01*
X128095968Y-113835270D01*
X128076562Y-113844449D01*
X128056350Y-113851681D01*
X128035526Y-113856897D01*
X128014291Y-113860047D01*
X127992850Y-113861100D01*
X127480350Y-113861100D01*
X127458909Y-113860047D01*
X127437674Y-113856897D01*
X127416850Y-113851681D01*
X127396638Y-113844449D01*
X127377232Y-113835270D01*
X127358819Y-113824234D01*
X127341576Y-113811446D01*
X127325670Y-113797030D01*
X127311254Y-113781124D01*
X127298466Y-113763881D01*
X127287430Y-113745468D01*
X127278251Y-113726062D01*
X127271019Y-113705850D01*
X127265803Y-113685026D01*
X127262653Y-113663791D01*
X127261600Y-113642350D01*
X127261600Y-113204850D01*
X127262653Y-113183409D01*
X127265803Y-113162174D01*
X127271019Y-113141350D01*
X127278251Y-113121138D01*
X127287430Y-113101732D01*
X127298466Y-113083319D01*
X127311254Y-113066076D01*
X127325670Y-113050170D01*
X127341576Y-113035754D01*
X127358819Y-113022966D01*
X127377232Y-113011930D01*
X127396638Y-113002751D01*
X127416850Y-112995519D01*
X127437674Y-112990303D01*
X127458909Y-112987153D01*
X127480350Y-112986100D01*
X127992850Y-112986100D01*
X128014291Y-112987153D01*
X128014291Y-112987153D01*
G37*
D14*
X127736600Y-113423600D03*
D10*
G36*
X149845591Y-98344253D02*
G01*
X149866826Y-98347403D01*
X149887650Y-98352619D01*
X149907862Y-98359851D01*
X149927268Y-98369030D01*
X149945681Y-98380066D01*
X149962924Y-98392854D01*
X149978830Y-98407270D01*
X149993246Y-98423176D01*
X150006034Y-98440419D01*
X150017070Y-98458832D01*
X150026249Y-98478238D01*
X150033481Y-98498450D01*
X150038697Y-98519274D01*
X150041847Y-98540509D01*
X150042900Y-98561950D01*
X150042900Y-98999450D01*
X150041847Y-99020891D01*
X150038697Y-99042126D01*
X150033481Y-99062950D01*
X150026249Y-99083162D01*
X150017070Y-99102568D01*
X150006034Y-99120981D01*
X149993246Y-99138224D01*
X149978830Y-99154130D01*
X149962924Y-99168546D01*
X149945681Y-99181334D01*
X149927268Y-99192370D01*
X149907862Y-99201549D01*
X149887650Y-99208781D01*
X149866826Y-99213997D01*
X149845591Y-99217147D01*
X149824150Y-99218200D01*
X149311650Y-99218200D01*
X149290209Y-99217147D01*
X149268974Y-99213997D01*
X149248150Y-99208781D01*
X149227938Y-99201549D01*
X149208532Y-99192370D01*
X149190119Y-99181334D01*
X149172876Y-99168546D01*
X149156970Y-99154130D01*
X149142554Y-99138224D01*
X149129766Y-99120981D01*
X149118730Y-99102568D01*
X149109551Y-99083162D01*
X149102319Y-99062950D01*
X149097103Y-99042126D01*
X149093953Y-99020891D01*
X149092900Y-98999450D01*
X149092900Y-98561950D01*
X149093953Y-98540509D01*
X149097103Y-98519274D01*
X149102319Y-98498450D01*
X149109551Y-98478238D01*
X149118730Y-98458832D01*
X149129766Y-98440419D01*
X149142554Y-98423176D01*
X149156970Y-98407270D01*
X149172876Y-98392854D01*
X149190119Y-98380066D01*
X149208532Y-98369030D01*
X149227938Y-98359851D01*
X149248150Y-98352619D01*
X149268974Y-98347403D01*
X149290209Y-98344253D01*
X149311650Y-98343200D01*
X149824150Y-98343200D01*
X149845591Y-98344253D01*
X149845591Y-98344253D01*
G37*
D14*
X149567900Y-98780700D03*
D10*
G36*
X149845591Y-96769253D02*
G01*
X149866826Y-96772403D01*
X149887650Y-96777619D01*
X149907862Y-96784851D01*
X149927268Y-96794030D01*
X149945681Y-96805066D01*
X149962924Y-96817854D01*
X149978830Y-96832270D01*
X149993246Y-96848176D01*
X150006034Y-96865419D01*
X150017070Y-96883832D01*
X150026249Y-96903238D01*
X150033481Y-96923450D01*
X150038697Y-96944274D01*
X150041847Y-96965509D01*
X150042900Y-96986950D01*
X150042900Y-97424450D01*
X150041847Y-97445891D01*
X150038697Y-97467126D01*
X150033481Y-97487950D01*
X150026249Y-97508162D01*
X150017070Y-97527568D01*
X150006034Y-97545981D01*
X149993246Y-97563224D01*
X149978830Y-97579130D01*
X149962924Y-97593546D01*
X149945681Y-97606334D01*
X149927268Y-97617370D01*
X149907862Y-97626549D01*
X149887650Y-97633781D01*
X149866826Y-97638997D01*
X149845591Y-97642147D01*
X149824150Y-97643200D01*
X149311650Y-97643200D01*
X149290209Y-97642147D01*
X149268974Y-97638997D01*
X149248150Y-97633781D01*
X149227938Y-97626549D01*
X149208532Y-97617370D01*
X149190119Y-97606334D01*
X149172876Y-97593546D01*
X149156970Y-97579130D01*
X149142554Y-97563224D01*
X149129766Y-97545981D01*
X149118730Y-97527568D01*
X149109551Y-97508162D01*
X149102319Y-97487950D01*
X149097103Y-97467126D01*
X149093953Y-97445891D01*
X149092900Y-97424450D01*
X149092900Y-96986950D01*
X149093953Y-96965509D01*
X149097103Y-96944274D01*
X149102319Y-96923450D01*
X149109551Y-96903238D01*
X149118730Y-96883832D01*
X149129766Y-96865419D01*
X149142554Y-96848176D01*
X149156970Y-96832270D01*
X149172876Y-96817854D01*
X149190119Y-96805066D01*
X149208532Y-96794030D01*
X149227938Y-96784851D01*
X149248150Y-96777619D01*
X149268974Y-96772403D01*
X149290209Y-96769253D01*
X149311650Y-96768200D01*
X149824150Y-96768200D01*
X149845591Y-96769253D01*
X149845591Y-96769253D01*
G37*
D14*
X149567900Y-97205700D03*
D10*
G36*
X154925591Y-96680353D02*
G01*
X154946826Y-96683503D01*
X154967650Y-96688719D01*
X154987862Y-96695951D01*
X155007268Y-96705130D01*
X155025681Y-96716166D01*
X155042924Y-96728954D01*
X155058830Y-96743370D01*
X155073246Y-96759276D01*
X155086034Y-96776519D01*
X155097070Y-96794932D01*
X155106249Y-96814338D01*
X155113481Y-96834550D01*
X155118697Y-96855374D01*
X155121847Y-96876609D01*
X155122900Y-96898050D01*
X155122900Y-97335550D01*
X155121847Y-97356991D01*
X155118697Y-97378226D01*
X155113481Y-97399050D01*
X155106249Y-97419262D01*
X155097070Y-97438668D01*
X155086034Y-97457081D01*
X155073246Y-97474324D01*
X155058830Y-97490230D01*
X155042924Y-97504646D01*
X155025681Y-97517434D01*
X155007268Y-97528470D01*
X154987862Y-97537649D01*
X154967650Y-97544881D01*
X154946826Y-97550097D01*
X154925591Y-97553247D01*
X154904150Y-97554300D01*
X154391650Y-97554300D01*
X154370209Y-97553247D01*
X154348974Y-97550097D01*
X154328150Y-97544881D01*
X154307938Y-97537649D01*
X154288532Y-97528470D01*
X154270119Y-97517434D01*
X154252876Y-97504646D01*
X154236970Y-97490230D01*
X154222554Y-97474324D01*
X154209766Y-97457081D01*
X154198730Y-97438668D01*
X154189551Y-97419262D01*
X154182319Y-97399050D01*
X154177103Y-97378226D01*
X154173953Y-97356991D01*
X154172900Y-97335550D01*
X154172900Y-96898050D01*
X154173953Y-96876609D01*
X154177103Y-96855374D01*
X154182319Y-96834550D01*
X154189551Y-96814338D01*
X154198730Y-96794932D01*
X154209766Y-96776519D01*
X154222554Y-96759276D01*
X154236970Y-96743370D01*
X154252876Y-96728954D01*
X154270119Y-96716166D01*
X154288532Y-96705130D01*
X154307938Y-96695951D01*
X154328150Y-96688719D01*
X154348974Y-96683503D01*
X154370209Y-96680353D01*
X154391650Y-96679300D01*
X154904150Y-96679300D01*
X154925591Y-96680353D01*
X154925591Y-96680353D01*
G37*
D14*
X154647900Y-97116800D03*
D10*
G36*
X154925591Y-98255353D02*
G01*
X154946826Y-98258503D01*
X154967650Y-98263719D01*
X154987862Y-98270951D01*
X155007268Y-98280130D01*
X155025681Y-98291166D01*
X155042924Y-98303954D01*
X155058830Y-98318370D01*
X155073246Y-98334276D01*
X155086034Y-98351519D01*
X155097070Y-98369932D01*
X155106249Y-98389338D01*
X155113481Y-98409550D01*
X155118697Y-98430374D01*
X155121847Y-98451609D01*
X155122900Y-98473050D01*
X155122900Y-98910550D01*
X155121847Y-98931991D01*
X155118697Y-98953226D01*
X155113481Y-98974050D01*
X155106249Y-98994262D01*
X155097070Y-99013668D01*
X155086034Y-99032081D01*
X155073246Y-99049324D01*
X155058830Y-99065230D01*
X155042924Y-99079646D01*
X155025681Y-99092434D01*
X155007268Y-99103470D01*
X154987862Y-99112649D01*
X154967650Y-99119881D01*
X154946826Y-99125097D01*
X154925591Y-99128247D01*
X154904150Y-99129300D01*
X154391650Y-99129300D01*
X154370209Y-99128247D01*
X154348974Y-99125097D01*
X154328150Y-99119881D01*
X154307938Y-99112649D01*
X154288532Y-99103470D01*
X154270119Y-99092434D01*
X154252876Y-99079646D01*
X154236970Y-99065230D01*
X154222554Y-99049324D01*
X154209766Y-99032081D01*
X154198730Y-99013668D01*
X154189551Y-98994262D01*
X154182319Y-98974050D01*
X154177103Y-98953226D01*
X154173953Y-98931991D01*
X154172900Y-98910550D01*
X154172900Y-98473050D01*
X154173953Y-98451609D01*
X154177103Y-98430374D01*
X154182319Y-98409550D01*
X154189551Y-98389338D01*
X154198730Y-98369932D01*
X154209766Y-98351519D01*
X154222554Y-98334276D01*
X154236970Y-98318370D01*
X154252876Y-98303954D01*
X154270119Y-98291166D01*
X154288532Y-98280130D01*
X154307938Y-98270951D01*
X154328150Y-98263719D01*
X154348974Y-98258503D01*
X154370209Y-98255353D01*
X154391650Y-98254300D01*
X154904150Y-98254300D01*
X154925591Y-98255353D01*
X154925591Y-98255353D01*
G37*
D14*
X154647900Y-98691800D03*
D15*
X189950000Y-90000000D03*
X180050000Y-90000000D03*
D16*
X155890000Y-112460000D03*
X154620000Y-115000000D03*
X153350000Y-112460000D03*
X152080000Y-115000000D03*
X150810000Y-112460000D03*
X149540000Y-115000000D03*
X148270000Y-112460000D03*
D17*
X147000000Y-115000000D03*
D18*
X123232200Y-105770400D03*
X123232200Y-103230400D03*
X123232200Y-100690400D03*
D19*
X123232200Y-98150400D03*
D20*
X157270000Y-86290000D03*
X145230000Y-86290000D03*
D21*
X150000000Y-89000000D03*
X152500000Y-89000000D03*
X152500000Y-91000000D03*
D19*
X150000000Y-91000000D03*
D22*
X174000000Y-89840000D03*
D23*
X174000000Y-100000000D03*
D10*
G36*
X179233391Y-106650053D02*
G01*
X179254626Y-106653203D01*
X179275450Y-106658419D01*
X179295662Y-106665651D01*
X179315068Y-106674830D01*
X179333481Y-106685866D01*
X179350724Y-106698654D01*
X179366630Y-106713070D01*
X179381046Y-106728976D01*
X179393834Y-106746219D01*
X179404870Y-106764632D01*
X179414049Y-106784038D01*
X179421281Y-106804250D01*
X179426497Y-106825074D01*
X179429647Y-106846309D01*
X179430700Y-106867750D01*
X179430700Y-107305250D01*
X179429647Y-107326691D01*
X179426497Y-107347926D01*
X179421281Y-107368750D01*
X179414049Y-107388962D01*
X179404870Y-107408368D01*
X179393834Y-107426781D01*
X179381046Y-107444024D01*
X179366630Y-107459930D01*
X179350724Y-107474346D01*
X179333481Y-107487134D01*
X179315068Y-107498170D01*
X179295662Y-107507349D01*
X179275450Y-107514581D01*
X179254626Y-107519797D01*
X179233391Y-107522947D01*
X179211950Y-107524000D01*
X178699450Y-107524000D01*
X178678009Y-107522947D01*
X178656774Y-107519797D01*
X178635950Y-107514581D01*
X178615738Y-107507349D01*
X178596332Y-107498170D01*
X178577919Y-107487134D01*
X178560676Y-107474346D01*
X178544770Y-107459930D01*
X178530354Y-107444024D01*
X178517566Y-107426781D01*
X178506530Y-107408368D01*
X178497351Y-107388962D01*
X178490119Y-107368750D01*
X178484903Y-107347926D01*
X178481753Y-107326691D01*
X178480700Y-107305250D01*
X178480700Y-106867750D01*
X178481753Y-106846309D01*
X178484903Y-106825074D01*
X178490119Y-106804250D01*
X178497351Y-106784038D01*
X178506530Y-106764632D01*
X178517566Y-106746219D01*
X178530354Y-106728976D01*
X178544770Y-106713070D01*
X178560676Y-106698654D01*
X178577919Y-106685866D01*
X178596332Y-106674830D01*
X178615738Y-106665651D01*
X178635950Y-106658419D01*
X178656774Y-106653203D01*
X178678009Y-106650053D01*
X178699450Y-106649000D01*
X179211950Y-106649000D01*
X179233391Y-106650053D01*
X179233391Y-106650053D01*
G37*
D14*
X178955700Y-107086500D03*
D10*
G36*
X179233391Y-105075053D02*
G01*
X179254626Y-105078203D01*
X179275450Y-105083419D01*
X179295662Y-105090651D01*
X179315068Y-105099830D01*
X179333481Y-105110866D01*
X179350724Y-105123654D01*
X179366630Y-105138070D01*
X179381046Y-105153976D01*
X179393834Y-105171219D01*
X179404870Y-105189632D01*
X179414049Y-105209038D01*
X179421281Y-105229250D01*
X179426497Y-105250074D01*
X179429647Y-105271309D01*
X179430700Y-105292750D01*
X179430700Y-105730250D01*
X179429647Y-105751691D01*
X179426497Y-105772926D01*
X179421281Y-105793750D01*
X179414049Y-105813962D01*
X179404870Y-105833368D01*
X179393834Y-105851781D01*
X179381046Y-105869024D01*
X179366630Y-105884930D01*
X179350724Y-105899346D01*
X179333481Y-105912134D01*
X179315068Y-105923170D01*
X179295662Y-105932349D01*
X179275450Y-105939581D01*
X179254626Y-105944797D01*
X179233391Y-105947947D01*
X179211950Y-105949000D01*
X178699450Y-105949000D01*
X178678009Y-105947947D01*
X178656774Y-105944797D01*
X178635950Y-105939581D01*
X178615738Y-105932349D01*
X178596332Y-105923170D01*
X178577919Y-105912134D01*
X178560676Y-105899346D01*
X178544770Y-105884930D01*
X178530354Y-105869024D01*
X178517566Y-105851781D01*
X178506530Y-105833368D01*
X178497351Y-105813962D01*
X178490119Y-105793750D01*
X178484903Y-105772926D01*
X178481753Y-105751691D01*
X178480700Y-105730250D01*
X178480700Y-105292750D01*
X178481753Y-105271309D01*
X178484903Y-105250074D01*
X178490119Y-105229250D01*
X178497351Y-105209038D01*
X178506530Y-105189632D01*
X178517566Y-105171219D01*
X178530354Y-105153976D01*
X178544770Y-105138070D01*
X178560676Y-105123654D01*
X178577919Y-105110866D01*
X178596332Y-105099830D01*
X178615738Y-105090651D01*
X178635950Y-105083419D01*
X178656774Y-105078203D01*
X178678009Y-105075053D01*
X178699450Y-105074000D01*
X179211950Y-105074000D01*
X179233391Y-105075053D01*
X179233391Y-105075053D01*
G37*
D14*
X178955700Y-105511500D03*
D10*
G36*
X143927891Y-104072453D02*
G01*
X143949126Y-104075603D01*
X143969950Y-104080819D01*
X143990162Y-104088051D01*
X144009568Y-104097230D01*
X144027981Y-104108266D01*
X144045224Y-104121054D01*
X144061130Y-104135470D01*
X144075546Y-104151376D01*
X144088334Y-104168619D01*
X144099370Y-104187032D01*
X144108549Y-104206438D01*
X144115781Y-104226650D01*
X144120997Y-104247474D01*
X144124147Y-104268709D01*
X144125200Y-104290150D01*
X144125200Y-104802650D01*
X144124147Y-104824091D01*
X144120997Y-104845326D01*
X144115781Y-104866150D01*
X144108549Y-104886362D01*
X144099370Y-104905768D01*
X144088334Y-104924181D01*
X144075546Y-104941424D01*
X144061130Y-104957330D01*
X144045224Y-104971746D01*
X144027981Y-104984534D01*
X144009568Y-104995570D01*
X143990162Y-105004749D01*
X143969950Y-105011981D01*
X143949126Y-105017197D01*
X143927891Y-105020347D01*
X143906450Y-105021400D01*
X143468950Y-105021400D01*
X143447509Y-105020347D01*
X143426274Y-105017197D01*
X143405450Y-105011981D01*
X143385238Y-105004749D01*
X143365832Y-104995570D01*
X143347419Y-104984534D01*
X143330176Y-104971746D01*
X143314270Y-104957330D01*
X143299854Y-104941424D01*
X143287066Y-104924181D01*
X143276030Y-104905768D01*
X143266851Y-104886362D01*
X143259619Y-104866150D01*
X143254403Y-104845326D01*
X143251253Y-104824091D01*
X143250200Y-104802650D01*
X143250200Y-104290150D01*
X143251253Y-104268709D01*
X143254403Y-104247474D01*
X143259619Y-104226650D01*
X143266851Y-104206438D01*
X143276030Y-104187032D01*
X143287066Y-104168619D01*
X143299854Y-104151376D01*
X143314270Y-104135470D01*
X143330176Y-104121054D01*
X143347419Y-104108266D01*
X143365832Y-104097230D01*
X143385238Y-104088051D01*
X143405450Y-104080819D01*
X143426274Y-104075603D01*
X143447509Y-104072453D01*
X143468950Y-104071400D01*
X143906450Y-104071400D01*
X143927891Y-104072453D01*
X143927891Y-104072453D01*
G37*
D14*
X143687700Y-104546400D03*
D10*
G36*
X145502891Y-104072453D02*
G01*
X145524126Y-104075603D01*
X145544950Y-104080819D01*
X145565162Y-104088051D01*
X145584568Y-104097230D01*
X145602981Y-104108266D01*
X145620224Y-104121054D01*
X145636130Y-104135470D01*
X145650546Y-104151376D01*
X145663334Y-104168619D01*
X145674370Y-104187032D01*
X145683549Y-104206438D01*
X145690781Y-104226650D01*
X145695997Y-104247474D01*
X145699147Y-104268709D01*
X145700200Y-104290150D01*
X145700200Y-104802650D01*
X145699147Y-104824091D01*
X145695997Y-104845326D01*
X145690781Y-104866150D01*
X145683549Y-104886362D01*
X145674370Y-104905768D01*
X145663334Y-104924181D01*
X145650546Y-104941424D01*
X145636130Y-104957330D01*
X145620224Y-104971746D01*
X145602981Y-104984534D01*
X145584568Y-104995570D01*
X145565162Y-105004749D01*
X145544950Y-105011981D01*
X145524126Y-105017197D01*
X145502891Y-105020347D01*
X145481450Y-105021400D01*
X145043950Y-105021400D01*
X145022509Y-105020347D01*
X145001274Y-105017197D01*
X144980450Y-105011981D01*
X144960238Y-105004749D01*
X144940832Y-104995570D01*
X144922419Y-104984534D01*
X144905176Y-104971746D01*
X144889270Y-104957330D01*
X144874854Y-104941424D01*
X144862066Y-104924181D01*
X144851030Y-104905768D01*
X144841851Y-104886362D01*
X144834619Y-104866150D01*
X144829403Y-104845326D01*
X144826253Y-104824091D01*
X144825200Y-104802650D01*
X144825200Y-104290150D01*
X144826253Y-104268709D01*
X144829403Y-104247474D01*
X144834619Y-104226650D01*
X144841851Y-104206438D01*
X144851030Y-104187032D01*
X144862066Y-104168619D01*
X144874854Y-104151376D01*
X144889270Y-104135470D01*
X144905176Y-104121054D01*
X144922419Y-104108266D01*
X144940832Y-104097230D01*
X144960238Y-104088051D01*
X144980450Y-104080819D01*
X145001274Y-104075603D01*
X145022509Y-104072453D01*
X145043950Y-104071400D01*
X145481450Y-104071400D01*
X145502891Y-104072453D01*
X145502891Y-104072453D01*
G37*
D14*
X145262700Y-104546400D03*
D10*
G36*
X145452091Y-99919553D02*
G01*
X145473326Y-99922703D01*
X145494150Y-99927919D01*
X145514362Y-99935151D01*
X145533768Y-99944330D01*
X145552181Y-99955366D01*
X145569424Y-99968154D01*
X145585330Y-99982570D01*
X145599746Y-99998476D01*
X145612534Y-100015719D01*
X145623570Y-100034132D01*
X145632749Y-100053538D01*
X145639981Y-100073750D01*
X145645197Y-100094574D01*
X145648347Y-100115809D01*
X145649400Y-100137250D01*
X145649400Y-100649750D01*
X145648347Y-100671191D01*
X145645197Y-100692426D01*
X145639981Y-100713250D01*
X145632749Y-100733462D01*
X145623570Y-100752868D01*
X145612534Y-100771281D01*
X145599746Y-100788524D01*
X145585330Y-100804430D01*
X145569424Y-100818846D01*
X145552181Y-100831634D01*
X145533768Y-100842670D01*
X145514362Y-100851849D01*
X145494150Y-100859081D01*
X145473326Y-100864297D01*
X145452091Y-100867447D01*
X145430650Y-100868500D01*
X144993150Y-100868500D01*
X144971709Y-100867447D01*
X144950474Y-100864297D01*
X144929650Y-100859081D01*
X144909438Y-100851849D01*
X144890032Y-100842670D01*
X144871619Y-100831634D01*
X144854376Y-100818846D01*
X144838470Y-100804430D01*
X144824054Y-100788524D01*
X144811266Y-100771281D01*
X144800230Y-100752868D01*
X144791051Y-100733462D01*
X144783819Y-100713250D01*
X144778603Y-100692426D01*
X144775453Y-100671191D01*
X144774400Y-100649750D01*
X144774400Y-100137250D01*
X144775453Y-100115809D01*
X144778603Y-100094574D01*
X144783819Y-100073750D01*
X144791051Y-100053538D01*
X144800230Y-100034132D01*
X144811266Y-100015719D01*
X144824054Y-99998476D01*
X144838470Y-99982570D01*
X144854376Y-99968154D01*
X144871619Y-99955366D01*
X144890032Y-99944330D01*
X144909438Y-99935151D01*
X144929650Y-99927919D01*
X144950474Y-99922703D01*
X144971709Y-99919553D01*
X144993150Y-99918500D01*
X145430650Y-99918500D01*
X145452091Y-99919553D01*
X145452091Y-99919553D01*
G37*
D14*
X145211900Y-100393500D03*
D10*
G36*
X143877091Y-99919553D02*
G01*
X143898326Y-99922703D01*
X143919150Y-99927919D01*
X143939362Y-99935151D01*
X143958768Y-99944330D01*
X143977181Y-99955366D01*
X143994424Y-99968154D01*
X144010330Y-99982570D01*
X144024746Y-99998476D01*
X144037534Y-100015719D01*
X144048570Y-100034132D01*
X144057749Y-100053538D01*
X144064981Y-100073750D01*
X144070197Y-100094574D01*
X144073347Y-100115809D01*
X144074400Y-100137250D01*
X144074400Y-100649750D01*
X144073347Y-100671191D01*
X144070197Y-100692426D01*
X144064981Y-100713250D01*
X144057749Y-100733462D01*
X144048570Y-100752868D01*
X144037534Y-100771281D01*
X144024746Y-100788524D01*
X144010330Y-100804430D01*
X143994424Y-100818846D01*
X143977181Y-100831634D01*
X143958768Y-100842670D01*
X143939362Y-100851849D01*
X143919150Y-100859081D01*
X143898326Y-100864297D01*
X143877091Y-100867447D01*
X143855650Y-100868500D01*
X143418150Y-100868500D01*
X143396709Y-100867447D01*
X143375474Y-100864297D01*
X143354650Y-100859081D01*
X143334438Y-100851849D01*
X143315032Y-100842670D01*
X143296619Y-100831634D01*
X143279376Y-100818846D01*
X143263470Y-100804430D01*
X143249054Y-100788524D01*
X143236266Y-100771281D01*
X143225230Y-100752868D01*
X143216051Y-100733462D01*
X143208819Y-100713250D01*
X143203603Y-100692426D01*
X143200453Y-100671191D01*
X143199400Y-100649750D01*
X143199400Y-100137250D01*
X143200453Y-100115809D01*
X143203603Y-100094574D01*
X143208819Y-100073750D01*
X143216051Y-100053538D01*
X143225230Y-100034132D01*
X143236266Y-100015719D01*
X143249054Y-99998476D01*
X143263470Y-99982570D01*
X143279376Y-99968154D01*
X143296619Y-99955366D01*
X143315032Y-99944330D01*
X143334438Y-99935151D01*
X143354650Y-99927919D01*
X143375474Y-99922703D01*
X143396709Y-99919553D01*
X143418150Y-99918500D01*
X143855650Y-99918500D01*
X143877091Y-99919553D01*
X143877091Y-99919553D01*
G37*
D14*
X143636900Y-100393500D03*
D10*
G36*
X147277691Y-98351053D02*
G01*
X147298926Y-98354203D01*
X147319750Y-98359419D01*
X147339962Y-98366651D01*
X147359368Y-98375830D01*
X147377781Y-98386866D01*
X147395024Y-98399654D01*
X147410930Y-98414070D01*
X147425346Y-98429976D01*
X147438134Y-98447219D01*
X147449170Y-98465632D01*
X147458349Y-98485038D01*
X147465581Y-98505250D01*
X147470797Y-98526074D01*
X147473947Y-98547309D01*
X147475000Y-98568750D01*
X147475000Y-99006250D01*
X147473947Y-99027691D01*
X147470797Y-99048926D01*
X147465581Y-99069750D01*
X147458349Y-99089962D01*
X147449170Y-99109368D01*
X147438134Y-99127781D01*
X147425346Y-99145024D01*
X147410930Y-99160930D01*
X147395024Y-99175346D01*
X147377781Y-99188134D01*
X147359368Y-99199170D01*
X147339962Y-99208349D01*
X147319750Y-99215581D01*
X147298926Y-99220797D01*
X147277691Y-99223947D01*
X147256250Y-99225000D01*
X146743750Y-99225000D01*
X146722309Y-99223947D01*
X146701074Y-99220797D01*
X146680250Y-99215581D01*
X146660038Y-99208349D01*
X146640632Y-99199170D01*
X146622219Y-99188134D01*
X146604976Y-99175346D01*
X146589070Y-99160930D01*
X146574654Y-99145024D01*
X146561866Y-99127781D01*
X146550830Y-99109368D01*
X146541651Y-99089962D01*
X146534419Y-99069750D01*
X146529203Y-99048926D01*
X146526053Y-99027691D01*
X146525000Y-99006250D01*
X146525000Y-98568750D01*
X146526053Y-98547309D01*
X146529203Y-98526074D01*
X146534419Y-98505250D01*
X146541651Y-98485038D01*
X146550830Y-98465632D01*
X146561866Y-98447219D01*
X146574654Y-98429976D01*
X146589070Y-98414070D01*
X146604976Y-98399654D01*
X146622219Y-98386866D01*
X146640632Y-98375830D01*
X146660038Y-98366651D01*
X146680250Y-98359419D01*
X146701074Y-98354203D01*
X146722309Y-98351053D01*
X146743750Y-98350000D01*
X147256250Y-98350000D01*
X147277691Y-98351053D01*
X147277691Y-98351053D01*
G37*
D14*
X147000000Y-98787500D03*
D10*
G36*
X147277691Y-96776053D02*
G01*
X147298926Y-96779203D01*
X147319750Y-96784419D01*
X147339962Y-96791651D01*
X147359368Y-96800830D01*
X147377781Y-96811866D01*
X147395024Y-96824654D01*
X147410930Y-96839070D01*
X147425346Y-96854976D01*
X147438134Y-96872219D01*
X147449170Y-96890632D01*
X147458349Y-96910038D01*
X147465581Y-96930250D01*
X147470797Y-96951074D01*
X147473947Y-96972309D01*
X147475000Y-96993750D01*
X147475000Y-97431250D01*
X147473947Y-97452691D01*
X147470797Y-97473926D01*
X147465581Y-97494750D01*
X147458349Y-97514962D01*
X147449170Y-97534368D01*
X147438134Y-97552781D01*
X147425346Y-97570024D01*
X147410930Y-97585930D01*
X147395024Y-97600346D01*
X147377781Y-97613134D01*
X147359368Y-97624170D01*
X147339962Y-97633349D01*
X147319750Y-97640581D01*
X147298926Y-97645797D01*
X147277691Y-97648947D01*
X147256250Y-97650000D01*
X146743750Y-97650000D01*
X146722309Y-97648947D01*
X146701074Y-97645797D01*
X146680250Y-97640581D01*
X146660038Y-97633349D01*
X146640632Y-97624170D01*
X146622219Y-97613134D01*
X146604976Y-97600346D01*
X146589070Y-97585930D01*
X146574654Y-97570024D01*
X146561866Y-97552781D01*
X146550830Y-97534368D01*
X146541651Y-97514962D01*
X146534419Y-97494750D01*
X146529203Y-97473926D01*
X146526053Y-97452691D01*
X146525000Y-97431250D01*
X146525000Y-96993750D01*
X146526053Y-96972309D01*
X146529203Y-96951074D01*
X146534419Y-96930250D01*
X146541651Y-96910038D01*
X146550830Y-96890632D01*
X146561866Y-96872219D01*
X146574654Y-96854976D01*
X146589070Y-96839070D01*
X146604976Y-96824654D01*
X146622219Y-96811866D01*
X146640632Y-96800830D01*
X146660038Y-96791651D01*
X146680250Y-96784419D01*
X146701074Y-96779203D01*
X146722309Y-96776053D01*
X146743750Y-96775000D01*
X147256250Y-96775000D01*
X147277691Y-96776053D01*
X147277691Y-96776053D01*
G37*
D14*
X147000000Y-97212500D03*
D10*
G36*
X157402091Y-98268053D02*
G01*
X157423326Y-98271203D01*
X157444150Y-98276419D01*
X157464362Y-98283651D01*
X157483768Y-98292830D01*
X157502181Y-98303866D01*
X157519424Y-98316654D01*
X157535330Y-98331070D01*
X157549746Y-98346976D01*
X157562534Y-98364219D01*
X157573570Y-98382632D01*
X157582749Y-98402038D01*
X157589981Y-98422250D01*
X157595197Y-98443074D01*
X157598347Y-98464309D01*
X157599400Y-98485750D01*
X157599400Y-98923250D01*
X157598347Y-98944691D01*
X157595197Y-98965926D01*
X157589981Y-98986750D01*
X157582749Y-99006962D01*
X157573570Y-99026368D01*
X157562534Y-99044781D01*
X157549746Y-99062024D01*
X157535330Y-99077930D01*
X157519424Y-99092346D01*
X157502181Y-99105134D01*
X157483768Y-99116170D01*
X157464362Y-99125349D01*
X157444150Y-99132581D01*
X157423326Y-99137797D01*
X157402091Y-99140947D01*
X157380650Y-99142000D01*
X156868150Y-99142000D01*
X156846709Y-99140947D01*
X156825474Y-99137797D01*
X156804650Y-99132581D01*
X156784438Y-99125349D01*
X156765032Y-99116170D01*
X156746619Y-99105134D01*
X156729376Y-99092346D01*
X156713470Y-99077930D01*
X156699054Y-99062024D01*
X156686266Y-99044781D01*
X156675230Y-99026368D01*
X156666051Y-99006962D01*
X156658819Y-98986750D01*
X156653603Y-98965926D01*
X156650453Y-98944691D01*
X156649400Y-98923250D01*
X156649400Y-98485750D01*
X156650453Y-98464309D01*
X156653603Y-98443074D01*
X156658819Y-98422250D01*
X156666051Y-98402038D01*
X156675230Y-98382632D01*
X156686266Y-98364219D01*
X156699054Y-98346976D01*
X156713470Y-98331070D01*
X156729376Y-98316654D01*
X156746619Y-98303866D01*
X156765032Y-98292830D01*
X156784438Y-98283651D01*
X156804650Y-98276419D01*
X156825474Y-98271203D01*
X156846709Y-98268053D01*
X156868150Y-98267000D01*
X157380650Y-98267000D01*
X157402091Y-98268053D01*
X157402091Y-98268053D01*
G37*
D14*
X157124400Y-98704500D03*
D10*
G36*
X157402091Y-96693053D02*
G01*
X157423326Y-96696203D01*
X157444150Y-96701419D01*
X157464362Y-96708651D01*
X157483768Y-96717830D01*
X157502181Y-96728866D01*
X157519424Y-96741654D01*
X157535330Y-96756070D01*
X157549746Y-96771976D01*
X157562534Y-96789219D01*
X157573570Y-96807632D01*
X157582749Y-96827038D01*
X157589981Y-96847250D01*
X157595197Y-96868074D01*
X157598347Y-96889309D01*
X157599400Y-96910750D01*
X157599400Y-97348250D01*
X157598347Y-97369691D01*
X157595197Y-97390926D01*
X157589981Y-97411750D01*
X157582749Y-97431962D01*
X157573570Y-97451368D01*
X157562534Y-97469781D01*
X157549746Y-97487024D01*
X157535330Y-97502930D01*
X157519424Y-97517346D01*
X157502181Y-97530134D01*
X157483768Y-97541170D01*
X157464362Y-97550349D01*
X157444150Y-97557581D01*
X157423326Y-97562797D01*
X157402091Y-97565947D01*
X157380650Y-97567000D01*
X156868150Y-97567000D01*
X156846709Y-97565947D01*
X156825474Y-97562797D01*
X156804650Y-97557581D01*
X156784438Y-97550349D01*
X156765032Y-97541170D01*
X156746619Y-97530134D01*
X156729376Y-97517346D01*
X156713470Y-97502930D01*
X156699054Y-97487024D01*
X156686266Y-97469781D01*
X156675230Y-97451368D01*
X156666051Y-97431962D01*
X156658819Y-97411750D01*
X156653603Y-97390926D01*
X156650453Y-97369691D01*
X156649400Y-97348250D01*
X156649400Y-96910750D01*
X156650453Y-96889309D01*
X156653603Y-96868074D01*
X156658819Y-96847250D01*
X156666051Y-96827038D01*
X156675230Y-96807632D01*
X156686266Y-96789219D01*
X156699054Y-96771976D01*
X156713470Y-96756070D01*
X156729376Y-96741654D01*
X156746619Y-96728866D01*
X156765032Y-96717830D01*
X156784438Y-96708651D01*
X156804650Y-96701419D01*
X156825474Y-96696203D01*
X156846709Y-96693053D01*
X156868150Y-96692000D01*
X157380650Y-96692000D01*
X157402091Y-96693053D01*
X157402091Y-96693053D01*
G37*
D14*
X157124400Y-97129500D03*
D24*
X182219600Y-109461300D03*
X156616400Y-103289100D03*
X147345400Y-104470200D03*
X141986100Y-102311300D03*
X128320800Y-116852700D03*
X129247900Y-112268000D03*
X180000000Y-104000000D03*
X157124400Y-100431600D03*
X147000000Y-100523000D03*
X145186400Y-97510600D03*
X141909800Y-99110800D03*
X140182600Y-105117900D03*
X141833600Y-107327700D03*
X132486400Y-101320600D03*
X137947400Y-112509300D03*
X138442454Y-114102121D03*
D25*
X179137200Y-106905000D02*
X178955700Y-107086500D01*
X182525000Y-106905000D02*
X179137200Y-106905000D01*
X183750888Y-110538388D02*
X183296688Y-110538388D01*
X184212500Y-111000000D02*
X183750888Y-110538388D01*
X183296688Y-110538388D02*
X182219600Y-109461300D01*
X182525000Y-109155900D02*
X182219600Y-109461300D01*
X182525000Y-106905000D02*
X182525000Y-109155900D01*
X155481700Y-103276400D02*
X155494400Y-103289100D01*
X154631700Y-103276400D02*
X155481700Y-103276400D01*
X155494400Y-103289100D02*
X156616400Y-103289100D01*
X149431700Y-103911400D02*
X147904200Y-103911400D01*
X147904200Y-103911400D02*
X147345400Y-104470200D01*
X143687700Y-100444300D02*
X143636900Y-100393500D01*
X143687700Y-104546400D02*
X143687700Y-102311300D01*
X143687700Y-102311300D02*
X141986100Y-102311300D01*
X143687700Y-102311300D02*
X143687700Y-100444300D01*
X131332200Y-116357400D02*
X128816100Y-116357400D01*
X128816100Y-116357400D02*
X128320800Y-116852700D01*
X129095500Y-117627400D02*
X128320800Y-116852700D01*
X131332200Y-117627400D02*
X129095500Y-117627400D01*
X130961490Y-112918110D02*
X130012310Y-112918110D01*
X131332200Y-112547400D02*
X130961490Y-112918110D01*
X129362200Y-112268000D02*
X129247900Y-112268000D01*
X130012310Y-112918110D02*
X129362200Y-112268000D01*
X182525000Y-104365000D02*
X180365000Y-104365000D01*
X180365000Y-104365000D02*
X180000000Y-104000000D01*
X157124400Y-98704500D02*
X157124400Y-100431600D01*
X147000000Y-98787500D02*
X147000000Y-100523000D01*
X160863200Y-86290000D02*
X166243000Y-91669800D01*
X157270000Y-86290000D02*
X160863200Y-86290000D01*
X150181702Y-102641400D02*
X149431700Y-102641400D01*
X154631700Y-104546400D02*
X152086702Y-104546400D01*
X150452651Y-102177351D02*
X150452651Y-102912349D01*
X149431700Y-102006400D02*
X150281700Y-102006400D01*
X150452651Y-102912349D02*
X150181702Y-102641400D01*
X150281700Y-102006400D02*
X150452651Y-102177351D01*
X152086702Y-104546400D02*
X150452651Y-102912349D01*
X146824800Y-102006400D02*
X149431700Y-102006400D01*
X145211900Y-100393500D02*
X146824800Y-102006400D01*
X127736600Y-106578500D02*
X130784700Y-103530400D01*
X127736600Y-113423600D02*
X127736600Y-106578500D01*
X145211900Y-100393500D02*
X145211900Y-97408900D01*
X130784700Y-102955400D02*
X130784700Y-103530400D01*
X130784700Y-101949298D02*
X130784700Y-102955400D01*
X133623198Y-99110800D02*
X130784700Y-101949298D01*
X141909800Y-99110800D02*
X133623198Y-99110800D01*
X146532700Y-103276400D02*
X149431700Y-103276400D01*
X145262700Y-104546400D02*
X146532700Y-103276400D01*
X144801088Y-104084788D02*
X145262700Y-104546400D01*
X148900000Y-91000000D02*
X144449390Y-95450610D01*
X144449390Y-103733090D02*
X144801088Y-104084788D01*
X150000000Y-91000000D02*
X148900000Y-91000000D01*
X148824999Y-90924999D02*
X148824999Y-87115601D01*
X148900000Y-91000000D02*
X148824999Y-90924999D01*
X188900001Y-84214999D02*
X197142100Y-92457098D01*
X151725601Y-84214999D02*
X188900001Y-84214999D01*
X148824999Y-87115601D02*
X151725601Y-84214999D01*
X197142100Y-99645400D02*
X191000000Y-105787500D01*
X197142100Y-92457098D02*
X197142100Y-99645400D01*
X187627500Y-105787500D02*
X187475000Y-105635000D01*
X191000000Y-105787500D02*
X187627500Y-105787500D01*
X123232200Y-98150400D02*
X144162500Y-98150400D01*
X144162500Y-98150400D02*
X144195390Y-98183290D01*
X144195390Y-98183290D02*
X144449390Y-98183290D01*
X144449390Y-98183290D02*
X144449390Y-103733090D01*
X144449390Y-95450610D02*
X144449390Y-98183290D01*
X135207200Y-110007400D02*
X136282200Y-110007400D01*
X133700091Y-111514509D02*
X135207200Y-110007400D01*
X132079678Y-113446690D02*
X133700091Y-111826277D01*
X131702910Y-113446690D02*
X132079678Y-113446690D01*
X133700091Y-111826277D02*
X133700091Y-111514509D01*
X131332200Y-113817400D02*
X131702910Y-113446690D01*
X140446699Y-105842901D02*
X143966199Y-105842901D01*
X144801088Y-105008012D02*
X145262700Y-104546400D01*
X143966199Y-105842901D02*
X144801088Y-105008012D01*
X136282200Y-110007400D02*
X140446699Y-105842901D01*
X182401500Y-105511500D02*
X182525000Y-105635000D01*
X178955700Y-105511500D02*
X182401500Y-105511500D01*
X174160000Y-90000000D02*
X174000000Y-89840000D01*
X180050000Y-90000000D02*
X174160000Y-90000000D01*
X180050000Y-100620000D02*
X182525000Y-103095000D01*
X180050000Y-90000000D02*
X180050000Y-100620000D01*
X172650000Y-100000000D02*
X174000000Y-100000000D01*
X159114999Y-113535001D02*
X172650000Y-100000000D01*
X186601200Y-113563400D02*
X189230100Y-110934500D01*
X182714900Y-113563400D02*
X186601200Y-113563400D01*
X174165100Y-105013600D02*
X182714900Y-113563400D01*
X174000000Y-105013600D02*
X174165100Y-105013600D01*
X174000000Y-100000000D02*
X174000000Y-105013600D01*
X152829999Y-114250001D02*
X152080000Y-115000000D01*
X154959401Y-113924999D02*
X153155001Y-113924999D01*
X155349399Y-113535001D02*
X154959401Y-113924999D01*
X153155001Y-113924999D02*
X152829999Y-114250001D01*
X159114999Y-113535001D02*
X155349399Y-113535001D01*
X152440001Y-113209999D02*
X153155001Y-113924999D01*
X151559999Y-113209999D02*
X152440001Y-113209999D01*
X150810000Y-112460000D02*
X151559999Y-113209999D01*
X173519800Y-98169800D02*
X174000000Y-98650000D01*
X174000000Y-98650000D02*
X174000000Y-100000000D01*
X166243000Y-98169800D02*
X173519800Y-98169800D01*
X132407200Y-111277400D02*
X138147600Y-105537000D01*
X131332200Y-111277400D02*
X132407200Y-111277400D01*
X155481700Y-103911400D02*
X154631700Y-103911400D01*
X155556701Y-106596699D02*
X155556701Y-103986401D01*
X155556701Y-103986401D02*
X155481700Y-103911400D01*
X154825700Y-107327700D02*
X155556701Y-106596699D01*
X141833600Y-107327700D02*
X154825700Y-107327700D01*
X132486400Y-103403700D02*
X132359700Y-103530400D01*
X132486400Y-101320600D02*
X132486400Y-103403700D01*
X138595100Y-103530400D02*
X140182600Y-105117900D01*
X132359700Y-103530400D02*
X138595100Y-103530400D01*
X139763500Y-105537000D02*
X140182600Y-105117900D01*
X138147600Y-105537000D02*
X139763500Y-105537000D01*
X132079678Y-114716690D02*
X134150100Y-112646268D01*
X131702910Y-114716690D02*
X132079678Y-114716690D01*
X131332200Y-115087400D02*
X131702910Y-114716690D01*
X141309105Y-106341401D02*
X153256699Y-106341401D01*
X137582210Y-110068296D02*
X141309105Y-106341401D01*
X137303958Y-110632410D02*
X137582210Y-110354158D01*
X153781700Y-105816400D02*
X154631700Y-105816400D01*
X135280422Y-110632410D02*
X137303958Y-110632410D01*
X134150100Y-111762732D02*
X135280422Y-110632410D01*
X153256699Y-106341401D02*
X153781700Y-105816400D01*
X137582210Y-110354158D02*
X137582210Y-110068296D01*
X134150100Y-112646268D02*
X134150100Y-111762732D01*
X131294100Y-115125500D02*
X131332200Y-115087400D01*
X127825400Y-115087400D02*
X127736600Y-114998600D01*
X131332200Y-115087400D02*
X127825400Y-115087400D01*
X127274988Y-114536988D02*
X127736600Y-114998600D01*
X120142000Y-107404000D02*
X127274988Y-114536988D01*
X120142000Y-103780600D02*
X120142000Y-107404000D01*
X123232200Y-100690400D02*
X120142000Y-103780600D01*
X191000000Y-101787500D02*
X191000000Y-104212500D01*
X187627500Y-104212500D02*
X187475000Y-104365000D01*
X191000000Y-104212500D02*
X187627500Y-104212500D01*
X191800010Y-94800010D02*
X189950000Y-92950000D01*
X189950000Y-92950000D02*
X189950000Y-90000000D01*
X191800010Y-103412490D02*
X191800010Y-94800010D01*
X191000000Y-104212500D02*
X191800010Y-103412490D01*
X154647900Y-101355200D02*
X154631700Y-101371400D01*
X154647900Y-98691800D02*
X154647900Y-101355200D01*
X149567900Y-101235200D02*
X149431700Y-101371400D01*
X149567900Y-98780700D02*
X149567900Y-101235200D01*
X187589600Y-111000000D02*
X187655100Y-110934500D01*
X185787500Y-111000000D02*
X187589600Y-111000000D01*
X187475000Y-110754400D02*
X187655100Y-110934500D01*
X187475000Y-106905000D02*
X187475000Y-110754400D01*
X190357500Y-100212500D02*
X191000000Y-100212500D01*
X187475000Y-103095000D02*
X190357500Y-100212500D01*
D26*
X154647900Y-92575700D02*
X154647900Y-97116800D01*
X152500000Y-89000000D02*
X154647900Y-91147900D01*
X154647900Y-91352100D02*
X154647900Y-92575700D01*
X154647900Y-91147900D02*
X154647900Y-91352100D01*
D25*
X157111700Y-97116800D02*
X157124400Y-97129500D01*
X154647900Y-97116800D02*
X157111700Y-97116800D01*
D26*
X153863603Y-91000000D02*
X154197900Y-91334297D01*
X154197900Y-92575700D02*
X149567900Y-97205700D01*
X152500000Y-91000000D02*
X153863603Y-91000000D01*
X154197900Y-91334297D02*
X154197900Y-92575700D01*
D25*
X152500000Y-91000000D02*
X152500000Y-90739002D01*
X149561100Y-97212500D02*
X149567900Y-97205700D01*
X147000000Y-97212500D02*
X149561100Y-97212500D01*
D26*
X147579607Y-110960008D02*
X145569515Y-112970100D01*
X150864010Y-110960008D02*
X147579607Y-110960008D01*
X151860001Y-111955999D02*
X150864010Y-110960008D01*
X153350000Y-112460000D02*
X151860001Y-112460000D01*
X151860001Y-112460000D02*
X151860001Y-111955999D01*
X138609146Y-112970100D02*
X138972500Y-112970100D01*
X138132556Y-113446690D02*
X138609146Y-112970100D01*
X136282200Y-113817400D02*
X136652910Y-113446690D01*
X136652910Y-113446690D02*
X138132556Y-113446690D01*
X138972500Y-112970100D02*
X138760200Y-112970100D01*
D25*
X140081100Y-110963400D02*
X140119100Y-111001400D01*
X140081100Y-110388400D02*
X140081100Y-110963400D01*
X140119100Y-112872100D02*
X140217100Y-112970100D01*
X140119100Y-111001400D02*
X140119100Y-112872100D01*
D26*
X140217100Y-112970100D02*
X138972500Y-112970100D01*
X145569515Y-112970100D02*
X140217100Y-112970100D01*
X149540000Y-112778199D02*
X149320001Y-112558200D01*
X149320001Y-111955999D02*
X148774001Y-111409999D01*
X148774001Y-111409999D02*
X147765999Y-111409999D01*
X147219999Y-111955999D02*
X147219999Y-112023100D01*
X147765999Y-111409999D02*
X147219999Y-111955999D01*
X149320001Y-112558200D02*
X149320001Y-111955999D01*
X149540000Y-115000000D02*
X149540000Y-112778199D01*
X147219999Y-112023100D02*
X145822999Y-113420100D01*
D25*
X136652910Y-112176690D02*
X137614790Y-112176690D01*
X136282200Y-112547400D02*
X136652910Y-112176690D01*
X137614790Y-112176690D02*
X137947400Y-112509300D01*
D26*
X138442454Y-114102121D02*
X138842453Y-113702122D01*
X145822999Y-113420100D02*
X139030500Y-113420100D01*
X138842453Y-113608147D02*
X139030500Y-113420100D01*
X138842453Y-113702122D02*
X138842453Y-113608147D01*
D25*
X138506100Y-111950600D02*
X137947400Y-112509300D01*
X138506100Y-110388400D02*
X138506100Y-111950600D01*
D26*
X136692200Y-115497400D02*
X136282200Y-115087400D01*
X145232600Y-115497400D02*
X136692200Y-115497400D01*
X145949999Y-114780001D02*
X145232600Y-115497400D01*
X145949999Y-114009999D02*
X145949999Y-114780001D01*
X146780001Y-113949999D02*
X146009999Y-113949999D01*
X148270000Y-112460000D02*
X146780001Y-113949999D01*
X146009999Y-113949999D02*
X145949999Y-114009999D01*
X145418997Y-115947400D02*
X136692200Y-115947400D01*
X136692200Y-115947400D02*
X136282200Y-116357400D01*
X146366397Y-115000000D02*
X145418997Y-115947400D01*
X147000000Y-115000000D02*
X146366397Y-115000000D01*
M02*
