G04 #@! TF.GenerationSoftware,KiCad,Pcbnew,(5.1.2-1)-1*
G04 #@! TF.CreationDate,2019-09-19T03:42:36+01:00*
G04 #@! TF.ProjectId,USB,5553422e-6b69-4636-9164-5f7063625858,rev?*
G04 #@! TF.SameCoordinates,Original*
G04 #@! TF.FileFunction,Copper,L2,Bot*
G04 #@! TF.FilePolarity,Positive*
%FSLAX46Y46*%
G04 Gerber Fmt 4.6, Leading zero omitted, Abs format (unit mm)*
G04 Created by KiCad (PCBNEW (5.1.2-1)-1) date 2019-09-19 03:42:36*
%MOMM*%
%LPD*%
G04 APERTURE LIST*
%ADD10C,1.500000*%
%ADD11R,1.500000X1.500000*%
%ADD12O,1.700000X1.700000*%
%ADD13R,1.700000X1.700000*%
%ADD14C,3.500000*%
%ADD15C,1.700000*%
%ADD16O,2.200000X2.200000*%
%ADD17R,2.200000X2.200000*%
%ADD18C,0.800000*%
%ADD19C,0.250000*%
%ADD20C,0.254000*%
G04 APERTURE END LIST*
D10*
X155890000Y-112460000D03*
X154620000Y-115000000D03*
X153350000Y-112460000D03*
X152080000Y-115000000D03*
X150810000Y-112460000D03*
X149540000Y-115000000D03*
X148270000Y-112460000D03*
D11*
X147000000Y-115000000D03*
D12*
X123232200Y-105770400D03*
X123232200Y-103230400D03*
X123232200Y-100690400D03*
D13*
X123232200Y-98150400D03*
D14*
X157270000Y-86290000D03*
X145230000Y-86290000D03*
D15*
X150000000Y-89000000D03*
X152500000Y-89000000D03*
X152500000Y-91000000D03*
D13*
X150000000Y-91000000D03*
D16*
X174000000Y-89840000D03*
D17*
X174000000Y-100000000D03*
D18*
X182219600Y-109461300D03*
X156616400Y-103289100D03*
X147345400Y-104470200D03*
X141986100Y-102311300D03*
X128320800Y-116852700D03*
X129247900Y-112268000D03*
X180000000Y-104000000D03*
X157124400Y-100431600D03*
X147000000Y-100523000D03*
X145186400Y-97510600D03*
X141909800Y-99110800D03*
X140182600Y-105117900D03*
X141833600Y-107327700D03*
X132486400Y-101320600D03*
X137947400Y-112509300D03*
X138442454Y-114102121D03*
D19*
X143637000Y-99060000D02*
X145186400Y-97510600D01*
X141960600Y-99060000D02*
X143637000Y-99060000D01*
X141909800Y-99110800D02*
X141960600Y-99060000D01*
X141732000Y-107226100D02*
X141833600Y-107327700D01*
X141732000Y-107118685D02*
X141732000Y-107226100D01*
X124082199Y-102380401D02*
X131426599Y-102380401D01*
X123232200Y-103230400D02*
X124082199Y-102380401D01*
X131426599Y-102380401D02*
X132486400Y-101320600D01*
X140182600Y-105676700D02*
X140182600Y-105117900D01*
X141833600Y-107327700D02*
X140182600Y-105676700D01*
X138347399Y-112909299D02*
X138347399Y-113874499D01*
X137947400Y-112509300D02*
X138347399Y-112909299D01*
X138442454Y-113969554D02*
X138442454Y-114102121D01*
X138347399Y-113874499D02*
X138442454Y-113969554D01*
D20*
G36*
X199646612Y-78341848D02*
G01*
X199873000Y-78615503D01*
X199873000Y-125383182D01*
X199658150Y-125646613D01*
X199384497Y-125873000D01*
X117616818Y-125873000D01*
X117353387Y-125658150D01*
X117127000Y-125384497D01*
X117127000Y-121779872D01*
X118765000Y-121779872D01*
X118765000Y-122220128D01*
X118850890Y-122651925D01*
X119019369Y-123058669D01*
X119263962Y-123424729D01*
X119575271Y-123736038D01*
X119941331Y-123980631D01*
X120348075Y-124149110D01*
X120779872Y-124235000D01*
X121220128Y-124235000D01*
X121651925Y-124149110D01*
X122058669Y-123980631D01*
X122424729Y-123736038D01*
X122736038Y-123424729D01*
X122980631Y-123058669D01*
X123149110Y-122651925D01*
X123235000Y-122220128D01*
X123235000Y-121779872D01*
X123149110Y-121348075D01*
X123058728Y-121129872D01*
X143495000Y-121129872D01*
X143495000Y-121570128D01*
X143580890Y-122001925D01*
X143749369Y-122408669D01*
X143993962Y-122774729D01*
X144305271Y-123086038D01*
X144671331Y-123330631D01*
X145078075Y-123499110D01*
X145509872Y-123585000D01*
X145950128Y-123585000D01*
X146381925Y-123499110D01*
X146788669Y-123330631D01*
X147154729Y-123086038D01*
X147466038Y-122774729D01*
X147710631Y-122408669D01*
X147879110Y-122001925D01*
X147965000Y-121570128D01*
X147965000Y-121129872D01*
X154925000Y-121129872D01*
X154925000Y-121570128D01*
X155010890Y-122001925D01*
X155179369Y-122408669D01*
X155423962Y-122774729D01*
X155735271Y-123086038D01*
X156101331Y-123330631D01*
X156508075Y-123499110D01*
X156939872Y-123585000D01*
X157380128Y-123585000D01*
X157811925Y-123499110D01*
X158218669Y-123330631D01*
X158584729Y-123086038D01*
X158896038Y-122774729D01*
X159140631Y-122408669D01*
X159309110Y-122001925D01*
X159353279Y-121779872D01*
X193765000Y-121779872D01*
X193765000Y-122220128D01*
X193850890Y-122651925D01*
X194019369Y-123058669D01*
X194263962Y-123424729D01*
X194575271Y-123736038D01*
X194941331Y-123980631D01*
X195348075Y-124149110D01*
X195779872Y-124235000D01*
X196220128Y-124235000D01*
X196651925Y-124149110D01*
X197058669Y-123980631D01*
X197424729Y-123736038D01*
X197736038Y-123424729D01*
X197980631Y-123058669D01*
X198149110Y-122651925D01*
X198235000Y-122220128D01*
X198235000Y-121779872D01*
X198149110Y-121348075D01*
X197980631Y-120941331D01*
X197736038Y-120575271D01*
X197424729Y-120263962D01*
X197058669Y-120019369D01*
X196651925Y-119850890D01*
X196220128Y-119765000D01*
X195779872Y-119765000D01*
X195348075Y-119850890D01*
X194941331Y-120019369D01*
X194575271Y-120263962D01*
X194263962Y-120575271D01*
X194019369Y-120941331D01*
X193850890Y-121348075D01*
X193765000Y-121779872D01*
X159353279Y-121779872D01*
X159395000Y-121570128D01*
X159395000Y-121129872D01*
X159309110Y-120698075D01*
X159140631Y-120291331D01*
X158896038Y-119925271D01*
X158584729Y-119613962D01*
X158218669Y-119369369D01*
X157811925Y-119200890D01*
X157380128Y-119115000D01*
X156939872Y-119115000D01*
X156508075Y-119200890D01*
X156101331Y-119369369D01*
X155735271Y-119613962D01*
X155423962Y-119925271D01*
X155179369Y-120291331D01*
X155010890Y-120698075D01*
X154925000Y-121129872D01*
X147965000Y-121129872D01*
X147879110Y-120698075D01*
X147710631Y-120291331D01*
X147466038Y-119925271D01*
X147154729Y-119613962D01*
X146788669Y-119369369D01*
X146381925Y-119200890D01*
X145950128Y-119115000D01*
X145509872Y-119115000D01*
X145078075Y-119200890D01*
X144671331Y-119369369D01*
X144305271Y-119613962D01*
X143993962Y-119925271D01*
X143749369Y-120291331D01*
X143580890Y-120698075D01*
X143495000Y-121129872D01*
X123058728Y-121129872D01*
X122980631Y-120941331D01*
X122736038Y-120575271D01*
X122424729Y-120263962D01*
X122058669Y-120019369D01*
X121651925Y-119850890D01*
X121220128Y-119765000D01*
X120779872Y-119765000D01*
X120348075Y-119850890D01*
X119941331Y-120019369D01*
X119575271Y-120263962D01*
X119263962Y-120575271D01*
X119019369Y-120941331D01*
X118850890Y-121348075D01*
X118765000Y-121779872D01*
X117127000Y-121779872D01*
X117127000Y-112407361D01*
X136912400Y-112407361D01*
X136912400Y-112611239D01*
X136952174Y-112811198D01*
X137030195Y-112999556D01*
X137143463Y-113169074D01*
X137287626Y-113313237D01*
X137457144Y-113426505D01*
X137587400Y-113480459D01*
X137587400Y-113518850D01*
X137525249Y-113611865D01*
X137447228Y-113800223D01*
X137407454Y-114000182D01*
X137407454Y-114204060D01*
X137447228Y-114404019D01*
X137525249Y-114592377D01*
X137638517Y-114761895D01*
X137782680Y-114906058D01*
X137952198Y-115019326D01*
X138140556Y-115097347D01*
X138340515Y-115137121D01*
X138544393Y-115137121D01*
X138744352Y-115097347D01*
X138932710Y-115019326D01*
X139102228Y-114906058D01*
X139246391Y-114761895D01*
X139359659Y-114592377D01*
X139437680Y-114404019D01*
X139468316Y-114250000D01*
X145611928Y-114250000D01*
X145611928Y-115750000D01*
X145624188Y-115874482D01*
X145660498Y-115994180D01*
X145719463Y-116104494D01*
X145798815Y-116201185D01*
X145895506Y-116280537D01*
X146005820Y-116339502D01*
X146125518Y-116375812D01*
X146250000Y-116388072D01*
X147750000Y-116388072D01*
X147874482Y-116375812D01*
X147994180Y-116339502D01*
X148104494Y-116280537D01*
X148201185Y-116201185D01*
X148280537Y-116104494D01*
X148339502Y-115994180D01*
X148375812Y-115874482D01*
X148386445Y-115766517D01*
X148464201Y-115882886D01*
X148657114Y-116075799D01*
X148883957Y-116227371D01*
X149136011Y-116331775D01*
X149403589Y-116385000D01*
X149676411Y-116385000D01*
X149943989Y-116331775D01*
X150196043Y-116227371D01*
X150422886Y-116075799D01*
X150615799Y-115882886D01*
X150767371Y-115656043D01*
X150810000Y-115553127D01*
X150852629Y-115656043D01*
X151004201Y-115882886D01*
X151197114Y-116075799D01*
X151423957Y-116227371D01*
X151676011Y-116331775D01*
X151943589Y-116385000D01*
X152216411Y-116385000D01*
X152483989Y-116331775D01*
X152736043Y-116227371D01*
X152962886Y-116075799D01*
X153081692Y-115956993D01*
X153842612Y-115956993D01*
X153908137Y-116195860D01*
X154155116Y-116311760D01*
X154419960Y-116377250D01*
X154692492Y-116389812D01*
X154962238Y-116348965D01*
X155218832Y-116256277D01*
X155331863Y-116195860D01*
X155397388Y-115956993D01*
X154620000Y-115179605D01*
X153842612Y-115956993D01*
X153081692Y-115956993D01*
X153155799Y-115882886D01*
X153307371Y-115656043D01*
X153348511Y-115556721D01*
X153363723Y-115598832D01*
X153424140Y-115711863D01*
X153663007Y-115777388D01*
X154440395Y-115000000D01*
X154799605Y-115000000D01*
X155576993Y-115777388D01*
X155815860Y-115711863D01*
X155931760Y-115464884D01*
X155997250Y-115200040D01*
X156009812Y-114927508D01*
X155968965Y-114657762D01*
X155876277Y-114401168D01*
X155815860Y-114288137D01*
X155576993Y-114222612D01*
X154799605Y-115000000D01*
X154440395Y-115000000D01*
X153663007Y-114222612D01*
X153424140Y-114288137D01*
X153349836Y-114446477D01*
X153307371Y-114343957D01*
X153155799Y-114117114D01*
X153081692Y-114043007D01*
X153842612Y-114043007D01*
X154620000Y-114820395D01*
X155397388Y-114043007D01*
X155331863Y-113804140D01*
X155084884Y-113688240D01*
X154820040Y-113622750D01*
X154547508Y-113610188D01*
X154277762Y-113651035D01*
X154021168Y-113743723D01*
X153908137Y-113804140D01*
X153842612Y-114043007D01*
X153081692Y-114043007D01*
X152962886Y-113924201D01*
X152736043Y-113772629D01*
X152483989Y-113668225D01*
X152216411Y-113615000D01*
X151943589Y-113615000D01*
X151676011Y-113668225D01*
X151423957Y-113772629D01*
X151197114Y-113924201D01*
X151004201Y-114117114D01*
X150852629Y-114343957D01*
X150810000Y-114446873D01*
X150767371Y-114343957D01*
X150615799Y-114117114D01*
X150422886Y-113924201D01*
X150196043Y-113772629D01*
X149943989Y-113668225D01*
X149676411Y-113615000D01*
X149403589Y-113615000D01*
X149136011Y-113668225D01*
X148883957Y-113772629D01*
X148657114Y-113924201D01*
X148464201Y-114117114D01*
X148386445Y-114233483D01*
X148375812Y-114125518D01*
X148339502Y-114005820D01*
X148280537Y-113895506D01*
X148239088Y-113845000D01*
X148406411Y-113845000D01*
X148673989Y-113791775D01*
X148926043Y-113687371D01*
X149152886Y-113535799D01*
X149345799Y-113342886D01*
X149497371Y-113116043D01*
X149540000Y-113013127D01*
X149582629Y-113116043D01*
X149734201Y-113342886D01*
X149927114Y-113535799D01*
X150153957Y-113687371D01*
X150406011Y-113791775D01*
X150673589Y-113845000D01*
X150946411Y-113845000D01*
X151213989Y-113791775D01*
X151466043Y-113687371D01*
X151692886Y-113535799D01*
X151885799Y-113342886D01*
X152037371Y-113116043D01*
X152080000Y-113013127D01*
X152122629Y-113116043D01*
X152274201Y-113342886D01*
X152467114Y-113535799D01*
X152693957Y-113687371D01*
X152946011Y-113791775D01*
X153213589Y-113845000D01*
X153486411Y-113845000D01*
X153753989Y-113791775D01*
X154006043Y-113687371D01*
X154232886Y-113535799D01*
X154351692Y-113416993D01*
X155112612Y-113416993D01*
X155178137Y-113655860D01*
X155425116Y-113771760D01*
X155689960Y-113837250D01*
X155962492Y-113849812D01*
X156232238Y-113808965D01*
X156488832Y-113716277D01*
X156601863Y-113655860D01*
X156667388Y-113416993D01*
X155890000Y-112639605D01*
X155112612Y-113416993D01*
X154351692Y-113416993D01*
X154425799Y-113342886D01*
X154577371Y-113116043D01*
X154618511Y-113016721D01*
X154633723Y-113058832D01*
X154694140Y-113171863D01*
X154933007Y-113237388D01*
X155710395Y-112460000D01*
X156069605Y-112460000D01*
X156846993Y-113237388D01*
X157085860Y-113171863D01*
X157201760Y-112924884D01*
X157267250Y-112660040D01*
X157279812Y-112387508D01*
X157238965Y-112117762D01*
X157146277Y-111861168D01*
X157085860Y-111748137D01*
X156846993Y-111682612D01*
X156069605Y-112460000D01*
X155710395Y-112460000D01*
X154933007Y-111682612D01*
X154694140Y-111748137D01*
X154619836Y-111906477D01*
X154577371Y-111803957D01*
X154425799Y-111577114D01*
X154351692Y-111503007D01*
X155112612Y-111503007D01*
X155890000Y-112280395D01*
X156667388Y-111503007D01*
X156601863Y-111264140D01*
X156354884Y-111148240D01*
X156090040Y-111082750D01*
X155817508Y-111070188D01*
X155547762Y-111111035D01*
X155291168Y-111203723D01*
X155178137Y-111264140D01*
X155112612Y-111503007D01*
X154351692Y-111503007D01*
X154232886Y-111384201D01*
X154006043Y-111232629D01*
X153753989Y-111128225D01*
X153486411Y-111075000D01*
X153213589Y-111075000D01*
X152946011Y-111128225D01*
X152693957Y-111232629D01*
X152467114Y-111384201D01*
X152274201Y-111577114D01*
X152122629Y-111803957D01*
X152080000Y-111906873D01*
X152037371Y-111803957D01*
X151885799Y-111577114D01*
X151692886Y-111384201D01*
X151466043Y-111232629D01*
X151213989Y-111128225D01*
X150946411Y-111075000D01*
X150673589Y-111075000D01*
X150406011Y-111128225D01*
X150153957Y-111232629D01*
X149927114Y-111384201D01*
X149734201Y-111577114D01*
X149582629Y-111803957D01*
X149540000Y-111906873D01*
X149497371Y-111803957D01*
X149345799Y-111577114D01*
X149152886Y-111384201D01*
X148926043Y-111232629D01*
X148673989Y-111128225D01*
X148406411Y-111075000D01*
X148133589Y-111075000D01*
X147866011Y-111128225D01*
X147613957Y-111232629D01*
X147387114Y-111384201D01*
X147194201Y-111577114D01*
X147042629Y-111803957D01*
X146938225Y-112056011D01*
X146885000Y-112323589D01*
X146885000Y-112596411D01*
X146938225Y-112863989D01*
X147042629Y-113116043D01*
X147194201Y-113342886D01*
X147387114Y-113535799D01*
X147501049Y-113611928D01*
X146250000Y-113611928D01*
X146125518Y-113624188D01*
X146005820Y-113660498D01*
X145895506Y-113719463D01*
X145798815Y-113798815D01*
X145719463Y-113895506D01*
X145660498Y-114005820D01*
X145624188Y-114125518D01*
X145611928Y-114250000D01*
X139468316Y-114250000D01*
X139477454Y-114204060D01*
X139477454Y-114000182D01*
X139437680Y-113800223D01*
X139359659Y-113611865D01*
X139246391Y-113442347D01*
X139107399Y-113303355D01*
X139107399Y-112946621D01*
X139111075Y-112909298D01*
X139107399Y-112871976D01*
X139107399Y-112871966D01*
X139096402Y-112760313D01*
X139052945Y-112617052D01*
X138982400Y-112485074D01*
X138982400Y-112407361D01*
X138942626Y-112207402D01*
X138864605Y-112019044D01*
X138751337Y-111849526D01*
X138607174Y-111705363D01*
X138437656Y-111592095D01*
X138249298Y-111514074D01*
X138049339Y-111474300D01*
X137845461Y-111474300D01*
X137645502Y-111514074D01*
X137457144Y-111592095D01*
X137287626Y-111705363D01*
X137143463Y-111849526D01*
X137030195Y-112019044D01*
X136952174Y-112207402D01*
X136912400Y-112407361D01*
X117127000Y-112407361D01*
X117127000Y-106127290D01*
X121790724Y-106127290D01*
X121835375Y-106274499D01*
X121960559Y-106537320D01*
X122134612Y-106770669D01*
X122350845Y-106965578D01*
X122600948Y-107114557D01*
X122875309Y-107211881D01*
X123105200Y-107091214D01*
X123105200Y-105897400D01*
X123359200Y-105897400D01*
X123359200Y-107091214D01*
X123589091Y-107211881D01*
X123863452Y-107114557D01*
X124113555Y-106965578D01*
X124329788Y-106770669D01*
X124503841Y-106537320D01*
X124629025Y-106274499D01*
X124673676Y-106127290D01*
X124552355Y-105897400D01*
X123359200Y-105897400D01*
X123105200Y-105897400D01*
X121912045Y-105897400D01*
X121790724Y-106127290D01*
X117127000Y-106127290D01*
X117127000Y-100690400D01*
X121740015Y-100690400D01*
X121768687Y-100981511D01*
X121853601Y-101261434D01*
X121991494Y-101519414D01*
X122177066Y-101745534D01*
X122403186Y-101931106D01*
X122457991Y-101960400D01*
X122403186Y-101989694D01*
X122177066Y-102175266D01*
X121991494Y-102401386D01*
X121853601Y-102659366D01*
X121768687Y-102939289D01*
X121740015Y-103230400D01*
X121768687Y-103521511D01*
X121853601Y-103801434D01*
X121991494Y-104059414D01*
X122177066Y-104285534D01*
X122403186Y-104471106D01*
X122467723Y-104505601D01*
X122350845Y-104575222D01*
X122134612Y-104770131D01*
X121960559Y-105003480D01*
X121835375Y-105266301D01*
X121790724Y-105413510D01*
X121912045Y-105643400D01*
X123105200Y-105643400D01*
X123105200Y-105623400D01*
X123359200Y-105623400D01*
X123359200Y-105643400D01*
X124552355Y-105643400D01*
X124673676Y-105413510D01*
X124629025Y-105266301D01*
X124509786Y-105015961D01*
X139147600Y-105015961D01*
X139147600Y-105219839D01*
X139187374Y-105419798D01*
X139265395Y-105608156D01*
X139378663Y-105777674D01*
X139436611Y-105835622D01*
X139462764Y-105921837D01*
X139477054Y-105968946D01*
X139547626Y-106100976D01*
X139569222Y-106127290D01*
X139642599Y-106216701D01*
X139671603Y-106240504D01*
X140798600Y-107367502D01*
X140798600Y-107429639D01*
X140838374Y-107629598D01*
X140916395Y-107817956D01*
X141029663Y-107987474D01*
X141173826Y-108131637D01*
X141343344Y-108244905D01*
X141531702Y-108322926D01*
X141731661Y-108362700D01*
X141935539Y-108362700D01*
X142135498Y-108322926D01*
X142323856Y-108244905D01*
X142493374Y-108131637D01*
X142637537Y-107987474D01*
X142750805Y-107817956D01*
X142828826Y-107629598D01*
X142868600Y-107429639D01*
X142868600Y-107225761D01*
X142828826Y-107025802D01*
X142750805Y-106837444D01*
X142637537Y-106667926D01*
X142493374Y-106523763D01*
X142323856Y-106410495D01*
X142135498Y-106332474D01*
X141935539Y-106292700D01*
X141873402Y-106292700D01*
X141125888Y-105545187D01*
X141177826Y-105419798D01*
X141217600Y-105219839D01*
X141217600Y-105015961D01*
X141177826Y-104816002D01*
X141099805Y-104627644D01*
X140986537Y-104458126D01*
X140842374Y-104313963D01*
X140672856Y-104200695D01*
X140484498Y-104122674D01*
X140284539Y-104082900D01*
X140080661Y-104082900D01*
X139880702Y-104122674D01*
X139692344Y-104200695D01*
X139522826Y-104313963D01*
X139378663Y-104458126D01*
X139265395Y-104627644D01*
X139187374Y-104816002D01*
X139147600Y-105015961D01*
X124509786Y-105015961D01*
X124503841Y-105003480D01*
X124329788Y-104770131D01*
X124113555Y-104575222D01*
X123996677Y-104505601D01*
X124061214Y-104471106D01*
X124287334Y-104285534D01*
X124472906Y-104059414D01*
X124610799Y-103801434D01*
X124695713Y-103521511D01*
X124724385Y-103230400D01*
X124715521Y-103140401D01*
X131389277Y-103140401D01*
X131426599Y-103144077D01*
X131463921Y-103140401D01*
X131463932Y-103140401D01*
X131575585Y-103129404D01*
X131718846Y-103085947D01*
X131850875Y-103015375D01*
X131966600Y-102920402D01*
X131990403Y-102891399D01*
X132526202Y-102355600D01*
X132588339Y-102355600D01*
X132788298Y-102315826D01*
X132976656Y-102237805D01*
X133146174Y-102124537D01*
X133290337Y-101980374D01*
X133403605Y-101810856D01*
X133481626Y-101622498D01*
X133521400Y-101422539D01*
X133521400Y-101218661D01*
X133481626Y-101018702D01*
X133403605Y-100830344D01*
X133290337Y-100660826D01*
X133146174Y-100516663D01*
X132976656Y-100403395D01*
X132788298Y-100325374D01*
X132588339Y-100285600D01*
X132384461Y-100285600D01*
X132184502Y-100325374D01*
X131996144Y-100403395D01*
X131826626Y-100516663D01*
X131682463Y-100660826D01*
X131569195Y-100830344D01*
X131491174Y-101018702D01*
X131451400Y-101218661D01*
X131451400Y-101280798D01*
X131111798Y-101620401D01*
X124390028Y-101620401D01*
X124472906Y-101519414D01*
X124610799Y-101261434D01*
X124695713Y-100981511D01*
X124724385Y-100690400D01*
X124695713Y-100399289D01*
X124610799Y-100119366D01*
X124472906Y-99861386D01*
X124287334Y-99635266D01*
X124257513Y-99610793D01*
X124326380Y-99589902D01*
X124436694Y-99530937D01*
X124533385Y-99451585D01*
X124612737Y-99354894D01*
X124671702Y-99244580D01*
X124708012Y-99124882D01*
X124719438Y-99008861D01*
X140874800Y-99008861D01*
X140874800Y-99212739D01*
X140914574Y-99412698D01*
X140992595Y-99601056D01*
X141105863Y-99770574D01*
X141250026Y-99914737D01*
X141419544Y-100028005D01*
X141607902Y-100106026D01*
X141807861Y-100145800D01*
X142011739Y-100145800D01*
X142211698Y-100106026D01*
X142400056Y-100028005D01*
X142569574Y-99914737D01*
X142664311Y-99820000D01*
X143599678Y-99820000D01*
X143637000Y-99823676D01*
X143674322Y-99820000D01*
X143674333Y-99820000D01*
X143785986Y-99809003D01*
X143929247Y-99765546D01*
X144061276Y-99694974D01*
X144177001Y-99600001D01*
X144200803Y-99570998D01*
X144871801Y-98900000D01*
X172261928Y-98900000D01*
X172261928Y-101100000D01*
X172274188Y-101224482D01*
X172310498Y-101344180D01*
X172369463Y-101454494D01*
X172448815Y-101551185D01*
X172545506Y-101630537D01*
X172655820Y-101689502D01*
X172775518Y-101725812D01*
X172900000Y-101738072D01*
X175100000Y-101738072D01*
X175224482Y-101725812D01*
X175344180Y-101689502D01*
X175454494Y-101630537D01*
X175551185Y-101551185D01*
X175630537Y-101454494D01*
X175689502Y-101344180D01*
X175725812Y-101224482D01*
X175738072Y-101100000D01*
X175738072Y-98900000D01*
X175725812Y-98775518D01*
X175689502Y-98655820D01*
X175630537Y-98545506D01*
X175551185Y-98448815D01*
X175454494Y-98369463D01*
X175344180Y-98310498D01*
X175224482Y-98274188D01*
X175100000Y-98261928D01*
X172900000Y-98261928D01*
X172775518Y-98274188D01*
X172655820Y-98310498D01*
X172545506Y-98369463D01*
X172448815Y-98448815D01*
X172369463Y-98545506D01*
X172310498Y-98655820D01*
X172274188Y-98775518D01*
X172261928Y-98900000D01*
X144871801Y-98900000D01*
X145226202Y-98545600D01*
X145288339Y-98545600D01*
X145488298Y-98505826D01*
X145676656Y-98427805D01*
X145846174Y-98314537D01*
X145990337Y-98170374D01*
X146103605Y-98000856D01*
X146181626Y-97812498D01*
X146221400Y-97612539D01*
X146221400Y-97408661D01*
X146181626Y-97208702D01*
X146103605Y-97020344D01*
X145990337Y-96850826D01*
X145846174Y-96706663D01*
X145676656Y-96593395D01*
X145488298Y-96515374D01*
X145288339Y-96475600D01*
X145084461Y-96475600D01*
X144884502Y-96515374D01*
X144696144Y-96593395D01*
X144526626Y-96706663D01*
X144382463Y-96850826D01*
X144269195Y-97020344D01*
X144191174Y-97208702D01*
X144151400Y-97408661D01*
X144151400Y-97470798D01*
X143322199Y-98300000D01*
X142559303Y-98300000D01*
X142400056Y-98193595D01*
X142211698Y-98115574D01*
X142011739Y-98075800D01*
X141807861Y-98075800D01*
X141607902Y-98115574D01*
X141419544Y-98193595D01*
X141250026Y-98306863D01*
X141105863Y-98451026D01*
X140992595Y-98620544D01*
X140914574Y-98808902D01*
X140874800Y-99008861D01*
X124719438Y-99008861D01*
X124720272Y-99000400D01*
X124720272Y-97300400D01*
X124708012Y-97175918D01*
X124671702Y-97056220D01*
X124612737Y-96945906D01*
X124533385Y-96849215D01*
X124436694Y-96769863D01*
X124326380Y-96710898D01*
X124206682Y-96674588D01*
X124082200Y-96662328D01*
X122382200Y-96662328D01*
X122257718Y-96674588D01*
X122138020Y-96710898D01*
X122027706Y-96769863D01*
X121931015Y-96849215D01*
X121851663Y-96945906D01*
X121792698Y-97056220D01*
X121756388Y-97175918D01*
X121744128Y-97300400D01*
X121744128Y-99000400D01*
X121756388Y-99124882D01*
X121792698Y-99244580D01*
X121851663Y-99354894D01*
X121931015Y-99451585D01*
X122027706Y-99530937D01*
X122138020Y-99589902D01*
X122206887Y-99610793D01*
X122177066Y-99635266D01*
X121991494Y-99861386D01*
X121853601Y-100119366D01*
X121768687Y-100399289D01*
X121740015Y-100690400D01*
X117127000Y-100690400D01*
X117127000Y-89068531D01*
X148509389Y-89068531D01*
X148551401Y-89358019D01*
X148649081Y-89633747D01*
X148689759Y-89709850D01*
X148619463Y-89795506D01*
X148560498Y-89905820D01*
X148524188Y-90025518D01*
X148511928Y-90150000D01*
X148511928Y-91850000D01*
X148524188Y-91974482D01*
X148560498Y-92094180D01*
X148619463Y-92204494D01*
X148698815Y-92301185D01*
X148795506Y-92380537D01*
X148905820Y-92439502D01*
X149025518Y-92475812D01*
X149150000Y-92488072D01*
X150850000Y-92488072D01*
X150974482Y-92475812D01*
X151094180Y-92439502D01*
X151204494Y-92380537D01*
X151301185Y-92301185D01*
X151380537Y-92204494D01*
X151439502Y-92094180D01*
X151452203Y-92052310D01*
X151553368Y-92153475D01*
X151796589Y-92315990D01*
X152066842Y-92427932D01*
X152353740Y-92485000D01*
X152646260Y-92485000D01*
X152933158Y-92427932D01*
X153203411Y-92315990D01*
X153446632Y-92153475D01*
X153653475Y-91946632D01*
X153815990Y-91703411D01*
X153927932Y-91433158D01*
X153985000Y-91146260D01*
X153985000Y-90853740D01*
X153927932Y-90566842D01*
X153815990Y-90296589D01*
X153653475Y-90053368D01*
X153600107Y-90000000D01*
X153653475Y-89946632D01*
X153724724Y-89840000D01*
X172256606Y-89840000D01*
X172290105Y-90180119D01*
X172389314Y-90507168D01*
X172550421Y-90808578D01*
X172767234Y-91072766D01*
X173031422Y-91289579D01*
X173332832Y-91450686D01*
X173659881Y-91549895D01*
X173914775Y-91575000D01*
X174085225Y-91575000D01*
X174340119Y-91549895D01*
X174667168Y-91450686D01*
X174968578Y-91289579D01*
X175232766Y-91072766D01*
X175449579Y-90808578D01*
X175610686Y-90507168D01*
X175709895Y-90180119D01*
X175743394Y-89840000D01*
X175709895Y-89499881D01*
X175610686Y-89172832D01*
X175449579Y-88871422D01*
X175232766Y-88607234D01*
X174968578Y-88390421D01*
X174667168Y-88229314D01*
X174340119Y-88130105D01*
X174085225Y-88105000D01*
X173914775Y-88105000D01*
X173659881Y-88130105D01*
X173332832Y-88229314D01*
X173031422Y-88390421D01*
X172767234Y-88607234D01*
X172550421Y-88871422D01*
X172389314Y-89172832D01*
X172290105Y-89499881D01*
X172256606Y-89840000D01*
X153724724Y-89840000D01*
X153815990Y-89703411D01*
X153927932Y-89433158D01*
X153985000Y-89146260D01*
X153985000Y-88853740D01*
X153927932Y-88566842D01*
X153815990Y-88296589D01*
X153653475Y-88053368D01*
X153559716Y-87959609D01*
X155779997Y-87959609D01*
X155966073Y-88300766D01*
X156383409Y-88516513D01*
X156834815Y-88646696D01*
X157302946Y-88686313D01*
X157769811Y-88633842D01*
X158217468Y-88491297D01*
X158573927Y-88300766D01*
X158760003Y-87959609D01*
X157270000Y-86469605D01*
X155779997Y-87959609D01*
X153559716Y-87959609D01*
X153446632Y-87846525D01*
X153203411Y-87684010D01*
X152933158Y-87572068D01*
X152646260Y-87515000D01*
X152353740Y-87515000D01*
X152066842Y-87572068D01*
X151796589Y-87684010D01*
X151553368Y-87846525D01*
X151346525Y-88053368D01*
X151237584Y-88216410D01*
X151028397Y-88151208D01*
X150179605Y-89000000D01*
X150193748Y-89014143D01*
X150014143Y-89193748D01*
X150000000Y-89179605D01*
X149985858Y-89193748D01*
X149806253Y-89014143D01*
X149820395Y-89000000D01*
X148971603Y-88151208D01*
X148722528Y-88228843D01*
X148596629Y-88492883D01*
X148524661Y-88776411D01*
X148509389Y-89068531D01*
X117127000Y-89068531D01*
X117127000Y-87959609D01*
X143739997Y-87959609D01*
X143926073Y-88300766D01*
X144343409Y-88516513D01*
X144794815Y-88646696D01*
X145262946Y-88686313D01*
X145729811Y-88633842D01*
X146177468Y-88491297D01*
X146533927Y-88300766D01*
X146713461Y-87971603D01*
X149151208Y-87971603D01*
X150000000Y-88820395D01*
X150848792Y-87971603D01*
X150771157Y-87722528D01*
X150507117Y-87596629D01*
X150223589Y-87524661D01*
X149931469Y-87509389D01*
X149641981Y-87551401D01*
X149366253Y-87649081D01*
X149228843Y-87722528D01*
X149151208Y-87971603D01*
X146713461Y-87971603D01*
X146720003Y-87959609D01*
X145230000Y-86469605D01*
X143739997Y-87959609D01*
X117127000Y-87959609D01*
X117127000Y-86322946D01*
X142833687Y-86322946D01*
X142886158Y-86789811D01*
X143028703Y-87237468D01*
X143219234Y-87593927D01*
X143560391Y-87780003D01*
X145050395Y-86290000D01*
X145409605Y-86290000D01*
X146899609Y-87780003D01*
X147240766Y-87593927D01*
X147456513Y-87176591D01*
X147586696Y-86725185D01*
X147620736Y-86322946D01*
X154873687Y-86322946D01*
X154926158Y-86789811D01*
X155068703Y-87237468D01*
X155259234Y-87593927D01*
X155600391Y-87780003D01*
X157090395Y-86290000D01*
X157449605Y-86290000D01*
X158939609Y-87780003D01*
X159280766Y-87593927D01*
X159496513Y-87176591D01*
X159626696Y-86725185D01*
X159666313Y-86257054D01*
X159613842Y-85790189D01*
X159471297Y-85342532D01*
X159280766Y-84986073D01*
X158939609Y-84799997D01*
X157449605Y-86290000D01*
X157090395Y-86290000D01*
X155600391Y-84799997D01*
X155259234Y-84986073D01*
X155043487Y-85403409D01*
X154913304Y-85854815D01*
X154873687Y-86322946D01*
X147620736Y-86322946D01*
X147626313Y-86257054D01*
X147573842Y-85790189D01*
X147431297Y-85342532D01*
X147240766Y-84986073D01*
X146899609Y-84799997D01*
X145409605Y-86290000D01*
X145050395Y-86290000D01*
X143560391Y-84799997D01*
X143219234Y-84986073D01*
X143003487Y-85403409D01*
X142873304Y-85854815D01*
X142833687Y-86322946D01*
X117127000Y-86322946D01*
X117127000Y-84620391D01*
X143739997Y-84620391D01*
X145230000Y-86110395D01*
X146720003Y-84620391D01*
X155779997Y-84620391D01*
X157270000Y-86110395D01*
X158760003Y-84620391D01*
X158573927Y-84279234D01*
X158156591Y-84063487D01*
X157705185Y-83933304D01*
X157237054Y-83893687D01*
X156770189Y-83946158D01*
X156322532Y-84088703D01*
X155966073Y-84279234D01*
X155779997Y-84620391D01*
X146720003Y-84620391D01*
X146533927Y-84279234D01*
X146116591Y-84063487D01*
X145665185Y-83933304D01*
X145197054Y-83893687D01*
X144730189Y-83946158D01*
X144282532Y-84088703D01*
X143926073Y-84279234D01*
X143739997Y-84620391D01*
X117127000Y-84620391D01*
X117127000Y-81779872D01*
X118765000Y-81779872D01*
X118765000Y-82220128D01*
X118850890Y-82651925D01*
X119019369Y-83058669D01*
X119263962Y-83424729D01*
X119575271Y-83736038D01*
X119941331Y-83980631D01*
X120348075Y-84149110D01*
X120779872Y-84235000D01*
X121220128Y-84235000D01*
X121651925Y-84149110D01*
X122058669Y-83980631D01*
X122424729Y-83736038D01*
X122736038Y-83424729D01*
X122980631Y-83058669D01*
X123149110Y-82651925D01*
X123235000Y-82220128D01*
X123235000Y-81779872D01*
X193765000Y-81779872D01*
X193765000Y-82220128D01*
X193850890Y-82651925D01*
X194019369Y-83058669D01*
X194263962Y-83424729D01*
X194575271Y-83736038D01*
X194941331Y-83980631D01*
X195348075Y-84149110D01*
X195779872Y-84235000D01*
X196220128Y-84235000D01*
X196651925Y-84149110D01*
X197058669Y-83980631D01*
X197424729Y-83736038D01*
X197736038Y-83424729D01*
X197980631Y-83058669D01*
X198149110Y-82651925D01*
X198235000Y-82220128D01*
X198235000Y-81779872D01*
X198149110Y-81348075D01*
X197980631Y-80941331D01*
X197736038Y-80575271D01*
X197424729Y-80263962D01*
X197058669Y-80019369D01*
X196651925Y-79850890D01*
X196220128Y-79765000D01*
X195779872Y-79765000D01*
X195348075Y-79850890D01*
X194941331Y-80019369D01*
X194575271Y-80263962D01*
X194263962Y-80575271D01*
X194019369Y-80941331D01*
X193850890Y-81348075D01*
X193765000Y-81779872D01*
X123235000Y-81779872D01*
X123149110Y-81348075D01*
X122980631Y-80941331D01*
X122736038Y-80575271D01*
X122424729Y-80263962D01*
X122058669Y-80019369D01*
X121651925Y-79850890D01*
X121220128Y-79765000D01*
X120779872Y-79765000D01*
X120348075Y-79850890D01*
X119941331Y-80019369D01*
X119575271Y-80263962D01*
X119263962Y-80575271D01*
X119019369Y-80941331D01*
X118850890Y-81348075D01*
X118765000Y-81779872D01*
X117127000Y-81779872D01*
X117127000Y-78616818D01*
X117341848Y-78353388D01*
X117615503Y-78127000D01*
X199383182Y-78127000D01*
X199646612Y-78341848D01*
X199646612Y-78341848D01*
G37*
X199646612Y-78341848D02*
X199873000Y-78615503D01*
X199873000Y-125383182D01*
X199658150Y-125646613D01*
X199384497Y-125873000D01*
X117616818Y-125873000D01*
X117353387Y-125658150D01*
X117127000Y-125384497D01*
X117127000Y-121779872D01*
X118765000Y-121779872D01*
X118765000Y-122220128D01*
X118850890Y-122651925D01*
X119019369Y-123058669D01*
X119263962Y-123424729D01*
X119575271Y-123736038D01*
X119941331Y-123980631D01*
X120348075Y-124149110D01*
X120779872Y-124235000D01*
X121220128Y-124235000D01*
X121651925Y-124149110D01*
X122058669Y-123980631D01*
X122424729Y-123736038D01*
X122736038Y-123424729D01*
X122980631Y-123058669D01*
X123149110Y-122651925D01*
X123235000Y-122220128D01*
X123235000Y-121779872D01*
X123149110Y-121348075D01*
X123058728Y-121129872D01*
X143495000Y-121129872D01*
X143495000Y-121570128D01*
X143580890Y-122001925D01*
X143749369Y-122408669D01*
X143993962Y-122774729D01*
X144305271Y-123086038D01*
X144671331Y-123330631D01*
X145078075Y-123499110D01*
X145509872Y-123585000D01*
X145950128Y-123585000D01*
X146381925Y-123499110D01*
X146788669Y-123330631D01*
X147154729Y-123086038D01*
X147466038Y-122774729D01*
X147710631Y-122408669D01*
X147879110Y-122001925D01*
X147965000Y-121570128D01*
X147965000Y-121129872D01*
X154925000Y-121129872D01*
X154925000Y-121570128D01*
X155010890Y-122001925D01*
X155179369Y-122408669D01*
X155423962Y-122774729D01*
X155735271Y-123086038D01*
X156101331Y-123330631D01*
X156508075Y-123499110D01*
X156939872Y-123585000D01*
X157380128Y-123585000D01*
X157811925Y-123499110D01*
X158218669Y-123330631D01*
X158584729Y-123086038D01*
X158896038Y-122774729D01*
X159140631Y-122408669D01*
X159309110Y-122001925D01*
X159353279Y-121779872D01*
X193765000Y-121779872D01*
X193765000Y-122220128D01*
X193850890Y-122651925D01*
X194019369Y-123058669D01*
X194263962Y-123424729D01*
X194575271Y-123736038D01*
X194941331Y-123980631D01*
X195348075Y-124149110D01*
X195779872Y-124235000D01*
X196220128Y-124235000D01*
X196651925Y-124149110D01*
X197058669Y-123980631D01*
X197424729Y-123736038D01*
X197736038Y-123424729D01*
X197980631Y-123058669D01*
X198149110Y-122651925D01*
X198235000Y-122220128D01*
X198235000Y-121779872D01*
X198149110Y-121348075D01*
X197980631Y-120941331D01*
X197736038Y-120575271D01*
X197424729Y-120263962D01*
X197058669Y-120019369D01*
X196651925Y-119850890D01*
X196220128Y-119765000D01*
X195779872Y-119765000D01*
X195348075Y-119850890D01*
X194941331Y-120019369D01*
X194575271Y-120263962D01*
X194263962Y-120575271D01*
X194019369Y-120941331D01*
X193850890Y-121348075D01*
X193765000Y-121779872D01*
X159353279Y-121779872D01*
X159395000Y-121570128D01*
X159395000Y-121129872D01*
X159309110Y-120698075D01*
X159140631Y-120291331D01*
X158896038Y-119925271D01*
X158584729Y-119613962D01*
X158218669Y-119369369D01*
X157811925Y-119200890D01*
X157380128Y-119115000D01*
X156939872Y-119115000D01*
X156508075Y-119200890D01*
X156101331Y-119369369D01*
X155735271Y-119613962D01*
X155423962Y-119925271D01*
X155179369Y-120291331D01*
X155010890Y-120698075D01*
X154925000Y-121129872D01*
X147965000Y-121129872D01*
X147879110Y-120698075D01*
X147710631Y-120291331D01*
X147466038Y-119925271D01*
X147154729Y-119613962D01*
X146788669Y-119369369D01*
X146381925Y-119200890D01*
X145950128Y-119115000D01*
X145509872Y-119115000D01*
X145078075Y-119200890D01*
X144671331Y-119369369D01*
X144305271Y-119613962D01*
X143993962Y-119925271D01*
X143749369Y-120291331D01*
X143580890Y-120698075D01*
X143495000Y-121129872D01*
X123058728Y-121129872D01*
X122980631Y-120941331D01*
X122736038Y-120575271D01*
X122424729Y-120263962D01*
X122058669Y-120019369D01*
X121651925Y-119850890D01*
X121220128Y-119765000D01*
X120779872Y-119765000D01*
X120348075Y-119850890D01*
X119941331Y-120019369D01*
X119575271Y-120263962D01*
X119263962Y-120575271D01*
X119019369Y-120941331D01*
X118850890Y-121348075D01*
X118765000Y-121779872D01*
X117127000Y-121779872D01*
X117127000Y-112407361D01*
X136912400Y-112407361D01*
X136912400Y-112611239D01*
X136952174Y-112811198D01*
X137030195Y-112999556D01*
X137143463Y-113169074D01*
X137287626Y-113313237D01*
X137457144Y-113426505D01*
X137587400Y-113480459D01*
X137587400Y-113518850D01*
X137525249Y-113611865D01*
X137447228Y-113800223D01*
X137407454Y-114000182D01*
X137407454Y-114204060D01*
X137447228Y-114404019D01*
X137525249Y-114592377D01*
X137638517Y-114761895D01*
X137782680Y-114906058D01*
X137952198Y-115019326D01*
X138140556Y-115097347D01*
X138340515Y-115137121D01*
X138544393Y-115137121D01*
X138744352Y-115097347D01*
X138932710Y-115019326D01*
X139102228Y-114906058D01*
X139246391Y-114761895D01*
X139359659Y-114592377D01*
X139437680Y-114404019D01*
X139468316Y-114250000D01*
X145611928Y-114250000D01*
X145611928Y-115750000D01*
X145624188Y-115874482D01*
X145660498Y-115994180D01*
X145719463Y-116104494D01*
X145798815Y-116201185D01*
X145895506Y-116280537D01*
X146005820Y-116339502D01*
X146125518Y-116375812D01*
X146250000Y-116388072D01*
X147750000Y-116388072D01*
X147874482Y-116375812D01*
X147994180Y-116339502D01*
X148104494Y-116280537D01*
X148201185Y-116201185D01*
X148280537Y-116104494D01*
X148339502Y-115994180D01*
X148375812Y-115874482D01*
X148386445Y-115766517D01*
X148464201Y-115882886D01*
X148657114Y-116075799D01*
X148883957Y-116227371D01*
X149136011Y-116331775D01*
X149403589Y-116385000D01*
X149676411Y-116385000D01*
X149943989Y-116331775D01*
X150196043Y-116227371D01*
X150422886Y-116075799D01*
X150615799Y-115882886D01*
X150767371Y-115656043D01*
X150810000Y-115553127D01*
X150852629Y-115656043D01*
X151004201Y-115882886D01*
X151197114Y-116075799D01*
X151423957Y-116227371D01*
X151676011Y-116331775D01*
X151943589Y-116385000D01*
X152216411Y-116385000D01*
X152483989Y-116331775D01*
X152736043Y-116227371D01*
X152962886Y-116075799D01*
X153081692Y-115956993D01*
X153842612Y-115956993D01*
X153908137Y-116195860D01*
X154155116Y-116311760D01*
X154419960Y-116377250D01*
X154692492Y-116389812D01*
X154962238Y-116348965D01*
X155218832Y-116256277D01*
X155331863Y-116195860D01*
X155397388Y-115956993D01*
X154620000Y-115179605D01*
X153842612Y-115956993D01*
X153081692Y-115956993D01*
X153155799Y-115882886D01*
X153307371Y-115656043D01*
X153348511Y-115556721D01*
X153363723Y-115598832D01*
X153424140Y-115711863D01*
X153663007Y-115777388D01*
X154440395Y-115000000D01*
X154799605Y-115000000D01*
X155576993Y-115777388D01*
X155815860Y-115711863D01*
X155931760Y-115464884D01*
X155997250Y-115200040D01*
X156009812Y-114927508D01*
X155968965Y-114657762D01*
X155876277Y-114401168D01*
X155815860Y-114288137D01*
X155576993Y-114222612D01*
X154799605Y-115000000D01*
X154440395Y-115000000D01*
X153663007Y-114222612D01*
X153424140Y-114288137D01*
X153349836Y-114446477D01*
X153307371Y-114343957D01*
X153155799Y-114117114D01*
X153081692Y-114043007D01*
X153842612Y-114043007D01*
X154620000Y-114820395D01*
X155397388Y-114043007D01*
X155331863Y-113804140D01*
X155084884Y-113688240D01*
X154820040Y-113622750D01*
X154547508Y-113610188D01*
X154277762Y-113651035D01*
X154021168Y-113743723D01*
X153908137Y-113804140D01*
X153842612Y-114043007D01*
X153081692Y-114043007D01*
X152962886Y-113924201D01*
X152736043Y-113772629D01*
X152483989Y-113668225D01*
X152216411Y-113615000D01*
X151943589Y-113615000D01*
X151676011Y-113668225D01*
X151423957Y-113772629D01*
X151197114Y-113924201D01*
X151004201Y-114117114D01*
X150852629Y-114343957D01*
X150810000Y-114446873D01*
X150767371Y-114343957D01*
X150615799Y-114117114D01*
X150422886Y-113924201D01*
X150196043Y-113772629D01*
X149943989Y-113668225D01*
X149676411Y-113615000D01*
X149403589Y-113615000D01*
X149136011Y-113668225D01*
X148883957Y-113772629D01*
X148657114Y-113924201D01*
X148464201Y-114117114D01*
X148386445Y-114233483D01*
X148375812Y-114125518D01*
X148339502Y-114005820D01*
X148280537Y-113895506D01*
X148239088Y-113845000D01*
X148406411Y-113845000D01*
X148673989Y-113791775D01*
X148926043Y-113687371D01*
X149152886Y-113535799D01*
X149345799Y-113342886D01*
X149497371Y-113116043D01*
X149540000Y-113013127D01*
X149582629Y-113116043D01*
X149734201Y-113342886D01*
X149927114Y-113535799D01*
X150153957Y-113687371D01*
X150406011Y-113791775D01*
X150673589Y-113845000D01*
X150946411Y-113845000D01*
X151213989Y-113791775D01*
X151466043Y-113687371D01*
X151692886Y-113535799D01*
X151885799Y-113342886D01*
X152037371Y-113116043D01*
X152080000Y-113013127D01*
X152122629Y-113116043D01*
X152274201Y-113342886D01*
X152467114Y-113535799D01*
X152693957Y-113687371D01*
X152946011Y-113791775D01*
X153213589Y-113845000D01*
X153486411Y-113845000D01*
X153753989Y-113791775D01*
X154006043Y-113687371D01*
X154232886Y-113535799D01*
X154351692Y-113416993D01*
X155112612Y-113416993D01*
X155178137Y-113655860D01*
X155425116Y-113771760D01*
X155689960Y-113837250D01*
X155962492Y-113849812D01*
X156232238Y-113808965D01*
X156488832Y-113716277D01*
X156601863Y-113655860D01*
X156667388Y-113416993D01*
X155890000Y-112639605D01*
X155112612Y-113416993D01*
X154351692Y-113416993D01*
X154425799Y-113342886D01*
X154577371Y-113116043D01*
X154618511Y-113016721D01*
X154633723Y-113058832D01*
X154694140Y-113171863D01*
X154933007Y-113237388D01*
X155710395Y-112460000D01*
X156069605Y-112460000D01*
X156846993Y-113237388D01*
X157085860Y-113171863D01*
X157201760Y-112924884D01*
X157267250Y-112660040D01*
X157279812Y-112387508D01*
X157238965Y-112117762D01*
X157146277Y-111861168D01*
X157085860Y-111748137D01*
X156846993Y-111682612D01*
X156069605Y-112460000D01*
X155710395Y-112460000D01*
X154933007Y-111682612D01*
X154694140Y-111748137D01*
X154619836Y-111906477D01*
X154577371Y-111803957D01*
X154425799Y-111577114D01*
X154351692Y-111503007D01*
X155112612Y-111503007D01*
X155890000Y-112280395D01*
X156667388Y-111503007D01*
X156601863Y-111264140D01*
X156354884Y-111148240D01*
X156090040Y-111082750D01*
X155817508Y-111070188D01*
X155547762Y-111111035D01*
X155291168Y-111203723D01*
X155178137Y-111264140D01*
X155112612Y-111503007D01*
X154351692Y-111503007D01*
X154232886Y-111384201D01*
X154006043Y-111232629D01*
X153753989Y-111128225D01*
X153486411Y-111075000D01*
X153213589Y-111075000D01*
X152946011Y-111128225D01*
X152693957Y-111232629D01*
X152467114Y-111384201D01*
X152274201Y-111577114D01*
X152122629Y-111803957D01*
X152080000Y-111906873D01*
X152037371Y-111803957D01*
X151885799Y-111577114D01*
X151692886Y-111384201D01*
X151466043Y-111232629D01*
X151213989Y-111128225D01*
X150946411Y-111075000D01*
X150673589Y-111075000D01*
X150406011Y-111128225D01*
X150153957Y-111232629D01*
X149927114Y-111384201D01*
X149734201Y-111577114D01*
X149582629Y-111803957D01*
X149540000Y-111906873D01*
X149497371Y-111803957D01*
X149345799Y-111577114D01*
X149152886Y-111384201D01*
X148926043Y-111232629D01*
X148673989Y-111128225D01*
X148406411Y-111075000D01*
X148133589Y-111075000D01*
X147866011Y-111128225D01*
X147613957Y-111232629D01*
X147387114Y-111384201D01*
X147194201Y-111577114D01*
X147042629Y-111803957D01*
X146938225Y-112056011D01*
X146885000Y-112323589D01*
X146885000Y-112596411D01*
X146938225Y-112863989D01*
X147042629Y-113116043D01*
X147194201Y-113342886D01*
X147387114Y-113535799D01*
X147501049Y-113611928D01*
X146250000Y-113611928D01*
X146125518Y-113624188D01*
X146005820Y-113660498D01*
X145895506Y-113719463D01*
X145798815Y-113798815D01*
X145719463Y-113895506D01*
X145660498Y-114005820D01*
X145624188Y-114125518D01*
X145611928Y-114250000D01*
X139468316Y-114250000D01*
X139477454Y-114204060D01*
X139477454Y-114000182D01*
X139437680Y-113800223D01*
X139359659Y-113611865D01*
X139246391Y-113442347D01*
X139107399Y-113303355D01*
X139107399Y-112946621D01*
X139111075Y-112909298D01*
X139107399Y-112871976D01*
X139107399Y-112871966D01*
X139096402Y-112760313D01*
X139052945Y-112617052D01*
X138982400Y-112485074D01*
X138982400Y-112407361D01*
X138942626Y-112207402D01*
X138864605Y-112019044D01*
X138751337Y-111849526D01*
X138607174Y-111705363D01*
X138437656Y-111592095D01*
X138249298Y-111514074D01*
X138049339Y-111474300D01*
X137845461Y-111474300D01*
X137645502Y-111514074D01*
X137457144Y-111592095D01*
X137287626Y-111705363D01*
X137143463Y-111849526D01*
X137030195Y-112019044D01*
X136952174Y-112207402D01*
X136912400Y-112407361D01*
X117127000Y-112407361D01*
X117127000Y-106127290D01*
X121790724Y-106127290D01*
X121835375Y-106274499D01*
X121960559Y-106537320D01*
X122134612Y-106770669D01*
X122350845Y-106965578D01*
X122600948Y-107114557D01*
X122875309Y-107211881D01*
X123105200Y-107091214D01*
X123105200Y-105897400D01*
X123359200Y-105897400D01*
X123359200Y-107091214D01*
X123589091Y-107211881D01*
X123863452Y-107114557D01*
X124113555Y-106965578D01*
X124329788Y-106770669D01*
X124503841Y-106537320D01*
X124629025Y-106274499D01*
X124673676Y-106127290D01*
X124552355Y-105897400D01*
X123359200Y-105897400D01*
X123105200Y-105897400D01*
X121912045Y-105897400D01*
X121790724Y-106127290D01*
X117127000Y-106127290D01*
X117127000Y-100690400D01*
X121740015Y-100690400D01*
X121768687Y-100981511D01*
X121853601Y-101261434D01*
X121991494Y-101519414D01*
X122177066Y-101745534D01*
X122403186Y-101931106D01*
X122457991Y-101960400D01*
X122403186Y-101989694D01*
X122177066Y-102175266D01*
X121991494Y-102401386D01*
X121853601Y-102659366D01*
X121768687Y-102939289D01*
X121740015Y-103230400D01*
X121768687Y-103521511D01*
X121853601Y-103801434D01*
X121991494Y-104059414D01*
X122177066Y-104285534D01*
X122403186Y-104471106D01*
X122467723Y-104505601D01*
X122350845Y-104575222D01*
X122134612Y-104770131D01*
X121960559Y-105003480D01*
X121835375Y-105266301D01*
X121790724Y-105413510D01*
X121912045Y-105643400D01*
X123105200Y-105643400D01*
X123105200Y-105623400D01*
X123359200Y-105623400D01*
X123359200Y-105643400D01*
X124552355Y-105643400D01*
X124673676Y-105413510D01*
X124629025Y-105266301D01*
X124509786Y-105015961D01*
X139147600Y-105015961D01*
X139147600Y-105219839D01*
X139187374Y-105419798D01*
X139265395Y-105608156D01*
X139378663Y-105777674D01*
X139436611Y-105835622D01*
X139462764Y-105921837D01*
X139477054Y-105968946D01*
X139547626Y-106100976D01*
X139569222Y-106127290D01*
X139642599Y-106216701D01*
X139671603Y-106240504D01*
X140798600Y-107367502D01*
X140798600Y-107429639D01*
X140838374Y-107629598D01*
X140916395Y-107817956D01*
X141029663Y-107987474D01*
X141173826Y-108131637D01*
X141343344Y-108244905D01*
X141531702Y-108322926D01*
X141731661Y-108362700D01*
X141935539Y-108362700D01*
X142135498Y-108322926D01*
X142323856Y-108244905D01*
X142493374Y-108131637D01*
X142637537Y-107987474D01*
X142750805Y-107817956D01*
X142828826Y-107629598D01*
X142868600Y-107429639D01*
X142868600Y-107225761D01*
X142828826Y-107025802D01*
X142750805Y-106837444D01*
X142637537Y-106667926D01*
X142493374Y-106523763D01*
X142323856Y-106410495D01*
X142135498Y-106332474D01*
X141935539Y-106292700D01*
X141873402Y-106292700D01*
X141125888Y-105545187D01*
X141177826Y-105419798D01*
X141217600Y-105219839D01*
X141217600Y-105015961D01*
X141177826Y-104816002D01*
X141099805Y-104627644D01*
X140986537Y-104458126D01*
X140842374Y-104313963D01*
X140672856Y-104200695D01*
X140484498Y-104122674D01*
X140284539Y-104082900D01*
X140080661Y-104082900D01*
X139880702Y-104122674D01*
X139692344Y-104200695D01*
X139522826Y-104313963D01*
X139378663Y-104458126D01*
X139265395Y-104627644D01*
X139187374Y-104816002D01*
X139147600Y-105015961D01*
X124509786Y-105015961D01*
X124503841Y-105003480D01*
X124329788Y-104770131D01*
X124113555Y-104575222D01*
X123996677Y-104505601D01*
X124061214Y-104471106D01*
X124287334Y-104285534D01*
X124472906Y-104059414D01*
X124610799Y-103801434D01*
X124695713Y-103521511D01*
X124724385Y-103230400D01*
X124715521Y-103140401D01*
X131389277Y-103140401D01*
X131426599Y-103144077D01*
X131463921Y-103140401D01*
X131463932Y-103140401D01*
X131575585Y-103129404D01*
X131718846Y-103085947D01*
X131850875Y-103015375D01*
X131966600Y-102920402D01*
X131990403Y-102891399D01*
X132526202Y-102355600D01*
X132588339Y-102355600D01*
X132788298Y-102315826D01*
X132976656Y-102237805D01*
X133146174Y-102124537D01*
X133290337Y-101980374D01*
X133403605Y-101810856D01*
X133481626Y-101622498D01*
X133521400Y-101422539D01*
X133521400Y-101218661D01*
X133481626Y-101018702D01*
X133403605Y-100830344D01*
X133290337Y-100660826D01*
X133146174Y-100516663D01*
X132976656Y-100403395D01*
X132788298Y-100325374D01*
X132588339Y-100285600D01*
X132384461Y-100285600D01*
X132184502Y-100325374D01*
X131996144Y-100403395D01*
X131826626Y-100516663D01*
X131682463Y-100660826D01*
X131569195Y-100830344D01*
X131491174Y-101018702D01*
X131451400Y-101218661D01*
X131451400Y-101280798D01*
X131111798Y-101620401D01*
X124390028Y-101620401D01*
X124472906Y-101519414D01*
X124610799Y-101261434D01*
X124695713Y-100981511D01*
X124724385Y-100690400D01*
X124695713Y-100399289D01*
X124610799Y-100119366D01*
X124472906Y-99861386D01*
X124287334Y-99635266D01*
X124257513Y-99610793D01*
X124326380Y-99589902D01*
X124436694Y-99530937D01*
X124533385Y-99451585D01*
X124612737Y-99354894D01*
X124671702Y-99244580D01*
X124708012Y-99124882D01*
X124719438Y-99008861D01*
X140874800Y-99008861D01*
X140874800Y-99212739D01*
X140914574Y-99412698D01*
X140992595Y-99601056D01*
X141105863Y-99770574D01*
X141250026Y-99914737D01*
X141419544Y-100028005D01*
X141607902Y-100106026D01*
X141807861Y-100145800D01*
X142011739Y-100145800D01*
X142211698Y-100106026D01*
X142400056Y-100028005D01*
X142569574Y-99914737D01*
X142664311Y-99820000D01*
X143599678Y-99820000D01*
X143637000Y-99823676D01*
X143674322Y-99820000D01*
X143674333Y-99820000D01*
X143785986Y-99809003D01*
X143929247Y-99765546D01*
X144061276Y-99694974D01*
X144177001Y-99600001D01*
X144200803Y-99570998D01*
X144871801Y-98900000D01*
X172261928Y-98900000D01*
X172261928Y-101100000D01*
X172274188Y-101224482D01*
X172310498Y-101344180D01*
X172369463Y-101454494D01*
X172448815Y-101551185D01*
X172545506Y-101630537D01*
X172655820Y-101689502D01*
X172775518Y-101725812D01*
X172900000Y-101738072D01*
X175100000Y-101738072D01*
X175224482Y-101725812D01*
X175344180Y-101689502D01*
X175454494Y-101630537D01*
X175551185Y-101551185D01*
X175630537Y-101454494D01*
X175689502Y-101344180D01*
X175725812Y-101224482D01*
X175738072Y-101100000D01*
X175738072Y-98900000D01*
X175725812Y-98775518D01*
X175689502Y-98655820D01*
X175630537Y-98545506D01*
X175551185Y-98448815D01*
X175454494Y-98369463D01*
X175344180Y-98310498D01*
X175224482Y-98274188D01*
X175100000Y-98261928D01*
X172900000Y-98261928D01*
X172775518Y-98274188D01*
X172655820Y-98310498D01*
X172545506Y-98369463D01*
X172448815Y-98448815D01*
X172369463Y-98545506D01*
X172310498Y-98655820D01*
X172274188Y-98775518D01*
X172261928Y-98900000D01*
X144871801Y-98900000D01*
X145226202Y-98545600D01*
X145288339Y-98545600D01*
X145488298Y-98505826D01*
X145676656Y-98427805D01*
X145846174Y-98314537D01*
X145990337Y-98170374D01*
X146103605Y-98000856D01*
X146181626Y-97812498D01*
X146221400Y-97612539D01*
X146221400Y-97408661D01*
X146181626Y-97208702D01*
X146103605Y-97020344D01*
X145990337Y-96850826D01*
X145846174Y-96706663D01*
X145676656Y-96593395D01*
X145488298Y-96515374D01*
X145288339Y-96475600D01*
X145084461Y-96475600D01*
X144884502Y-96515374D01*
X144696144Y-96593395D01*
X144526626Y-96706663D01*
X144382463Y-96850826D01*
X144269195Y-97020344D01*
X144191174Y-97208702D01*
X144151400Y-97408661D01*
X144151400Y-97470798D01*
X143322199Y-98300000D01*
X142559303Y-98300000D01*
X142400056Y-98193595D01*
X142211698Y-98115574D01*
X142011739Y-98075800D01*
X141807861Y-98075800D01*
X141607902Y-98115574D01*
X141419544Y-98193595D01*
X141250026Y-98306863D01*
X141105863Y-98451026D01*
X140992595Y-98620544D01*
X140914574Y-98808902D01*
X140874800Y-99008861D01*
X124719438Y-99008861D01*
X124720272Y-99000400D01*
X124720272Y-97300400D01*
X124708012Y-97175918D01*
X124671702Y-97056220D01*
X124612737Y-96945906D01*
X124533385Y-96849215D01*
X124436694Y-96769863D01*
X124326380Y-96710898D01*
X124206682Y-96674588D01*
X124082200Y-96662328D01*
X122382200Y-96662328D01*
X122257718Y-96674588D01*
X122138020Y-96710898D01*
X122027706Y-96769863D01*
X121931015Y-96849215D01*
X121851663Y-96945906D01*
X121792698Y-97056220D01*
X121756388Y-97175918D01*
X121744128Y-97300400D01*
X121744128Y-99000400D01*
X121756388Y-99124882D01*
X121792698Y-99244580D01*
X121851663Y-99354894D01*
X121931015Y-99451585D01*
X122027706Y-99530937D01*
X122138020Y-99589902D01*
X122206887Y-99610793D01*
X122177066Y-99635266D01*
X121991494Y-99861386D01*
X121853601Y-100119366D01*
X121768687Y-100399289D01*
X121740015Y-100690400D01*
X117127000Y-100690400D01*
X117127000Y-89068531D01*
X148509389Y-89068531D01*
X148551401Y-89358019D01*
X148649081Y-89633747D01*
X148689759Y-89709850D01*
X148619463Y-89795506D01*
X148560498Y-89905820D01*
X148524188Y-90025518D01*
X148511928Y-90150000D01*
X148511928Y-91850000D01*
X148524188Y-91974482D01*
X148560498Y-92094180D01*
X148619463Y-92204494D01*
X148698815Y-92301185D01*
X148795506Y-92380537D01*
X148905820Y-92439502D01*
X149025518Y-92475812D01*
X149150000Y-92488072D01*
X150850000Y-92488072D01*
X150974482Y-92475812D01*
X151094180Y-92439502D01*
X151204494Y-92380537D01*
X151301185Y-92301185D01*
X151380537Y-92204494D01*
X151439502Y-92094180D01*
X151452203Y-92052310D01*
X151553368Y-92153475D01*
X151796589Y-92315990D01*
X152066842Y-92427932D01*
X152353740Y-92485000D01*
X152646260Y-92485000D01*
X152933158Y-92427932D01*
X153203411Y-92315990D01*
X153446632Y-92153475D01*
X153653475Y-91946632D01*
X153815990Y-91703411D01*
X153927932Y-91433158D01*
X153985000Y-91146260D01*
X153985000Y-90853740D01*
X153927932Y-90566842D01*
X153815990Y-90296589D01*
X153653475Y-90053368D01*
X153600107Y-90000000D01*
X153653475Y-89946632D01*
X153724724Y-89840000D01*
X172256606Y-89840000D01*
X172290105Y-90180119D01*
X172389314Y-90507168D01*
X172550421Y-90808578D01*
X172767234Y-91072766D01*
X173031422Y-91289579D01*
X173332832Y-91450686D01*
X173659881Y-91549895D01*
X173914775Y-91575000D01*
X174085225Y-91575000D01*
X174340119Y-91549895D01*
X174667168Y-91450686D01*
X174968578Y-91289579D01*
X175232766Y-91072766D01*
X175449579Y-90808578D01*
X175610686Y-90507168D01*
X175709895Y-90180119D01*
X175743394Y-89840000D01*
X175709895Y-89499881D01*
X175610686Y-89172832D01*
X175449579Y-88871422D01*
X175232766Y-88607234D01*
X174968578Y-88390421D01*
X174667168Y-88229314D01*
X174340119Y-88130105D01*
X174085225Y-88105000D01*
X173914775Y-88105000D01*
X173659881Y-88130105D01*
X173332832Y-88229314D01*
X173031422Y-88390421D01*
X172767234Y-88607234D01*
X172550421Y-88871422D01*
X172389314Y-89172832D01*
X172290105Y-89499881D01*
X172256606Y-89840000D01*
X153724724Y-89840000D01*
X153815990Y-89703411D01*
X153927932Y-89433158D01*
X153985000Y-89146260D01*
X153985000Y-88853740D01*
X153927932Y-88566842D01*
X153815990Y-88296589D01*
X153653475Y-88053368D01*
X153559716Y-87959609D01*
X155779997Y-87959609D01*
X155966073Y-88300766D01*
X156383409Y-88516513D01*
X156834815Y-88646696D01*
X157302946Y-88686313D01*
X157769811Y-88633842D01*
X158217468Y-88491297D01*
X158573927Y-88300766D01*
X158760003Y-87959609D01*
X157270000Y-86469605D01*
X155779997Y-87959609D01*
X153559716Y-87959609D01*
X153446632Y-87846525D01*
X153203411Y-87684010D01*
X152933158Y-87572068D01*
X152646260Y-87515000D01*
X152353740Y-87515000D01*
X152066842Y-87572068D01*
X151796589Y-87684010D01*
X151553368Y-87846525D01*
X151346525Y-88053368D01*
X151237584Y-88216410D01*
X151028397Y-88151208D01*
X150179605Y-89000000D01*
X150193748Y-89014143D01*
X150014143Y-89193748D01*
X150000000Y-89179605D01*
X149985858Y-89193748D01*
X149806253Y-89014143D01*
X149820395Y-89000000D01*
X148971603Y-88151208D01*
X148722528Y-88228843D01*
X148596629Y-88492883D01*
X148524661Y-88776411D01*
X148509389Y-89068531D01*
X117127000Y-89068531D01*
X117127000Y-87959609D01*
X143739997Y-87959609D01*
X143926073Y-88300766D01*
X144343409Y-88516513D01*
X144794815Y-88646696D01*
X145262946Y-88686313D01*
X145729811Y-88633842D01*
X146177468Y-88491297D01*
X146533927Y-88300766D01*
X146713461Y-87971603D01*
X149151208Y-87971603D01*
X150000000Y-88820395D01*
X150848792Y-87971603D01*
X150771157Y-87722528D01*
X150507117Y-87596629D01*
X150223589Y-87524661D01*
X149931469Y-87509389D01*
X149641981Y-87551401D01*
X149366253Y-87649081D01*
X149228843Y-87722528D01*
X149151208Y-87971603D01*
X146713461Y-87971603D01*
X146720003Y-87959609D01*
X145230000Y-86469605D01*
X143739997Y-87959609D01*
X117127000Y-87959609D01*
X117127000Y-86322946D01*
X142833687Y-86322946D01*
X142886158Y-86789811D01*
X143028703Y-87237468D01*
X143219234Y-87593927D01*
X143560391Y-87780003D01*
X145050395Y-86290000D01*
X145409605Y-86290000D01*
X146899609Y-87780003D01*
X147240766Y-87593927D01*
X147456513Y-87176591D01*
X147586696Y-86725185D01*
X147620736Y-86322946D01*
X154873687Y-86322946D01*
X154926158Y-86789811D01*
X155068703Y-87237468D01*
X155259234Y-87593927D01*
X155600391Y-87780003D01*
X157090395Y-86290000D01*
X157449605Y-86290000D01*
X158939609Y-87780003D01*
X159280766Y-87593927D01*
X159496513Y-87176591D01*
X159626696Y-86725185D01*
X159666313Y-86257054D01*
X159613842Y-85790189D01*
X159471297Y-85342532D01*
X159280766Y-84986073D01*
X158939609Y-84799997D01*
X157449605Y-86290000D01*
X157090395Y-86290000D01*
X155600391Y-84799997D01*
X155259234Y-84986073D01*
X155043487Y-85403409D01*
X154913304Y-85854815D01*
X154873687Y-86322946D01*
X147620736Y-86322946D01*
X147626313Y-86257054D01*
X147573842Y-85790189D01*
X147431297Y-85342532D01*
X147240766Y-84986073D01*
X146899609Y-84799997D01*
X145409605Y-86290000D01*
X145050395Y-86290000D01*
X143560391Y-84799997D01*
X143219234Y-84986073D01*
X143003487Y-85403409D01*
X142873304Y-85854815D01*
X142833687Y-86322946D01*
X117127000Y-86322946D01*
X117127000Y-84620391D01*
X143739997Y-84620391D01*
X145230000Y-86110395D01*
X146720003Y-84620391D01*
X155779997Y-84620391D01*
X157270000Y-86110395D01*
X158760003Y-84620391D01*
X158573927Y-84279234D01*
X158156591Y-84063487D01*
X157705185Y-83933304D01*
X157237054Y-83893687D01*
X156770189Y-83946158D01*
X156322532Y-84088703D01*
X155966073Y-84279234D01*
X155779997Y-84620391D01*
X146720003Y-84620391D01*
X146533927Y-84279234D01*
X146116591Y-84063487D01*
X145665185Y-83933304D01*
X145197054Y-83893687D01*
X144730189Y-83946158D01*
X144282532Y-84088703D01*
X143926073Y-84279234D01*
X143739997Y-84620391D01*
X117127000Y-84620391D01*
X117127000Y-81779872D01*
X118765000Y-81779872D01*
X118765000Y-82220128D01*
X118850890Y-82651925D01*
X119019369Y-83058669D01*
X119263962Y-83424729D01*
X119575271Y-83736038D01*
X119941331Y-83980631D01*
X120348075Y-84149110D01*
X120779872Y-84235000D01*
X121220128Y-84235000D01*
X121651925Y-84149110D01*
X122058669Y-83980631D01*
X122424729Y-83736038D01*
X122736038Y-83424729D01*
X122980631Y-83058669D01*
X123149110Y-82651925D01*
X123235000Y-82220128D01*
X123235000Y-81779872D01*
X193765000Y-81779872D01*
X193765000Y-82220128D01*
X193850890Y-82651925D01*
X194019369Y-83058669D01*
X194263962Y-83424729D01*
X194575271Y-83736038D01*
X194941331Y-83980631D01*
X195348075Y-84149110D01*
X195779872Y-84235000D01*
X196220128Y-84235000D01*
X196651925Y-84149110D01*
X197058669Y-83980631D01*
X197424729Y-83736038D01*
X197736038Y-83424729D01*
X197980631Y-83058669D01*
X198149110Y-82651925D01*
X198235000Y-82220128D01*
X198235000Y-81779872D01*
X198149110Y-81348075D01*
X197980631Y-80941331D01*
X197736038Y-80575271D01*
X197424729Y-80263962D01*
X197058669Y-80019369D01*
X196651925Y-79850890D01*
X196220128Y-79765000D01*
X195779872Y-79765000D01*
X195348075Y-79850890D01*
X194941331Y-80019369D01*
X194575271Y-80263962D01*
X194263962Y-80575271D01*
X194019369Y-80941331D01*
X193850890Y-81348075D01*
X193765000Y-81779872D01*
X123235000Y-81779872D01*
X123149110Y-81348075D01*
X122980631Y-80941331D01*
X122736038Y-80575271D01*
X122424729Y-80263962D01*
X122058669Y-80019369D01*
X121651925Y-79850890D01*
X121220128Y-79765000D01*
X120779872Y-79765000D01*
X120348075Y-79850890D01*
X119941331Y-80019369D01*
X119575271Y-80263962D01*
X119263962Y-80575271D01*
X119019369Y-80941331D01*
X118850890Y-81348075D01*
X118765000Y-81779872D01*
X117127000Y-81779872D01*
X117127000Y-78616818D01*
X117341848Y-78353388D01*
X117615503Y-78127000D01*
X199383182Y-78127000D01*
X199646612Y-78341848D01*
M02*
