M48
; DRILL file {KiCad (5.1.2-1)-1} date Thursday, 19 September 2019 at 03:42:39
; FORMAT={3:3/ absolute / metric / suppress leading zeros}
; #@! TF.CreationDate,2019-09-19T03:42:39+01:00
; #@! TF.GenerationSoftware,Kicad,Pcbnew,(5.1.2-1)-1
FMAT,2
METRIC,TZ
T1C0.400
T2C0.760
T3C0.920
T4C1.000
T5C1.100
T6C2.330
T7C3.200
%
G90
G05
T1
X128321Y-116853
X129248Y-112268
X132486Y-101321
X137947Y-112509
X138442Y-114102
X140183Y-105118
X141834Y-107328
X141910Y-99111
X141986Y-102311
X145186Y-97511
X147000Y-100523
X147345Y-104470
X156616Y-103289
X157124Y-100432
X180000Y-104000
X182220Y-109461
T2
X147000Y-115000
X148270Y-112460
X149540Y-115000
X150810Y-112460
X152080Y-115000
X153350Y-112460
X154620Y-115000
X155890Y-112460
T3
X150000Y-89000
X150000Y-91000
X152500Y-89000
X152500Y-91000
T4
X123232Y-98150
X123232Y-100690
X123232Y-103230
X123232Y-105770
T5
X174000Y-89840
X174000Y-100000
T6
X145230Y-86290
X157270Y-86290
T7
X121000Y-82000
X196000Y-122000
X196000Y-82000
X121000Y-122000
X145730Y-121350
X157160Y-121350
T0
M30
