G04 #@! TF.GenerationSoftware,KiCad,Pcbnew,(5.1.2-1)-1*
G04 #@! TF.CreationDate,2019-08-08T23:38:45+01:00*
G04 #@! TF.ProjectId,ACNodeReader_Debug,41434e6f-6465-4526-9561-6465725f4465,rev?*
G04 #@! TF.SameCoordinates,Original*
G04 #@! TF.FileFunction,Legend,Top*
G04 #@! TF.FilePolarity,Positive*
%FSLAX46Y46*%
G04 Gerber Fmt 4.6, Leading zero omitted, Abs format (unit mm)*
G04 Created by KiCad (PCBNEW (5.1.2-1)-1) date 2019-08-08 23:38:45*
%MOMM*%
%LPD*%
G04 APERTURE LIST*
%ADD10C,0.150000*%
%ADD11C,0.300000*%
%ADD12C,0.120000*%
G04 APERTURE END LIST*
D10*
X168425219Y-123847361D02*
X169568076Y-123847361D01*
X168996647Y-125847361D02*
X168996647Y-123847361D01*
X170234742Y-125847361D02*
X170234742Y-123847361D01*
X171091885Y-125847361D02*
X171091885Y-124799742D01*
X170996647Y-124609266D01*
X170806171Y-124514028D01*
X170520457Y-124514028D01*
X170329980Y-124609266D01*
X170234742Y-124704504D01*
X172806171Y-125752123D02*
X172615695Y-125847361D01*
X172234742Y-125847361D01*
X172044266Y-125752123D01*
X171949028Y-125561647D01*
X171949028Y-124799742D01*
X172044266Y-124609266D01*
X172234742Y-124514028D01*
X172615695Y-124514028D01*
X172806171Y-124609266D01*
X172901409Y-124799742D01*
X172901409Y-124990219D01*
X171949028Y-125180695D01*
X175949028Y-124799742D02*
X176234742Y-124894980D01*
X176329980Y-124990219D01*
X176425219Y-125180695D01*
X176425219Y-125466409D01*
X176329980Y-125656885D01*
X176234742Y-125752123D01*
X176044266Y-125847361D01*
X175282361Y-125847361D01*
X175282361Y-123847361D01*
X175949028Y-123847361D01*
X176139504Y-123942600D01*
X176234742Y-124037838D01*
X176329980Y-124228314D01*
X176329980Y-124418790D01*
X176234742Y-124609266D01*
X176139504Y-124704504D01*
X175949028Y-124799742D01*
X175282361Y-124799742D01*
X178139504Y-124514028D02*
X178139504Y-125847361D01*
X177282361Y-124514028D02*
X177282361Y-125561647D01*
X177377600Y-125752123D01*
X177568076Y-125847361D01*
X177853790Y-125847361D01*
X178044266Y-125752123D01*
X178139504Y-125656885D01*
X178806171Y-124514028D02*
X179568076Y-124514028D01*
X179091885Y-123847361D02*
X179091885Y-125561647D01*
X179187123Y-125752123D01*
X179377600Y-125847361D01*
X179568076Y-125847361D01*
X179949028Y-124514028D02*
X180710933Y-124514028D01*
X180234742Y-123847361D02*
X180234742Y-125561647D01*
X180329980Y-125752123D01*
X180520457Y-125847361D01*
X180710933Y-125847361D01*
X181663314Y-125847361D02*
X181472838Y-125752123D01*
X181377600Y-125656885D01*
X181282361Y-125466409D01*
X181282361Y-124894980D01*
X181377600Y-124704504D01*
X181472838Y-124609266D01*
X181663314Y-124514028D01*
X181949028Y-124514028D01*
X182139504Y-124609266D01*
X182234742Y-124704504D01*
X182329980Y-124894980D01*
X182329980Y-125466409D01*
X182234742Y-125656885D01*
X182139504Y-125752123D01*
X181949028Y-125847361D01*
X181663314Y-125847361D01*
X183187123Y-124514028D02*
X183187123Y-125847361D01*
X183187123Y-124704504D02*
X183282361Y-124609266D01*
X183472838Y-124514028D01*
X183758552Y-124514028D01*
X183949028Y-124609266D01*
X184044266Y-124799742D01*
X184044266Y-125847361D01*
X183548400Y-91795504D02*
X183500780Y-91890742D01*
X183500780Y-92033600D01*
X183548400Y-92176457D01*
X183643638Y-92271695D01*
X183738876Y-92319314D01*
X183929352Y-92366933D01*
X184072209Y-92366933D01*
X184262685Y-92319314D01*
X184357923Y-92271695D01*
X184453161Y-92176457D01*
X184500780Y-92033600D01*
X184500780Y-91938361D01*
X184453161Y-91795504D01*
X184405542Y-91747885D01*
X184072209Y-91747885D01*
X184072209Y-91938361D01*
X184500780Y-91319314D02*
X183500780Y-91319314D01*
X184500780Y-90747885D01*
X183500780Y-90747885D01*
X184500780Y-90271695D02*
X183500780Y-90271695D01*
X183500780Y-90033600D01*
X183548400Y-89890742D01*
X183643638Y-89795504D01*
X183738876Y-89747885D01*
X183929352Y-89700266D01*
X184072209Y-89700266D01*
X184262685Y-89747885D01*
X184357923Y-89795504D01*
X184453161Y-89890742D01*
X184500780Y-90033600D01*
X184500780Y-90271695D01*
X180986180Y-92366933D02*
X181986180Y-92033600D01*
X180986180Y-91700266D01*
X181890942Y-90795504D02*
X181938561Y-90843123D01*
X181986180Y-90985980D01*
X181986180Y-91081219D01*
X181938561Y-91224076D01*
X181843323Y-91319314D01*
X181748085Y-91366933D01*
X181557609Y-91414552D01*
X181414752Y-91414552D01*
X181224276Y-91366933D01*
X181129038Y-91319314D01*
X181033800Y-91224076D01*
X180986180Y-91081219D01*
X180986180Y-90985980D01*
X181033800Y-90843123D01*
X181081419Y-90795504D01*
X181890942Y-89795504D02*
X181938561Y-89843123D01*
X181986180Y-89985980D01*
X181986180Y-90081219D01*
X181938561Y-90224076D01*
X181843323Y-90319314D01*
X181748085Y-90366933D01*
X181557609Y-90414552D01*
X181414752Y-90414552D01*
X181224276Y-90366933D01*
X181129038Y-90319314D01*
X181033800Y-90224076D01*
X180986180Y-90081219D01*
X180986180Y-89985980D01*
X181033800Y-89843123D01*
X181081419Y-89795504D01*
X179271561Y-92400285D02*
X179319180Y-92257428D01*
X179319180Y-92019333D01*
X179271561Y-91924095D01*
X179223942Y-91876476D01*
X179128704Y-91828857D01*
X179033466Y-91828857D01*
X178938228Y-91876476D01*
X178890609Y-91924095D01*
X178842990Y-92019333D01*
X178795371Y-92209809D01*
X178747752Y-92305047D01*
X178700133Y-92352666D01*
X178604895Y-92400285D01*
X178509657Y-92400285D01*
X178414419Y-92352666D01*
X178366800Y-92305047D01*
X178319180Y-92209809D01*
X178319180Y-91971714D01*
X178366800Y-91828857D01*
X179319180Y-91400285D02*
X178319180Y-91400285D01*
X178319180Y-91162190D01*
X178366800Y-91019333D01*
X178462038Y-90924095D01*
X178557276Y-90876476D01*
X178747752Y-90828857D01*
X178890609Y-90828857D01*
X179081085Y-90876476D01*
X179176323Y-90924095D01*
X179271561Y-91019333D01*
X179319180Y-91162190D01*
X179319180Y-91400285D01*
X179033466Y-90447904D02*
X179033466Y-89971714D01*
X179319180Y-90543142D02*
X178319180Y-90209809D01*
X179319180Y-89876476D01*
X176756961Y-92401876D02*
X176804580Y-92259019D01*
X176804580Y-92020923D01*
X176756961Y-91925685D01*
X176709342Y-91878066D01*
X176614104Y-91830447D01*
X176518866Y-91830447D01*
X176423628Y-91878066D01*
X176376009Y-91925685D01*
X176328390Y-92020923D01*
X176280771Y-92211400D01*
X176233152Y-92306638D01*
X176185533Y-92354257D01*
X176090295Y-92401876D01*
X175995057Y-92401876D01*
X175899819Y-92354257D01*
X175852200Y-92306638D01*
X175804580Y-92211400D01*
X175804580Y-91973304D01*
X175852200Y-91830447D01*
X176709342Y-90830447D02*
X176756961Y-90878066D01*
X176804580Y-91020923D01*
X176804580Y-91116161D01*
X176756961Y-91259019D01*
X176661723Y-91354257D01*
X176566485Y-91401876D01*
X176376009Y-91449495D01*
X176233152Y-91449495D01*
X176042676Y-91401876D01*
X175947438Y-91354257D01*
X175852200Y-91259019D01*
X175804580Y-91116161D01*
X175804580Y-91020923D01*
X175852200Y-90878066D01*
X175899819Y-90830447D01*
X176804580Y-89925685D02*
X176804580Y-90401876D01*
X175804580Y-90401876D01*
X121571428Y-121627380D02*
X121095238Y-121627380D01*
X121095238Y-120627380D01*
X122047619Y-121627380D02*
X121952380Y-121579761D01*
X121904761Y-121532142D01*
X121857142Y-121436904D01*
X121857142Y-121151190D01*
X121904761Y-121055952D01*
X121952380Y-121008333D01*
X122047619Y-120960714D01*
X122190476Y-120960714D01*
X122285714Y-121008333D01*
X122333333Y-121055952D01*
X122380952Y-121151190D01*
X122380952Y-121436904D01*
X122333333Y-121532142D01*
X122285714Y-121579761D01*
X122190476Y-121627380D01*
X122047619Y-121627380D01*
X122809523Y-120960714D02*
X122809523Y-121627380D01*
X122809523Y-121055952D02*
X122857142Y-121008333D01*
X122952380Y-120960714D01*
X123095238Y-120960714D01*
X123190476Y-121008333D01*
X123238095Y-121103571D01*
X123238095Y-121627380D01*
X124142857Y-121627380D02*
X124142857Y-120627380D01*
X124142857Y-121579761D02*
X124047619Y-121627380D01*
X123857142Y-121627380D01*
X123761904Y-121579761D01*
X123714285Y-121532142D01*
X123666666Y-121436904D01*
X123666666Y-121151190D01*
X123714285Y-121055952D01*
X123761904Y-121008333D01*
X123857142Y-120960714D01*
X124047619Y-120960714D01*
X124142857Y-121008333D01*
X124761904Y-121627380D02*
X124666666Y-121579761D01*
X124619047Y-121532142D01*
X124571428Y-121436904D01*
X124571428Y-121151190D01*
X124619047Y-121055952D01*
X124666666Y-121008333D01*
X124761904Y-120960714D01*
X124904761Y-120960714D01*
X125000000Y-121008333D01*
X125047619Y-121055952D01*
X125095238Y-121151190D01*
X125095238Y-121436904D01*
X125047619Y-121532142D01*
X125000000Y-121579761D01*
X124904761Y-121627380D01*
X124761904Y-121627380D01*
X125523809Y-120960714D02*
X125523809Y-121627380D01*
X125523809Y-121055952D02*
X125571428Y-121008333D01*
X125666666Y-120960714D01*
X125809523Y-120960714D01*
X125904761Y-121008333D01*
X125952380Y-121103571D01*
X125952380Y-121627380D01*
X127190476Y-121627380D02*
X127190476Y-120627380D01*
X127190476Y-121103571D02*
X127761904Y-121103571D01*
X127761904Y-121627380D02*
X127761904Y-120627380D01*
X128666666Y-121627380D02*
X128666666Y-121103571D01*
X128619047Y-121008333D01*
X128523809Y-120960714D01*
X128333333Y-120960714D01*
X128238095Y-121008333D01*
X128666666Y-121579761D02*
X128571428Y-121627380D01*
X128333333Y-121627380D01*
X128238095Y-121579761D01*
X128190476Y-121484523D01*
X128190476Y-121389285D01*
X128238095Y-121294047D01*
X128333333Y-121246428D01*
X128571428Y-121246428D01*
X128666666Y-121198809D01*
X129571428Y-121579761D02*
X129476190Y-121627380D01*
X129285714Y-121627380D01*
X129190476Y-121579761D01*
X129142857Y-121532142D01*
X129095238Y-121436904D01*
X129095238Y-121151190D01*
X129142857Y-121055952D01*
X129190476Y-121008333D01*
X129285714Y-120960714D01*
X129476190Y-120960714D01*
X129571428Y-121008333D01*
X130000000Y-121627380D02*
X130000000Y-120627380D01*
X130095238Y-121246428D02*
X130380952Y-121627380D01*
X130380952Y-120960714D02*
X130000000Y-121341666D01*
X130761904Y-121579761D02*
X130857142Y-121627380D01*
X131047619Y-121627380D01*
X131142857Y-121579761D01*
X131190476Y-121484523D01*
X131190476Y-121436904D01*
X131142857Y-121341666D01*
X131047619Y-121294047D01*
X130904761Y-121294047D01*
X130809523Y-121246428D01*
X130761904Y-121151190D01*
X130761904Y-121103571D01*
X130809523Y-121008333D01*
X130904761Y-120960714D01*
X131047619Y-120960714D01*
X131142857Y-121008333D01*
X131619047Y-120960714D02*
X131619047Y-121960714D01*
X131619047Y-121008333D02*
X131714285Y-120960714D01*
X131904761Y-120960714D01*
X132000000Y-121008333D01*
X132047619Y-121055952D01*
X132095238Y-121151190D01*
X132095238Y-121436904D01*
X132047619Y-121532142D01*
X132000000Y-121579761D01*
X131904761Y-121627380D01*
X131714285Y-121627380D01*
X131619047Y-121579761D01*
X132952380Y-121627380D02*
X132952380Y-121103571D01*
X132904761Y-121008333D01*
X132809523Y-120960714D01*
X132619047Y-120960714D01*
X132523809Y-121008333D01*
X132952380Y-121579761D02*
X132857142Y-121627380D01*
X132619047Y-121627380D01*
X132523809Y-121579761D01*
X132476190Y-121484523D01*
X132476190Y-121389285D01*
X132523809Y-121294047D01*
X132619047Y-121246428D01*
X132857142Y-121246428D01*
X132952380Y-121198809D01*
X133857142Y-121579761D02*
X133761904Y-121627380D01*
X133571428Y-121627380D01*
X133476190Y-121579761D01*
X133428571Y-121532142D01*
X133380952Y-121436904D01*
X133380952Y-121151190D01*
X133428571Y-121055952D01*
X133476190Y-121008333D01*
X133571428Y-120960714D01*
X133761904Y-120960714D01*
X133857142Y-121008333D01*
X134666666Y-121579761D02*
X134571428Y-121627380D01*
X134380952Y-121627380D01*
X134285714Y-121579761D01*
X134238095Y-121484523D01*
X134238095Y-121103571D01*
X134285714Y-121008333D01*
X134380952Y-120960714D01*
X134571428Y-120960714D01*
X134666666Y-121008333D01*
X134714285Y-121103571D01*
X134714285Y-121198809D01*
X134238095Y-121294047D01*
X135857142Y-121341666D02*
X136333333Y-121341666D01*
X135761904Y-121627380D02*
X136095238Y-120627380D01*
X136428571Y-121627380D01*
X137333333Y-121532142D02*
X137285714Y-121579761D01*
X137142857Y-121627380D01*
X137047619Y-121627380D01*
X136904761Y-121579761D01*
X136809523Y-121484523D01*
X136761904Y-121389285D01*
X136714285Y-121198809D01*
X136714285Y-121055952D01*
X136761904Y-120865476D01*
X136809523Y-120770238D01*
X136904761Y-120675000D01*
X137047619Y-120627380D01*
X137142857Y-120627380D01*
X137285714Y-120675000D01*
X137333333Y-120722619D01*
X137761904Y-121627380D02*
X137761904Y-120627380D01*
X138333333Y-121627380D01*
X138333333Y-120627380D01*
X138952380Y-121627380D02*
X138857142Y-121579761D01*
X138809523Y-121532142D01*
X138761904Y-121436904D01*
X138761904Y-121151190D01*
X138809523Y-121055952D01*
X138857142Y-121008333D01*
X138952380Y-120960714D01*
X139095238Y-120960714D01*
X139190476Y-121008333D01*
X139238095Y-121055952D01*
X139285714Y-121151190D01*
X139285714Y-121436904D01*
X139238095Y-121532142D01*
X139190476Y-121579761D01*
X139095238Y-121627380D01*
X138952380Y-121627380D01*
X140142857Y-121627380D02*
X140142857Y-120627380D01*
X140142857Y-121579761D02*
X140047619Y-121627380D01*
X139857142Y-121627380D01*
X139761904Y-121579761D01*
X139714285Y-121532142D01*
X139666666Y-121436904D01*
X139666666Y-121151190D01*
X139714285Y-121055952D01*
X139761904Y-121008333D01*
X139857142Y-120960714D01*
X140047619Y-120960714D01*
X140142857Y-121008333D01*
X141000000Y-121579761D02*
X140904761Y-121627380D01*
X140714285Y-121627380D01*
X140619047Y-121579761D01*
X140571428Y-121484523D01*
X140571428Y-121103571D01*
X140619047Y-121008333D01*
X140714285Y-120960714D01*
X140904761Y-120960714D01*
X141000000Y-121008333D01*
X141047619Y-121103571D01*
X141047619Y-121198809D01*
X140571428Y-121294047D01*
X142809523Y-121627380D02*
X142476190Y-121151190D01*
X142238095Y-121627380D02*
X142238095Y-120627380D01*
X142619047Y-120627380D01*
X142714285Y-120675000D01*
X142761904Y-120722619D01*
X142809523Y-120817857D01*
X142809523Y-120960714D01*
X142761904Y-121055952D01*
X142714285Y-121103571D01*
X142619047Y-121151190D01*
X142238095Y-121151190D01*
X143619047Y-121579761D02*
X143523809Y-121627380D01*
X143333333Y-121627380D01*
X143238095Y-121579761D01*
X143190476Y-121484523D01*
X143190476Y-121103571D01*
X143238095Y-121008333D01*
X143333333Y-120960714D01*
X143523809Y-120960714D01*
X143619047Y-121008333D01*
X143666666Y-121103571D01*
X143666666Y-121198809D01*
X143190476Y-121294047D01*
X144523809Y-121627380D02*
X144523809Y-121103571D01*
X144476190Y-121008333D01*
X144380952Y-120960714D01*
X144190476Y-120960714D01*
X144095238Y-121008333D01*
X144523809Y-121579761D02*
X144428571Y-121627380D01*
X144190476Y-121627380D01*
X144095238Y-121579761D01*
X144047619Y-121484523D01*
X144047619Y-121389285D01*
X144095238Y-121294047D01*
X144190476Y-121246428D01*
X144428571Y-121246428D01*
X144523809Y-121198809D01*
X145428571Y-121627380D02*
X145428571Y-120627380D01*
X145428571Y-121579761D02*
X145333333Y-121627380D01*
X145142857Y-121627380D01*
X145047619Y-121579761D01*
X145000000Y-121532142D01*
X144952380Y-121436904D01*
X144952380Y-121151190D01*
X145000000Y-121055952D01*
X145047619Y-121008333D01*
X145142857Y-120960714D01*
X145333333Y-120960714D01*
X145428571Y-121008333D01*
X146285714Y-121579761D02*
X146190476Y-121627380D01*
X146000000Y-121627380D01*
X145904761Y-121579761D01*
X145857142Y-121484523D01*
X145857142Y-121103571D01*
X145904761Y-121008333D01*
X146000000Y-120960714D01*
X146190476Y-120960714D01*
X146285714Y-121008333D01*
X146333333Y-121103571D01*
X146333333Y-121198809D01*
X145857142Y-121294047D01*
X146761904Y-121627380D02*
X146761904Y-120960714D01*
X146761904Y-121151190D02*
X146809523Y-121055952D01*
X146857142Y-121008333D01*
X146952380Y-120960714D01*
X147047619Y-120960714D01*
X127404761Y-123277380D02*
X127404761Y-122277380D01*
X127642857Y-122277380D01*
X127785714Y-122325000D01*
X127880952Y-122420238D01*
X127928571Y-122515476D01*
X127976190Y-122705952D01*
X127976190Y-122848809D01*
X127928571Y-123039285D01*
X127880952Y-123134523D01*
X127785714Y-123229761D01*
X127642857Y-123277380D01*
X127404761Y-123277380D01*
X128785714Y-123229761D02*
X128690476Y-123277380D01*
X128500000Y-123277380D01*
X128404761Y-123229761D01*
X128357142Y-123134523D01*
X128357142Y-122753571D01*
X128404761Y-122658333D01*
X128500000Y-122610714D01*
X128690476Y-122610714D01*
X128785714Y-122658333D01*
X128833333Y-122753571D01*
X128833333Y-122848809D01*
X128357142Y-122944047D01*
X129261904Y-123277380D02*
X129261904Y-122277380D01*
X129261904Y-122658333D02*
X129357142Y-122610714D01*
X129547619Y-122610714D01*
X129642857Y-122658333D01*
X129690476Y-122705952D01*
X129738095Y-122801190D01*
X129738095Y-123086904D01*
X129690476Y-123182142D01*
X129642857Y-123229761D01*
X129547619Y-123277380D01*
X129357142Y-123277380D01*
X129261904Y-123229761D01*
X130595238Y-122610714D02*
X130595238Y-123277380D01*
X130166666Y-122610714D02*
X130166666Y-123134523D01*
X130214285Y-123229761D01*
X130309523Y-123277380D01*
X130452380Y-123277380D01*
X130547619Y-123229761D01*
X130595238Y-123182142D01*
X131500000Y-122610714D02*
X131500000Y-123420238D01*
X131452380Y-123515476D01*
X131404761Y-123563095D01*
X131309523Y-123610714D01*
X131166666Y-123610714D01*
X131071428Y-123563095D01*
X131500000Y-123229761D02*
X131404761Y-123277380D01*
X131214285Y-123277380D01*
X131119047Y-123229761D01*
X131071428Y-123182142D01*
X131023809Y-123086904D01*
X131023809Y-122801190D01*
X131071428Y-122705952D01*
X131119047Y-122658333D01*
X131214285Y-122610714D01*
X131404761Y-122610714D01*
X131500000Y-122658333D01*
X133071428Y-122753571D02*
X133214285Y-122801190D01*
X133261904Y-122848809D01*
X133309523Y-122944047D01*
X133309523Y-123086904D01*
X133261904Y-123182142D01*
X133214285Y-123229761D01*
X133119047Y-123277380D01*
X132738095Y-123277380D01*
X132738095Y-122277380D01*
X133071428Y-122277380D01*
X133166666Y-122325000D01*
X133214285Y-122372619D01*
X133261904Y-122467857D01*
X133261904Y-122563095D01*
X133214285Y-122658333D01*
X133166666Y-122705952D01*
X133071428Y-122753571D01*
X132738095Y-122753571D01*
X133880952Y-123277380D02*
X133785714Y-123229761D01*
X133738095Y-123182142D01*
X133690476Y-123086904D01*
X133690476Y-122801190D01*
X133738095Y-122705952D01*
X133785714Y-122658333D01*
X133880952Y-122610714D01*
X134023809Y-122610714D01*
X134119047Y-122658333D01*
X134166666Y-122705952D01*
X134214285Y-122801190D01*
X134214285Y-123086904D01*
X134166666Y-123182142D01*
X134119047Y-123229761D01*
X134023809Y-123277380D01*
X133880952Y-123277380D01*
X135071428Y-123277380D02*
X135071428Y-122753571D01*
X135023809Y-122658333D01*
X134928571Y-122610714D01*
X134738095Y-122610714D01*
X134642857Y-122658333D01*
X135071428Y-123229761D02*
X134976190Y-123277380D01*
X134738095Y-123277380D01*
X134642857Y-123229761D01*
X134595238Y-123134523D01*
X134595238Y-123039285D01*
X134642857Y-122944047D01*
X134738095Y-122896428D01*
X134976190Y-122896428D01*
X135071428Y-122848809D01*
X135547619Y-123277380D02*
X135547619Y-122610714D01*
X135547619Y-122801190D02*
X135595238Y-122705952D01*
X135642857Y-122658333D01*
X135738095Y-122610714D01*
X135833333Y-122610714D01*
X136595238Y-123277380D02*
X136595238Y-122277380D01*
X136595238Y-123229761D02*
X136500000Y-123277380D01*
X136309523Y-123277380D01*
X136214285Y-123229761D01*
X136166666Y-123182142D01*
X136119047Y-123086904D01*
X136119047Y-122801190D01*
X136166666Y-122705952D01*
X136214285Y-122658333D01*
X136309523Y-122610714D01*
X136500000Y-122610714D01*
X136595238Y-122658333D01*
X137690476Y-122277380D02*
X138023809Y-123277380D01*
X138357142Y-122277380D01*
X138880952Y-122277380D02*
X138976190Y-122277380D01*
X139071428Y-122325000D01*
X139119047Y-122372619D01*
X139166666Y-122467857D01*
X139214285Y-122658333D01*
X139214285Y-122896428D01*
X139166666Y-123086904D01*
X139119047Y-123182142D01*
X139071428Y-123229761D01*
X138976190Y-123277380D01*
X138880952Y-123277380D01*
X138785714Y-123229761D01*
X138738095Y-123182142D01*
X138690476Y-123086904D01*
X138642857Y-122896428D01*
X138642857Y-122658333D01*
X138690476Y-122467857D01*
X138738095Y-122372619D01*
X138785714Y-122325000D01*
X138880952Y-122277380D01*
X139642857Y-123182142D02*
X139690476Y-123229761D01*
X139642857Y-123277380D01*
X139595238Y-123229761D01*
X139642857Y-123182142D01*
X139642857Y-123277380D01*
X140166666Y-123277380D02*
X140357142Y-123277380D01*
X140452380Y-123229761D01*
X140500000Y-123182142D01*
X140595238Y-123039285D01*
X140642857Y-122848809D01*
X140642857Y-122467857D01*
X140595238Y-122372619D01*
X140547619Y-122325000D01*
X140452380Y-122277380D01*
X140261904Y-122277380D01*
X140166666Y-122325000D01*
X140119047Y-122372619D01*
X140071428Y-122467857D01*
X140071428Y-122705952D01*
X140119047Y-122801190D01*
X140166666Y-122848809D01*
X140261904Y-122896428D01*
X140452380Y-122896428D01*
X140547619Y-122848809D01*
X140595238Y-122801190D01*
X140642857Y-122705952D01*
D11*
X120058857Y-102493857D02*
X120273142Y-102565285D01*
X120344571Y-102636714D01*
X120416000Y-102779571D01*
X120416000Y-102993857D01*
X120344571Y-103136714D01*
X120273142Y-103208142D01*
X120130285Y-103279571D01*
X119558857Y-103279571D01*
X119558857Y-101779571D01*
X120058857Y-101779571D01*
X120201714Y-101851000D01*
X120273142Y-101922428D01*
X120344571Y-102065285D01*
X120344571Y-102208142D01*
X120273142Y-102351000D01*
X120201714Y-102422428D01*
X120058857Y-102493857D01*
X119558857Y-102493857D01*
X121273142Y-103279571D02*
X121130285Y-103208142D01*
X121058857Y-103065285D01*
X121058857Y-101779571D01*
X122487428Y-102279571D02*
X122487428Y-103279571D01*
X121844571Y-102279571D02*
X121844571Y-103065285D01*
X121916000Y-103208142D01*
X122058857Y-103279571D01*
X122273142Y-103279571D01*
X122416000Y-103208142D01*
X122487428Y-103136714D01*
X123773142Y-103208142D02*
X123630285Y-103279571D01*
X123344571Y-103279571D01*
X123201714Y-103208142D01*
X123130285Y-103065285D01*
X123130285Y-102493857D01*
X123201714Y-102351000D01*
X123344571Y-102279571D01*
X123630285Y-102279571D01*
X123773142Y-102351000D01*
X123844571Y-102493857D01*
X123844571Y-102636714D01*
X123130285Y-102779571D01*
X119630285Y-104401000D02*
X119487428Y-104329571D01*
X119273142Y-104329571D01*
X119058857Y-104401000D01*
X118916000Y-104543857D01*
X118844571Y-104686714D01*
X118773142Y-104972428D01*
X118773142Y-105186714D01*
X118844571Y-105472428D01*
X118916000Y-105615285D01*
X119058857Y-105758142D01*
X119273142Y-105829571D01*
X119416000Y-105829571D01*
X119630285Y-105758142D01*
X119701714Y-105686714D01*
X119701714Y-105186714D01*
X119416000Y-105186714D01*
X120344571Y-105829571D02*
X120344571Y-104829571D01*
X120344571Y-105115285D02*
X120416000Y-104972428D01*
X120487428Y-104901000D01*
X120630285Y-104829571D01*
X120773142Y-104829571D01*
X121844571Y-105758142D02*
X121701714Y-105829571D01*
X121416000Y-105829571D01*
X121273142Y-105758142D01*
X121201714Y-105615285D01*
X121201714Y-105043857D01*
X121273142Y-104901000D01*
X121416000Y-104829571D01*
X121701714Y-104829571D01*
X121844571Y-104901000D01*
X121916000Y-105043857D01*
X121916000Y-105186714D01*
X121201714Y-105329571D01*
X123130285Y-105758142D02*
X122987428Y-105829571D01*
X122701714Y-105829571D01*
X122558857Y-105758142D01*
X122487428Y-105615285D01*
X122487428Y-105043857D01*
X122558857Y-104901000D01*
X122701714Y-104829571D01*
X122987428Y-104829571D01*
X123130285Y-104901000D01*
X123201714Y-105043857D01*
X123201714Y-105186714D01*
X122487428Y-105329571D01*
X123844571Y-104829571D02*
X123844571Y-105829571D01*
X123844571Y-104972428D02*
X123916000Y-104901000D01*
X124058857Y-104829571D01*
X124273142Y-104829571D01*
X124416000Y-104901000D01*
X124487428Y-105043857D01*
X124487428Y-105829571D01*
X120523142Y-106951000D02*
X120380285Y-106879571D01*
X120166000Y-106879571D01*
X119951714Y-106951000D01*
X119808857Y-107093857D01*
X119737428Y-107236714D01*
X119666000Y-107522428D01*
X119666000Y-107736714D01*
X119737428Y-108022428D01*
X119808857Y-108165285D01*
X119951714Y-108308142D01*
X120166000Y-108379571D01*
X120308857Y-108379571D01*
X120523142Y-108308142D01*
X120594571Y-108236714D01*
X120594571Y-107736714D01*
X120308857Y-107736714D01*
X121237428Y-108379571D02*
X121237428Y-106879571D01*
X122094571Y-108379571D01*
X122094571Y-106879571D01*
X122808857Y-108379571D02*
X122808857Y-106879571D01*
X123166000Y-106879571D01*
X123380285Y-106951000D01*
X123523142Y-107093857D01*
X123594571Y-107236714D01*
X123666000Y-107522428D01*
X123666000Y-107736714D01*
X123594571Y-108022428D01*
X123523142Y-108165285D01*
X123380285Y-108308142D01*
X123166000Y-108379571D01*
X122808857Y-108379571D01*
X120808857Y-110929571D02*
X120308857Y-110215285D01*
X119951714Y-110929571D02*
X119951714Y-109429571D01*
X120523142Y-109429571D01*
X120666000Y-109501000D01*
X120737428Y-109572428D01*
X120808857Y-109715285D01*
X120808857Y-109929571D01*
X120737428Y-110072428D01*
X120666000Y-110143857D01*
X120523142Y-110215285D01*
X119951714Y-110215285D01*
X122023142Y-110858142D02*
X121880285Y-110929571D01*
X121594571Y-110929571D01*
X121451714Y-110858142D01*
X121380285Y-110715285D01*
X121380285Y-110143857D01*
X121451714Y-110001000D01*
X121594571Y-109929571D01*
X121880285Y-109929571D01*
X122023142Y-110001000D01*
X122094571Y-110143857D01*
X122094571Y-110286714D01*
X121380285Y-110429571D01*
X123380285Y-110929571D02*
X123380285Y-109429571D01*
X123380285Y-110858142D02*
X123237428Y-110929571D01*
X122951714Y-110929571D01*
X122808857Y-110858142D01*
X122737428Y-110786714D01*
X122666000Y-110643857D01*
X122666000Y-110215285D01*
X122737428Y-110072428D01*
X122808857Y-110001000D01*
X122951714Y-109929571D01*
X123237428Y-109929571D01*
X123380285Y-110001000D01*
D10*
X174188380Y-89748857D02*
X173188380Y-89748857D01*
X173283619Y-89320285D02*
X173236000Y-89272666D01*
X173188380Y-89177428D01*
X173188380Y-88939333D01*
X173236000Y-88844095D01*
X173283619Y-88796476D01*
X173378857Y-88748857D01*
X173474095Y-88748857D01*
X173616952Y-88796476D01*
X174188380Y-89367904D01*
X174188380Y-88748857D01*
X174093142Y-87748857D02*
X174140761Y-87796476D01*
X174188380Y-87939333D01*
X174188380Y-88034571D01*
X174140761Y-88177428D01*
X174045523Y-88272666D01*
X173950285Y-88320285D01*
X173759809Y-88367904D01*
X173616952Y-88367904D01*
X173426476Y-88320285D01*
X173331238Y-88272666D01*
X173236000Y-88177428D01*
X173188380Y-88034571D01*
X173188380Y-87939333D01*
X173236000Y-87796476D01*
X173283619Y-87748857D01*
X174188380Y-86558380D02*
X173188380Y-86558380D01*
X173188380Y-86320285D01*
X173236000Y-86177428D01*
X173331238Y-86082190D01*
X173426476Y-86034571D01*
X173616952Y-85986952D01*
X173759809Y-85986952D01*
X173950285Y-86034571D01*
X174045523Y-86082190D01*
X174140761Y-86177428D01*
X174188380Y-86320285D01*
X174188380Y-86558380D01*
X174140761Y-85177428D02*
X174188380Y-85272666D01*
X174188380Y-85463142D01*
X174140761Y-85558380D01*
X174045523Y-85606000D01*
X173664571Y-85606000D01*
X173569333Y-85558380D01*
X173521714Y-85463142D01*
X173521714Y-85272666D01*
X173569333Y-85177428D01*
X173664571Y-85129809D01*
X173759809Y-85129809D01*
X173855047Y-85606000D01*
X174188380Y-84701238D02*
X173188380Y-84701238D01*
X173569333Y-84701238D02*
X173521714Y-84606000D01*
X173521714Y-84415523D01*
X173569333Y-84320285D01*
X173616952Y-84272666D01*
X173712190Y-84225047D01*
X173997904Y-84225047D01*
X174093142Y-84272666D01*
X174140761Y-84320285D01*
X174188380Y-84415523D01*
X174188380Y-84606000D01*
X174140761Y-84701238D01*
X173521714Y-83367904D02*
X174188380Y-83367904D01*
X173521714Y-83796476D02*
X174045523Y-83796476D01*
X174140761Y-83748857D01*
X174188380Y-83653619D01*
X174188380Y-83510761D01*
X174140761Y-83415523D01*
X174093142Y-83367904D01*
X173521714Y-82463142D02*
X174331238Y-82463142D01*
X174426476Y-82510761D01*
X174474095Y-82558380D01*
X174521714Y-82653619D01*
X174521714Y-82796476D01*
X174474095Y-82891714D01*
X174140761Y-82463142D02*
X174188380Y-82558380D01*
X174188380Y-82748857D01*
X174140761Y-82844095D01*
X174093142Y-82891714D01*
X173997904Y-82939333D01*
X173712190Y-82939333D01*
X173616952Y-82891714D01*
X173569333Y-82844095D01*
X173521714Y-82748857D01*
X173521714Y-82558380D01*
X173569333Y-82463142D01*
X169727714Y-88796761D02*
X169870571Y-88844380D01*
X170108666Y-88844380D01*
X170203904Y-88796761D01*
X170251523Y-88749142D01*
X170299142Y-88653904D01*
X170299142Y-88558666D01*
X170251523Y-88463428D01*
X170203904Y-88415809D01*
X170108666Y-88368190D01*
X169918190Y-88320571D01*
X169822952Y-88272952D01*
X169775333Y-88225333D01*
X169727714Y-88130095D01*
X169727714Y-88034857D01*
X169775333Y-87939619D01*
X169822952Y-87892000D01*
X169918190Y-87844380D01*
X170156285Y-87844380D01*
X170299142Y-87892000D01*
X170727714Y-88844380D02*
X170727714Y-87844380D01*
X170965809Y-87844380D01*
X171108666Y-87892000D01*
X171203904Y-87987238D01*
X171251523Y-88082476D01*
X171299142Y-88272952D01*
X171299142Y-88415809D01*
X171251523Y-88606285D01*
X171203904Y-88701523D01*
X171108666Y-88796761D01*
X170965809Y-88844380D01*
X170727714Y-88844380D01*
X171680095Y-88558666D02*
X172156285Y-88558666D01*
X171584857Y-88844380D02*
X171918190Y-87844380D01*
X172251523Y-88844380D01*
X169751523Y-86256761D02*
X169894380Y-86304380D01*
X170132476Y-86304380D01*
X170227714Y-86256761D01*
X170275333Y-86209142D01*
X170322952Y-86113904D01*
X170322952Y-86018666D01*
X170275333Y-85923428D01*
X170227714Y-85875809D01*
X170132476Y-85828190D01*
X169942000Y-85780571D01*
X169846761Y-85732952D01*
X169799142Y-85685333D01*
X169751523Y-85590095D01*
X169751523Y-85494857D01*
X169799142Y-85399619D01*
X169846761Y-85352000D01*
X169942000Y-85304380D01*
X170180095Y-85304380D01*
X170322952Y-85352000D01*
X171322952Y-86209142D02*
X171275333Y-86256761D01*
X171132476Y-86304380D01*
X171037238Y-86304380D01*
X170894380Y-86256761D01*
X170799142Y-86161523D01*
X170751523Y-86066285D01*
X170703904Y-85875809D01*
X170703904Y-85732952D01*
X170751523Y-85542476D01*
X170799142Y-85447238D01*
X170894380Y-85352000D01*
X171037238Y-85304380D01*
X171132476Y-85304380D01*
X171275333Y-85352000D01*
X171322952Y-85399619D01*
X172227714Y-86304380D02*
X171751523Y-86304380D01*
X171751523Y-85304380D01*
X170180095Y-82558000D02*
X170084857Y-82510380D01*
X169942000Y-82510380D01*
X169799142Y-82558000D01*
X169703904Y-82653238D01*
X169656285Y-82748476D01*
X169608666Y-82938952D01*
X169608666Y-83081809D01*
X169656285Y-83272285D01*
X169703904Y-83367523D01*
X169799142Y-83462761D01*
X169942000Y-83510380D01*
X170037238Y-83510380D01*
X170180095Y-83462761D01*
X170227714Y-83415142D01*
X170227714Y-83081809D01*
X170037238Y-83081809D01*
X170656285Y-83510380D02*
X170656285Y-82510380D01*
X171227714Y-83510380D01*
X171227714Y-82510380D01*
X171703904Y-83510380D02*
X171703904Y-82510380D01*
X171942000Y-82510380D01*
X172084857Y-82558000D01*
X172180095Y-82653238D01*
X172227714Y-82748476D01*
X172275333Y-82938952D01*
X172275333Y-83081809D01*
X172227714Y-83272285D01*
X172180095Y-83367523D01*
X172084857Y-83462761D01*
X171942000Y-83510380D01*
X171703904Y-83510380D01*
D11*
X158162857Y-126154571D02*
X157662857Y-125440285D01*
X157305714Y-126154571D02*
X157305714Y-124654571D01*
X157877142Y-124654571D01*
X158020000Y-124726000D01*
X158091428Y-124797428D01*
X158162857Y-124940285D01*
X158162857Y-125154571D01*
X158091428Y-125297428D01*
X158020000Y-125368857D01*
X157877142Y-125440285D01*
X157305714Y-125440285D01*
X159377142Y-126083142D02*
X159234285Y-126154571D01*
X158948571Y-126154571D01*
X158805714Y-126083142D01*
X158734285Y-125940285D01*
X158734285Y-125368857D01*
X158805714Y-125226000D01*
X158948571Y-125154571D01*
X159234285Y-125154571D01*
X159377142Y-125226000D01*
X159448571Y-125368857D01*
X159448571Y-125511714D01*
X158734285Y-125654571D01*
X160020000Y-126083142D02*
X160162857Y-126154571D01*
X160448571Y-126154571D01*
X160591428Y-126083142D01*
X160662857Y-125940285D01*
X160662857Y-125868857D01*
X160591428Y-125726000D01*
X160448571Y-125654571D01*
X160234285Y-125654571D01*
X160091428Y-125583142D01*
X160020000Y-125440285D01*
X160020000Y-125368857D01*
X160091428Y-125226000D01*
X160234285Y-125154571D01*
X160448571Y-125154571D01*
X160591428Y-125226000D01*
X161877142Y-126083142D02*
X161734285Y-126154571D01*
X161448571Y-126154571D01*
X161305714Y-126083142D01*
X161234285Y-125940285D01*
X161234285Y-125368857D01*
X161305714Y-125226000D01*
X161448571Y-125154571D01*
X161734285Y-125154571D01*
X161877142Y-125226000D01*
X161948571Y-125368857D01*
X161948571Y-125511714D01*
X161234285Y-125654571D01*
X162377142Y-125154571D02*
X162948571Y-125154571D01*
X162591428Y-124654571D02*
X162591428Y-125940285D01*
X162662857Y-126083142D01*
X162805714Y-126154571D01*
X162948571Y-126154571D01*
D10*
X180490761Y-107322476D02*
X180538380Y-107179619D01*
X180538380Y-106941523D01*
X180490761Y-106846285D01*
X180443142Y-106798666D01*
X180347904Y-106751047D01*
X180252666Y-106751047D01*
X180157428Y-106798666D01*
X180109809Y-106846285D01*
X180062190Y-106941523D01*
X180014571Y-107132000D01*
X179966952Y-107227238D01*
X179919333Y-107274857D01*
X179824095Y-107322476D01*
X179728857Y-107322476D01*
X179633619Y-107274857D01*
X179586000Y-107227238D01*
X179538380Y-107132000D01*
X179538380Y-106893904D01*
X179586000Y-106751047D01*
X180538380Y-106322476D02*
X179538380Y-106322476D01*
X179538380Y-105941523D01*
X179586000Y-105846285D01*
X179633619Y-105798666D01*
X179728857Y-105751047D01*
X179871714Y-105751047D01*
X179966952Y-105798666D01*
X180014571Y-105846285D01*
X180062190Y-105941523D01*
X180062190Y-106322476D01*
X180538380Y-105322476D02*
X179538380Y-105322476D01*
X180538380Y-104084380D02*
X179538380Y-104084380D01*
X179538380Y-103846285D01*
X179586000Y-103703428D01*
X179681238Y-103608190D01*
X179776476Y-103560571D01*
X179966952Y-103512952D01*
X180109809Y-103512952D01*
X180300285Y-103560571D01*
X180395523Y-103608190D01*
X180490761Y-103703428D01*
X180538380Y-103846285D01*
X180538380Y-104084380D01*
X180490761Y-102703428D02*
X180538380Y-102798666D01*
X180538380Y-102989142D01*
X180490761Y-103084380D01*
X180395523Y-103132000D01*
X180014571Y-103132000D01*
X179919333Y-103084380D01*
X179871714Y-102989142D01*
X179871714Y-102798666D01*
X179919333Y-102703428D01*
X180014571Y-102655809D01*
X180109809Y-102655809D01*
X180205047Y-103132000D01*
X180538380Y-102227238D02*
X179538380Y-102227238D01*
X179919333Y-102227238D02*
X179871714Y-102132000D01*
X179871714Y-101941523D01*
X179919333Y-101846285D01*
X179966952Y-101798666D01*
X180062190Y-101751047D01*
X180347904Y-101751047D01*
X180443142Y-101798666D01*
X180490761Y-101846285D01*
X180538380Y-101941523D01*
X180538380Y-102132000D01*
X180490761Y-102227238D01*
X179871714Y-100893904D02*
X180538380Y-100893904D01*
X179871714Y-101322476D02*
X180395523Y-101322476D01*
X180490761Y-101274857D01*
X180538380Y-101179619D01*
X180538380Y-101036761D01*
X180490761Y-100941523D01*
X180443142Y-100893904D01*
X179871714Y-99989142D02*
X180681238Y-99989142D01*
X180776476Y-100036761D01*
X180824095Y-100084380D01*
X180871714Y-100179619D01*
X180871714Y-100322476D01*
X180824095Y-100417714D01*
X180490761Y-99989142D02*
X180538380Y-100084380D01*
X180538380Y-100274857D01*
X180490761Y-100370095D01*
X180443142Y-100417714D01*
X180347904Y-100465333D01*
X180062190Y-100465333D01*
X179966952Y-100417714D01*
X179919333Y-100370095D01*
X179871714Y-100274857D01*
X179871714Y-100084380D01*
X179919333Y-99989142D01*
D11*
X175387142Y-98036000D02*
X175244285Y-97964571D01*
X175030000Y-97964571D01*
X174815714Y-98036000D01*
X174672857Y-98178857D01*
X174601428Y-98321714D01*
X174530000Y-98607428D01*
X174530000Y-98821714D01*
X174601428Y-99107428D01*
X174672857Y-99250285D01*
X174815714Y-99393142D01*
X175030000Y-99464571D01*
X175172857Y-99464571D01*
X175387142Y-99393142D01*
X175458571Y-99321714D01*
X175458571Y-98821714D01*
X175172857Y-98821714D01*
X176101428Y-99464571D02*
X176101428Y-97964571D01*
X176958571Y-99464571D01*
X176958571Y-97964571D01*
X177672857Y-99464571D02*
X177672857Y-97964571D01*
X178030000Y-97964571D01*
X178244285Y-98036000D01*
X178387142Y-98178857D01*
X178458571Y-98321714D01*
X178530000Y-98607428D01*
X178530000Y-98821714D01*
X178458571Y-99107428D01*
X178387142Y-99250285D01*
X178244285Y-99393142D01*
X178030000Y-99464571D01*
X177672857Y-99464571D01*
X175387142Y-101943142D02*
X175601428Y-102014571D01*
X175958571Y-102014571D01*
X176101428Y-101943142D01*
X176172857Y-101871714D01*
X176244285Y-101728857D01*
X176244285Y-101586000D01*
X176172857Y-101443142D01*
X176101428Y-101371714D01*
X175958571Y-101300285D01*
X175672857Y-101228857D01*
X175530000Y-101157428D01*
X175458571Y-101086000D01*
X175387142Y-100943142D01*
X175387142Y-100800285D01*
X175458571Y-100657428D01*
X175530000Y-100586000D01*
X175672857Y-100514571D01*
X176030000Y-100514571D01*
X176244285Y-100586000D01*
X176815714Y-101943142D02*
X177030000Y-102014571D01*
X177387142Y-102014571D01*
X177530000Y-101943142D01*
X177601428Y-101871714D01*
X177672857Y-101728857D01*
X177672857Y-101586000D01*
X177601428Y-101443142D01*
X177530000Y-101371714D01*
X177387142Y-101300285D01*
X177101428Y-101228857D01*
X176958571Y-101157428D01*
X176887142Y-101086000D01*
X176815714Y-100943142D01*
X176815714Y-100800285D01*
X176887142Y-100657428D01*
X176958571Y-100586000D01*
X177101428Y-100514571D01*
X177458571Y-100514571D01*
X177672857Y-100586000D01*
X174601428Y-104493142D02*
X174815714Y-104564571D01*
X175172857Y-104564571D01*
X175315714Y-104493142D01*
X175387142Y-104421714D01*
X175458571Y-104278857D01*
X175458571Y-104136000D01*
X175387142Y-103993142D01*
X175315714Y-103921714D01*
X175172857Y-103850285D01*
X174887142Y-103778857D01*
X174744285Y-103707428D01*
X174672857Y-103636000D01*
X174601428Y-103493142D01*
X174601428Y-103350285D01*
X174672857Y-103207428D01*
X174744285Y-103136000D01*
X174887142Y-103064571D01*
X175244285Y-103064571D01*
X175458571Y-103136000D01*
X176958571Y-104421714D02*
X176887142Y-104493142D01*
X176672857Y-104564571D01*
X176530000Y-104564571D01*
X176315714Y-104493142D01*
X176172857Y-104350285D01*
X176101428Y-104207428D01*
X176030000Y-103921714D01*
X176030000Y-103707428D01*
X176101428Y-103421714D01*
X176172857Y-103278857D01*
X176315714Y-103136000D01*
X176530000Y-103064571D01*
X176672857Y-103064571D01*
X176887142Y-103136000D01*
X176958571Y-103207428D01*
X177601428Y-104564571D02*
X177601428Y-103064571D01*
X178458571Y-104564571D02*
X177815714Y-103707428D01*
X178458571Y-103064571D02*
X177601428Y-103921714D01*
X174172857Y-107114571D02*
X174172857Y-105614571D01*
X174672857Y-106686000D01*
X175172857Y-105614571D01*
X175172857Y-107114571D01*
X176172857Y-105614571D02*
X176458571Y-105614571D01*
X176601428Y-105686000D01*
X176744285Y-105828857D01*
X176815714Y-106114571D01*
X176815714Y-106614571D01*
X176744285Y-106900285D01*
X176601428Y-107043142D01*
X176458571Y-107114571D01*
X176172857Y-107114571D01*
X176030000Y-107043142D01*
X175887142Y-106900285D01*
X175815714Y-106614571D01*
X175815714Y-106114571D01*
X175887142Y-105828857D01*
X176030000Y-105686000D01*
X176172857Y-105614571D01*
X177387142Y-107043142D02*
X177601428Y-107114571D01*
X177958571Y-107114571D01*
X178101428Y-107043142D01*
X178172857Y-106971714D01*
X178244285Y-106828857D01*
X178244285Y-106686000D01*
X178172857Y-106543142D01*
X178101428Y-106471714D01*
X177958571Y-106400285D01*
X177672857Y-106328857D01*
X177530000Y-106257428D01*
X177458571Y-106186000D01*
X177387142Y-106043142D01*
X177387142Y-105900285D01*
X177458571Y-105757428D01*
X177530000Y-105686000D01*
X177672857Y-105614571D01*
X178030000Y-105614571D01*
X178244285Y-105686000D01*
X178887142Y-107114571D02*
X178887142Y-105614571D01*
X174172857Y-109664571D02*
X174172857Y-108164571D01*
X174672857Y-109236000D01*
X175172857Y-108164571D01*
X175172857Y-109664571D01*
X175887142Y-109664571D02*
X175887142Y-108164571D01*
X176530000Y-109593142D02*
X176744285Y-109664571D01*
X177101428Y-109664571D01*
X177244285Y-109593142D01*
X177315714Y-109521714D01*
X177387142Y-109378857D01*
X177387142Y-109236000D01*
X177315714Y-109093142D01*
X177244285Y-109021714D01*
X177101428Y-108950285D01*
X176815714Y-108878857D01*
X176672857Y-108807428D01*
X176601428Y-108736000D01*
X176530000Y-108593142D01*
X176530000Y-108450285D01*
X176601428Y-108307428D01*
X176672857Y-108236000D01*
X176815714Y-108164571D01*
X177172857Y-108164571D01*
X177387142Y-108236000D01*
X178315714Y-108164571D02*
X178601428Y-108164571D01*
X178744285Y-108236000D01*
X178887142Y-108378857D01*
X178958571Y-108664571D01*
X178958571Y-109164571D01*
X178887142Y-109450285D01*
X178744285Y-109593142D01*
X178601428Y-109664571D01*
X178315714Y-109664571D01*
X178172857Y-109593142D01*
X178030000Y-109450285D01*
X177958571Y-109164571D01*
X177958571Y-108664571D01*
X178030000Y-108378857D01*
X178172857Y-108236000D01*
X178315714Y-108164571D01*
X128623142Y-98404285D02*
X128694571Y-98190000D01*
X128694571Y-97832857D01*
X128623142Y-97690000D01*
X128551714Y-97618571D01*
X128408857Y-97547142D01*
X128266000Y-97547142D01*
X128123142Y-97618571D01*
X128051714Y-97690000D01*
X127980285Y-97832857D01*
X127908857Y-98118571D01*
X127837428Y-98261428D01*
X127766000Y-98332857D01*
X127623142Y-98404285D01*
X127480285Y-98404285D01*
X127337428Y-98332857D01*
X127266000Y-98261428D01*
X127194571Y-98118571D01*
X127194571Y-97761428D01*
X127266000Y-97547142D01*
X128623142Y-96332857D02*
X128694571Y-96475714D01*
X128694571Y-96761428D01*
X128623142Y-96904285D01*
X128480285Y-96975714D01*
X127908857Y-96975714D01*
X127766000Y-96904285D01*
X127694571Y-96761428D01*
X127694571Y-96475714D01*
X127766000Y-96332857D01*
X127908857Y-96261428D01*
X128051714Y-96261428D01*
X128194571Y-96975714D01*
X128694571Y-95618571D02*
X127694571Y-95618571D01*
X127980285Y-95618571D02*
X127837428Y-95547142D01*
X127766000Y-95475714D01*
X127694571Y-95332857D01*
X127694571Y-95190000D01*
X128694571Y-94690000D02*
X127694571Y-94690000D01*
X127194571Y-94690000D02*
X127266000Y-94761428D01*
X127337428Y-94690000D01*
X127266000Y-94618571D01*
X127194571Y-94690000D01*
X127337428Y-94690000D01*
X128694571Y-93332857D02*
X127908857Y-93332857D01*
X127766000Y-93404285D01*
X127694571Y-93547142D01*
X127694571Y-93832857D01*
X127766000Y-93975714D01*
X128623142Y-93332857D02*
X128694571Y-93475714D01*
X128694571Y-93832857D01*
X128623142Y-93975714D01*
X128480285Y-94047142D01*
X128337428Y-94047142D01*
X128194571Y-93975714D01*
X128123142Y-93832857D01*
X128123142Y-93475714D01*
X128051714Y-93332857D01*
X128694571Y-92404285D02*
X128623142Y-92547142D01*
X128480285Y-92618571D01*
X127194571Y-92618571D01*
X128694571Y-90690000D02*
X127194571Y-90690000D01*
X127194571Y-90332857D01*
X127266000Y-90118571D01*
X127408857Y-89975714D01*
X127551714Y-89904285D01*
X127837428Y-89832857D01*
X128051714Y-89832857D01*
X128337428Y-89904285D01*
X128480285Y-89975714D01*
X128623142Y-90118571D01*
X128694571Y-90332857D01*
X128694571Y-90690000D01*
X128623142Y-88618571D02*
X128694571Y-88761428D01*
X128694571Y-89047142D01*
X128623142Y-89190000D01*
X128480285Y-89261428D01*
X127908857Y-89261428D01*
X127766000Y-89190000D01*
X127694571Y-89047142D01*
X127694571Y-88761428D01*
X127766000Y-88618571D01*
X127908857Y-88547142D01*
X128051714Y-88547142D01*
X128194571Y-89261428D01*
X128694571Y-87904285D02*
X127194571Y-87904285D01*
X127766000Y-87904285D02*
X127694571Y-87761428D01*
X127694571Y-87475714D01*
X127766000Y-87332857D01*
X127837428Y-87261428D01*
X127980285Y-87190000D01*
X128408857Y-87190000D01*
X128551714Y-87261428D01*
X128623142Y-87332857D01*
X128694571Y-87475714D01*
X128694571Y-87761428D01*
X128623142Y-87904285D01*
X127694571Y-85904285D02*
X128694571Y-85904285D01*
X127694571Y-86547142D02*
X128480285Y-86547142D01*
X128623142Y-86475714D01*
X128694571Y-86332857D01*
X128694571Y-86118571D01*
X128623142Y-85975714D01*
X128551714Y-85904285D01*
X127694571Y-84547142D02*
X128908857Y-84547142D01*
X129051714Y-84618571D01*
X129123142Y-84690000D01*
X129194571Y-84832857D01*
X129194571Y-85047142D01*
X129123142Y-85190000D01*
X128623142Y-84547142D02*
X128694571Y-84690000D01*
X128694571Y-84975714D01*
X128623142Y-85118571D01*
X128551714Y-85190000D01*
X128408857Y-85261428D01*
X127980285Y-85261428D01*
X127837428Y-85190000D01*
X127766000Y-85118571D01*
X127694571Y-84975714D01*
X127694571Y-84690000D01*
X127766000Y-84547142D01*
X130175142Y-88394000D02*
X130032285Y-88322571D01*
X129818000Y-88322571D01*
X129603714Y-88394000D01*
X129460857Y-88536857D01*
X129389428Y-88679714D01*
X129318000Y-88965428D01*
X129318000Y-89179714D01*
X129389428Y-89465428D01*
X129460857Y-89608285D01*
X129603714Y-89751142D01*
X129818000Y-89822571D01*
X129960857Y-89822571D01*
X130175142Y-89751142D01*
X130246571Y-89679714D01*
X130246571Y-89179714D01*
X129960857Y-89179714D01*
X130889428Y-89822571D02*
X130889428Y-88322571D01*
X131746571Y-89822571D01*
X131746571Y-88322571D01*
X132460857Y-89822571D02*
X132460857Y-88322571D01*
X132818000Y-88322571D01*
X133032285Y-88394000D01*
X133175142Y-88536857D01*
X133246571Y-88679714D01*
X133318000Y-88965428D01*
X133318000Y-89179714D01*
X133246571Y-89465428D01*
X133175142Y-89608285D01*
X133032285Y-89751142D01*
X132818000Y-89822571D01*
X132460857Y-89822571D01*
X131068000Y-92372571D02*
X130568000Y-91658285D01*
X130210857Y-92372571D02*
X130210857Y-90872571D01*
X130782285Y-90872571D01*
X130925142Y-90944000D01*
X130996571Y-91015428D01*
X131068000Y-91158285D01*
X131068000Y-91372571D01*
X130996571Y-91515428D01*
X130925142Y-91586857D01*
X130782285Y-91658285D01*
X130210857Y-91658285D01*
X131568000Y-90872571D02*
X132568000Y-92372571D01*
X132568000Y-90872571D02*
X131568000Y-92372571D01*
X130175142Y-93422571D02*
X131032285Y-93422571D01*
X130603714Y-94922571D02*
X130603714Y-93422571D01*
X131389428Y-93422571D02*
X132389428Y-94922571D01*
X132389428Y-93422571D02*
X131389428Y-94922571D01*
X179935428Y-72497142D02*
X181078285Y-72497142D01*
X180506857Y-73068571D02*
X180506857Y-71925714D01*
X182506857Y-71568571D02*
X181792571Y-71568571D01*
X181721142Y-72282857D01*
X181792571Y-72211428D01*
X181935428Y-72140000D01*
X182292571Y-72140000D01*
X182435428Y-72211428D01*
X182506857Y-72282857D01*
X182578285Y-72425714D01*
X182578285Y-72782857D01*
X182506857Y-72925714D01*
X182435428Y-72997142D01*
X182292571Y-73068571D01*
X181935428Y-73068571D01*
X181792571Y-72997142D01*
X181721142Y-72925714D01*
X183006857Y-71568571D02*
X183506857Y-73068571D01*
X184006857Y-71568571D01*
X179729142Y-67417142D02*
X180872000Y-67417142D01*
X180300571Y-67988571D02*
X180300571Y-66845714D01*
X182372000Y-67988571D02*
X181514857Y-67988571D01*
X181943428Y-67988571D02*
X181943428Y-66488571D01*
X181800571Y-66702857D01*
X181657714Y-66845714D01*
X181514857Y-66917142D01*
X182943428Y-66631428D02*
X183014857Y-66560000D01*
X183157714Y-66488571D01*
X183514857Y-66488571D01*
X183657714Y-66560000D01*
X183729142Y-66631428D01*
X183800571Y-66774285D01*
X183800571Y-66917142D01*
X183729142Y-67131428D01*
X182872000Y-67988571D01*
X183800571Y-67988571D01*
X184229142Y-66488571D02*
X184729142Y-67988571D01*
X185229142Y-66488571D01*
X180721142Y-69100000D02*
X180578285Y-69028571D01*
X180364000Y-69028571D01*
X180149714Y-69100000D01*
X180006857Y-69242857D01*
X179935428Y-69385714D01*
X179864000Y-69671428D01*
X179864000Y-69885714D01*
X179935428Y-70171428D01*
X180006857Y-70314285D01*
X180149714Y-70457142D01*
X180364000Y-70528571D01*
X180506857Y-70528571D01*
X180721142Y-70457142D01*
X180792571Y-70385714D01*
X180792571Y-69885714D01*
X180506857Y-69885714D01*
X181435428Y-70528571D02*
X181435428Y-69028571D01*
X182292571Y-70528571D01*
X182292571Y-69028571D01*
X183006857Y-70528571D02*
X183006857Y-69028571D01*
X183364000Y-69028571D01*
X183578285Y-69100000D01*
X183721142Y-69242857D01*
X183792571Y-69385714D01*
X183864000Y-69671428D01*
X183864000Y-69885714D01*
X183792571Y-70171428D01*
X183721142Y-70314285D01*
X183578285Y-70457142D01*
X183364000Y-70528571D01*
X183006857Y-70528571D01*
D12*
X179724000Y-119840000D02*
X179724000Y-118340000D01*
X178474000Y-115840000D02*
X173974000Y-115840000D01*
X172724000Y-118340000D02*
X172724000Y-119840000D01*
X173974000Y-122340000D02*
X178474000Y-122340000D01*
X180304221Y-113286000D02*
X180629779Y-113286000D01*
X180304221Y-112266000D02*
X180629779Y-112266000D01*
X184025000Y-119161779D02*
X184025000Y-118836221D01*
X183005000Y-119161779D02*
X183005000Y-118836221D01*
X167548779Y-106932000D02*
X167223221Y-106932000D01*
X167548779Y-107952000D02*
X167223221Y-107952000D01*
X167548779Y-103884000D02*
X167223221Y-103884000D01*
X167548779Y-104904000D02*
X167223221Y-104904000D01*
X167548779Y-100836000D02*
X167223221Y-100836000D01*
X167548779Y-101856000D02*
X167223221Y-101856000D01*
X131409221Y-96776000D02*
X131734779Y-96776000D01*
X131409221Y-95756000D02*
X131734779Y-95756000D01*
X131409221Y-99316000D02*
X131734779Y-99316000D01*
X131409221Y-98296000D02*
X131734779Y-98296000D01*
X131409221Y-102364000D02*
X131734779Y-102364000D01*
X131409221Y-101344000D02*
X131734779Y-101344000D01*
X143098000Y-107940000D02*
X130498000Y-107940000D01*
X143098000Y-113040000D02*
X143098000Y-107940000D01*
X130498000Y-113040000D02*
X143098000Y-113040000D01*
X152262000Y-96098000D02*
X154712000Y-96098000D01*
X154062000Y-92878000D02*
X152262000Y-92878000D01*
X139837000Y-86106000D02*
X139837000Y-89556000D01*
X139837000Y-86106000D02*
X139837000Y-84156000D01*
X148707000Y-86106000D02*
X148707000Y-88056000D01*
X148707000Y-86106000D02*
X148707000Y-84156000D01*
D10*
X141663000Y-97184000D02*
X140238000Y-97184000D01*
X148913000Y-96959000D02*
X148588000Y-96959000D01*
X148913000Y-104209000D02*
X148588000Y-104209000D01*
X141663000Y-104209000D02*
X141988000Y-104209000D01*
X141663000Y-96959000D02*
X141988000Y-96959000D01*
X141663000Y-104209000D02*
X141663000Y-103884000D01*
X148913000Y-104209000D02*
X148913000Y-103884000D01*
X148913000Y-96959000D02*
X148913000Y-97284000D01*
X141663000Y-96959000D02*
X141663000Y-97184000D01*
D12*
X156017500Y-74790000D02*
X156017500Y-73590000D01*
X160017500Y-74790000D02*
X156017500Y-74790000D01*
X156017500Y-69990000D02*
X158717500Y-69990000D01*
X156017500Y-71190000D02*
X156017500Y-69990000D01*
X163722000Y-119840000D02*
X163722000Y-118340000D01*
X162472000Y-115840000D02*
X157972000Y-115840000D01*
X156722000Y-118340000D02*
X156722000Y-119840000D01*
X157972000Y-122340000D02*
X162472000Y-122340000D01*
X167898578Y-116130000D02*
X167381422Y-116130000D01*
X167898578Y-117550000D02*
X167381422Y-117550000D01*
X141594721Y-78992000D02*
X141920279Y-78992000D01*
X141594721Y-80012000D02*
X141920279Y-80012000D01*
X156272000Y-85883578D02*
X156272000Y-85366422D01*
X154852000Y-85883578D02*
X154852000Y-85366422D01*
X159222000Y-85883578D02*
X159222000Y-85366422D01*
X157802000Y-85883578D02*
X157802000Y-85366422D01*
X176216000Y-65980000D02*
X177546000Y-65980000D01*
X176216000Y-67310000D02*
X176216000Y-65980000D01*
X176216000Y-68580000D02*
X178876000Y-68580000D01*
X178876000Y-68580000D02*
X178876000Y-73720000D01*
X176216000Y-68580000D02*
X176216000Y-73720000D01*
X176216000Y-73720000D02*
X178876000Y-73720000D01*
X173288000Y-110296000D02*
X171958000Y-110296000D01*
X173288000Y-108966000D02*
X173288000Y-110296000D01*
X173288000Y-107696000D02*
X170628000Y-107696000D01*
X170628000Y-107696000D02*
X170628000Y-97476000D01*
X173288000Y-107696000D02*
X173288000Y-97476000D01*
X173288000Y-97476000D02*
X170628000Y-97476000D01*
X136712000Y-95310000D02*
X135382000Y-95310000D01*
X136712000Y-93980000D02*
X136712000Y-95310000D01*
X136712000Y-92710000D02*
X134052000Y-92710000D01*
X134052000Y-92710000D02*
X134052000Y-87570000D01*
X136712000Y-92710000D02*
X136712000Y-87570000D01*
X136712000Y-87570000D02*
X134052000Y-87570000D01*
X128076000Y-111820000D02*
X126746000Y-111820000D01*
X128076000Y-110490000D02*
X128076000Y-111820000D01*
X128076000Y-109220000D02*
X125416000Y-109220000D01*
X125416000Y-109220000D02*
X125416000Y-101540000D01*
X128076000Y-109220000D02*
X128076000Y-101540000D01*
X128076000Y-101540000D02*
X125416000Y-101540000D01*
X166310000Y-81728000D02*
X167640000Y-81728000D01*
X166310000Y-83058000D02*
X166310000Y-81728000D01*
X166310000Y-84328000D02*
X168970000Y-84328000D01*
X168970000Y-84328000D02*
X168970000Y-89468000D01*
X166310000Y-84328000D02*
X166310000Y-89468000D01*
X166310000Y-89468000D02*
X168970000Y-89468000D01*
X174996800Y-95792600D02*
X174996800Y-94462600D01*
X176326800Y-95792600D02*
X174996800Y-95792600D01*
X177596800Y-95792600D02*
X177596800Y-93132600D01*
X177596800Y-93132600D02*
X185276800Y-93132600D01*
X177596800Y-95792600D02*
X185276800Y-95792600D01*
X185276800Y-95792600D02*
X185276800Y-93132600D01*
X164945000Y-112026000D02*
X162405000Y-112026000D01*
X164945000Y-112026000D02*
X164945000Y-109486000D01*
X164695000Y-111776000D02*
X155345000Y-111776000D01*
X164695000Y-95996000D02*
X164695000Y-111776000D01*
X155345000Y-95996000D02*
X164695000Y-95996000D01*
X155345000Y-111776000D02*
X155345000Y-95996000D01*
X152921000Y-73222000D02*
X152921000Y-55262000D01*
X137401000Y-73222000D02*
X152921000Y-73222000D01*
X137401000Y-73222000D02*
X137401000Y-55262000D01*
X152921000Y-55262000D02*
X137401000Y-55262000D01*
X153106000Y-69342000D02*
X153606000Y-69842000D01*
X153606000Y-69842000D02*
X153606000Y-68842000D01*
X153606000Y-68842000D02*
X153106000Y-69342000D01*
X149540279Y-92708000D02*
X149214721Y-92708000D01*
X149540279Y-93728000D02*
X149214721Y-93728000D01*
X153164000Y-100746779D02*
X153164000Y-100421221D01*
X152144000Y-100746779D02*
X152144000Y-100421221D01*
X153164000Y-119288779D02*
X153164000Y-118963221D01*
X152144000Y-119288779D02*
X152144000Y-118963221D01*
X137322779Y-83056000D02*
X136997221Y-83056000D01*
X137322779Y-84076000D02*
X136997221Y-84076000D01*
X137505221Y-106428000D02*
X137830779Y-106428000D01*
X137505221Y-105408000D02*
X137830779Y-105408000D01*
X133512779Y-105408000D02*
X133187221Y-105408000D01*
X133512779Y-106428000D02*
X133187221Y-106428000D01*
X138432000Y-100721279D02*
X138432000Y-100395721D01*
X137412000Y-100721279D02*
X137412000Y-100395721D01*
X161878000Y-72682000D02*
X161878000Y-73682000D01*
X161378000Y-73182000D02*
X162378000Y-73182000D01*
X162618000Y-78887563D02*
X163682437Y-79952000D01*
X162618000Y-72496437D02*
X163682437Y-71432000D01*
X162618000Y-72496437D02*
X162618000Y-74182000D01*
X162618000Y-78887563D02*
X162618000Y-77202000D01*
X163682437Y-79952000D02*
X171138000Y-79952000D01*
X163682437Y-71432000D02*
X171138000Y-71432000D01*
X171138000Y-71432000D02*
X171138000Y-74182000D01*
X171138000Y-79952000D02*
X171138000Y-77202000D01*
X161878000Y-60236000D02*
X161878000Y-61236000D01*
X161378000Y-60736000D02*
X162378000Y-60736000D01*
X162618000Y-66441563D02*
X163682437Y-67506000D01*
X162618000Y-60050437D02*
X163682437Y-58986000D01*
X162618000Y-60050437D02*
X162618000Y-61736000D01*
X162618000Y-66441563D02*
X162618000Y-64756000D01*
X163682437Y-67506000D02*
X171138000Y-67506000D01*
X163682437Y-58986000D02*
X171138000Y-58986000D01*
X171138000Y-58986000D02*
X171138000Y-61736000D01*
X171138000Y-67506000D02*
X171138000Y-64756000D01*
D10*
X174890666Y-115244761D02*
X175033523Y-115292380D01*
X175271619Y-115292380D01*
X175366857Y-115244761D01*
X175414476Y-115197142D01*
X175462095Y-115101904D01*
X175462095Y-115006666D01*
X175414476Y-114911428D01*
X175366857Y-114863809D01*
X175271619Y-114816190D01*
X175081142Y-114768571D01*
X174985904Y-114720952D01*
X174938285Y-114673333D01*
X174890666Y-114578095D01*
X174890666Y-114482857D01*
X174938285Y-114387619D01*
X174985904Y-114340000D01*
X175081142Y-114292380D01*
X175319238Y-114292380D01*
X175462095Y-114340000D01*
X175795428Y-114292380D02*
X176033523Y-115292380D01*
X176224000Y-114578095D01*
X176414476Y-115292380D01*
X176652571Y-114292380D01*
X176985904Y-114387619D02*
X177033523Y-114340000D01*
X177128761Y-114292380D01*
X177366857Y-114292380D01*
X177462095Y-114340000D01*
X177509714Y-114387619D01*
X177557333Y-114482857D01*
X177557333Y-114578095D01*
X177509714Y-114720952D01*
X176938285Y-115292380D01*
X177557333Y-115292380D01*
X179824142Y-111798380D02*
X179490809Y-111322190D01*
X179252714Y-111798380D02*
X179252714Y-110798380D01*
X179633666Y-110798380D01*
X179728904Y-110846000D01*
X179776523Y-110893619D01*
X179824142Y-110988857D01*
X179824142Y-111131714D01*
X179776523Y-111226952D01*
X179728904Y-111274571D01*
X179633666Y-111322190D01*
X179252714Y-111322190D01*
X180776523Y-111798380D02*
X180205095Y-111798380D01*
X180490809Y-111798380D02*
X180490809Y-110798380D01*
X180395571Y-110941238D01*
X180300333Y-111036476D01*
X180205095Y-111084095D01*
X181728904Y-111798380D02*
X181157476Y-111798380D01*
X181443190Y-111798380D02*
X181443190Y-110798380D01*
X181347952Y-110941238D01*
X181252714Y-111036476D01*
X181157476Y-111084095D01*
X182442142Y-119641857D02*
X182489761Y-119689476D01*
X182537380Y-119832333D01*
X182537380Y-119927571D01*
X182489761Y-120070428D01*
X182394523Y-120165666D01*
X182299285Y-120213285D01*
X182108809Y-120260904D01*
X181965952Y-120260904D01*
X181775476Y-120213285D01*
X181680238Y-120165666D01*
X181585000Y-120070428D01*
X181537380Y-119927571D01*
X181537380Y-119832333D01*
X181585000Y-119689476D01*
X181632619Y-119641857D01*
X182537380Y-118689476D02*
X182537380Y-119260904D01*
X182537380Y-118975190D02*
X181537380Y-118975190D01*
X181680238Y-119070428D01*
X181775476Y-119165666D01*
X181823095Y-119260904D01*
X181537380Y-118070428D02*
X181537380Y-117975190D01*
X181585000Y-117879952D01*
X181632619Y-117832333D01*
X181727857Y-117784714D01*
X181918333Y-117737095D01*
X182156428Y-117737095D01*
X182346904Y-117784714D01*
X182442142Y-117832333D01*
X182489761Y-117879952D01*
X182537380Y-117975190D01*
X182537380Y-118070428D01*
X182489761Y-118165666D01*
X182442142Y-118213285D01*
X182346904Y-118260904D01*
X182156428Y-118308523D01*
X181918333Y-118308523D01*
X181727857Y-118260904D01*
X181632619Y-118213285D01*
X181585000Y-118165666D01*
X181537380Y-118070428D01*
X166743142Y-109324380D02*
X166409809Y-108848190D01*
X166171714Y-109324380D02*
X166171714Y-108324380D01*
X166552666Y-108324380D01*
X166647904Y-108372000D01*
X166695523Y-108419619D01*
X166743142Y-108514857D01*
X166743142Y-108657714D01*
X166695523Y-108752952D01*
X166647904Y-108800571D01*
X166552666Y-108848190D01*
X166171714Y-108848190D01*
X167695523Y-109324380D02*
X167124095Y-109324380D01*
X167409809Y-109324380D02*
X167409809Y-108324380D01*
X167314571Y-108467238D01*
X167219333Y-108562476D01*
X167124095Y-108610095D01*
X168314571Y-108324380D02*
X168409809Y-108324380D01*
X168505047Y-108372000D01*
X168552666Y-108419619D01*
X168600285Y-108514857D01*
X168647904Y-108705333D01*
X168647904Y-108943428D01*
X168600285Y-109133904D01*
X168552666Y-109229142D01*
X168505047Y-109276761D01*
X168409809Y-109324380D01*
X168314571Y-109324380D01*
X168219333Y-109276761D01*
X168171714Y-109229142D01*
X168124095Y-109133904D01*
X168076476Y-108943428D01*
X168076476Y-108705333D01*
X168124095Y-108514857D01*
X168171714Y-108419619D01*
X168219333Y-108372000D01*
X168314571Y-108324380D01*
X167219333Y-106276380D02*
X166886000Y-105800190D01*
X166647904Y-106276380D02*
X166647904Y-105276380D01*
X167028857Y-105276380D01*
X167124095Y-105324000D01*
X167171714Y-105371619D01*
X167219333Y-105466857D01*
X167219333Y-105609714D01*
X167171714Y-105704952D01*
X167124095Y-105752571D01*
X167028857Y-105800190D01*
X166647904Y-105800190D01*
X167695523Y-106276380D02*
X167886000Y-106276380D01*
X167981238Y-106228761D01*
X168028857Y-106181142D01*
X168124095Y-106038285D01*
X168171714Y-105847809D01*
X168171714Y-105466857D01*
X168124095Y-105371619D01*
X168076476Y-105324000D01*
X167981238Y-105276380D01*
X167790761Y-105276380D01*
X167695523Y-105324000D01*
X167647904Y-105371619D01*
X167600285Y-105466857D01*
X167600285Y-105704952D01*
X167647904Y-105800190D01*
X167695523Y-105847809D01*
X167790761Y-105895428D01*
X167981238Y-105895428D01*
X168076476Y-105847809D01*
X168124095Y-105800190D01*
X168171714Y-105704952D01*
X167219333Y-103228380D02*
X166886000Y-102752190D01*
X166647904Y-103228380D02*
X166647904Y-102228380D01*
X167028857Y-102228380D01*
X167124095Y-102276000D01*
X167171714Y-102323619D01*
X167219333Y-102418857D01*
X167219333Y-102561714D01*
X167171714Y-102656952D01*
X167124095Y-102704571D01*
X167028857Y-102752190D01*
X166647904Y-102752190D01*
X167790761Y-102656952D02*
X167695523Y-102609333D01*
X167647904Y-102561714D01*
X167600285Y-102466476D01*
X167600285Y-102418857D01*
X167647904Y-102323619D01*
X167695523Y-102276000D01*
X167790761Y-102228380D01*
X167981238Y-102228380D01*
X168076476Y-102276000D01*
X168124095Y-102323619D01*
X168171714Y-102418857D01*
X168171714Y-102466476D01*
X168124095Y-102561714D01*
X168076476Y-102609333D01*
X167981238Y-102656952D01*
X167790761Y-102656952D01*
X167695523Y-102704571D01*
X167647904Y-102752190D01*
X167600285Y-102847428D01*
X167600285Y-103037904D01*
X167647904Y-103133142D01*
X167695523Y-103180761D01*
X167790761Y-103228380D01*
X167981238Y-103228380D01*
X168076476Y-103180761D01*
X168124095Y-103133142D01*
X168171714Y-103037904D01*
X168171714Y-102847428D01*
X168124095Y-102752190D01*
X168076476Y-102704571D01*
X167981238Y-102656952D01*
X131405333Y-95288380D02*
X131072000Y-94812190D01*
X130833904Y-95288380D02*
X130833904Y-94288380D01*
X131214857Y-94288380D01*
X131310095Y-94336000D01*
X131357714Y-94383619D01*
X131405333Y-94478857D01*
X131405333Y-94621714D01*
X131357714Y-94716952D01*
X131310095Y-94764571D01*
X131214857Y-94812190D01*
X130833904Y-94812190D01*
X131738666Y-94288380D02*
X132405333Y-94288380D01*
X131976761Y-95288380D01*
X131405333Y-97828380D02*
X131072000Y-97352190D01*
X130833904Y-97828380D02*
X130833904Y-96828380D01*
X131214857Y-96828380D01*
X131310095Y-96876000D01*
X131357714Y-96923619D01*
X131405333Y-97018857D01*
X131405333Y-97161714D01*
X131357714Y-97256952D01*
X131310095Y-97304571D01*
X131214857Y-97352190D01*
X130833904Y-97352190D01*
X132262476Y-96828380D02*
X132072000Y-96828380D01*
X131976761Y-96876000D01*
X131929142Y-96923619D01*
X131833904Y-97066476D01*
X131786285Y-97256952D01*
X131786285Y-97637904D01*
X131833904Y-97733142D01*
X131881523Y-97780761D01*
X131976761Y-97828380D01*
X132167238Y-97828380D01*
X132262476Y-97780761D01*
X132310095Y-97733142D01*
X132357714Y-97637904D01*
X132357714Y-97399809D01*
X132310095Y-97304571D01*
X132262476Y-97256952D01*
X132167238Y-97209333D01*
X131976761Y-97209333D01*
X131881523Y-97256952D01*
X131833904Y-97304571D01*
X131786285Y-97399809D01*
X131405333Y-100876380D02*
X131072000Y-100400190D01*
X130833904Y-100876380D02*
X130833904Y-99876380D01*
X131214857Y-99876380D01*
X131310095Y-99924000D01*
X131357714Y-99971619D01*
X131405333Y-100066857D01*
X131405333Y-100209714D01*
X131357714Y-100304952D01*
X131310095Y-100352571D01*
X131214857Y-100400190D01*
X130833904Y-100400190D01*
X132310095Y-99876380D02*
X131833904Y-99876380D01*
X131786285Y-100352571D01*
X131833904Y-100304952D01*
X131929142Y-100257333D01*
X132167238Y-100257333D01*
X132262476Y-100304952D01*
X132310095Y-100352571D01*
X132357714Y-100447809D01*
X132357714Y-100685904D01*
X132310095Y-100781142D01*
X132262476Y-100828761D01*
X132167238Y-100876380D01*
X131929142Y-100876380D01*
X131833904Y-100828761D01*
X131786285Y-100781142D01*
X135921809Y-114016190D02*
X135921809Y-114492380D01*
X135588476Y-113492380D02*
X135921809Y-114016190D01*
X136255142Y-113492380D01*
X137112285Y-114492380D02*
X136540857Y-114492380D01*
X136826571Y-114492380D02*
X136826571Y-113492380D01*
X136731333Y-113635238D01*
X136636095Y-113730476D01*
X136540857Y-113778095D01*
X152400095Y-96840380D02*
X152400095Y-97649904D01*
X152447714Y-97745142D01*
X152495333Y-97792761D01*
X152590571Y-97840380D01*
X152781047Y-97840380D01*
X152876285Y-97792761D01*
X152923904Y-97745142D01*
X152971523Y-97649904D01*
X152971523Y-96840380D01*
X153876285Y-97173714D02*
X153876285Y-97840380D01*
X153638190Y-96792761D02*
X153400095Y-97507047D01*
X154019142Y-97507047D01*
X138444380Y-86867904D02*
X139253904Y-86867904D01*
X139349142Y-86820285D01*
X139396761Y-86772666D01*
X139444380Y-86677428D01*
X139444380Y-86486952D01*
X139396761Y-86391714D01*
X139349142Y-86344095D01*
X139253904Y-86296476D01*
X138444380Y-86296476D01*
X138444380Y-85915523D02*
X138444380Y-85296476D01*
X138825333Y-85629809D01*
X138825333Y-85486952D01*
X138872952Y-85391714D01*
X138920571Y-85344095D01*
X139015809Y-85296476D01*
X139253904Y-85296476D01*
X139349142Y-85344095D01*
X139396761Y-85391714D01*
X139444380Y-85486952D01*
X139444380Y-85772666D01*
X139396761Y-85867904D01*
X139349142Y-85915523D01*
X144526095Y-93986380D02*
X144526095Y-94795904D01*
X144573714Y-94891142D01*
X144621333Y-94938761D01*
X144716571Y-94986380D01*
X144907047Y-94986380D01*
X145002285Y-94938761D01*
X145049904Y-94891142D01*
X145097523Y-94795904D01*
X145097523Y-93986380D01*
X145526095Y-94081619D02*
X145573714Y-94034000D01*
X145668952Y-93986380D01*
X145907047Y-93986380D01*
X146002285Y-94034000D01*
X146049904Y-94081619D01*
X146097523Y-94176857D01*
X146097523Y-94272095D01*
X146049904Y-94414952D01*
X145478476Y-94986380D01*
X146097523Y-94986380D01*
X156585595Y-75042380D02*
X156585595Y-75851904D01*
X156633214Y-75947142D01*
X156680833Y-75994761D01*
X156776071Y-76042380D01*
X156966547Y-76042380D01*
X157061785Y-75994761D01*
X157109404Y-75947142D01*
X157157023Y-75851904D01*
X157157023Y-75042380D01*
X158157023Y-76042380D02*
X157585595Y-76042380D01*
X157871309Y-76042380D02*
X157871309Y-75042380D01*
X157776071Y-75185238D01*
X157680833Y-75280476D01*
X157585595Y-75328095D01*
X158888666Y-115244761D02*
X159031523Y-115292380D01*
X159269619Y-115292380D01*
X159364857Y-115244761D01*
X159412476Y-115197142D01*
X159460095Y-115101904D01*
X159460095Y-115006666D01*
X159412476Y-114911428D01*
X159364857Y-114863809D01*
X159269619Y-114816190D01*
X159079142Y-114768571D01*
X158983904Y-114720952D01*
X158936285Y-114673333D01*
X158888666Y-114578095D01*
X158888666Y-114482857D01*
X158936285Y-114387619D01*
X158983904Y-114340000D01*
X159079142Y-114292380D01*
X159317238Y-114292380D01*
X159460095Y-114340000D01*
X159793428Y-114292380D02*
X160031523Y-115292380D01*
X160222000Y-114578095D01*
X160412476Y-115292380D01*
X160650571Y-114292380D01*
X161555333Y-115292380D02*
X160983904Y-115292380D01*
X161269619Y-115292380D02*
X161269619Y-114292380D01*
X161174380Y-114435238D01*
X161079142Y-114530476D01*
X160983904Y-114578095D01*
X167473333Y-118942380D02*
X167140000Y-118466190D01*
X166901904Y-118942380D02*
X166901904Y-117942380D01*
X167282857Y-117942380D01*
X167378095Y-117990000D01*
X167425714Y-118037619D01*
X167473333Y-118132857D01*
X167473333Y-118275714D01*
X167425714Y-118370952D01*
X167378095Y-118418571D01*
X167282857Y-118466190D01*
X166901904Y-118466190D01*
X168330476Y-118275714D02*
X168330476Y-118942380D01*
X168092380Y-117894761D02*
X167854285Y-118609047D01*
X168473333Y-118609047D01*
X141590833Y-78524380D02*
X141257500Y-78048190D01*
X141019404Y-78524380D02*
X141019404Y-77524380D01*
X141400357Y-77524380D01*
X141495595Y-77572000D01*
X141543214Y-77619619D01*
X141590833Y-77714857D01*
X141590833Y-77857714D01*
X141543214Y-77952952D01*
X141495595Y-78000571D01*
X141400357Y-78048190D01*
X141019404Y-78048190D01*
X141924166Y-77524380D02*
X142543214Y-77524380D01*
X142209880Y-77905333D01*
X142352738Y-77905333D01*
X142447976Y-77952952D01*
X142495595Y-78000571D01*
X142543214Y-78095809D01*
X142543214Y-78333904D01*
X142495595Y-78429142D01*
X142447976Y-78476761D01*
X142352738Y-78524380D01*
X142067023Y-78524380D01*
X141971785Y-78476761D01*
X141924166Y-78429142D01*
X156154380Y-83224666D02*
X155678190Y-83558000D01*
X156154380Y-83796095D02*
X155154380Y-83796095D01*
X155154380Y-83415142D01*
X155202000Y-83319904D01*
X155249619Y-83272285D01*
X155344857Y-83224666D01*
X155487714Y-83224666D01*
X155582952Y-83272285D01*
X155630571Y-83319904D01*
X155678190Y-83415142D01*
X155678190Y-83796095D01*
X155249619Y-82843714D02*
X155202000Y-82796095D01*
X155154380Y-82700857D01*
X155154380Y-82462761D01*
X155202000Y-82367523D01*
X155249619Y-82319904D01*
X155344857Y-82272285D01*
X155440095Y-82272285D01*
X155582952Y-82319904D01*
X156154380Y-82891333D01*
X156154380Y-82272285D01*
X158948380Y-83224666D02*
X158472190Y-83558000D01*
X158948380Y-83796095D02*
X157948380Y-83796095D01*
X157948380Y-83415142D01*
X157996000Y-83319904D01*
X158043619Y-83272285D01*
X158138857Y-83224666D01*
X158281714Y-83224666D01*
X158376952Y-83272285D01*
X158424571Y-83319904D01*
X158472190Y-83415142D01*
X158472190Y-83796095D01*
X158948380Y-82272285D02*
X158948380Y-82843714D01*
X158948380Y-82558000D02*
X157948380Y-82558000D01*
X158091238Y-82653238D01*
X158186476Y-82748476D01*
X158234095Y-82843714D01*
X177212666Y-64432380D02*
X177212666Y-65146666D01*
X177165047Y-65289523D01*
X177069809Y-65384761D01*
X176926952Y-65432380D01*
X176831714Y-65432380D01*
X177831714Y-64860952D02*
X177736476Y-64813333D01*
X177688857Y-64765714D01*
X177641238Y-64670476D01*
X177641238Y-64622857D01*
X177688857Y-64527619D01*
X177736476Y-64480000D01*
X177831714Y-64432380D01*
X178022190Y-64432380D01*
X178117428Y-64480000D01*
X178165047Y-64527619D01*
X178212666Y-64622857D01*
X178212666Y-64670476D01*
X178165047Y-64765714D01*
X178117428Y-64813333D01*
X178022190Y-64860952D01*
X177831714Y-64860952D01*
X177736476Y-64908571D01*
X177688857Y-64956190D01*
X177641238Y-65051428D01*
X177641238Y-65241904D01*
X177688857Y-65337142D01*
X177736476Y-65384761D01*
X177831714Y-65432380D01*
X178022190Y-65432380D01*
X178117428Y-65384761D01*
X178165047Y-65337142D01*
X178212666Y-65241904D01*
X178212666Y-65051428D01*
X178165047Y-64956190D01*
X178117428Y-64908571D01*
X178022190Y-64860952D01*
X171624666Y-110748380D02*
X171624666Y-111462666D01*
X171577047Y-111605523D01*
X171481809Y-111700761D01*
X171338952Y-111748380D01*
X171243714Y-111748380D01*
X172005619Y-110748380D02*
X172672285Y-110748380D01*
X172243714Y-111748380D01*
X135048666Y-95762380D02*
X135048666Y-96476666D01*
X135001047Y-96619523D01*
X134905809Y-96714761D01*
X134762952Y-96762380D01*
X134667714Y-96762380D01*
X135953428Y-95762380D02*
X135762952Y-95762380D01*
X135667714Y-95810000D01*
X135620095Y-95857619D01*
X135524857Y-96000476D01*
X135477238Y-96190952D01*
X135477238Y-96571904D01*
X135524857Y-96667142D01*
X135572476Y-96714761D01*
X135667714Y-96762380D01*
X135858190Y-96762380D01*
X135953428Y-96714761D01*
X136001047Y-96667142D01*
X136048666Y-96571904D01*
X136048666Y-96333809D01*
X136001047Y-96238571D01*
X135953428Y-96190952D01*
X135858190Y-96143333D01*
X135667714Y-96143333D01*
X135572476Y-96190952D01*
X135524857Y-96238571D01*
X135477238Y-96333809D01*
X126412666Y-112272380D02*
X126412666Y-112986666D01*
X126365047Y-113129523D01*
X126269809Y-113224761D01*
X126126952Y-113272380D01*
X126031714Y-113272380D01*
X127365047Y-112272380D02*
X126888857Y-112272380D01*
X126841238Y-112748571D01*
X126888857Y-112700952D01*
X126984095Y-112653333D01*
X127222190Y-112653333D01*
X127317428Y-112700952D01*
X127365047Y-112748571D01*
X127412666Y-112843809D01*
X127412666Y-113081904D01*
X127365047Y-113177142D01*
X127317428Y-113224761D01*
X127222190Y-113272380D01*
X126984095Y-113272380D01*
X126888857Y-113224761D01*
X126841238Y-113177142D01*
X167306666Y-80180380D02*
X167306666Y-80894666D01*
X167259047Y-81037523D01*
X167163809Y-81132761D01*
X167020952Y-81180380D01*
X166925714Y-81180380D01*
X168211428Y-80513714D02*
X168211428Y-81180380D01*
X167973333Y-80132761D02*
X167735238Y-80847047D01*
X168354285Y-80847047D01*
X173449180Y-94795933D02*
X174163466Y-94795933D01*
X174306323Y-94843552D01*
X174401561Y-94938790D01*
X174449180Y-95081647D01*
X174449180Y-95176885D01*
X173449180Y-94414980D02*
X173449180Y-93795933D01*
X173830133Y-94129266D01*
X173830133Y-93986409D01*
X173877752Y-93891171D01*
X173925371Y-93843552D01*
X174020609Y-93795933D01*
X174258704Y-93795933D01*
X174353942Y-93843552D01*
X174401561Y-93891171D01*
X174449180Y-93986409D01*
X174449180Y-94272123D01*
X174401561Y-94367361D01*
X174353942Y-94414980D01*
X159686666Y-112482380D02*
X159686666Y-113196666D01*
X159639047Y-113339523D01*
X159543809Y-113434761D01*
X159400952Y-113482380D01*
X159305714Y-113482380D01*
X160115238Y-112577619D02*
X160162857Y-112530000D01*
X160258095Y-112482380D01*
X160496190Y-112482380D01*
X160591428Y-112530000D01*
X160639047Y-112577619D01*
X160686666Y-112672857D01*
X160686666Y-112768095D01*
X160639047Y-112910952D01*
X160067619Y-113482380D01*
X160686666Y-113482380D01*
X144827666Y-73794380D02*
X144827666Y-74508666D01*
X144780047Y-74651523D01*
X144684809Y-74746761D01*
X144541952Y-74794380D01*
X144446714Y-74794380D01*
X145827666Y-74794380D02*
X145256238Y-74794380D01*
X145541952Y-74794380D02*
X145541952Y-73794380D01*
X145446714Y-73937238D01*
X145351476Y-74032476D01*
X145256238Y-74080095D01*
X149210833Y-95005142D02*
X149163214Y-95052761D01*
X149020357Y-95100380D01*
X148925119Y-95100380D01*
X148782261Y-95052761D01*
X148687023Y-94957523D01*
X148639404Y-94862285D01*
X148591785Y-94671809D01*
X148591785Y-94528952D01*
X148639404Y-94338476D01*
X148687023Y-94243238D01*
X148782261Y-94148000D01*
X148925119Y-94100380D01*
X149020357Y-94100380D01*
X149163214Y-94148000D01*
X149210833Y-94195619D01*
X149687023Y-95100380D02*
X149877500Y-95100380D01*
X149972738Y-95052761D01*
X150020357Y-95005142D01*
X150115595Y-94862285D01*
X150163214Y-94671809D01*
X150163214Y-94290857D01*
X150115595Y-94195619D01*
X150067976Y-94148000D01*
X149972738Y-94100380D01*
X149782261Y-94100380D01*
X149687023Y-94148000D01*
X149639404Y-94195619D01*
X149591785Y-94290857D01*
X149591785Y-94528952D01*
X149639404Y-94624190D01*
X149687023Y-94671809D01*
X149782261Y-94719428D01*
X149972738Y-94719428D01*
X150067976Y-94671809D01*
X150115595Y-94624190D01*
X150163214Y-94528952D01*
X151581142Y-100750666D02*
X151628761Y-100798285D01*
X151676380Y-100941142D01*
X151676380Y-101036380D01*
X151628761Y-101179238D01*
X151533523Y-101274476D01*
X151438285Y-101322095D01*
X151247809Y-101369714D01*
X151104952Y-101369714D01*
X150914476Y-101322095D01*
X150819238Y-101274476D01*
X150724000Y-101179238D01*
X150676380Y-101036380D01*
X150676380Y-100941142D01*
X150724000Y-100798285D01*
X150771619Y-100750666D01*
X151104952Y-100179238D02*
X151057333Y-100274476D01*
X151009714Y-100322095D01*
X150914476Y-100369714D01*
X150866857Y-100369714D01*
X150771619Y-100322095D01*
X150724000Y-100274476D01*
X150676380Y-100179238D01*
X150676380Y-99988761D01*
X150724000Y-99893523D01*
X150771619Y-99845904D01*
X150866857Y-99798285D01*
X150914476Y-99798285D01*
X151009714Y-99845904D01*
X151057333Y-99893523D01*
X151104952Y-99988761D01*
X151104952Y-100179238D01*
X151152571Y-100274476D01*
X151200190Y-100322095D01*
X151295428Y-100369714D01*
X151485904Y-100369714D01*
X151581142Y-100322095D01*
X151628761Y-100274476D01*
X151676380Y-100179238D01*
X151676380Y-99988761D01*
X151628761Y-99893523D01*
X151581142Y-99845904D01*
X151485904Y-99798285D01*
X151295428Y-99798285D01*
X151200190Y-99845904D01*
X151152571Y-99893523D01*
X151104952Y-99988761D01*
X151581142Y-119292666D02*
X151628761Y-119340285D01*
X151676380Y-119483142D01*
X151676380Y-119578380D01*
X151628761Y-119721238D01*
X151533523Y-119816476D01*
X151438285Y-119864095D01*
X151247809Y-119911714D01*
X151104952Y-119911714D01*
X150914476Y-119864095D01*
X150819238Y-119816476D01*
X150724000Y-119721238D01*
X150676380Y-119578380D01*
X150676380Y-119483142D01*
X150724000Y-119340285D01*
X150771619Y-119292666D01*
X150676380Y-118959333D02*
X150676380Y-118292666D01*
X151676380Y-118721238D01*
X136993333Y-85353142D02*
X136945714Y-85400761D01*
X136802857Y-85448380D01*
X136707619Y-85448380D01*
X136564761Y-85400761D01*
X136469523Y-85305523D01*
X136421904Y-85210285D01*
X136374285Y-85019809D01*
X136374285Y-84876952D01*
X136421904Y-84686476D01*
X136469523Y-84591238D01*
X136564761Y-84496000D01*
X136707619Y-84448380D01*
X136802857Y-84448380D01*
X136945714Y-84496000D01*
X136993333Y-84543619D01*
X137850476Y-84448380D02*
X137660000Y-84448380D01*
X137564761Y-84496000D01*
X137517142Y-84543619D01*
X137421904Y-84686476D01*
X137374285Y-84876952D01*
X137374285Y-85257904D01*
X137421904Y-85353142D01*
X137469523Y-85400761D01*
X137564761Y-85448380D01*
X137755238Y-85448380D01*
X137850476Y-85400761D01*
X137898095Y-85353142D01*
X137945714Y-85257904D01*
X137945714Y-85019809D01*
X137898095Y-84924571D01*
X137850476Y-84876952D01*
X137755238Y-84829333D01*
X137564761Y-84829333D01*
X137469523Y-84876952D01*
X137421904Y-84924571D01*
X137374285Y-85019809D01*
X137501333Y-104845142D02*
X137453714Y-104892761D01*
X137310857Y-104940380D01*
X137215619Y-104940380D01*
X137072761Y-104892761D01*
X136977523Y-104797523D01*
X136929904Y-104702285D01*
X136882285Y-104511809D01*
X136882285Y-104368952D01*
X136929904Y-104178476D01*
X136977523Y-104083238D01*
X137072761Y-103988000D01*
X137215619Y-103940380D01*
X137310857Y-103940380D01*
X137453714Y-103988000D01*
X137501333Y-104035619D01*
X138406095Y-103940380D02*
X137929904Y-103940380D01*
X137882285Y-104416571D01*
X137929904Y-104368952D01*
X138025142Y-104321333D01*
X138263238Y-104321333D01*
X138358476Y-104368952D01*
X138406095Y-104416571D01*
X138453714Y-104511809D01*
X138453714Y-104749904D01*
X138406095Y-104845142D01*
X138358476Y-104892761D01*
X138263238Y-104940380D01*
X138025142Y-104940380D01*
X137929904Y-104892761D01*
X137882285Y-104845142D01*
X133183333Y-107705142D02*
X133135714Y-107752761D01*
X132992857Y-107800380D01*
X132897619Y-107800380D01*
X132754761Y-107752761D01*
X132659523Y-107657523D01*
X132611904Y-107562285D01*
X132564285Y-107371809D01*
X132564285Y-107228952D01*
X132611904Y-107038476D01*
X132659523Y-106943238D01*
X132754761Y-106848000D01*
X132897619Y-106800380D01*
X132992857Y-106800380D01*
X133135714Y-106848000D01*
X133183333Y-106895619D01*
X134040476Y-107133714D02*
X134040476Y-107800380D01*
X133802380Y-106752761D02*
X133564285Y-107467047D01*
X134183333Y-107467047D01*
X136849142Y-100725166D02*
X136896761Y-100772785D01*
X136944380Y-100915642D01*
X136944380Y-101010880D01*
X136896761Y-101153738D01*
X136801523Y-101248976D01*
X136706285Y-101296595D01*
X136515809Y-101344214D01*
X136372952Y-101344214D01*
X136182476Y-101296595D01*
X136087238Y-101248976D01*
X135992000Y-101153738D01*
X135944380Y-101010880D01*
X135944380Y-100915642D01*
X135992000Y-100772785D01*
X136039619Y-100725166D01*
X135944380Y-100391833D02*
X135944380Y-99772785D01*
X136325333Y-100106119D01*
X136325333Y-99963261D01*
X136372952Y-99868023D01*
X136420571Y-99820404D01*
X136515809Y-99772785D01*
X136753904Y-99772785D01*
X136849142Y-99820404D01*
X136896761Y-99868023D01*
X136944380Y-99963261D01*
X136944380Y-100248976D01*
X136896761Y-100344214D01*
X136849142Y-100391833D01*
X166711333Y-70849142D02*
X166663714Y-70896761D01*
X166520857Y-70944380D01*
X166425619Y-70944380D01*
X166282761Y-70896761D01*
X166187523Y-70801523D01*
X166139904Y-70706285D01*
X166092285Y-70515809D01*
X166092285Y-70372952D01*
X166139904Y-70182476D01*
X166187523Y-70087238D01*
X166282761Y-69992000D01*
X166425619Y-69944380D01*
X166520857Y-69944380D01*
X166663714Y-69992000D01*
X166711333Y-70039619D01*
X167092285Y-70039619D02*
X167139904Y-69992000D01*
X167235142Y-69944380D01*
X167473238Y-69944380D01*
X167568476Y-69992000D01*
X167616095Y-70039619D01*
X167663714Y-70134857D01*
X167663714Y-70230095D01*
X167616095Y-70372952D01*
X167044666Y-70944380D01*
X167663714Y-70944380D01*
X166711333Y-58403142D02*
X166663714Y-58450761D01*
X166520857Y-58498380D01*
X166425619Y-58498380D01*
X166282761Y-58450761D01*
X166187523Y-58355523D01*
X166139904Y-58260285D01*
X166092285Y-58069809D01*
X166092285Y-57926952D01*
X166139904Y-57736476D01*
X166187523Y-57641238D01*
X166282761Y-57546000D01*
X166425619Y-57498380D01*
X166520857Y-57498380D01*
X166663714Y-57546000D01*
X166711333Y-57593619D01*
X167663714Y-58498380D02*
X167092285Y-58498380D01*
X167378000Y-58498380D02*
X167378000Y-57498380D01*
X167282761Y-57641238D01*
X167187523Y-57736476D01*
X167092285Y-57784095D01*
M02*
