G04 #@! TF.GenerationSoftware,KiCad,Pcbnew,(5.1.2-1)-1*
G04 #@! TF.CreationDate,2019-08-08T23:38:45+01:00*
G04 #@! TF.ProjectId,ACNodeReader_Debug,41434e6f-6465-4526-9561-6465725f4465,rev?*
G04 #@! TF.SameCoordinates,Original*
G04 #@! TF.FileFunction,Soldermask,Bot*
G04 #@! TF.FilePolarity,Negative*
%FSLAX46Y46*%
G04 Gerber Fmt 4.6, Leading zero omitted, Abs format (unit mm)*
G04 Created by KiCad (PCBNEW (5.1.2-1)-1) date 2019-08-08 23:38:45*
%MOMM*%
%LPD*%
G04 APERTURE LIST*
%ADD10C,2.000000*%
%ADD11O,1.700000X1.700000*%
%ADD12R,1.700000X1.700000*%
%ADD13O,1.727200X1.727200*%
%ADD14R,1.727200X1.727200*%
%ADD15C,1.500000*%
%ADD16R,1.500000X1.500000*%
%ADD17C,3.200000*%
G04 APERTURE END LIST*
D10*
X179474000Y-116840000D03*
X179474000Y-121340000D03*
X172974000Y-116840000D03*
X172974000Y-121340000D03*
X163472000Y-116840000D03*
X163472000Y-121340000D03*
X156972000Y-116840000D03*
X156972000Y-121340000D03*
D11*
X177546000Y-72390000D03*
X177546000Y-69850000D03*
D12*
X177546000Y-67310000D03*
D11*
X171958000Y-98806000D03*
X171958000Y-101346000D03*
X171958000Y-103886000D03*
X171958000Y-106426000D03*
D12*
X171958000Y-108966000D03*
D11*
X135382000Y-88900000D03*
X135382000Y-91440000D03*
D12*
X135382000Y-93980000D03*
D11*
X126746000Y-102870000D03*
X126746000Y-105410000D03*
X126746000Y-107950000D03*
D12*
X126746000Y-110490000D03*
D11*
X167640000Y-88138000D03*
X167640000Y-85598000D03*
D12*
X167640000Y-83058000D03*
D11*
X183946800Y-94462600D03*
X181406800Y-94462600D03*
X178866800Y-94462600D03*
D12*
X176326800Y-94462600D03*
D13*
X158750000Y-101346000D03*
X161290000Y-101346000D03*
X158750000Y-103886000D03*
X161290000Y-103886000D03*
X158750000Y-106426000D03*
D14*
X161290000Y-106426000D03*
D15*
X140716000Y-71882000D03*
X141986000Y-69342000D03*
X143256000Y-71882000D03*
X144526000Y-69342000D03*
X145796000Y-71882000D03*
X147066000Y-69342000D03*
X148336000Y-71882000D03*
D16*
X149606000Y-69342000D03*
D17*
X150876000Y-62992000D03*
X139446000Y-62992000D03*
M02*
