%TF.GenerationSoftware,KiCad,Pcbnew,5.1.6-1.fc32*%
%TF.CreationDate,2020-08-28T03:42:22+01:00*%
%TF.ProjectId,ACNodeReader,41434e6f-6465-4526-9561-6465722e6b69,rev?*%
%TF.SameCoordinates,Original*%
%TF.FileFunction,Paste,Top*%
%TF.FilePolarity,Positive*%
%FSLAX46Y46*%
G04 Gerber Fmt 4.6, Leading zero omitted, Abs format (unit mm)*
G04 Created by KiCad (PCBNEW 5.1.6-1.fc32) date 2020-08-28 03:42:22*
%MOMM*%
%LPD*%
G01*
G04 APERTURE LIST*
%ADD10R,0.500000X0.500000*%
%ADD11R,1.700000X2.100000*%
%ADD12R,0.550000X1.600000*%
%ADD13R,1.600000X0.550000*%
%ADD14C,0.100000*%
%ADD15R,0.900000X1.300000*%
G04 APERTURE END LIST*
D10*
%TO.C,D1*%
X116649500Y-97642500D03*
X116649500Y-99842500D03*
%TD*%
D11*
%TO.C,Y1*%
X120400000Y-76350000D03*
X120400000Y-82250000D03*
X117700000Y-82250000D03*
X117700000Y-76350000D03*
%TD*%
%TO.C,U4*%
G36*
G01*
X143955000Y-70200000D02*
X144255000Y-70200000D01*
G75*
G02*
X144405000Y-70350000I0J-150000D01*
G01*
X144405000Y-71800000D01*
G75*
G02*
X144255000Y-71950000I-150000J0D01*
G01*
X143955000Y-71950000D01*
G75*
G02*
X143805000Y-71800000I0J150000D01*
G01*
X143805000Y-70350000D01*
G75*
G02*
X143955000Y-70200000I150000J0D01*
G01*
G37*
G36*
G01*
X142685000Y-70200000D02*
X142985000Y-70200000D01*
G75*
G02*
X143135000Y-70350000I0J-150000D01*
G01*
X143135000Y-71800000D01*
G75*
G02*
X142985000Y-71950000I-150000J0D01*
G01*
X142685000Y-71950000D01*
G75*
G02*
X142535000Y-71800000I0J150000D01*
G01*
X142535000Y-70350000D01*
G75*
G02*
X142685000Y-70200000I150000J0D01*
G01*
G37*
G36*
G01*
X141415000Y-70200000D02*
X141715000Y-70200000D01*
G75*
G02*
X141865000Y-70350000I0J-150000D01*
G01*
X141865000Y-71800000D01*
G75*
G02*
X141715000Y-71950000I-150000J0D01*
G01*
X141415000Y-71950000D01*
G75*
G02*
X141265000Y-71800000I0J150000D01*
G01*
X141265000Y-70350000D01*
G75*
G02*
X141415000Y-70200000I150000J0D01*
G01*
G37*
G36*
G01*
X140145000Y-70200000D02*
X140445000Y-70200000D01*
G75*
G02*
X140595000Y-70350000I0J-150000D01*
G01*
X140595000Y-71800000D01*
G75*
G02*
X140445000Y-71950000I-150000J0D01*
G01*
X140145000Y-71950000D01*
G75*
G02*
X139995000Y-71800000I0J150000D01*
G01*
X139995000Y-70350000D01*
G75*
G02*
X140145000Y-70200000I150000J0D01*
G01*
G37*
G36*
G01*
X140145000Y-65050000D02*
X140445000Y-65050000D01*
G75*
G02*
X140595000Y-65200000I0J-150000D01*
G01*
X140595000Y-66650000D01*
G75*
G02*
X140445000Y-66800000I-150000J0D01*
G01*
X140145000Y-66800000D01*
G75*
G02*
X139995000Y-66650000I0J150000D01*
G01*
X139995000Y-65200000D01*
G75*
G02*
X140145000Y-65050000I150000J0D01*
G01*
G37*
G36*
G01*
X141415000Y-65050000D02*
X141715000Y-65050000D01*
G75*
G02*
X141865000Y-65200000I0J-150000D01*
G01*
X141865000Y-66650000D01*
G75*
G02*
X141715000Y-66800000I-150000J0D01*
G01*
X141415000Y-66800000D01*
G75*
G02*
X141265000Y-66650000I0J150000D01*
G01*
X141265000Y-65200000D01*
G75*
G02*
X141415000Y-65050000I150000J0D01*
G01*
G37*
G36*
G01*
X142685000Y-65050000D02*
X142985000Y-65050000D01*
G75*
G02*
X143135000Y-65200000I0J-150000D01*
G01*
X143135000Y-66650000D01*
G75*
G02*
X142985000Y-66800000I-150000J0D01*
G01*
X142685000Y-66800000D01*
G75*
G02*
X142535000Y-66650000I0J150000D01*
G01*
X142535000Y-65200000D01*
G75*
G02*
X142685000Y-65050000I150000J0D01*
G01*
G37*
G36*
G01*
X143955000Y-65050000D02*
X144255000Y-65050000D01*
G75*
G02*
X144405000Y-65200000I0J-150000D01*
G01*
X144405000Y-66650000D01*
G75*
G02*
X144255000Y-66800000I-150000J0D01*
G01*
X143955000Y-66800000D01*
G75*
G02*
X143805000Y-66650000I0J150000D01*
G01*
X143805000Y-65200000D01*
G75*
G02*
X143955000Y-65050000I150000J0D01*
G01*
G37*
%TD*%
%TO.C,U3*%
G36*
G01*
X115529500Y-90650000D02*
X115229500Y-90650000D01*
G75*
G02*
X115079500Y-90500000I0J150000D01*
G01*
X115079500Y-88850000D01*
G75*
G02*
X115229500Y-88700000I150000J0D01*
G01*
X115529500Y-88700000D01*
G75*
G02*
X115679500Y-88850000I0J-150000D01*
G01*
X115679500Y-90500000D01*
G75*
G02*
X115529500Y-90650000I-150000J0D01*
G01*
G37*
G36*
G01*
X116799500Y-90650000D02*
X116499500Y-90650000D01*
G75*
G02*
X116349500Y-90500000I0J150000D01*
G01*
X116349500Y-88850000D01*
G75*
G02*
X116499500Y-88700000I150000J0D01*
G01*
X116799500Y-88700000D01*
G75*
G02*
X116949500Y-88850000I0J-150000D01*
G01*
X116949500Y-90500000D01*
G75*
G02*
X116799500Y-90650000I-150000J0D01*
G01*
G37*
G36*
G01*
X118069500Y-90650000D02*
X117769500Y-90650000D01*
G75*
G02*
X117619500Y-90500000I0J150000D01*
G01*
X117619500Y-88850000D01*
G75*
G02*
X117769500Y-88700000I150000J0D01*
G01*
X118069500Y-88700000D01*
G75*
G02*
X118219500Y-88850000I0J-150000D01*
G01*
X118219500Y-90500000D01*
G75*
G02*
X118069500Y-90650000I-150000J0D01*
G01*
G37*
G36*
G01*
X119339500Y-90650000D02*
X119039500Y-90650000D01*
G75*
G02*
X118889500Y-90500000I0J150000D01*
G01*
X118889500Y-88850000D01*
G75*
G02*
X119039500Y-88700000I150000J0D01*
G01*
X119339500Y-88700000D01*
G75*
G02*
X119489500Y-88850000I0J-150000D01*
G01*
X119489500Y-90500000D01*
G75*
G02*
X119339500Y-90650000I-150000J0D01*
G01*
G37*
G36*
G01*
X120609500Y-90650000D02*
X120309500Y-90650000D01*
G75*
G02*
X120159500Y-90500000I0J150000D01*
G01*
X120159500Y-88850000D01*
G75*
G02*
X120309500Y-88700000I150000J0D01*
G01*
X120609500Y-88700000D01*
G75*
G02*
X120759500Y-88850000I0J-150000D01*
G01*
X120759500Y-90500000D01*
G75*
G02*
X120609500Y-90650000I-150000J0D01*
G01*
G37*
G36*
G01*
X121879500Y-90650000D02*
X121579500Y-90650000D01*
G75*
G02*
X121429500Y-90500000I0J150000D01*
G01*
X121429500Y-88850000D01*
G75*
G02*
X121579500Y-88700000I150000J0D01*
G01*
X121879500Y-88700000D01*
G75*
G02*
X122029500Y-88850000I0J-150000D01*
G01*
X122029500Y-90500000D01*
G75*
G02*
X121879500Y-90650000I-150000J0D01*
G01*
G37*
G36*
G01*
X123149500Y-90650000D02*
X122849500Y-90650000D01*
G75*
G02*
X122699500Y-90500000I0J150000D01*
G01*
X122699500Y-88850000D01*
G75*
G02*
X122849500Y-88700000I150000J0D01*
G01*
X123149500Y-88700000D01*
G75*
G02*
X123299500Y-88850000I0J-150000D01*
G01*
X123299500Y-90500000D01*
G75*
G02*
X123149500Y-90650000I-150000J0D01*
G01*
G37*
G36*
G01*
X123149500Y-95600000D02*
X122849500Y-95600000D01*
G75*
G02*
X122699500Y-95450000I0J150000D01*
G01*
X122699500Y-93800000D01*
G75*
G02*
X122849500Y-93650000I150000J0D01*
G01*
X123149500Y-93650000D01*
G75*
G02*
X123299500Y-93800000I0J-150000D01*
G01*
X123299500Y-95450000D01*
G75*
G02*
X123149500Y-95600000I-150000J0D01*
G01*
G37*
G36*
G01*
X121879500Y-95600000D02*
X121579500Y-95600000D01*
G75*
G02*
X121429500Y-95450000I0J150000D01*
G01*
X121429500Y-93800000D01*
G75*
G02*
X121579500Y-93650000I150000J0D01*
G01*
X121879500Y-93650000D01*
G75*
G02*
X122029500Y-93800000I0J-150000D01*
G01*
X122029500Y-95450000D01*
G75*
G02*
X121879500Y-95600000I-150000J0D01*
G01*
G37*
G36*
G01*
X120609500Y-95600000D02*
X120309500Y-95600000D01*
G75*
G02*
X120159500Y-95450000I0J150000D01*
G01*
X120159500Y-93800000D01*
G75*
G02*
X120309500Y-93650000I150000J0D01*
G01*
X120609500Y-93650000D01*
G75*
G02*
X120759500Y-93800000I0J-150000D01*
G01*
X120759500Y-95450000D01*
G75*
G02*
X120609500Y-95600000I-150000J0D01*
G01*
G37*
G36*
G01*
X119339500Y-95600000D02*
X119039500Y-95600000D01*
G75*
G02*
X118889500Y-95450000I0J150000D01*
G01*
X118889500Y-93800000D01*
G75*
G02*
X119039500Y-93650000I150000J0D01*
G01*
X119339500Y-93650000D01*
G75*
G02*
X119489500Y-93800000I0J-150000D01*
G01*
X119489500Y-95450000D01*
G75*
G02*
X119339500Y-95600000I-150000J0D01*
G01*
G37*
G36*
G01*
X118069500Y-95600000D02*
X117769500Y-95600000D01*
G75*
G02*
X117619500Y-95450000I0J150000D01*
G01*
X117619500Y-93800000D01*
G75*
G02*
X117769500Y-93650000I150000J0D01*
G01*
X118069500Y-93650000D01*
G75*
G02*
X118219500Y-93800000I0J-150000D01*
G01*
X118219500Y-95450000D01*
G75*
G02*
X118069500Y-95600000I-150000J0D01*
G01*
G37*
G36*
G01*
X116799500Y-95600000D02*
X116499500Y-95600000D01*
G75*
G02*
X116349500Y-95450000I0J150000D01*
G01*
X116349500Y-93800000D01*
G75*
G02*
X116499500Y-93650000I150000J0D01*
G01*
X116799500Y-93650000D01*
G75*
G02*
X116949500Y-93800000I0J-150000D01*
G01*
X116949500Y-95450000D01*
G75*
G02*
X116799500Y-95600000I-150000J0D01*
G01*
G37*
G36*
G01*
X115529500Y-95600000D02*
X115229500Y-95600000D01*
G75*
G02*
X115079500Y-95450000I0J150000D01*
G01*
X115079500Y-93800000D01*
G75*
G02*
X115229500Y-93650000I150000J0D01*
G01*
X115529500Y-93650000D01*
G75*
G02*
X115679500Y-93800000I0J-150000D01*
G01*
X115679500Y-95450000D01*
G75*
G02*
X115529500Y-95600000I-150000J0D01*
G01*
G37*
%TD*%
D12*
%TO.C,U2*%
X127400000Y-76250000D03*
X128200000Y-76250000D03*
X129000000Y-76250000D03*
X129800000Y-76250000D03*
X130600000Y-76250000D03*
X131400000Y-76250000D03*
X132200000Y-76250000D03*
X133000000Y-76250000D03*
D13*
X134450000Y-77700000D03*
X134450000Y-78500000D03*
X134450000Y-79300000D03*
X134450000Y-80100000D03*
X134450000Y-80900000D03*
X134450000Y-81700000D03*
X134450000Y-82500000D03*
X134450000Y-83300000D03*
D12*
X133000000Y-84750000D03*
X132200000Y-84750000D03*
X131400000Y-84750000D03*
X130600000Y-84750000D03*
X129800000Y-84750000D03*
X129000000Y-84750000D03*
X128200000Y-84750000D03*
X127400000Y-84750000D03*
D13*
X125950000Y-83300000D03*
X125950000Y-82500000D03*
X125950000Y-81700000D03*
X125950000Y-80900000D03*
X125950000Y-80100000D03*
X125950000Y-79300000D03*
X125950000Y-78500000D03*
X125950000Y-77700000D03*
%TD*%
D14*
%TO.C,U1*%
G36*
X130089000Y-91172000D02*
G01*
X130089000Y-94297000D01*
X129672500Y-94297000D01*
X129672500Y-95772000D01*
X128772500Y-95772000D01*
X128772500Y-94297000D01*
X128356000Y-94297000D01*
X128356000Y-91172000D01*
X130089000Y-91172000D01*
G37*
D15*
X130722500Y-95122000D03*
X127722500Y-95122000D03*
%TD*%
%TO.C,R11*%
G36*
G01*
X140777250Y-90837500D02*
X141289750Y-90837500D01*
G75*
G02*
X141508500Y-91056250I0J-218750D01*
G01*
X141508500Y-91493750D01*
G75*
G02*
X141289750Y-91712500I-218750J0D01*
G01*
X140777250Y-91712500D01*
G75*
G02*
X140558500Y-91493750I0J218750D01*
G01*
X140558500Y-91056250D01*
G75*
G02*
X140777250Y-90837500I218750J0D01*
G01*
G37*
G36*
G01*
X140777250Y-89262500D02*
X141289750Y-89262500D01*
G75*
G02*
X141508500Y-89481250I0J-218750D01*
G01*
X141508500Y-89918750D01*
G75*
G02*
X141289750Y-90137500I-218750J0D01*
G01*
X140777250Y-90137500D01*
G75*
G02*
X140558500Y-89918750I0J218750D01*
G01*
X140558500Y-89481250D01*
G75*
G02*
X140777250Y-89262500I218750J0D01*
G01*
G37*
%TD*%
%TO.C,R9*%
G36*
G01*
X142590000Y-78206250D02*
X142590000Y-77693750D01*
G75*
G02*
X142808750Y-77475000I218750J0D01*
G01*
X143246250Y-77475000D01*
G75*
G02*
X143465000Y-77693750I0J-218750D01*
G01*
X143465000Y-78206250D01*
G75*
G02*
X143246250Y-78425000I-218750J0D01*
G01*
X142808750Y-78425000D01*
G75*
G02*
X142590000Y-78206250I0J218750D01*
G01*
G37*
G36*
G01*
X141015000Y-78206250D02*
X141015000Y-77693750D01*
G75*
G02*
X141233750Y-77475000I218750J0D01*
G01*
X141671250Y-77475000D01*
G75*
G02*
X141890000Y-77693750I0J-218750D01*
G01*
X141890000Y-78206250D01*
G75*
G02*
X141671250Y-78425000I-218750J0D01*
G01*
X141233750Y-78425000D01*
G75*
G02*
X141015000Y-78206250I0J218750D01*
G01*
G37*
%TD*%
%TO.C,R8*%
G36*
G01*
X141890000Y-79493750D02*
X141890000Y-80006250D01*
G75*
G02*
X141671250Y-80225000I-218750J0D01*
G01*
X141233750Y-80225000D01*
G75*
G02*
X141015000Y-80006250I0J218750D01*
G01*
X141015000Y-79493750D01*
G75*
G02*
X141233750Y-79275000I218750J0D01*
G01*
X141671250Y-79275000D01*
G75*
G02*
X141890000Y-79493750I0J-218750D01*
G01*
G37*
G36*
G01*
X143465000Y-79493750D02*
X143465000Y-80006250D01*
G75*
G02*
X143246250Y-80225000I-218750J0D01*
G01*
X142808750Y-80225000D01*
G75*
G02*
X142590000Y-80006250I0J218750D01*
G01*
X142590000Y-79493750D01*
G75*
G02*
X142808750Y-79275000I218750J0D01*
G01*
X143246250Y-79275000D01*
G75*
G02*
X143465000Y-79493750I0J-218750D01*
G01*
G37*
%TD*%
%TO.C,R7*%
G36*
G01*
X141890000Y-83343750D02*
X141890000Y-83856250D01*
G75*
G02*
X141671250Y-84075000I-218750J0D01*
G01*
X141233750Y-84075000D01*
G75*
G02*
X141015000Y-83856250I0J218750D01*
G01*
X141015000Y-83343750D01*
G75*
G02*
X141233750Y-83125000I218750J0D01*
G01*
X141671250Y-83125000D01*
G75*
G02*
X141890000Y-83343750I0J-218750D01*
G01*
G37*
G36*
G01*
X143465000Y-83343750D02*
X143465000Y-83856250D01*
G75*
G02*
X143246250Y-84075000I-218750J0D01*
G01*
X142808750Y-84075000D01*
G75*
G02*
X142590000Y-83856250I0J218750D01*
G01*
X142590000Y-83343750D01*
G75*
G02*
X142808750Y-83125000I218750J0D01*
G01*
X143246250Y-83125000D01*
G75*
G02*
X143465000Y-83343750I0J-218750D01*
G01*
G37*
%TD*%
%TO.C,R6*%
G36*
G01*
X141890000Y-81293750D02*
X141890000Y-81806250D01*
G75*
G02*
X141671250Y-82025000I-218750J0D01*
G01*
X141233750Y-82025000D01*
G75*
G02*
X141015000Y-81806250I0J218750D01*
G01*
X141015000Y-81293750D01*
G75*
G02*
X141233750Y-81075000I218750J0D01*
G01*
X141671250Y-81075000D01*
G75*
G02*
X141890000Y-81293750I0J-218750D01*
G01*
G37*
G36*
G01*
X143465000Y-81293750D02*
X143465000Y-81806250D01*
G75*
G02*
X143246250Y-82025000I-218750J0D01*
G01*
X142808750Y-82025000D01*
G75*
G02*
X142590000Y-81806250I0J218750D01*
G01*
X142590000Y-81293750D01*
G75*
G02*
X142808750Y-81075000I218750J0D01*
G01*
X143246250Y-81075000D01*
G75*
G02*
X143465000Y-81293750I0J-218750D01*
G01*
G37*
%TD*%
%TO.C,R5*%
G36*
G01*
X141890000Y-75943750D02*
X141890000Y-76456250D01*
G75*
G02*
X141671250Y-76675000I-218750J0D01*
G01*
X141233750Y-76675000D01*
G75*
G02*
X141015000Y-76456250I0J218750D01*
G01*
X141015000Y-75943750D01*
G75*
G02*
X141233750Y-75725000I218750J0D01*
G01*
X141671250Y-75725000D01*
G75*
G02*
X141890000Y-75943750I0J-218750D01*
G01*
G37*
G36*
G01*
X143465000Y-75943750D02*
X143465000Y-76456250D01*
G75*
G02*
X143246250Y-76675000I-218750J0D01*
G01*
X142808750Y-76675000D01*
G75*
G02*
X142590000Y-76456250I0J218750D01*
G01*
X142590000Y-75943750D01*
G75*
G02*
X142808750Y-75725000I218750J0D01*
G01*
X143246250Y-75725000D01*
G75*
G02*
X143465000Y-75943750I0J-218750D01*
G01*
G37*
%TD*%
%TO.C,R4*%
G36*
G01*
X129337500Y-73056250D02*
X129337500Y-72543750D01*
G75*
G02*
X129556250Y-72325000I218750J0D01*
G01*
X129993750Y-72325000D01*
G75*
G02*
X130212500Y-72543750I0J-218750D01*
G01*
X130212500Y-73056250D01*
G75*
G02*
X129993750Y-73275000I-218750J0D01*
G01*
X129556250Y-73275000D01*
G75*
G02*
X129337500Y-73056250I0J218750D01*
G01*
G37*
G36*
G01*
X127762500Y-73056250D02*
X127762500Y-72543750D01*
G75*
G02*
X127981250Y-72325000I218750J0D01*
G01*
X128418750Y-72325000D01*
G75*
G02*
X128637500Y-72543750I0J-218750D01*
G01*
X128637500Y-73056250D01*
G75*
G02*
X128418750Y-73275000I-218750J0D01*
G01*
X127981250Y-73275000D01*
G75*
G02*
X127762500Y-73056250I0J218750D01*
G01*
G37*
%TD*%
%TO.C,R3*%
G36*
G01*
X118841000Y-87441750D02*
X118841000Y-86929250D01*
G75*
G02*
X119059750Y-86710500I218750J0D01*
G01*
X119497250Y-86710500D01*
G75*
G02*
X119716000Y-86929250I0J-218750D01*
G01*
X119716000Y-87441750D01*
G75*
G02*
X119497250Y-87660500I-218750J0D01*
G01*
X119059750Y-87660500D01*
G75*
G02*
X118841000Y-87441750I0J218750D01*
G01*
G37*
G36*
G01*
X117266000Y-87441750D02*
X117266000Y-86929250D01*
G75*
G02*
X117484750Y-86710500I218750J0D01*
G01*
X117922250Y-86710500D01*
G75*
G02*
X118141000Y-86929250I0J-218750D01*
G01*
X118141000Y-87441750D01*
G75*
G02*
X117922250Y-87660500I-218750J0D01*
G01*
X117484750Y-87660500D01*
G75*
G02*
X117266000Y-87441750I0J218750D01*
G01*
G37*
%TD*%
%TO.C,R2*%
G36*
G01*
X136100000Y-71456250D02*
X136100000Y-70943750D01*
G75*
G02*
X136318750Y-70725000I218750J0D01*
G01*
X136756250Y-70725000D01*
G75*
G02*
X136975000Y-70943750I0J-218750D01*
G01*
X136975000Y-71456250D01*
G75*
G02*
X136756250Y-71675000I-218750J0D01*
G01*
X136318750Y-71675000D01*
G75*
G02*
X136100000Y-71456250I0J218750D01*
G01*
G37*
G36*
G01*
X134525000Y-71456250D02*
X134525000Y-70943750D01*
G75*
G02*
X134743750Y-70725000I218750J0D01*
G01*
X135181250Y-70725000D01*
G75*
G02*
X135400000Y-70943750I0J-218750D01*
G01*
X135400000Y-71456250D01*
G75*
G02*
X135181250Y-71675000I-218750J0D01*
G01*
X134743750Y-71675000D01*
G75*
G02*
X134525000Y-71456250I0J218750D01*
G01*
G37*
%TD*%
%TO.C,R1*%
G36*
G01*
X136100000Y-69656250D02*
X136100000Y-69143750D01*
G75*
G02*
X136318750Y-68925000I218750J0D01*
G01*
X136756250Y-68925000D01*
G75*
G02*
X136975000Y-69143750I0J-218750D01*
G01*
X136975000Y-69656250D01*
G75*
G02*
X136756250Y-69875000I-218750J0D01*
G01*
X136318750Y-69875000D01*
G75*
G02*
X136100000Y-69656250I0J218750D01*
G01*
G37*
G36*
G01*
X134525000Y-69656250D02*
X134525000Y-69143750D01*
G75*
G02*
X134743750Y-68925000I218750J0D01*
G01*
X135181250Y-68925000D01*
G75*
G02*
X135400000Y-69143750I0J-218750D01*
G01*
X135400000Y-69656250D01*
G75*
G02*
X135181250Y-69875000I-218750J0D01*
G01*
X134743750Y-69875000D01*
G75*
G02*
X134525000Y-69656250I0J218750D01*
G01*
G37*
%TD*%
%TO.C,C10*%
G36*
G01*
X142491750Y-87789500D02*
X143004250Y-87789500D01*
G75*
G02*
X143223000Y-88008250I0J-218750D01*
G01*
X143223000Y-88445750D01*
G75*
G02*
X143004250Y-88664500I-218750J0D01*
G01*
X142491750Y-88664500D01*
G75*
G02*
X142273000Y-88445750I0J218750D01*
G01*
X142273000Y-88008250D01*
G75*
G02*
X142491750Y-87789500I218750J0D01*
G01*
G37*
G36*
G01*
X142491750Y-86214500D02*
X143004250Y-86214500D01*
G75*
G02*
X143223000Y-86433250I0J-218750D01*
G01*
X143223000Y-86870750D01*
G75*
G02*
X143004250Y-87089500I-218750J0D01*
G01*
X142491750Y-87089500D01*
G75*
G02*
X142273000Y-86870750I0J218750D01*
G01*
X142273000Y-86433250D01*
G75*
G02*
X142491750Y-86214500I218750J0D01*
G01*
G37*
%TD*%
%TO.C,C9*%
G36*
G01*
X143100000Y-73093750D02*
X143100000Y-73606250D01*
G75*
G02*
X142881250Y-73825000I-218750J0D01*
G01*
X142443750Y-73825000D01*
G75*
G02*
X142225000Y-73606250I0J218750D01*
G01*
X142225000Y-73093750D01*
G75*
G02*
X142443750Y-72875000I218750J0D01*
G01*
X142881250Y-72875000D01*
G75*
G02*
X143100000Y-73093750I0J-218750D01*
G01*
G37*
G36*
G01*
X144675000Y-73093750D02*
X144675000Y-73606250D01*
G75*
G02*
X144456250Y-73825000I-218750J0D01*
G01*
X144018750Y-73825000D01*
G75*
G02*
X143800000Y-73606250I0J218750D01*
G01*
X143800000Y-73093750D01*
G75*
G02*
X144018750Y-72875000I218750J0D01*
G01*
X144456250Y-72875000D01*
G75*
G02*
X144675000Y-73093750I0J-218750D01*
G01*
G37*
%TD*%
%TO.C,C8*%
G36*
G01*
X123593750Y-80900000D02*
X124106250Y-80900000D01*
G75*
G02*
X124325000Y-81118750I0J-218750D01*
G01*
X124325000Y-81556250D01*
G75*
G02*
X124106250Y-81775000I-218750J0D01*
G01*
X123593750Y-81775000D01*
G75*
G02*
X123375000Y-81556250I0J218750D01*
G01*
X123375000Y-81118750D01*
G75*
G02*
X123593750Y-80900000I218750J0D01*
G01*
G37*
G36*
G01*
X123593750Y-79325000D02*
X124106250Y-79325000D01*
G75*
G02*
X124325000Y-79543750I0J-218750D01*
G01*
X124325000Y-79981250D01*
G75*
G02*
X124106250Y-80200000I-218750J0D01*
G01*
X123593750Y-80200000D01*
G75*
G02*
X123375000Y-79981250I0J218750D01*
G01*
X123375000Y-79543750D01*
G75*
G02*
X123593750Y-79325000I218750J0D01*
G01*
G37*
%TD*%
%TO.C,C6*%
G36*
G01*
X113027750Y-92679000D02*
X113540250Y-92679000D01*
G75*
G02*
X113759000Y-92897750I0J-218750D01*
G01*
X113759000Y-93335250D01*
G75*
G02*
X113540250Y-93554000I-218750J0D01*
G01*
X113027750Y-93554000D01*
G75*
G02*
X112809000Y-93335250I0J218750D01*
G01*
X112809000Y-92897750D01*
G75*
G02*
X113027750Y-92679000I218750J0D01*
G01*
G37*
G36*
G01*
X113027750Y-91104000D02*
X113540250Y-91104000D01*
G75*
G02*
X113759000Y-91322750I0J-218750D01*
G01*
X113759000Y-91760250D01*
G75*
G02*
X113540250Y-91979000I-218750J0D01*
G01*
X113027750Y-91979000D01*
G75*
G02*
X112809000Y-91760250I0J218750D01*
G01*
X112809000Y-91322750D01*
G75*
G02*
X113027750Y-91104000I218750J0D01*
G01*
G37*
%TD*%
%TO.C,C5*%
G36*
G01*
X119550000Y-84906250D02*
X119550000Y-84393750D01*
G75*
G02*
X119768750Y-84175000I218750J0D01*
G01*
X120206250Y-84175000D01*
G75*
G02*
X120425000Y-84393750I0J-218750D01*
G01*
X120425000Y-84906250D01*
G75*
G02*
X120206250Y-85125000I-218750J0D01*
G01*
X119768750Y-85125000D01*
G75*
G02*
X119550000Y-84906250I0J218750D01*
G01*
G37*
G36*
G01*
X117975000Y-84906250D02*
X117975000Y-84393750D01*
G75*
G02*
X118193750Y-84175000I218750J0D01*
G01*
X118631250Y-84175000D01*
G75*
G02*
X118850000Y-84393750I0J-218750D01*
G01*
X118850000Y-84906250D01*
G75*
G02*
X118631250Y-85125000I-218750J0D01*
G01*
X118193750Y-85125000D01*
G75*
G02*
X117975000Y-84906250I0J218750D01*
G01*
G37*
%TD*%
%TO.C,C4*%
G36*
G01*
X118600000Y-73593750D02*
X118600000Y-74106250D01*
G75*
G02*
X118381250Y-74325000I-218750J0D01*
G01*
X117943750Y-74325000D01*
G75*
G02*
X117725000Y-74106250I0J218750D01*
G01*
X117725000Y-73593750D01*
G75*
G02*
X117943750Y-73375000I218750J0D01*
G01*
X118381250Y-73375000D01*
G75*
G02*
X118600000Y-73593750I0J-218750D01*
G01*
G37*
G36*
G01*
X120175000Y-73593750D02*
X120175000Y-74106250D01*
G75*
G02*
X119956250Y-74325000I-218750J0D01*
G01*
X119518750Y-74325000D01*
G75*
G02*
X119300000Y-74106250I0J218750D01*
G01*
X119300000Y-73593750D01*
G75*
G02*
X119518750Y-73375000I218750J0D01*
G01*
X119956250Y-73375000D01*
G75*
G02*
X120175000Y-73593750I0J-218750D01*
G01*
G37*
%TD*%
%TO.C,C3*%
G36*
G01*
X136543750Y-80950000D02*
X137056250Y-80950000D01*
G75*
G02*
X137275000Y-81168750I0J-218750D01*
G01*
X137275000Y-81606250D01*
G75*
G02*
X137056250Y-81825000I-218750J0D01*
G01*
X136543750Y-81825000D01*
G75*
G02*
X136325000Y-81606250I0J218750D01*
G01*
X136325000Y-81168750D01*
G75*
G02*
X136543750Y-80950000I218750J0D01*
G01*
G37*
G36*
G01*
X136543750Y-79375000D02*
X137056250Y-79375000D01*
G75*
G02*
X137275000Y-79593750I0J-218750D01*
G01*
X137275000Y-80031250D01*
G75*
G02*
X137056250Y-80250000I-218750J0D01*
G01*
X136543750Y-80250000D01*
G75*
G02*
X136325000Y-80031250I0J218750D01*
G01*
X136325000Y-79593750D01*
G75*
G02*
X136543750Y-79375000I218750J0D01*
G01*
G37*
%TD*%
%TO.C,C2*%
G36*
G01*
X126677000Y-88761250D02*
X126677000Y-89673750D01*
G75*
G02*
X126433250Y-89917500I-243750J0D01*
G01*
X125945750Y-89917500D01*
G75*
G02*
X125702000Y-89673750I0J243750D01*
G01*
X125702000Y-88761250D01*
G75*
G02*
X125945750Y-88517500I243750J0D01*
G01*
X126433250Y-88517500D01*
G75*
G02*
X126677000Y-88761250I0J-243750D01*
G01*
G37*
G36*
G01*
X128552000Y-88761250D02*
X128552000Y-89673750D01*
G75*
G02*
X128308250Y-89917500I-243750J0D01*
G01*
X127820750Y-89917500D01*
G75*
G02*
X127577000Y-89673750I0J243750D01*
G01*
X127577000Y-88761250D01*
G75*
G02*
X127820750Y-88517500I243750J0D01*
G01*
X128308250Y-88517500D01*
G75*
G02*
X128552000Y-88761250I0J-243750D01*
G01*
G37*
%TD*%
%TO.C,C1*%
G36*
G01*
X134650000Y-95056250D02*
X134650000Y-94143750D01*
G75*
G02*
X134893750Y-93900000I243750J0D01*
G01*
X135381250Y-93900000D01*
G75*
G02*
X135625000Y-94143750I0J-243750D01*
G01*
X135625000Y-95056250D01*
G75*
G02*
X135381250Y-95300000I-243750J0D01*
G01*
X134893750Y-95300000D01*
G75*
G02*
X134650000Y-95056250I0J243750D01*
G01*
G37*
G36*
G01*
X132775000Y-95056250D02*
X132775000Y-94143750D01*
G75*
G02*
X133018750Y-93900000I243750J0D01*
G01*
X133506250Y-93900000D01*
G75*
G02*
X133750000Y-94143750I0J-243750D01*
G01*
X133750000Y-95056250D01*
G75*
G02*
X133506250Y-95300000I-243750J0D01*
G01*
X133018750Y-95300000D01*
G75*
G02*
X132775000Y-95056250I0J243750D01*
G01*
G37*
%TD*%
M02*
