%TF.GenerationSoftware,KiCad,Pcbnew,5.1.6-1.fc32*%
%TF.CreationDate,2020-08-28T03:42:22+01:00*%
%TF.ProjectId,ACNodeReader,41434e6f-6465-4526-9561-6465722e6b69,rev?*%
%TF.SameCoordinates,Original*%
%TF.FileFunction,Legend,Top*%
%TF.FilePolarity,Positive*%
%FSLAX46Y46*%
G04 Gerber Fmt 4.6, Leading zero omitted, Abs format (unit mm)*
G04 Created by KiCad (PCBNEW 5.1.6-1.fc32) date 2020-08-28 03:42:22*
%MOMM*%
%LPD*%
G01*
G04 APERTURE LIST*
%ADD10C,0.150000*%
%ADD11C,0.120000*%
%ADD12C,0.203200*%
%ADD13C,0.190500*%
G04 APERTURE END LIST*
D10*
X120968761Y-61508166D02*
X121444952Y-61508166D01*
X120873523Y-61793880D02*
X121206857Y-60793880D01*
X121540190Y-61793880D01*
X122444952Y-61698642D02*
X122397333Y-61746261D01*
X122254476Y-61793880D01*
X122159238Y-61793880D01*
X122016380Y-61746261D01*
X121921142Y-61651023D01*
X121873523Y-61555785D01*
X121825904Y-61365309D01*
X121825904Y-61222452D01*
X121873523Y-61031976D01*
X121921142Y-60936738D01*
X122016380Y-60841500D01*
X122159238Y-60793880D01*
X122254476Y-60793880D01*
X122397333Y-60841500D01*
X122444952Y-60889119D01*
X122873523Y-61793880D02*
X122873523Y-60793880D01*
X123444952Y-61793880D01*
X123444952Y-60793880D01*
X124064000Y-61793880D02*
X123968761Y-61746261D01*
X123921142Y-61698642D01*
X123873523Y-61603404D01*
X123873523Y-61317690D01*
X123921142Y-61222452D01*
X123968761Y-61174833D01*
X124064000Y-61127214D01*
X124206857Y-61127214D01*
X124302095Y-61174833D01*
X124349714Y-61222452D01*
X124397333Y-61317690D01*
X124397333Y-61603404D01*
X124349714Y-61698642D01*
X124302095Y-61746261D01*
X124206857Y-61793880D01*
X124064000Y-61793880D01*
X125254476Y-61793880D02*
X125254476Y-60793880D01*
X125254476Y-61746261D02*
X125159238Y-61793880D01*
X124968761Y-61793880D01*
X124873523Y-61746261D01*
X124825904Y-61698642D01*
X124778285Y-61603404D01*
X124778285Y-61317690D01*
X124825904Y-61222452D01*
X124873523Y-61174833D01*
X124968761Y-61127214D01*
X125159238Y-61127214D01*
X125254476Y-61174833D01*
X126111619Y-61746261D02*
X126016380Y-61793880D01*
X125825904Y-61793880D01*
X125730666Y-61746261D01*
X125683047Y-61651023D01*
X125683047Y-61270071D01*
X125730666Y-61174833D01*
X125825904Y-61127214D01*
X126016380Y-61127214D01*
X126111619Y-61174833D01*
X126159238Y-61270071D01*
X126159238Y-61365309D01*
X125683047Y-61460547D01*
X127921142Y-61793880D02*
X127587809Y-61317690D01*
X127349714Y-61793880D02*
X127349714Y-60793880D01*
X127730666Y-60793880D01*
X127825904Y-60841500D01*
X127873523Y-60889119D01*
X127921142Y-60984357D01*
X127921142Y-61127214D01*
X127873523Y-61222452D01*
X127825904Y-61270071D01*
X127730666Y-61317690D01*
X127349714Y-61317690D01*
X128730666Y-61746261D02*
X128635428Y-61793880D01*
X128444952Y-61793880D01*
X128349714Y-61746261D01*
X128302095Y-61651023D01*
X128302095Y-61270071D01*
X128349714Y-61174833D01*
X128444952Y-61127214D01*
X128635428Y-61127214D01*
X128730666Y-61174833D01*
X128778285Y-61270071D01*
X128778285Y-61365309D01*
X128302095Y-61460547D01*
X129635428Y-61793880D02*
X129635428Y-61270071D01*
X129587809Y-61174833D01*
X129492571Y-61127214D01*
X129302095Y-61127214D01*
X129206857Y-61174833D01*
X129635428Y-61746261D02*
X129540190Y-61793880D01*
X129302095Y-61793880D01*
X129206857Y-61746261D01*
X129159238Y-61651023D01*
X129159238Y-61555785D01*
X129206857Y-61460547D01*
X129302095Y-61412928D01*
X129540190Y-61412928D01*
X129635428Y-61365309D01*
X130540190Y-61793880D02*
X130540190Y-60793880D01*
X130540190Y-61746261D02*
X130444952Y-61793880D01*
X130254476Y-61793880D01*
X130159238Y-61746261D01*
X130111619Y-61698642D01*
X130064000Y-61603404D01*
X130064000Y-61317690D01*
X130111619Y-61222452D01*
X130159238Y-61174833D01*
X130254476Y-61127214D01*
X130444952Y-61127214D01*
X130540190Y-61174833D01*
X131397333Y-61746261D02*
X131302095Y-61793880D01*
X131111619Y-61793880D01*
X131016380Y-61746261D01*
X130968761Y-61651023D01*
X130968761Y-61270071D01*
X131016380Y-61174833D01*
X131111619Y-61127214D01*
X131302095Y-61127214D01*
X131397333Y-61174833D01*
X131444952Y-61270071D01*
X131444952Y-61365309D01*
X130968761Y-61460547D01*
X131873523Y-61793880D02*
X131873523Y-61127214D01*
X131873523Y-61317690D02*
X131921142Y-61222452D01*
X131968761Y-61174833D01*
X132064000Y-61127214D01*
X132159238Y-61127214D01*
X133587809Y-61270071D02*
X133730666Y-61317690D01*
X133778285Y-61365309D01*
X133825904Y-61460547D01*
X133825904Y-61603404D01*
X133778285Y-61698642D01*
X133730666Y-61746261D01*
X133635428Y-61793880D01*
X133254476Y-61793880D01*
X133254476Y-60793880D01*
X133587809Y-60793880D01*
X133683047Y-60841500D01*
X133730666Y-60889119D01*
X133778285Y-60984357D01*
X133778285Y-61079595D01*
X133730666Y-61174833D01*
X133683047Y-61222452D01*
X133587809Y-61270071D01*
X133254476Y-61270071D01*
X134397333Y-61793880D02*
X134302095Y-61746261D01*
X134254476Y-61698642D01*
X134206857Y-61603404D01*
X134206857Y-61317690D01*
X134254476Y-61222452D01*
X134302095Y-61174833D01*
X134397333Y-61127214D01*
X134540190Y-61127214D01*
X134635428Y-61174833D01*
X134683047Y-61222452D01*
X134730666Y-61317690D01*
X134730666Y-61603404D01*
X134683047Y-61698642D01*
X134635428Y-61746261D01*
X134540190Y-61793880D01*
X134397333Y-61793880D01*
X135587809Y-61793880D02*
X135587809Y-61270071D01*
X135540190Y-61174833D01*
X135444952Y-61127214D01*
X135254476Y-61127214D01*
X135159238Y-61174833D01*
X135587809Y-61746261D02*
X135492571Y-61793880D01*
X135254476Y-61793880D01*
X135159238Y-61746261D01*
X135111619Y-61651023D01*
X135111619Y-61555785D01*
X135159238Y-61460547D01*
X135254476Y-61412928D01*
X135492571Y-61412928D01*
X135587809Y-61365309D01*
X136064000Y-61793880D02*
X136064000Y-61127214D01*
X136064000Y-61317690D02*
X136111619Y-61222452D01*
X136159238Y-61174833D01*
X136254476Y-61127214D01*
X136349714Y-61127214D01*
X137111619Y-61793880D02*
X137111619Y-60793880D01*
X137111619Y-61746261D02*
X137016380Y-61793880D01*
X136825904Y-61793880D01*
X136730666Y-61746261D01*
X136683047Y-61698642D01*
X136635428Y-61603404D01*
X136635428Y-61317690D01*
X136683047Y-61222452D01*
X136730666Y-61174833D01*
X136825904Y-61127214D01*
X137016380Y-61127214D01*
X137111619Y-61174833D01*
X138206857Y-60793880D02*
X138540190Y-61793880D01*
X138873523Y-60793880D01*
X139730666Y-61793880D02*
X139159238Y-61793880D01*
X139444952Y-61793880D02*
X139444952Y-60793880D01*
X139349714Y-60936738D01*
X139254476Y-61031976D01*
X139159238Y-61079595D01*
X140159238Y-61698642D02*
X140206857Y-61746261D01*
X140159238Y-61793880D01*
X140111619Y-61746261D01*
X140159238Y-61698642D01*
X140159238Y-61793880D01*
X140825904Y-60793880D02*
X140921142Y-60793880D01*
X141016380Y-60841500D01*
X141064000Y-60889119D01*
X141111619Y-60984357D01*
X141159238Y-61174833D01*
X141159238Y-61412928D01*
X141111619Y-61603404D01*
X141064000Y-61698642D01*
X141016380Y-61746261D01*
X140921142Y-61793880D01*
X140825904Y-61793880D01*
X140730666Y-61746261D01*
X140683047Y-61698642D01*
X140635428Y-61603404D01*
X140587809Y-61412928D01*
X140587809Y-61174833D01*
X140635428Y-60984357D01*
X140683047Y-60889119D01*
X140730666Y-60841500D01*
X140825904Y-60793880D01*
X120778285Y-63443880D02*
X120778285Y-62443880D01*
X121016380Y-62443880D01*
X121159238Y-62491500D01*
X121254476Y-62586738D01*
X121302095Y-62681976D01*
X121349714Y-62872452D01*
X121349714Y-63015309D01*
X121302095Y-63205785D01*
X121254476Y-63301023D01*
X121159238Y-63396261D01*
X121016380Y-63443880D01*
X120778285Y-63443880D01*
X122159238Y-63396261D02*
X122064000Y-63443880D01*
X121873523Y-63443880D01*
X121778285Y-63396261D01*
X121730666Y-63301023D01*
X121730666Y-62920071D01*
X121778285Y-62824833D01*
X121873523Y-62777214D01*
X122064000Y-62777214D01*
X122159238Y-62824833D01*
X122206857Y-62920071D01*
X122206857Y-63015309D01*
X121730666Y-63110547D01*
X122587809Y-63396261D02*
X122683047Y-63443880D01*
X122873523Y-63443880D01*
X122968761Y-63396261D01*
X123016380Y-63301023D01*
X123016380Y-63253404D01*
X122968761Y-63158166D01*
X122873523Y-63110547D01*
X122730666Y-63110547D01*
X122635428Y-63062928D01*
X122587809Y-62967690D01*
X122587809Y-62920071D01*
X122635428Y-62824833D01*
X122730666Y-62777214D01*
X122873523Y-62777214D01*
X122968761Y-62824833D01*
X123444952Y-63443880D02*
X123444952Y-62777214D01*
X123444952Y-62443880D02*
X123397333Y-62491500D01*
X123444952Y-62539119D01*
X123492571Y-62491500D01*
X123444952Y-62443880D01*
X123444952Y-62539119D01*
X124349714Y-62777214D02*
X124349714Y-63586738D01*
X124302095Y-63681976D01*
X124254476Y-63729595D01*
X124159238Y-63777214D01*
X124016380Y-63777214D01*
X123921142Y-63729595D01*
X124349714Y-63396261D02*
X124254476Y-63443880D01*
X124064000Y-63443880D01*
X123968761Y-63396261D01*
X123921142Y-63348642D01*
X123873523Y-63253404D01*
X123873523Y-62967690D01*
X123921142Y-62872452D01*
X123968761Y-62824833D01*
X124064000Y-62777214D01*
X124254476Y-62777214D01*
X124349714Y-62824833D01*
X124825904Y-62777214D02*
X124825904Y-63443880D01*
X124825904Y-62872452D02*
X124873523Y-62824833D01*
X124968761Y-62777214D01*
X125111619Y-62777214D01*
X125206857Y-62824833D01*
X125254476Y-62920071D01*
X125254476Y-63443880D01*
X126111619Y-63396261D02*
X126016380Y-63443880D01*
X125825904Y-63443880D01*
X125730666Y-63396261D01*
X125683047Y-63301023D01*
X125683047Y-62920071D01*
X125730666Y-62824833D01*
X125825904Y-62777214D01*
X126016380Y-62777214D01*
X126111619Y-62824833D01*
X126159238Y-62920071D01*
X126159238Y-63015309D01*
X125683047Y-63110547D01*
X127016380Y-63443880D02*
X127016380Y-62443880D01*
X127016380Y-63396261D02*
X126921142Y-63443880D01*
X126730666Y-63443880D01*
X126635428Y-63396261D01*
X126587809Y-63348642D01*
X126540190Y-63253404D01*
X126540190Y-62967690D01*
X126587809Y-62872452D01*
X126635428Y-62824833D01*
X126730666Y-62777214D01*
X126921142Y-62777214D01*
X127016380Y-62824833D01*
X128254476Y-63443880D02*
X128254476Y-62443880D01*
X128254476Y-62824833D02*
X128349714Y-62777214D01*
X128540190Y-62777214D01*
X128635428Y-62824833D01*
X128683047Y-62872452D01*
X128730666Y-62967690D01*
X128730666Y-63253404D01*
X128683047Y-63348642D01*
X128635428Y-63396261D01*
X128540190Y-63443880D01*
X128349714Y-63443880D01*
X128254476Y-63396261D01*
X129064000Y-62777214D02*
X129302095Y-63443880D01*
X129540190Y-62777214D02*
X129302095Y-63443880D01*
X129206857Y-63681976D01*
X129159238Y-63729595D01*
X129064000Y-63777214D01*
X130683047Y-63443880D02*
X130683047Y-62443880D01*
X131016380Y-63158166D01*
X131349714Y-62443880D01*
X131349714Y-63443880D01*
X131825904Y-63443880D02*
X131825904Y-62777214D01*
X131825904Y-62443880D02*
X131778285Y-62491500D01*
X131825904Y-62539119D01*
X131873523Y-62491500D01*
X131825904Y-62443880D01*
X131825904Y-62539119D01*
X132730666Y-63396261D02*
X132635428Y-63443880D01*
X132444952Y-63443880D01*
X132349714Y-63396261D01*
X132302095Y-63348642D01*
X132254476Y-63253404D01*
X132254476Y-62967690D01*
X132302095Y-62872452D01*
X132349714Y-62824833D01*
X132444952Y-62777214D01*
X132635428Y-62777214D01*
X132730666Y-62824833D01*
X133159238Y-63443880D02*
X133159238Y-62443880D01*
X133587809Y-63443880D02*
X133587809Y-62920071D01*
X133540190Y-62824833D01*
X133444952Y-62777214D01*
X133302095Y-62777214D01*
X133206857Y-62824833D01*
X133159238Y-62872452D01*
X134492571Y-63443880D02*
X134492571Y-62920071D01*
X134444952Y-62824833D01*
X134349714Y-62777214D01*
X134159238Y-62777214D01*
X134064000Y-62824833D01*
X134492571Y-63396261D02*
X134397333Y-63443880D01*
X134159238Y-63443880D01*
X134064000Y-63396261D01*
X134016380Y-63301023D01*
X134016380Y-63205785D01*
X134064000Y-63110547D01*
X134159238Y-63062928D01*
X134397333Y-63062928D01*
X134492571Y-63015309D01*
X135349714Y-63396261D02*
X135254476Y-63443880D01*
X135064000Y-63443880D01*
X134968761Y-63396261D01*
X134921142Y-63301023D01*
X134921142Y-62920071D01*
X134968761Y-62824833D01*
X135064000Y-62777214D01*
X135254476Y-62777214D01*
X135349714Y-62824833D01*
X135397333Y-62920071D01*
X135397333Y-63015309D01*
X134921142Y-63110547D01*
X135968761Y-63443880D02*
X135873523Y-63396261D01*
X135825904Y-63301023D01*
X135825904Y-62443880D01*
X137683047Y-63348642D02*
X137635428Y-63396261D01*
X137492571Y-63443880D01*
X137397333Y-63443880D01*
X137254476Y-63396261D01*
X137159238Y-63301023D01*
X137111619Y-63205785D01*
X137064000Y-63015309D01*
X137064000Y-62872452D01*
X137111619Y-62681976D01*
X137159238Y-62586738D01*
X137254476Y-62491500D01*
X137397333Y-62443880D01*
X137492571Y-62443880D01*
X137635428Y-62491500D01*
X137683047Y-62539119D01*
X138540190Y-62777214D02*
X138540190Y-63443880D01*
X138111619Y-62777214D02*
X138111619Y-63301023D01*
X138159238Y-63396261D01*
X138254476Y-63443880D01*
X138397333Y-63443880D01*
X138492571Y-63396261D01*
X138540190Y-63348642D01*
X139159238Y-63443880D02*
X139064000Y-63396261D01*
X139016380Y-63301023D01*
X139016380Y-62443880D01*
X139683047Y-63443880D02*
X139587809Y-63396261D01*
X139540190Y-63301023D01*
X139540190Y-62443880D01*
X140444952Y-63396261D02*
X140349714Y-63443880D01*
X140159238Y-63443880D01*
X140064000Y-63396261D01*
X140016380Y-63301023D01*
X140016380Y-62920071D01*
X140064000Y-62824833D01*
X140159238Y-62777214D01*
X140349714Y-62777214D01*
X140444952Y-62824833D01*
X140492571Y-62920071D01*
X140492571Y-63015309D01*
X140016380Y-63110547D01*
X140921142Y-62777214D02*
X140921142Y-63443880D01*
X140921142Y-62872452D02*
X140968761Y-62824833D01*
X141064000Y-62777214D01*
X141206857Y-62777214D01*
X141302095Y-62824833D01*
X141349714Y-62920071D01*
X141349714Y-63443880D01*
D11*
%TO.C,J7*%
X111192000Y-74990000D02*
X113852000Y-74990000D01*
X111192000Y-67310000D02*
X111192000Y-74990000D01*
X113852000Y-67310000D02*
X113852000Y-74990000D01*
X111192000Y-67310000D02*
X113852000Y-67310000D01*
X111192000Y-66040000D02*
X111192000Y-64710000D01*
X111192000Y-64710000D02*
X112522000Y-64710000D01*
%TO.C,D1*%
X115799500Y-100242500D02*
X117499500Y-100242500D01*
X117499500Y-100242500D02*
X117499500Y-97692500D01*
X115799500Y-100242500D02*
X115799500Y-97692500D01*
%TO.C,J5*%
X147172500Y-74870000D02*
X147172500Y-85150000D01*
X147172500Y-85150000D02*
X149832500Y-85150000D01*
X149832500Y-85150000D02*
X149832500Y-74870000D01*
X149832500Y-74870000D02*
X147172500Y-74870000D01*
X149832500Y-75820000D02*
X155832500Y-75820000D01*
X155832500Y-75820000D02*
X155832500Y-76580000D01*
X155832500Y-76580000D02*
X149832500Y-76580000D01*
X149832500Y-75880000D02*
X155832500Y-75880000D01*
X149832500Y-76000000D02*
X155832500Y-76000000D01*
X149832500Y-76120000D02*
X155832500Y-76120000D01*
X149832500Y-76240000D02*
X155832500Y-76240000D01*
X149832500Y-76360000D02*
X155832500Y-76360000D01*
X149832500Y-76480000D02*
X155832500Y-76480000D01*
X146842500Y-75820000D02*
X147172500Y-75820000D01*
X146842500Y-76580000D02*
X147172500Y-76580000D01*
X147172500Y-77470000D02*
X149832500Y-77470000D01*
X149832500Y-78360000D02*
X155832500Y-78360000D01*
X155832500Y-78360000D02*
X155832500Y-79120000D01*
X155832500Y-79120000D02*
X149832500Y-79120000D01*
X146775429Y-78360000D02*
X147172500Y-78360000D01*
X146775429Y-79120000D02*
X147172500Y-79120000D01*
X147172500Y-80010000D02*
X149832500Y-80010000D01*
X149832500Y-80900000D02*
X155832500Y-80900000D01*
X155832500Y-80900000D02*
X155832500Y-81660000D01*
X155832500Y-81660000D02*
X149832500Y-81660000D01*
X146775429Y-80900000D02*
X147172500Y-80900000D01*
X146775429Y-81660000D02*
X147172500Y-81660000D01*
X147172500Y-82550000D02*
X149832500Y-82550000D01*
X149832500Y-83440000D02*
X155832500Y-83440000D01*
X155832500Y-83440000D02*
X155832500Y-84200000D01*
X155832500Y-84200000D02*
X149832500Y-84200000D01*
X146775429Y-83440000D02*
X147172500Y-83440000D01*
X146775429Y-84200000D02*
X147172500Y-84200000D01*
X144462500Y-76200000D02*
X144462500Y-74930000D01*
X144462500Y-74930000D02*
X145732500Y-74930000D01*
%TO.C,J4*%
X147172500Y-85030000D02*
X147172500Y-90230000D01*
X147172500Y-90230000D02*
X149832500Y-90230000D01*
X149832500Y-90230000D02*
X149832500Y-85030000D01*
X149832500Y-85030000D02*
X147172500Y-85030000D01*
X149832500Y-85980000D02*
X155832500Y-85980000D01*
X155832500Y-85980000D02*
X155832500Y-86740000D01*
X155832500Y-86740000D02*
X149832500Y-86740000D01*
X149832500Y-86040000D02*
X155832500Y-86040000D01*
X149832500Y-86160000D02*
X155832500Y-86160000D01*
X149832500Y-86280000D02*
X155832500Y-86280000D01*
X149832500Y-86400000D02*
X155832500Y-86400000D01*
X149832500Y-86520000D02*
X155832500Y-86520000D01*
X149832500Y-86640000D02*
X155832500Y-86640000D01*
X146842500Y-85980000D02*
X147172500Y-85980000D01*
X146842500Y-86740000D02*
X147172500Y-86740000D01*
X147172500Y-87630000D02*
X149832500Y-87630000D01*
X149832500Y-88520000D02*
X155832500Y-88520000D01*
X155832500Y-88520000D02*
X155832500Y-89280000D01*
X155832500Y-89280000D02*
X149832500Y-89280000D01*
X146775429Y-88520000D02*
X147172500Y-88520000D01*
X146775429Y-89280000D02*
X147172500Y-89280000D01*
X144462500Y-86360000D02*
X144462500Y-85090000D01*
X144462500Y-85090000D02*
X145732500Y-85090000D01*
%TO.C,J1*%
X139506000Y-99640000D02*
X119066000Y-99640000D01*
X119066000Y-99640000D02*
X119066000Y-102300000D01*
X119066000Y-102300000D02*
X139506000Y-102300000D01*
X139506000Y-102300000D02*
X139506000Y-99640000D01*
X138556000Y-102300000D02*
X138556000Y-108300000D01*
X138556000Y-108300000D02*
X137796000Y-108300000D01*
X137796000Y-108300000D02*
X137796000Y-102300000D01*
X138496000Y-102300000D02*
X138496000Y-108300000D01*
X138376000Y-102300000D02*
X138376000Y-108300000D01*
X138256000Y-102300000D02*
X138256000Y-108300000D01*
X138136000Y-102300000D02*
X138136000Y-108300000D01*
X138016000Y-102300000D02*
X138016000Y-108300000D01*
X137896000Y-102300000D02*
X137896000Y-108300000D01*
X138556000Y-99310000D02*
X138556000Y-99640000D01*
X137796000Y-99310000D02*
X137796000Y-99640000D01*
X136906000Y-99640000D02*
X136906000Y-102300000D01*
X136016000Y-102300000D02*
X136016000Y-108300000D01*
X136016000Y-108300000D02*
X135256000Y-108300000D01*
X135256000Y-108300000D02*
X135256000Y-102300000D01*
X136016000Y-99242929D02*
X136016000Y-99640000D01*
X135256000Y-99242929D02*
X135256000Y-99640000D01*
X134366000Y-99640000D02*
X134366000Y-102300000D01*
X133476000Y-102300000D02*
X133476000Y-108300000D01*
X133476000Y-108300000D02*
X132716000Y-108300000D01*
X132716000Y-108300000D02*
X132716000Y-102300000D01*
X133476000Y-99242929D02*
X133476000Y-99640000D01*
X132716000Y-99242929D02*
X132716000Y-99640000D01*
X131826000Y-99640000D02*
X131826000Y-102300000D01*
X130936000Y-102300000D02*
X130936000Y-108300000D01*
X130936000Y-108300000D02*
X130176000Y-108300000D01*
X130176000Y-108300000D02*
X130176000Y-102300000D01*
X130936000Y-99242929D02*
X130936000Y-99640000D01*
X130176000Y-99242929D02*
X130176000Y-99640000D01*
X129286000Y-99640000D02*
X129286000Y-102300000D01*
X128396000Y-102300000D02*
X128396000Y-108300000D01*
X128396000Y-108300000D02*
X127636000Y-108300000D01*
X127636000Y-108300000D02*
X127636000Y-102300000D01*
X128396000Y-99242929D02*
X128396000Y-99640000D01*
X127636000Y-99242929D02*
X127636000Y-99640000D01*
X126746000Y-99640000D02*
X126746000Y-102300000D01*
X125856000Y-102300000D02*
X125856000Y-108300000D01*
X125856000Y-108300000D02*
X125096000Y-108300000D01*
X125096000Y-108300000D02*
X125096000Y-102300000D01*
X125856000Y-99242929D02*
X125856000Y-99640000D01*
X125096000Y-99242929D02*
X125096000Y-99640000D01*
X124206000Y-99640000D02*
X124206000Y-102300000D01*
X123316000Y-102300000D02*
X123316000Y-108300000D01*
X123316000Y-108300000D02*
X122556000Y-108300000D01*
X122556000Y-108300000D02*
X122556000Y-102300000D01*
X123316000Y-99242929D02*
X123316000Y-99640000D01*
X122556000Y-99242929D02*
X122556000Y-99640000D01*
X121666000Y-99640000D02*
X121666000Y-102300000D01*
X120776000Y-102300000D02*
X120776000Y-108300000D01*
X120776000Y-108300000D02*
X120016000Y-108300000D01*
X120016000Y-108300000D02*
X120016000Y-102300000D01*
X120776000Y-99242929D02*
X120776000Y-99640000D01*
X120016000Y-99242929D02*
X120016000Y-99640000D01*
X138176000Y-96930000D02*
X139446000Y-96930000D01*
X139446000Y-96930000D02*
X139446000Y-98200000D01*
%TO.C,Y1*%
X121450000Y-75600000D02*
X121750000Y-75600000D01*
X121750000Y-75600000D02*
X121750000Y-83000000D01*
X121750000Y-83000000D02*
X121450000Y-83000000D01*
X116650000Y-75100000D02*
X116650000Y-75600000D01*
X116650000Y-75600000D02*
X116350000Y-75600000D01*
X116350000Y-75600000D02*
X116350000Y-83000000D01*
X116350000Y-83000000D02*
X116650000Y-83000000D01*
X118750000Y-75100000D02*
X118750000Y-75600000D01*
X118750000Y-75600000D02*
X119350000Y-75600000D01*
X119350000Y-83000000D02*
X118750000Y-83000000D01*
%TO.C,U4*%
X139640000Y-68500000D02*
X139640000Y-70450000D01*
X139640000Y-68500000D02*
X139640000Y-66550000D01*
X144760000Y-68500000D02*
X144760000Y-70450000D01*
X144760000Y-68500000D02*
X144760000Y-65050000D01*
%TO.C,U3*%
X123624500Y-92150000D02*
X123624500Y-90200000D01*
X123624500Y-92150000D02*
X123624500Y-94100000D01*
X114754500Y-92150000D02*
X114754500Y-90200000D01*
X114754500Y-92150000D02*
X114754500Y-95600000D01*
D10*
%TO.C,U2*%
X126575000Y-76875000D02*
X126575000Y-77100000D01*
X133825000Y-76875000D02*
X133825000Y-77200000D01*
X133825000Y-84125000D02*
X133825000Y-83800000D01*
X126575000Y-84125000D02*
X126575000Y-83800000D01*
X126575000Y-76875000D02*
X126900000Y-76875000D01*
X126575000Y-84125000D02*
X126900000Y-84125000D01*
X133825000Y-84125000D02*
X133500000Y-84125000D01*
X133825000Y-76875000D02*
X133500000Y-76875000D01*
X126575000Y-77100000D02*
X125150000Y-77100000D01*
D11*
%TO.C,U1*%
X130272500Y-91812000D02*
X131582500Y-91812000D01*
X131582500Y-91812000D02*
X131582500Y-94532000D01*
X127092500Y-95672000D02*
X127092500Y-94532000D01*
X126862500Y-91812000D02*
X128172500Y-91812000D01*
X126862500Y-94532000D02*
X126862500Y-91812000D01*
X126862500Y-94532000D02*
X127092500Y-94532000D01*
X131582500Y-94532000D02*
X131352500Y-94532000D01*
%TO.C,R11*%
X141543500Y-90324721D02*
X141543500Y-90650279D01*
X140523500Y-90324721D02*
X140523500Y-90650279D01*
%TO.C,R9*%
X142077221Y-77440000D02*
X142402779Y-77440000D01*
X142077221Y-78460000D02*
X142402779Y-78460000D01*
%TO.C,R8*%
X142402779Y-80260000D02*
X142077221Y-80260000D01*
X142402779Y-79240000D02*
X142077221Y-79240000D01*
%TO.C,R7*%
X142402779Y-84110000D02*
X142077221Y-84110000D01*
X142402779Y-83090000D02*
X142077221Y-83090000D01*
%TO.C,R6*%
X142402779Y-82060000D02*
X142077221Y-82060000D01*
X142402779Y-81040000D02*
X142077221Y-81040000D01*
%TO.C,R5*%
X142402779Y-76710000D02*
X142077221Y-76710000D01*
X142402779Y-75690000D02*
X142077221Y-75690000D01*
%TO.C,R4*%
X128824721Y-72290000D02*
X129150279Y-72290000D01*
X128824721Y-73310000D02*
X129150279Y-73310000D01*
%TO.C,R3*%
X118328221Y-86675500D02*
X118653779Y-86675500D01*
X118328221Y-87695500D02*
X118653779Y-87695500D01*
%TO.C,R2*%
X135587221Y-70690000D02*
X135912779Y-70690000D01*
X135587221Y-71710000D02*
X135912779Y-71710000D01*
%TO.C,R1*%
X135587221Y-68890000D02*
X135912779Y-68890000D01*
X135587221Y-69910000D02*
X135912779Y-69910000D01*
%TO.C,J3*%
X125150000Y-65170000D02*
X125150000Y-67830000D01*
X132830000Y-65170000D02*
X125150000Y-65170000D01*
X132830000Y-67830000D02*
X125150000Y-67830000D01*
X132830000Y-65170000D02*
X132830000Y-67830000D01*
X134100000Y-65170000D02*
X135430000Y-65170000D01*
X135430000Y-65170000D02*
X135430000Y-66500000D01*
D12*
%TO.C,J2*%
X137858500Y-93154500D02*
X132524500Y-92138500D01*
X139636500Y-93154500D02*
X137858500Y-93154500D01*
X139636500Y-89090500D02*
X139636500Y-93154500D01*
X137858500Y-89090500D02*
X139636500Y-89090500D01*
X132524500Y-90106500D02*
X137858500Y-89090500D01*
X132524500Y-92138500D02*
X132524500Y-90106500D01*
D11*
%TO.C,C10*%
X143258000Y-87276721D02*
X143258000Y-87602279D01*
X142238000Y-87276721D02*
X142238000Y-87602279D01*
%TO.C,C9*%
X143612779Y-73860000D02*
X143287221Y-73860000D01*
X143612779Y-72840000D02*
X143287221Y-72840000D01*
%TO.C,C8*%
X124360000Y-80387221D02*
X124360000Y-80712779D01*
X123340000Y-80387221D02*
X123340000Y-80712779D01*
%TO.C,C6*%
X113794000Y-92166221D02*
X113794000Y-92491779D01*
X112774000Y-92166221D02*
X112774000Y-92491779D01*
%TO.C,C5*%
X119037221Y-84140000D02*
X119362779Y-84140000D01*
X119037221Y-85160000D02*
X119362779Y-85160000D01*
%TO.C,C4*%
X119112779Y-74360000D02*
X118787221Y-74360000D01*
X119112779Y-73340000D02*
X118787221Y-73340000D01*
%TO.C,C3*%
X137310000Y-80437221D02*
X137310000Y-80762779D01*
X136290000Y-80437221D02*
X136290000Y-80762779D01*
%TO.C,C2*%
X127385578Y-89927500D02*
X126868422Y-89927500D01*
X127385578Y-88507500D02*
X126868422Y-88507500D01*
%TO.C,C1*%
X133941422Y-93890000D02*
X134458578Y-93890000D01*
X133941422Y-95310000D02*
X134458578Y-95310000D01*
%TO.C,J7*%
D10*
X112188666Y-63162380D02*
X112188666Y-63876666D01*
X112141047Y-64019523D01*
X112045809Y-64114761D01*
X111902952Y-64162380D01*
X111807714Y-64162380D01*
X112569619Y-63162380D02*
X113236285Y-63162380D01*
X112807714Y-64162380D01*
%TO.C,D1*%
X115251880Y-99480595D02*
X114251880Y-99480595D01*
X114251880Y-99242500D01*
X114299500Y-99099642D01*
X114394738Y-99004404D01*
X114489976Y-98956785D01*
X114680452Y-98909166D01*
X114823309Y-98909166D01*
X115013785Y-98956785D01*
X115109023Y-99004404D01*
X115204261Y-99099642D01*
X115251880Y-99242500D01*
X115251880Y-99480595D01*
X115251880Y-97956785D02*
X115251880Y-98528214D01*
X115251880Y-98242500D02*
X114251880Y-98242500D01*
X114394738Y-98337738D01*
X114489976Y-98432976D01*
X114537595Y-98528214D01*
%TO.C,J5*%
X148129666Y-75779380D02*
X148129666Y-76493666D01*
X148082047Y-76636523D01*
X147986809Y-76731761D01*
X147843952Y-76779380D01*
X147748714Y-76779380D01*
X149082047Y-75779380D02*
X148605857Y-75779380D01*
X148558238Y-76255571D01*
X148605857Y-76207952D01*
X148701095Y-76160333D01*
X148939190Y-76160333D01*
X149034428Y-76207952D01*
X149082047Y-76255571D01*
X149129666Y-76350809D01*
X149129666Y-76588904D01*
X149082047Y-76684142D01*
X149034428Y-76731761D01*
X148939190Y-76779380D01*
X148701095Y-76779380D01*
X148605857Y-76731761D01*
X148558238Y-76684142D01*
%TO.C,J4*%
X148066166Y-88352380D02*
X148066166Y-89066666D01*
X148018547Y-89209523D01*
X147923309Y-89304761D01*
X147780452Y-89352380D01*
X147685214Y-89352380D01*
X148970928Y-88685714D02*
X148970928Y-89352380D01*
X148732833Y-88304761D02*
X148494738Y-89019047D01*
X149113785Y-89019047D01*
%TO.C,J1*%
X130219380Y-101171333D02*
X130933666Y-101171333D01*
X131076523Y-101218952D01*
X131171761Y-101314190D01*
X131219380Y-101457047D01*
X131219380Y-101552285D01*
X131219380Y-100171333D02*
X131219380Y-100742761D01*
X131219380Y-100457047D02*
X130219380Y-100457047D01*
X130362238Y-100552285D01*
X130457476Y-100647523D01*
X130505095Y-100742761D01*
%TO.C,Y1*%
X115476190Y-79676190D02*
X115952380Y-79676190D01*
X114952380Y-80009523D02*
X115476190Y-79676190D01*
X114952380Y-79342857D01*
X115952380Y-78485714D02*
X115952380Y-79057142D01*
X115952380Y-78771428D02*
X114952380Y-78771428D01*
X115095238Y-78866666D01*
X115190476Y-78961904D01*
X115238095Y-79057142D01*
%TO.C,U4*%
X145052380Y-69261904D02*
X145861904Y-69261904D01*
X145957142Y-69214285D01*
X146004761Y-69166666D01*
X146052380Y-69071428D01*
X146052380Y-68880952D01*
X146004761Y-68785714D01*
X145957142Y-68738095D01*
X145861904Y-68690476D01*
X145052380Y-68690476D01*
X145385714Y-67785714D02*
X146052380Y-67785714D01*
X145004761Y-68023809D02*
X145719047Y-68261904D01*
X145719047Y-67642857D01*
%TO.C,U3*%
X118641880Y-92911904D02*
X119451404Y-92911904D01*
X119546642Y-92864285D01*
X119594261Y-92816666D01*
X119641880Y-92721428D01*
X119641880Y-92530952D01*
X119594261Y-92435714D01*
X119546642Y-92388095D01*
X119451404Y-92340476D01*
X118641880Y-92340476D01*
X118641880Y-91959523D02*
X118641880Y-91340476D01*
X119022833Y-91673809D01*
X119022833Y-91530952D01*
X119070452Y-91435714D01*
X119118071Y-91388095D01*
X119213309Y-91340476D01*
X119451404Y-91340476D01*
X119546642Y-91388095D01*
X119594261Y-91435714D01*
X119641880Y-91530952D01*
X119641880Y-91816666D01*
X119594261Y-91911904D01*
X119546642Y-91959523D01*
%TO.C,U2*%
X129438095Y-73902380D02*
X129438095Y-74711904D01*
X129485714Y-74807142D01*
X129533333Y-74854761D01*
X129628571Y-74902380D01*
X129819047Y-74902380D01*
X129914285Y-74854761D01*
X129961904Y-74807142D01*
X130009523Y-74711904D01*
X130009523Y-73902380D01*
X130438095Y-73997619D02*
X130485714Y-73950000D01*
X130580952Y-73902380D01*
X130819047Y-73902380D01*
X130914285Y-73950000D01*
X130961904Y-73997619D01*
X131009523Y-74092857D01*
X131009523Y-74188095D01*
X130961904Y-74330952D01*
X130390476Y-74902380D01*
X131009523Y-74902380D01*
%TO.C,U1*%
X125174880Y-93933904D02*
X125984404Y-93933904D01*
X126079642Y-93886285D01*
X126127261Y-93838666D01*
X126174880Y-93743428D01*
X126174880Y-93552952D01*
X126127261Y-93457714D01*
X126079642Y-93410095D01*
X125984404Y-93362476D01*
X125174880Y-93362476D01*
X126174880Y-92362476D02*
X126174880Y-92933904D01*
X126174880Y-92648190D02*
X125174880Y-92648190D01*
X125317738Y-92743428D01*
X125412976Y-92838666D01*
X125460595Y-92933904D01*
%TO.C,R11*%
X141549380Y-88145857D02*
X141073190Y-88479190D01*
X141549380Y-88717285D02*
X140549380Y-88717285D01*
X140549380Y-88336333D01*
X140597000Y-88241095D01*
X140644619Y-88193476D01*
X140739857Y-88145857D01*
X140882714Y-88145857D01*
X140977952Y-88193476D01*
X141025571Y-88241095D01*
X141073190Y-88336333D01*
X141073190Y-88717285D01*
X141549380Y-87193476D02*
X141549380Y-87764904D01*
X141549380Y-87479190D02*
X140549380Y-87479190D01*
X140692238Y-87574428D01*
X140787476Y-87669666D01*
X140835095Y-87764904D01*
X141549380Y-86241095D02*
X141549380Y-86812523D01*
X141549380Y-86526809D02*
X140549380Y-86526809D01*
X140692238Y-86622047D01*
X140787476Y-86717285D01*
X140835095Y-86812523D01*
%TO.C,R9*%
X139473333Y-78402380D02*
X139140000Y-77926190D01*
X138901904Y-78402380D02*
X138901904Y-77402380D01*
X139282857Y-77402380D01*
X139378095Y-77450000D01*
X139425714Y-77497619D01*
X139473333Y-77592857D01*
X139473333Y-77735714D01*
X139425714Y-77830952D01*
X139378095Y-77878571D01*
X139282857Y-77926190D01*
X138901904Y-77926190D01*
X139949523Y-78402380D02*
X140140000Y-78402380D01*
X140235238Y-78354761D01*
X140282857Y-78307142D01*
X140378095Y-78164285D01*
X140425714Y-77973809D01*
X140425714Y-77592857D01*
X140378095Y-77497619D01*
X140330476Y-77450000D01*
X140235238Y-77402380D01*
X140044761Y-77402380D01*
X139949523Y-77450000D01*
X139901904Y-77497619D01*
X139854285Y-77592857D01*
X139854285Y-77830952D01*
X139901904Y-77926190D01*
X139949523Y-77973809D01*
X140044761Y-78021428D01*
X140235238Y-78021428D01*
X140330476Y-77973809D01*
X140378095Y-77926190D01*
X140425714Y-77830952D01*
%TO.C,R8*%
X139423333Y-80202380D02*
X139090000Y-79726190D01*
X138851904Y-80202380D02*
X138851904Y-79202380D01*
X139232857Y-79202380D01*
X139328095Y-79250000D01*
X139375714Y-79297619D01*
X139423333Y-79392857D01*
X139423333Y-79535714D01*
X139375714Y-79630952D01*
X139328095Y-79678571D01*
X139232857Y-79726190D01*
X138851904Y-79726190D01*
X139994761Y-79630952D02*
X139899523Y-79583333D01*
X139851904Y-79535714D01*
X139804285Y-79440476D01*
X139804285Y-79392857D01*
X139851904Y-79297619D01*
X139899523Y-79250000D01*
X139994761Y-79202380D01*
X140185238Y-79202380D01*
X140280476Y-79250000D01*
X140328095Y-79297619D01*
X140375714Y-79392857D01*
X140375714Y-79440476D01*
X140328095Y-79535714D01*
X140280476Y-79583333D01*
X140185238Y-79630952D01*
X139994761Y-79630952D01*
X139899523Y-79678571D01*
X139851904Y-79726190D01*
X139804285Y-79821428D01*
X139804285Y-80011904D01*
X139851904Y-80107142D01*
X139899523Y-80154761D01*
X139994761Y-80202380D01*
X140185238Y-80202380D01*
X140280476Y-80154761D01*
X140328095Y-80107142D01*
X140375714Y-80011904D01*
X140375714Y-79821428D01*
X140328095Y-79726190D01*
X140280476Y-79678571D01*
X140185238Y-79630952D01*
%TO.C,R7*%
X139423333Y-84052380D02*
X139090000Y-83576190D01*
X138851904Y-84052380D02*
X138851904Y-83052380D01*
X139232857Y-83052380D01*
X139328095Y-83100000D01*
X139375714Y-83147619D01*
X139423333Y-83242857D01*
X139423333Y-83385714D01*
X139375714Y-83480952D01*
X139328095Y-83528571D01*
X139232857Y-83576190D01*
X138851904Y-83576190D01*
X139756666Y-83052380D02*
X140423333Y-83052380D01*
X139994761Y-84052380D01*
%TO.C,R6*%
X139423333Y-81952380D02*
X139090000Y-81476190D01*
X138851904Y-81952380D02*
X138851904Y-80952380D01*
X139232857Y-80952380D01*
X139328095Y-81000000D01*
X139375714Y-81047619D01*
X139423333Y-81142857D01*
X139423333Y-81285714D01*
X139375714Y-81380952D01*
X139328095Y-81428571D01*
X139232857Y-81476190D01*
X138851904Y-81476190D01*
X140280476Y-80952380D02*
X140090000Y-80952380D01*
X139994761Y-81000000D01*
X139947142Y-81047619D01*
X139851904Y-81190476D01*
X139804285Y-81380952D01*
X139804285Y-81761904D01*
X139851904Y-81857142D01*
X139899523Y-81904761D01*
X139994761Y-81952380D01*
X140185238Y-81952380D01*
X140280476Y-81904761D01*
X140328095Y-81857142D01*
X140375714Y-81761904D01*
X140375714Y-81523809D01*
X140328095Y-81428571D01*
X140280476Y-81380952D01*
X140185238Y-81333333D01*
X139994761Y-81333333D01*
X139899523Y-81380952D01*
X139851904Y-81428571D01*
X139804285Y-81523809D01*
%TO.C,R5*%
X139523333Y-76702380D02*
X139190000Y-76226190D01*
X138951904Y-76702380D02*
X138951904Y-75702380D01*
X139332857Y-75702380D01*
X139428095Y-75750000D01*
X139475714Y-75797619D01*
X139523333Y-75892857D01*
X139523333Y-76035714D01*
X139475714Y-76130952D01*
X139428095Y-76178571D01*
X139332857Y-76226190D01*
X138951904Y-76226190D01*
X140428095Y-75702380D02*
X139951904Y-75702380D01*
X139904285Y-76178571D01*
X139951904Y-76130952D01*
X140047142Y-76083333D01*
X140285238Y-76083333D01*
X140380476Y-76130952D01*
X140428095Y-76178571D01*
X140475714Y-76273809D01*
X140475714Y-76511904D01*
X140428095Y-76607142D01*
X140380476Y-76654761D01*
X140285238Y-76702380D01*
X140047142Y-76702380D01*
X139951904Y-76654761D01*
X139904285Y-76607142D01*
%TO.C,R4*%
X128820833Y-71822380D02*
X128487500Y-71346190D01*
X128249404Y-71822380D02*
X128249404Y-70822380D01*
X128630357Y-70822380D01*
X128725595Y-70870000D01*
X128773214Y-70917619D01*
X128820833Y-71012857D01*
X128820833Y-71155714D01*
X128773214Y-71250952D01*
X128725595Y-71298571D01*
X128630357Y-71346190D01*
X128249404Y-71346190D01*
X129677976Y-71155714D02*
X129677976Y-71822380D01*
X129439880Y-70774761D02*
X129201785Y-71489047D01*
X129820833Y-71489047D01*
%TO.C,R3*%
X115824333Y-87687880D02*
X115491000Y-87211690D01*
X115252904Y-87687880D02*
X115252904Y-86687880D01*
X115633857Y-86687880D01*
X115729095Y-86735500D01*
X115776714Y-86783119D01*
X115824333Y-86878357D01*
X115824333Y-87021214D01*
X115776714Y-87116452D01*
X115729095Y-87164071D01*
X115633857Y-87211690D01*
X115252904Y-87211690D01*
X116157666Y-86687880D02*
X116776714Y-86687880D01*
X116443380Y-87068833D01*
X116586238Y-87068833D01*
X116681476Y-87116452D01*
X116729095Y-87164071D01*
X116776714Y-87259309D01*
X116776714Y-87497404D01*
X116729095Y-87592642D01*
X116681476Y-87640261D01*
X116586238Y-87687880D01*
X116300523Y-87687880D01*
X116205285Y-87640261D01*
X116157666Y-87592642D01*
%TO.C,R2*%
X133033333Y-71652380D02*
X132700000Y-71176190D01*
X132461904Y-71652380D02*
X132461904Y-70652380D01*
X132842857Y-70652380D01*
X132938095Y-70700000D01*
X132985714Y-70747619D01*
X133033333Y-70842857D01*
X133033333Y-70985714D01*
X132985714Y-71080952D01*
X132938095Y-71128571D01*
X132842857Y-71176190D01*
X132461904Y-71176190D01*
X133414285Y-70747619D02*
X133461904Y-70700000D01*
X133557142Y-70652380D01*
X133795238Y-70652380D01*
X133890476Y-70700000D01*
X133938095Y-70747619D01*
X133985714Y-70842857D01*
X133985714Y-70938095D01*
X133938095Y-71080952D01*
X133366666Y-71652380D01*
X133985714Y-71652380D01*
%TO.C,R1*%
X133083333Y-69852380D02*
X132750000Y-69376190D01*
X132511904Y-69852380D02*
X132511904Y-68852380D01*
X132892857Y-68852380D01*
X132988095Y-68900000D01*
X133035714Y-68947619D01*
X133083333Y-69042857D01*
X133083333Y-69185714D01*
X133035714Y-69280952D01*
X132988095Y-69328571D01*
X132892857Y-69376190D01*
X132511904Y-69376190D01*
X134035714Y-69852380D02*
X133464285Y-69852380D01*
X133750000Y-69852380D02*
X133750000Y-68852380D01*
X133654761Y-68995238D01*
X133559523Y-69090476D01*
X133464285Y-69138095D01*
%TO.C,J3*%
X135882380Y-66833333D02*
X136596666Y-66833333D01*
X136739523Y-66880952D01*
X136834761Y-66976190D01*
X136882380Y-67119047D01*
X136882380Y-67214285D01*
X135882380Y-66452380D02*
X135882380Y-65833333D01*
X136263333Y-66166666D01*
X136263333Y-66023809D01*
X136310952Y-65928571D01*
X136358571Y-65880952D01*
X136453809Y-65833333D01*
X136691904Y-65833333D01*
X136787142Y-65880952D01*
X136834761Y-65928571D01*
X136882380Y-66023809D01*
X136882380Y-66309523D01*
X136834761Y-66404761D01*
X136787142Y-66452380D01*
%TO.C,J2*%
D13*
X136334500Y-93614119D02*
X136334500Y-94339833D01*
X136298214Y-94484976D01*
X136225642Y-94581738D01*
X136116785Y-94630119D01*
X136044214Y-94630119D01*
X136661071Y-93710880D02*
X136697357Y-93662500D01*
X136769928Y-93614119D01*
X136951357Y-93614119D01*
X137023928Y-93662500D01*
X137060214Y-93710880D01*
X137096500Y-93807642D01*
X137096500Y-93904404D01*
X137060214Y-94049547D01*
X136624785Y-94630119D01*
X137096500Y-94630119D01*
X133213928Y-88243833D02*
X133576785Y-88243833D01*
X133141357Y-88534119D02*
X133395357Y-87518119D01*
X133649357Y-88534119D01*
X133794500Y-87518119D02*
X134048500Y-88534119D01*
X134302500Y-87518119D01*
X134991928Y-88534119D02*
X134737928Y-88050309D01*
X134556500Y-88534119D02*
X134556500Y-87518119D01*
X134846785Y-87518119D01*
X134919357Y-87566500D01*
X134955642Y-87614880D01*
X134991928Y-87711642D01*
X134991928Y-87856785D01*
X134955642Y-87953547D01*
X134919357Y-88001928D01*
X134846785Y-88050309D01*
X134556500Y-88050309D01*
X135318500Y-88147071D02*
X135899071Y-88147071D01*
X136261928Y-88534119D02*
X136261928Y-87518119D01*
X136588500Y-88485738D02*
X136697357Y-88534119D01*
X136878785Y-88534119D01*
X136951357Y-88485738D01*
X136987642Y-88437357D01*
X137023928Y-88340595D01*
X137023928Y-88243833D01*
X136987642Y-88147071D01*
X136951357Y-88098690D01*
X136878785Y-88050309D01*
X136733642Y-88001928D01*
X136661071Y-87953547D01*
X136624785Y-87905166D01*
X136588500Y-87808404D01*
X136588500Y-87711642D01*
X136624785Y-87614880D01*
X136661071Y-87566500D01*
X136733642Y-87518119D01*
X136915071Y-87518119D01*
X137023928Y-87566500D01*
X137350500Y-88534119D02*
X137350500Y-87518119D01*
X137640785Y-87518119D01*
X137713357Y-87566500D01*
X137749642Y-87614880D01*
X137785928Y-87711642D01*
X137785928Y-87856785D01*
X137749642Y-87953547D01*
X137713357Y-88001928D01*
X137640785Y-88050309D01*
X137350500Y-88050309D01*
X138112500Y-88147071D02*
X138693071Y-88147071D01*
X139382500Y-87518119D02*
X139237357Y-87518119D01*
X139164785Y-87566500D01*
X139128500Y-87614880D01*
X139055928Y-87760023D01*
X139019642Y-87953547D01*
X139019642Y-88340595D01*
X139055928Y-88437357D01*
X139092214Y-88485738D01*
X139164785Y-88534119D01*
X139309928Y-88534119D01*
X139382500Y-88485738D01*
X139418785Y-88437357D01*
X139455071Y-88340595D01*
X139455071Y-88098690D01*
X139418785Y-88001928D01*
X139382500Y-87953547D01*
X139309928Y-87905166D01*
X139164785Y-87905166D01*
X139092214Y-87953547D01*
X139055928Y-88001928D01*
X139019642Y-88098690D01*
%TO.C,C10*%
D10*
X143168642Y-91066857D02*
X143216261Y-91114476D01*
X143263880Y-91257333D01*
X143263880Y-91352571D01*
X143216261Y-91495428D01*
X143121023Y-91590666D01*
X143025785Y-91638285D01*
X142835309Y-91685904D01*
X142692452Y-91685904D01*
X142501976Y-91638285D01*
X142406738Y-91590666D01*
X142311500Y-91495428D01*
X142263880Y-91352571D01*
X142263880Y-91257333D01*
X142311500Y-91114476D01*
X142359119Y-91066857D01*
X143263880Y-90114476D02*
X143263880Y-90685904D01*
X143263880Y-90400190D02*
X142263880Y-90400190D01*
X142406738Y-90495428D01*
X142501976Y-90590666D01*
X142549595Y-90685904D01*
X142263880Y-89495428D02*
X142263880Y-89400190D01*
X142311500Y-89304952D01*
X142359119Y-89257333D01*
X142454357Y-89209714D01*
X142644833Y-89162095D01*
X142882928Y-89162095D01*
X143073404Y-89209714D01*
X143168642Y-89257333D01*
X143216261Y-89304952D01*
X143263880Y-89400190D01*
X143263880Y-89495428D01*
X143216261Y-89590666D01*
X143168642Y-89638285D01*
X143073404Y-89685904D01*
X142882928Y-89733523D01*
X142644833Y-89733523D01*
X142454357Y-89685904D01*
X142359119Y-89638285D01*
X142311500Y-89590666D01*
X142263880Y-89495428D01*
%TO.C,C9*%
X140783333Y-73807142D02*
X140735714Y-73854761D01*
X140592857Y-73902380D01*
X140497619Y-73902380D01*
X140354761Y-73854761D01*
X140259523Y-73759523D01*
X140211904Y-73664285D01*
X140164285Y-73473809D01*
X140164285Y-73330952D01*
X140211904Y-73140476D01*
X140259523Y-73045238D01*
X140354761Y-72950000D01*
X140497619Y-72902380D01*
X140592857Y-72902380D01*
X140735714Y-72950000D01*
X140783333Y-72997619D01*
X141259523Y-73902380D02*
X141450000Y-73902380D01*
X141545238Y-73854761D01*
X141592857Y-73807142D01*
X141688095Y-73664285D01*
X141735714Y-73473809D01*
X141735714Y-73092857D01*
X141688095Y-72997619D01*
X141640476Y-72950000D01*
X141545238Y-72902380D01*
X141354761Y-72902380D01*
X141259523Y-72950000D01*
X141211904Y-72997619D01*
X141164285Y-73092857D01*
X141164285Y-73330952D01*
X141211904Y-73426190D01*
X141259523Y-73473809D01*
X141354761Y-73521428D01*
X141545238Y-73521428D01*
X141640476Y-73473809D01*
X141688095Y-73426190D01*
X141735714Y-73330952D01*
%TO.C,C8*%
X124207142Y-83216666D02*
X124254761Y-83264285D01*
X124302380Y-83407142D01*
X124302380Y-83502380D01*
X124254761Y-83645238D01*
X124159523Y-83740476D01*
X124064285Y-83788095D01*
X123873809Y-83835714D01*
X123730952Y-83835714D01*
X123540476Y-83788095D01*
X123445238Y-83740476D01*
X123350000Y-83645238D01*
X123302380Y-83502380D01*
X123302380Y-83407142D01*
X123350000Y-83264285D01*
X123397619Y-83216666D01*
X123730952Y-82645238D02*
X123683333Y-82740476D01*
X123635714Y-82788095D01*
X123540476Y-82835714D01*
X123492857Y-82835714D01*
X123397619Y-82788095D01*
X123350000Y-82740476D01*
X123302380Y-82645238D01*
X123302380Y-82454761D01*
X123350000Y-82359523D01*
X123397619Y-82311904D01*
X123492857Y-82264285D01*
X123540476Y-82264285D01*
X123635714Y-82311904D01*
X123683333Y-82359523D01*
X123730952Y-82454761D01*
X123730952Y-82645238D01*
X123778571Y-82740476D01*
X123826190Y-82788095D01*
X123921428Y-82835714D01*
X124111904Y-82835714D01*
X124207142Y-82788095D01*
X124254761Y-82740476D01*
X124302380Y-82645238D01*
X124302380Y-82454761D01*
X124254761Y-82359523D01*
X124207142Y-82311904D01*
X124111904Y-82264285D01*
X123921428Y-82264285D01*
X123826190Y-82311904D01*
X123778571Y-82359523D01*
X123730952Y-82454761D01*
%TO.C,C6*%
X113591142Y-90045666D02*
X113638761Y-90093285D01*
X113686380Y-90236142D01*
X113686380Y-90331380D01*
X113638761Y-90474238D01*
X113543523Y-90569476D01*
X113448285Y-90617095D01*
X113257809Y-90664714D01*
X113114952Y-90664714D01*
X112924476Y-90617095D01*
X112829238Y-90569476D01*
X112734000Y-90474238D01*
X112686380Y-90331380D01*
X112686380Y-90236142D01*
X112734000Y-90093285D01*
X112781619Y-90045666D01*
X112686380Y-89188523D02*
X112686380Y-89379000D01*
X112734000Y-89474238D01*
X112781619Y-89521857D01*
X112924476Y-89617095D01*
X113114952Y-89664714D01*
X113495904Y-89664714D01*
X113591142Y-89617095D01*
X113638761Y-89569476D01*
X113686380Y-89474238D01*
X113686380Y-89283761D01*
X113638761Y-89188523D01*
X113591142Y-89140904D01*
X113495904Y-89093285D01*
X113257809Y-89093285D01*
X113162571Y-89140904D01*
X113114952Y-89188523D01*
X113067333Y-89283761D01*
X113067333Y-89474238D01*
X113114952Y-89569476D01*
X113162571Y-89617095D01*
X113257809Y-89664714D01*
%TO.C,C5*%
X121533333Y-85207142D02*
X121485714Y-85254761D01*
X121342857Y-85302380D01*
X121247619Y-85302380D01*
X121104761Y-85254761D01*
X121009523Y-85159523D01*
X120961904Y-85064285D01*
X120914285Y-84873809D01*
X120914285Y-84730952D01*
X120961904Y-84540476D01*
X121009523Y-84445238D01*
X121104761Y-84350000D01*
X121247619Y-84302380D01*
X121342857Y-84302380D01*
X121485714Y-84350000D01*
X121533333Y-84397619D01*
X122438095Y-84302380D02*
X121961904Y-84302380D01*
X121914285Y-84778571D01*
X121961904Y-84730952D01*
X122057142Y-84683333D01*
X122295238Y-84683333D01*
X122390476Y-84730952D01*
X122438095Y-84778571D01*
X122485714Y-84873809D01*
X122485714Y-85111904D01*
X122438095Y-85207142D01*
X122390476Y-85254761D01*
X122295238Y-85302380D01*
X122057142Y-85302380D01*
X121961904Y-85254761D01*
X121914285Y-85207142D01*
%TO.C,C4*%
X116292333Y-74207642D02*
X116244714Y-74255261D01*
X116101857Y-74302880D01*
X116006619Y-74302880D01*
X115863761Y-74255261D01*
X115768523Y-74160023D01*
X115720904Y-74064785D01*
X115673285Y-73874309D01*
X115673285Y-73731452D01*
X115720904Y-73540976D01*
X115768523Y-73445738D01*
X115863761Y-73350500D01*
X116006619Y-73302880D01*
X116101857Y-73302880D01*
X116244714Y-73350500D01*
X116292333Y-73398119D01*
X117149476Y-73636214D02*
X117149476Y-74302880D01*
X116911380Y-73255261D02*
X116673285Y-73969547D01*
X117292333Y-73969547D01*
%TO.C,C3*%
X138587142Y-80766666D02*
X138634761Y-80814285D01*
X138682380Y-80957142D01*
X138682380Y-81052380D01*
X138634761Y-81195238D01*
X138539523Y-81290476D01*
X138444285Y-81338095D01*
X138253809Y-81385714D01*
X138110952Y-81385714D01*
X137920476Y-81338095D01*
X137825238Y-81290476D01*
X137730000Y-81195238D01*
X137682380Y-81052380D01*
X137682380Y-80957142D01*
X137730000Y-80814285D01*
X137777619Y-80766666D01*
X137682380Y-80433333D02*
X137682380Y-79814285D01*
X138063333Y-80147619D01*
X138063333Y-80004761D01*
X138110952Y-79909523D01*
X138158571Y-79861904D01*
X138253809Y-79814285D01*
X138491904Y-79814285D01*
X138587142Y-79861904D01*
X138634761Y-79909523D01*
X138682380Y-80004761D01*
X138682380Y-80290476D01*
X138634761Y-80385714D01*
X138587142Y-80433333D01*
%TO.C,C2*%
X126960333Y-91224642D02*
X126912714Y-91272261D01*
X126769857Y-91319880D01*
X126674619Y-91319880D01*
X126531761Y-91272261D01*
X126436523Y-91177023D01*
X126388904Y-91081785D01*
X126341285Y-90891309D01*
X126341285Y-90748452D01*
X126388904Y-90557976D01*
X126436523Y-90462738D01*
X126531761Y-90367500D01*
X126674619Y-90319880D01*
X126769857Y-90319880D01*
X126912714Y-90367500D01*
X126960333Y-90415119D01*
X127341285Y-90415119D02*
X127388904Y-90367500D01*
X127484142Y-90319880D01*
X127722238Y-90319880D01*
X127817476Y-90367500D01*
X127865095Y-90415119D01*
X127912714Y-90510357D01*
X127912714Y-90605595D01*
X127865095Y-90748452D01*
X127293666Y-91319880D01*
X127912714Y-91319880D01*
%TO.C,C1*%
X132421333Y-93448142D02*
X132373714Y-93495761D01*
X132230857Y-93543380D01*
X132135619Y-93543380D01*
X131992761Y-93495761D01*
X131897523Y-93400523D01*
X131849904Y-93305285D01*
X131802285Y-93114809D01*
X131802285Y-92971952D01*
X131849904Y-92781476D01*
X131897523Y-92686238D01*
X131992761Y-92591000D01*
X132135619Y-92543380D01*
X132230857Y-92543380D01*
X132373714Y-92591000D01*
X132421333Y-92638619D01*
X133373714Y-93543380D02*
X132802285Y-93543380D01*
X133088000Y-93543380D02*
X133088000Y-92543380D01*
X132992761Y-92686238D01*
X132897523Y-92781476D01*
X132802285Y-92829095D01*
%TD*%
M02*
