%TF.GenerationSoftware,KiCad,Pcbnew,5.1.6-1.fc32*%
%TF.CreationDate,2020-09-22T21:06:53+01:00*%
%TF.ProjectId,ACNodeReader,41434e6f-6465-4526-9561-6465722e6b69,rev?*%
%TF.SameCoordinates,Original*%
%TF.FileFunction,Legend,Top*%
%TF.FilePolarity,Positive*%
%FSLAX46Y46*%
G04 Gerber Fmt 4.6, Leading zero omitted, Abs format (unit mm)*
G04 Created by KiCad (PCBNEW 5.1.6-1.fc32) date 2020-09-22 21:06:53*
%MOMM*%
%LPD*%
G01*
G04 APERTURE LIST*
%ADD10C,0.150000*%
%ADD11C,0.120000*%
%ADD12C,0.203200*%
%ADD13C,0.190500*%
G04 APERTURE END LIST*
D10*
X120968761Y-61508166D02*
X121444952Y-61508166D01*
X120873523Y-61793880D02*
X121206857Y-60793880D01*
X121540190Y-61793880D01*
X122444952Y-61698642D02*
X122397333Y-61746261D01*
X122254476Y-61793880D01*
X122159238Y-61793880D01*
X122016380Y-61746261D01*
X121921142Y-61651023D01*
X121873523Y-61555785D01*
X121825904Y-61365309D01*
X121825904Y-61222452D01*
X121873523Y-61031976D01*
X121921142Y-60936738D01*
X122016380Y-60841500D01*
X122159238Y-60793880D01*
X122254476Y-60793880D01*
X122397333Y-60841500D01*
X122444952Y-60889119D01*
X122873523Y-61793880D02*
X122873523Y-60793880D01*
X123444952Y-61793880D01*
X123444952Y-60793880D01*
X124064000Y-61793880D02*
X123968761Y-61746261D01*
X123921142Y-61698642D01*
X123873523Y-61603404D01*
X123873523Y-61317690D01*
X123921142Y-61222452D01*
X123968761Y-61174833D01*
X124064000Y-61127214D01*
X124206857Y-61127214D01*
X124302095Y-61174833D01*
X124349714Y-61222452D01*
X124397333Y-61317690D01*
X124397333Y-61603404D01*
X124349714Y-61698642D01*
X124302095Y-61746261D01*
X124206857Y-61793880D01*
X124064000Y-61793880D01*
X125254476Y-61793880D02*
X125254476Y-60793880D01*
X125254476Y-61746261D02*
X125159238Y-61793880D01*
X124968761Y-61793880D01*
X124873523Y-61746261D01*
X124825904Y-61698642D01*
X124778285Y-61603404D01*
X124778285Y-61317690D01*
X124825904Y-61222452D01*
X124873523Y-61174833D01*
X124968761Y-61127214D01*
X125159238Y-61127214D01*
X125254476Y-61174833D01*
X126111619Y-61746261D02*
X126016380Y-61793880D01*
X125825904Y-61793880D01*
X125730666Y-61746261D01*
X125683047Y-61651023D01*
X125683047Y-61270071D01*
X125730666Y-61174833D01*
X125825904Y-61127214D01*
X126016380Y-61127214D01*
X126111619Y-61174833D01*
X126159238Y-61270071D01*
X126159238Y-61365309D01*
X125683047Y-61460547D01*
X127921142Y-61793880D02*
X127587809Y-61317690D01*
X127349714Y-61793880D02*
X127349714Y-60793880D01*
X127730666Y-60793880D01*
X127825904Y-60841500D01*
X127873523Y-60889119D01*
X127921142Y-60984357D01*
X127921142Y-61127214D01*
X127873523Y-61222452D01*
X127825904Y-61270071D01*
X127730666Y-61317690D01*
X127349714Y-61317690D01*
X128730666Y-61746261D02*
X128635428Y-61793880D01*
X128444952Y-61793880D01*
X128349714Y-61746261D01*
X128302095Y-61651023D01*
X128302095Y-61270071D01*
X128349714Y-61174833D01*
X128444952Y-61127214D01*
X128635428Y-61127214D01*
X128730666Y-61174833D01*
X128778285Y-61270071D01*
X128778285Y-61365309D01*
X128302095Y-61460547D01*
X129635428Y-61793880D02*
X129635428Y-61270071D01*
X129587809Y-61174833D01*
X129492571Y-61127214D01*
X129302095Y-61127214D01*
X129206857Y-61174833D01*
X129635428Y-61746261D02*
X129540190Y-61793880D01*
X129302095Y-61793880D01*
X129206857Y-61746261D01*
X129159238Y-61651023D01*
X129159238Y-61555785D01*
X129206857Y-61460547D01*
X129302095Y-61412928D01*
X129540190Y-61412928D01*
X129635428Y-61365309D01*
X130540190Y-61793880D02*
X130540190Y-60793880D01*
X130540190Y-61746261D02*
X130444952Y-61793880D01*
X130254476Y-61793880D01*
X130159238Y-61746261D01*
X130111619Y-61698642D01*
X130064000Y-61603404D01*
X130064000Y-61317690D01*
X130111619Y-61222452D01*
X130159238Y-61174833D01*
X130254476Y-61127214D01*
X130444952Y-61127214D01*
X130540190Y-61174833D01*
X131397333Y-61746261D02*
X131302095Y-61793880D01*
X131111619Y-61793880D01*
X131016380Y-61746261D01*
X130968761Y-61651023D01*
X130968761Y-61270071D01*
X131016380Y-61174833D01*
X131111619Y-61127214D01*
X131302095Y-61127214D01*
X131397333Y-61174833D01*
X131444952Y-61270071D01*
X131444952Y-61365309D01*
X130968761Y-61460547D01*
X131873523Y-61793880D02*
X131873523Y-61127214D01*
X131873523Y-61317690D02*
X131921142Y-61222452D01*
X131968761Y-61174833D01*
X132064000Y-61127214D01*
X132159238Y-61127214D01*
X133587809Y-61270071D02*
X133730666Y-61317690D01*
X133778285Y-61365309D01*
X133825904Y-61460547D01*
X133825904Y-61603404D01*
X133778285Y-61698642D01*
X133730666Y-61746261D01*
X133635428Y-61793880D01*
X133254476Y-61793880D01*
X133254476Y-60793880D01*
X133587809Y-60793880D01*
X133683047Y-60841500D01*
X133730666Y-60889119D01*
X133778285Y-60984357D01*
X133778285Y-61079595D01*
X133730666Y-61174833D01*
X133683047Y-61222452D01*
X133587809Y-61270071D01*
X133254476Y-61270071D01*
X134397333Y-61793880D02*
X134302095Y-61746261D01*
X134254476Y-61698642D01*
X134206857Y-61603404D01*
X134206857Y-61317690D01*
X134254476Y-61222452D01*
X134302095Y-61174833D01*
X134397333Y-61127214D01*
X134540190Y-61127214D01*
X134635428Y-61174833D01*
X134683047Y-61222452D01*
X134730666Y-61317690D01*
X134730666Y-61603404D01*
X134683047Y-61698642D01*
X134635428Y-61746261D01*
X134540190Y-61793880D01*
X134397333Y-61793880D01*
X135587809Y-61793880D02*
X135587809Y-61270071D01*
X135540190Y-61174833D01*
X135444952Y-61127214D01*
X135254476Y-61127214D01*
X135159238Y-61174833D01*
X135587809Y-61746261D02*
X135492571Y-61793880D01*
X135254476Y-61793880D01*
X135159238Y-61746261D01*
X135111619Y-61651023D01*
X135111619Y-61555785D01*
X135159238Y-61460547D01*
X135254476Y-61412928D01*
X135492571Y-61412928D01*
X135587809Y-61365309D01*
X136064000Y-61793880D02*
X136064000Y-61127214D01*
X136064000Y-61317690D02*
X136111619Y-61222452D01*
X136159238Y-61174833D01*
X136254476Y-61127214D01*
X136349714Y-61127214D01*
X137111619Y-61793880D02*
X137111619Y-60793880D01*
X137111619Y-61746261D02*
X137016380Y-61793880D01*
X136825904Y-61793880D01*
X136730666Y-61746261D01*
X136683047Y-61698642D01*
X136635428Y-61603404D01*
X136635428Y-61317690D01*
X136683047Y-61222452D01*
X136730666Y-61174833D01*
X136825904Y-61127214D01*
X137016380Y-61127214D01*
X137111619Y-61174833D01*
X138206857Y-60793880D02*
X138540190Y-61793880D01*
X138873523Y-60793880D01*
X139730666Y-61793880D02*
X139159238Y-61793880D01*
X139444952Y-61793880D02*
X139444952Y-60793880D01*
X139349714Y-60936738D01*
X139254476Y-61031976D01*
X139159238Y-61079595D01*
X140159238Y-61698642D02*
X140206857Y-61746261D01*
X140159238Y-61793880D01*
X140111619Y-61746261D01*
X140159238Y-61698642D01*
X140159238Y-61793880D01*
X141159238Y-61793880D02*
X140587809Y-61793880D01*
X140873523Y-61793880D02*
X140873523Y-60793880D01*
X140778285Y-60936738D01*
X140683047Y-61031976D01*
X140587809Y-61079595D01*
X120778285Y-63443880D02*
X120778285Y-62443880D01*
X121016380Y-62443880D01*
X121159238Y-62491500D01*
X121254476Y-62586738D01*
X121302095Y-62681976D01*
X121349714Y-62872452D01*
X121349714Y-63015309D01*
X121302095Y-63205785D01*
X121254476Y-63301023D01*
X121159238Y-63396261D01*
X121016380Y-63443880D01*
X120778285Y-63443880D01*
X122159238Y-63396261D02*
X122064000Y-63443880D01*
X121873523Y-63443880D01*
X121778285Y-63396261D01*
X121730666Y-63301023D01*
X121730666Y-62920071D01*
X121778285Y-62824833D01*
X121873523Y-62777214D01*
X122064000Y-62777214D01*
X122159238Y-62824833D01*
X122206857Y-62920071D01*
X122206857Y-63015309D01*
X121730666Y-63110547D01*
X122587809Y-63396261D02*
X122683047Y-63443880D01*
X122873523Y-63443880D01*
X122968761Y-63396261D01*
X123016380Y-63301023D01*
X123016380Y-63253404D01*
X122968761Y-63158166D01*
X122873523Y-63110547D01*
X122730666Y-63110547D01*
X122635428Y-63062928D01*
X122587809Y-62967690D01*
X122587809Y-62920071D01*
X122635428Y-62824833D01*
X122730666Y-62777214D01*
X122873523Y-62777214D01*
X122968761Y-62824833D01*
X123444952Y-63443880D02*
X123444952Y-62777214D01*
X123444952Y-62443880D02*
X123397333Y-62491500D01*
X123444952Y-62539119D01*
X123492571Y-62491500D01*
X123444952Y-62443880D01*
X123444952Y-62539119D01*
X124349714Y-62777214D02*
X124349714Y-63586738D01*
X124302095Y-63681976D01*
X124254476Y-63729595D01*
X124159238Y-63777214D01*
X124016380Y-63777214D01*
X123921142Y-63729595D01*
X124349714Y-63396261D02*
X124254476Y-63443880D01*
X124064000Y-63443880D01*
X123968761Y-63396261D01*
X123921142Y-63348642D01*
X123873523Y-63253404D01*
X123873523Y-62967690D01*
X123921142Y-62872452D01*
X123968761Y-62824833D01*
X124064000Y-62777214D01*
X124254476Y-62777214D01*
X124349714Y-62824833D01*
X124825904Y-62777214D02*
X124825904Y-63443880D01*
X124825904Y-62872452D02*
X124873523Y-62824833D01*
X124968761Y-62777214D01*
X125111619Y-62777214D01*
X125206857Y-62824833D01*
X125254476Y-62920071D01*
X125254476Y-63443880D01*
X126111619Y-63396261D02*
X126016380Y-63443880D01*
X125825904Y-63443880D01*
X125730666Y-63396261D01*
X125683047Y-63301023D01*
X125683047Y-62920071D01*
X125730666Y-62824833D01*
X125825904Y-62777214D01*
X126016380Y-62777214D01*
X126111619Y-62824833D01*
X126159238Y-62920071D01*
X126159238Y-63015309D01*
X125683047Y-63110547D01*
X127016380Y-63443880D02*
X127016380Y-62443880D01*
X127016380Y-63396261D02*
X126921142Y-63443880D01*
X126730666Y-63443880D01*
X126635428Y-63396261D01*
X126587809Y-63348642D01*
X126540190Y-63253404D01*
X126540190Y-62967690D01*
X126587809Y-62872452D01*
X126635428Y-62824833D01*
X126730666Y-62777214D01*
X126921142Y-62777214D01*
X127016380Y-62824833D01*
X128254476Y-63443880D02*
X128254476Y-62443880D01*
X128254476Y-62824833D02*
X128349714Y-62777214D01*
X128540190Y-62777214D01*
X128635428Y-62824833D01*
X128683047Y-62872452D01*
X128730666Y-62967690D01*
X128730666Y-63253404D01*
X128683047Y-63348642D01*
X128635428Y-63396261D01*
X128540190Y-63443880D01*
X128349714Y-63443880D01*
X128254476Y-63396261D01*
X129064000Y-62777214D02*
X129302095Y-63443880D01*
X129540190Y-62777214D02*
X129302095Y-63443880D01*
X129206857Y-63681976D01*
X129159238Y-63729595D01*
X129064000Y-63777214D01*
X130683047Y-63443880D02*
X130683047Y-62443880D01*
X131016380Y-63158166D01*
X131349714Y-62443880D01*
X131349714Y-63443880D01*
X131825904Y-63443880D02*
X131825904Y-62777214D01*
X131825904Y-62443880D02*
X131778285Y-62491500D01*
X131825904Y-62539119D01*
X131873523Y-62491500D01*
X131825904Y-62443880D01*
X131825904Y-62539119D01*
X132730666Y-63396261D02*
X132635428Y-63443880D01*
X132444952Y-63443880D01*
X132349714Y-63396261D01*
X132302095Y-63348642D01*
X132254476Y-63253404D01*
X132254476Y-62967690D01*
X132302095Y-62872452D01*
X132349714Y-62824833D01*
X132444952Y-62777214D01*
X132635428Y-62777214D01*
X132730666Y-62824833D01*
X133159238Y-63443880D02*
X133159238Y-62443880D01*
X133587809Y-63443880D02*
X133587809Y-62920071D01*
X133540190Y-62824833D01*
X133444952Y-62777214D01*
X133302095Y-62777214D01*
X133206857Y-62824833D01*
X133159238Y-62872452D01*
X134492571Y-63443880D02*
X134492571Y-62920071D01*
X134444952Y-62824833D01*
X134349714Y-62777214D01*
X134159238Y-62777214D01*
X134064000Y-62824833D01*
X134492571Y-63396261D02*
X134397333Y-63443880D01*
X134159238Y-63443880D01*
X134064000Y-63396261D01*
X134016380Y-63301023D01*
X134016380Y-63205785D01*
X134064000Y-63110547D01*
X134159238Y-63062928D01*
X134397333Y-63062928D01*
X134492571Y-63015309D01*
X135349714Y-63396261D02*
X135254476Y-63443880D01*
X135064000Y-63443880D01*
X134968761Y-63396261D01*
X134921142Y-63301023D01*
X134921142Y-62920071D01*
X134968761Y-62824833D01*
X135064000Y-62777214D01*
X135254476Y-62777214D01*
X135349714Y-62824833D01*
X135397333Y-62920071D01*
X135397333Y-63015309D01*
X134921142Y-63110547D01*
X135968761Y-63443880D02*
X135873523Y-63396261D01*
X135825904Y-63301023D01*
X135825904Y-62443880D01*
X137683047Y-63348642D02*
X137635428Y-63396261D01*
X137492571Y-63443880D01*
X137397333Y-63443880D01*
X137254476Y-63396261D01*
X137159238Y-63301023D01*
X137111619Y-63205785D01*
X137064000Y-63015309D01*
X137064000Y-62872452D01*
X137111619Y-62681976D01*
X137159238Y-62586738D01*
X137254476Y-62491500D01*
X137397333Y-62443880D01*
X137492571Y-62443880D01*
X137635428Y-62491500D01*
X137683047Y-62539119D01*
X138540190Y-62777214D02*
X138540190Y-63443880D01*
X138111619Y-62777214D02*
X138111619Y-63301023D01*
X138159238Y-63396261D01*
X138254476Y-63443880D01*
X138397333Y-63443880D01*
X138492571Y-63396261D01*
X138540190Y-63348642D01*
X139159238Y-63443880D02*
X139064000Y-63396261D01*
X139016380Y-63301023D01*
X139016380Y-62443880D01*
X139683047Y-63443880D02*
X139587809Y-63396261D01*
X139540190Y-63301023D01*
X139540190Y-62443880D01*
X140444952Y-63396261D02*
X140349714Y-63443880D01*
X140159238Y-63443880D01*
X140064000Y-63396261D01*
X140016380Y-63301023D01*
X140016380Y-62920071D01*
X140064000Y-62824833D01*
X140159238Y-62777214D01*
X140349714Y-62777214D01*
X140444952Y-62824833D01*
X140492571Y-62920071D01*
X140492571Y-63015309D01*
X140016380Y-63110547D01*
X140921142Y-62777214D02*
X140921142Y-63443880D01*
X140921142Y-62872452D02*
X140968761Y-62824833D01*
X141064000Y-62777214D01*
X141206857Y-62777214D01*
X141302095Y-62824833D01*
X141349714Y-62920071D01*
X141349714Y-63443880D01*
D11*
%TO.C,C11*%
X124154000Y-66289422D02*
X124154000Y-66806578D01*
X122734000Y-66289422D02*
X122734000Y-66806578D01*
%TO.C,U1*%
X126130000Y-95540000D02*
X126130000Y-89530000D01*
X132950000Y-93290000D02*
X132950000Y-89530000D01*
X126130000Y-89530000D02*
X127390000Y-89530000D01*
X132950000Y-89530000D02*
X131690000Y-89530000D01*
D10*
%TO.C,U2*%
X126575000Y-73845000D02*
X126575000Y-74070000D01*
X133825000Y-73845000D02*
X133825000Y-74170000D01*
X133825000Y-81095000D02*
X133825000Y-80770000D01*
X126575000Y-81095000D02*
X126575000Y-80770000D01*
X126575000Y-73845000D02*
X126900000Y-73845000D01*
X126575000Y-81095000D02*
X126900000Y-81095000D01*
X133825000Y-81095000D02*
X133500000Y-81095000D01*
X133825000Y-73845000D02*
X133500000Y-73845000D01*
X126575000Y-74070000D02*
X125150000Y-74070000D01*
D11*
%TO.C,U5*%
X123950000Y-87051000D02*
X122490000Y-87051000D01*
X123950000Y-83891000D02*
X121790000Y-83891000D01*
X123950000Y-83891000D02*
X123950000Y-84821000D01*
X123950000Y-87051000D02*
X123950000Y-86121000D01*
%TO.C,C7*%
X127757422Y-86181000D02*
X128274578Y-86181000D01*
X127757422Y-84761000D02*
X128274578Y-84761000D01*
%TO.C,J7*%
X111192000Y-74990000D02*
X113852000Y-74990000D01*
X111192000Y-67310000D02*
X111192000Y-74990000D01*
X113852000Y-67310000D02*
X113852000Y-74990000D01*
X111192000Y-67310000D02*
X113852000Y-67310000D01*
X111192000Y-66040000D02*
X111192000Y-64710000D01*
X111192000Y-64710000D02*
X112522000Y-64710000D01*
%TO.C,D1*%
X115799500Y-100242500D02*
X117499500Y-100242500D01*
X117499500Y-100242500D02*
X117499500Y-97692500D01*
X115799500Y-100242500D02*
X115799500Y-97692500D01*
%TO.C,J5*%
X147172500Y-74870000D02*
X147172500Y-85150000D01*
X147172500Y-85150000D02*
X149832500Y-85150000D01*
X149832500Y-85150000D02*
X149832500Y-74870000D01*
X149832500Y-74870000D02*
X147172500Y-74870000D01*
X149832500Y-75820000D02*
X155832500Y-75820000D01*
X155832500Y-75820000D02*
X155832500Y-76580000D01*
X155832500Y-76580000D02*
X149832500Y-76580000D01*
X149832500Y-75880000D02*
X155832500Y-75880000D01*
X149832500Y-76000000D02*
X155832500Y-76000000D01*
X149832500Y-76120000D02*
X155832500Y-76120000D01*
X149832500Y-76240000D02*
X155832500Y-76240000D01*
X149832500Y-76360000D02*
X155832500Y-76360000D01*
X149832500Y-76480000D02*
X155832500Y-76480000D01*
X146842500Y-75820000D02*
X147172500Y-75820000D01*
X146842500Y-76580000D02*
X147172500Y-76580000D01*
X147172500Y-77470000D02*
X149832500Y-77470000D01*
X149832500Y-78360000D02*
X155832500Y-78360000D01*
X155832500Y-78360000D02*
X155832500Y-79120000D01*
X155832500Y-79120000D02*
X149832500Y-79120000D01*
X146775429Y-78360000D02*
X147172500Y-78360000D01*
X146775429Y-79120000D02*
X147172500Y-79120000D01*
X147172500Y-80010000D02*
X149832500Y-80010000D01*
X149832500Y-80900000D02*
X155832500Y-80900000D01*
X155832500Y-80900000D02*
X155832500Y-81660000D01*
X155832500Y-81660000D02*
X149832500Y-81660000D01*
X146775429Y-80900000D02*
X147172500Y-80900000D01*
X146775429Y-81660000D02*
X147172500Y-81660000D01*
X147172500Y-82550000D02*
X149832500Y-82550000D01*
X149832500Y-83440000D02*
X155832500Y-83440000D01*
X155832500Y-83440000D02*
X155832500Y-84200000D01*
X155832500Y-84200000D02*
X149832500Y-84200000D01*
X146775429Y-83440000D02*
X147172500Y-83440000D01*
X146775429Y-84200000D02*
X147172500Y-84200000D01*
X144462500Y-76200000D02*
X144462500Y-74930000D01*
X144462500Y-74930000D02*
X145732500Y-74930000D01*
%TO.C,J4*%
X147172500Y-85030000D02*
X147172500Y-90230000D01*
X147172500Y-90230000D02*
X149832500Y-90230000D01*
X149832500Y-90230000D02*
X149832500Y-85030000D01*
X149832500Y-85030000D02*
X147172500Y-85030000D01*
X149832500Y-85980000D02*
X155832500Y-85980000D01*
X155832500Y-85980000D02*
X155832500Y-86740000D01*
X155832500Y-86740000D02*
X149832500Y-86740000D01*
X149832500Y-86040000D02*
X155832500Y-86040000D01*
X149832500Y-86160000D02*
X155832500Y-86160000D01*
X149832500Y-86280000D02*
X155832500Y-86280000D01*
X149832500Y-86400000D02*
X155832500Y-86400000D01*
X149832500Y-86520000D02*
X155832500Y-86520000D01*
X149832500Y-86640000D02*
X155832500Y-86640000D01*
X146842500Y-85980000D02*
X147172500Y-85980000D01*
X146842500Y-86740000D02*
X147172500Y-86740000D01*
X147172500Y-87630000D02*
X149832500Y-87630000D01*
X149832500Y-88520000D02*
X155832500Y-88520000D01*
X155832500Y-88520000D02*
X155832500Y-89280000D01*
X155832500Y-89280000D02*
X149832500Y-89280000D01*
X146775429Y-88520000D02*
X147172500Y-88520000D01*
X146775429Y-89280000D02*
X147172500Y-89280000D01*
X144462500Y-86360000D02*
X144462500Y-85090000D01*
X144462500Y-85090000D02*
X145732500Y-85090000D01*
%TO.C,J1*%
X139506000Y-99640000D02*
X119066000Y-99640000D01*
X119066000Y-99640000D02*
X119066000Y-102300000D01*
X119066000Y-102300000D02*
X139506000Y-102300000D01*
X139506000Y-102300000D02*
X139506000Y-99640000D01*
X138556000Y-102300000D02*
X138556000Y-108300000D01*
X138556000Y-108300000D02*
X137796000Y-108300000D01*
X137796000Y-108300000D02*
X137796000Y-102300000D01*
X138496000Y-102300000D02*
X138496000Y-108300000D01*
X138376000Y-102300000D02*
X138376000Y-108300000D01*
X138256000Y-102300000D02*
X138256000Y-108300000D01*
X138136000Y-102300000D02*
X138136000Y-108300000D01*
X138016000Y-102300000D02*
X138016000Y-108300000D01*
X137896000Y-102300000D02*
X137896000Y-108300000D01*
X138556000Y-99310000D02*
X138556000Y-99640000D01*
X137796000Y-99310000D02*
X137796000Y-99640000D01*
X136906000Y-99640000D02*
X136906000Y-102300000D01*
X136016000Y-102300000D02*
X136016000Y-108300000D01*
X136016000Y-108300000D02*
X135256000Y-108300000D01*
X135256000Y-108300000D02*
X135256000Y-102300000D01*
X136016000Y-99242929D02*
X136016000Y-99640000D01*
X135256000Y-99242929D02*
X135256000Y-99640000D01*
X134366000Y-99640000D02*
X134366000Y-102300000D01*
X133476000Y-102300000D02*
X133476000Y-108300000D01*
X133476000Y-108300000D02*
X132716000Y-108300000D01*
X132716000Y-108300000D02*
X132716000Y-102300000D01*
X133476000Y-99242929D02*
X133476000Y-99640000D01*
X132716000Y-99242929D02*
X132716000Y-99640000D01*
X131826000Y-99640000D02*
X131826000Y-102300000D01*
X130936000Y-102300000D02*
X130936000Y-108300000D01*
X130936000Y-108300000D02*
X130176000Y-108300000D01*
X130176000Y-108300000D02*
X130176000Y-102300000D01*
X130936000Y-99242929D02*
X130936000Y-99640000D01*
X130176000Y-99242929D02*
X130176000Y-99640000D01*
X129286000Y-99640000D02*
X129286000Y-102300000D01*
X128396000Y-102300000D02*
X128396000Y-108300000D01*
X128396000Y-108300000D02*
X127636000Y-108300000D01*
X127636000Y-108300000D02*
X127636000Y-102300000D01*
X128396000Y-99242929D02*
X128396000Y-99640000D01*
X127636000Y-99242929D02*
X127636000Y-99640000D01*
X126746000Y-99640000D02*
X126746000Y-102300000D01*
X125856000Y-102300000D02*
X125856000Y-108300000D01*
X125856000Y-108300000D02*
X125096000Y-108300000D01*
X125096000Y-108300000D02*
X125096000Y-102300000D01*
X125856000Y-99242929D02*
X125856000Y-99640000D01*
X125096000Y-99242929D02*
X125096000Y-99640000D01*
X124206000Y-99640000D02*
X124206000Y-102300000D01*
X123316000Y-102300000D02*
X123316000Y-108300000D01*
X123316000Y-108300000D02*
X122556000Y-108300000D01*
X122556000Y-108300000D02*
X122556000Y-102300000D01*
X123316000Y-99242929D02*
X123316000Y-99640000D01*
X122556000Y-99242929D02*
X122556000Y-99640000D01*
X121666000Y-99640000D02*
X121666000Y-102300000D01*
X120776000Y-102300000D02*
X120776000Y-108300000D01*
X120776000Y-108300000D02*
X120016000Y-108300000D01*
X120016000Y-108300000D02*
X120016000Y-102300000D01*
X120776000Y-99242929D02*
X120776000Y-99640000D01*
X120016000Y-99242929D02*
X120016000Y-99640000D01*
X138176000Y-96930000D02*
X139446000Y-96930000D01*
X139446000Y-96930000D02*
X139446000Y-98200000D01*
%TO.C,Y1*%
X121704000Y-73314000D02*
X122004000Y-73314000D01*
X122004000Y-73314000D02*
X122004000Y-80714000D01*
X122004000Y-80714000D02*
X121704000Y-80714000D01*
X116904000Y-72814000D02*
X116904000Y-73314000D01*
X116904000Y-73314000D02*
X116604000Y-73314000D01*
X116604000Y-73314000D02*
X116604000Y-80714000D01*
X116604000Y-80714000D02*
X116904000Y-80714000D01*
X119004000Y-72814000D02*
X119004000Y-73314000D01*
X119004000Y-73314000D02*
X119604000Y-73314000D01*
X119604000Y-80714000D02*
X119004000Y-80714000D01*
%TO.C,U4*%
X139640000Y-68500000D02*
X139640000Y-70450000D01*
X139640000Y-68500000D02*
X139640000Y-66550000D01*
X144760000Y-68500000D02*
X144760000Y-70450000D01*
X144760000Y-68500000D02*
X144760000Y-65050000D01*
%TO.C,U3*%
X123624500Y-92150000D02*
X123624500Y-90200000D01*
X123624500Y-92150000D02*
X123624500Y-94100000D01*
X114754500Y-92150000D02*
X114754500Y-90200000D01*
X114754500Y-92150000D02*
X114754500Y-95600000D01*
%TO.C,R11*%
X141543500Y-90324721D02*
X141543500Y-90650279D01*
X140523500Y-90324721D02*
X140523500Y-90650279D01*
%TO.C,R9*%
X142077221Y-77440000D02*
X142402779Y-77440000D01*
X142077221Y-78460000D02*
X142402779Y-78460000D01*
%TO.C,R8*%
X142402779Y-80260000D02*
X142077221Y-80260000D01*
X142402779Y-79240000D02*
X142077221Y-79240000D01*
%TO.C,R7*%
X142402779Y-84110000D02*
X142077221Y-84110000D01*
X142402779Y-83090000D02*
X142077221Y-83090000D01*
%TO.C,R6*%
X142402779Y-82060000D02*
X142077221Y-82060000D01*
X142402779Y-81040000D02*
X142077221Y-81040000D01*
%TO.C,R5*%
X142402779Y-76710000D02*
X142077221Y-76710000D01*
X142402779Y-75690000D02*
X142077221Y-75690000D01*
%TO.C,R4*%
X128488221Y-70102000D02*
X128813779Y-70102000D01*
X128488221Y-71122000D02*
X128813779Y-71122000D01*
%TO.C,R3*%
X118328221Y-86675500D02*
X118653779Y-86675500D01*
X118328221Y-87695500D02*
X118653779Y-87695500D01*
%TO.C,R2*%
X135587221Y-70690000D02*
X135912779Y-70690000D01*
X135587221Y-71710000D02*
X135912779Y-71710000D01*
%TO.C,R1*%
X135587221Y-68890000D02*
X135912779Y-68890000D01*
X135587221Y-69910000D02*
X135912779Y-69910000D01*
%TO.C,J3*%
X125150000Y-65170000D02*
X125150000Y-67830000D01*
X132830000Y-65170000D02*
X125150000Y-65170000D01*
X132830000Y-67830000D02*
X125150000Y-67830000D01*
X132830000Y-65170000D02*
X132830000Y-67830000D01*
X134100000Y-65170000D02*
X135430000Y-65170000D01*
X135430000Y-65170000D02*
X135430000Y-66500000D01*
D12*
%TO.C,J2*%
X136525000Y-86995000D02*
X131191000Y-85979000D01*
X138303000Y-86995000D02*
X136525000Y-86995000D01*
X138303000Y-82931000D02*
X138303000Y-86995000D01*
X136525000Y-82931000D02*
X138303000Y-82931000D01*
X131191000Y-83947000D02*
X136525000Y-82931000D01*
X131191000Y-85979000D02*
X131191000Y-83947000D01*
D11*
%TO.C,C10*%
X143258000Y-87276721D02*
X143258000Y-87602279D01*
X142238000Y-87276721D02*
X142238000Y-87602279D01*
%TO.C,C9*%
X143612779Y-73860000D02*
X143287221Y-73860000D01*
X143612779Y-72840000D02*
X143287221Y-72840000D01*
%TO.C,C8*%
X124462000Y-77180221D02*
X124462000Y-77505779D01*
X123442000Y-77180221D02*
X123442000Y-77505779D01*
%TO.C,C6*%
X113794000Y-92166221D02*
X113794000Y-92491779D01*
X112774000Y-92166221D02*
X112774000Y-92491779D01*
%TO.C,C5*%
X119291221Y-81854000D02*
X119616779Y-81854000D01*
X119291221Y-82874000D02*
X119616779Y-82874000D01*
%TO.C,C4*%
X119366779Y-72074000D02*
X119041221Y-72074000D01*
X119366779Y-71054000D02*
X119041221Y-71054000D01*
%TO.C,C3*%
X137543000Y-77180221D02*
X137543000Y-77505779D01*
X136523000Y-77180221D02*
X136523000Y-77505779D01*
%TO.C,C2*%
X134615422Y-89714000D02*
X135132578Y-89714000D01*
X134615422Y-91134000D02*
X135132578Y-91134000D01*
%TO.C,C1*%
X134615422Y-93524000D02*
X135132578Y-93524000D01*
X134615422Y-94944000D02*
X135132578Y-94944000D01*
%TO.C,C11*%
D10*
X122023142Y-67063857D02*
X122070761Y-67111476D01*
X122118380Y-67254333D01*
X122118380Y-67349571D01*
X122070761Y-67492428D01*
X121975523Y-67587666D01*
X121880285Y-67635285D01*
X121689809Y-67682904D01*
X121546952Y-67682904D01*
X121356476Y-67635285D01*
X121261238Y-67587666D01*
X121166000Y-67492428D01*
X121118380Y-67349571D01*
X121118380Y-67254333D01*
X121166000Y-67111476D01*
X121213619Y-67063857D01*
X122118380Y-66111476D02*
X122118380Y-66682904D01*
X122118380Y-66397190D02*
X121118380Y-66397190D01*
X121261238Y-66492428D01*
X121356476Y-66587666D01*
X121404095Y-66682904D01*
X122118380Y-65159095D02*
X122118380Y-65730523D01*
X122118380Y-65444809D02*
X121118380Y-65444809D01*
X121261238Y-65540047D01*
X121356476Y-65635285D01*
X121404095Y-65730523D01*
%TO.C,U1*%
X124492380Y-92201904D02*
X125301904Y-92201904D01*
X125397142Y-92154285D01*
X125444761Y-92106666D01*
X125492380Y-92011428D01*
X125492380Y-91820952D01*
X125444761Y-91725714D01*
X125397142Y-91678095D01*
X125301904Y-91630476D01*
X124492380Y-91630476D01*
X125492380Y-90630476D02*
X125492380Y-91201904D01*
X125492380Y-90916190D02*
X124492380Y-90916190D01*
X124635238Y-91011428D01*
X124730476Y-91106666D01*
X124778095Y-91201904D01*
%TO.C,U2*%
X129438095Y-70872380D02*
X129438095Y-71681904D01*
X129485714Y-71777142D01*
X129533333Y-71824761D01*
X129628571Y-71872380D01*
X129819047Y-71872380D01*
X129914285Y-71824761D01*
X129961904Y-71777142D01*
X130009523Y-71681904D01*
X130009523Y-70872380D01*
X130438095Y-70967619D02*
X130485714Y-70920000D01*
X130580952Y-70872380D01*
X130819047Y-70872380D01*
X130914285Y-70920000D01*
X130961904Y-70967619D01*
X131009523Y-71062857D01*
X131009523Y-71158095D01*
X130961904Y-71300952D01*
X130390476Y-71872380D01*
X131009523Y-71872380D01*
%TO.C,U5*%
X119634095Y-84669380D02*
X119634095Y-85478904D01*
X119681714Y-85574142D01*
X119729333Y-85621761D01*
X119824571Y-85669380D01*
X120015047Y-85669380D01*
X120110285Y-85621761D01*
X120157904Y-85574142D01*
X120205523Y-85478904D01*
X120205523Y-84669380D01*
X121157904Y-84669380D02*
X120681714Y-84669380D01*
X120634095Y-85145571D01*
X120681714Y-85097952D01*
X120776952Y-85050333D01*
X121015047Y-85050333D01*
X121110285Y-85097952D01*
X121157904Y-85145571D01*
X121205523Y-85240809D01*
X121205523Y-85478904D01*
X121157904Y-85574142D01*
X121110285Y-85621761D01*
X121015047Y-85669380D01*
X120776952Y-85669380D01*
X120681714Y-85621761D01*
X120634095Y-85574142D01*
%TO.C,C7*%
X127849333Y-84178142D02*
X127801714Y-84225761D01*
X127658857Y-84273380D01*
X127563619Y-84273380D01*
X127420761Y-84225761D01*
X127325523Y-84130523D01*
X127277904Y-84035285D01*
X127230285Y-83844809D01*
X127230285Y-83701952D01*
X127277904Y-83511476D01*
X127325523Y-83416238D01*
X127420761Y-83321000D01*
X127563619Y-83273380D01*
X127658857Y-83273380D01*
X127801714Y-83321000D01*
X127849333Y-83368619D01*
X128182666Y-83273380D02*
X128849333Y-83273380D01*
X128420761Y-84273380D01*
%TO.C,J7*%
X112188666Y-63162380D02*
X112188666Y-63876666D01*
X112141047Y-64019523D01*
X112045809Y-64114761D01*
X111902952Y-64162380D01*
X111807714Y-64162380D01*
X112569619Y-63162380D02*
X113236285Y-63162380D01*
X112807714Y-64162380D01*
%TO.C,D1*%
X115251880Y-99480595D02*
X114251880Y-99480595D01*
X114251880Y-99242500D01*
X114299500Y-99099642D01*
X114394738Y-99004404D01*
X114489976Y-98956785D01*
X114680452Y-98909166D01*
X114823309Y-98909166D01*
X115013785Y-98956785D01*
X115109023Y-99004404D01*
X115204261Y-99099642D01*
X115251880Y-99242500D01*
X115251880Y-99480595D01*
X115251880Y-97956785D02*
X115251880Y-98528214D01*
X115251880Y-98242500D02*
X114251880Y-98242500D01*
X114394738Y-98337738D01*
X114489976Y-98432976D01*
X114537595Y-98528214D01*
%TO.C,J5*%
X148129666Y-75779380D02*
X148129666Y-76493666D01*
X148082047Y-76636523D01*
X147986809Y-76731761D01*
X147843952Y-76779380D01*
X147748714Y-76779380D01*
X149082047Y-75779380D02*
X148605857Y-75779380D01*
X148558238Y-76255571D01*
X148605857Y-76207952D01*
X148701095Y-76160333D01*
X148939190Y-76160333D01*
X149034428Y-76207952D01*
X149082047Y-76255571D01*
X149129666Y-76350809D01*
X149129666Y-76588904D01*
X149082047Y-76684142D01*
X149034428Y-76731761D01*
X148939190Y-76779380D01*
X148701095Y-76779380D01*
X148605857Y-76731761D01*
X148558238Y-76684142D01*
%TO.C,J4*%
X148066166Y-88352380D02*
X148066166Y-89066666D01*
X148018547Y-89209523D01*
X147923309Y-89304761D01*
X147780452Y-89352380D01*
X147685214Y-89352380D01*
X148970928Y-88685714D02*
X148970928Y-89352380D01*
X148732833Y-88304761D02*
X148494738Y-89019047D01*
X149113785Y-89019047D01*
%TO.C,J1*%
X130219380Y-101171333D02*
X130933666Y-101171333D01*
X131076523Y-101218952D01*
X131171761Y-101314190D01*
X131219380Y-101457047D01*
X131219380Y-101552285D01*
X131219380Y-100171333D02*
X131219380Y-100742761D01*
X131219380Y-100457047D02*
X130219380Y-100457047D01*
X130362238Y-100552285D01*
X130457476Y-100647523D01*
X130505095Y-100742761D01*
%TO.C,Y1*%
X115730190Y-77390190D02*
X116206380Y-77390190D01*
X115206380Y-77723523D02*
X115730190Y-77390190D01*
X115206380Y-77056857D01*
X116206380Y-76199714D02*
X116206380Y-76771142D01*
X116206380Y-76485428D02*
X115206380Y-76485428D01*
X115349238Y-76580666D01*
X115444476Y-76675904D01*
X115492095Y-76771142D01*
%TO.C,U4*%
X145288095Y-65365380D02*
X145288095Y-66174904D01*
X145335714Y-66270142D01*
X145383333Y-66317761D01*
X145478571Y-66365380D01*
X145669047Y-66365380D01*
X145764285Y-66317761D01*
X145811904Y-66270142D01*
X145859523Y-66174904D01*
X145859523Y-65365380D01*
X146764285Y-65698714D02*
X146764285Y-66365380D01*
X146526190Y-65317761D02*
X146288095Y-66032047D01*
X146907142Y-66032047D01*
%TO.C,U3*%
X118641880Y-92911904D02*
X119451404Y-92911904D01*
X119546642Y-92864285D01*
X119594261Y-92816666D01*
X119641880Y-92721428D01*
X119641880Y-92530952D01*
X119594261Y-92435714D01*
X119546642Y-92388095D01*
X119451404Y-92340476D01*
X118641880Y-92340476D01*
X118641880Y-91959523D02*
X118641880Y-91340476D01*
X119022833Y-91673809D01*
X119022833Y-91530952D01*
X119070452Y-91435714D01*
X119118071Y-91388095D01*
X119213309Y-91340476D01*
X119451404Y-91340476D01*
X119546642Y-91388095D01*
X119594261Y-91435714D01*
X119641880Y-91530952D01*
X119641880Y-91816666D01*
X119594261Y-91911904D01*
X119546642Y-91959523D01*
%TO.C,R11*%
X141549380Y-88145857D02*
X141073190Y-88479190D01*
X141549380Y-88717285D02*
X140549380Y-88717285D01*
X140549380Y-88336333D01*
X140597000Y-88241095D01*
X140644619Y-88193476D01*
X140739857Y-88145857D01*
X140882714Y-88145857D01*
X140977952Y-88193476D01*
X141025571Y-88241095D01*
X141073190Y-88336333D01*
X141073190Y-88717285D01*
X141549380Y-87193476D02*
X141549380Y-87764904D01*
X141549380Y-87479190D02*
X140549380Y-87479190D01*
X140692238Y-87574428D01*
X140787476Y-87669666D01*
X140835095Y-87764904D01*
X141549380Y-86241095D02*
X141549380Y-86812523D01*
X141549380Y-86526809D02*
X140549380Y-86526809D01*
X140692238Y-86622047D01*
X140787476Y-86717285D01*
X140835095Y-86812523D01*
%TO.C,R9*%
X139473333Y-78402380D02*
X139140000Y-77926190D01*
X138901904Y-78402380D02*
X138901904Y-77402380D01*
X139282857Y-77402380D01*
X139378095Y-77450000D01*
X139425714Y-77497619D01*
X139473333Y-77592857D01*
X139473333Y-77735714D01*
X139425714Y-77830952D01*
X139378095Y-77878571D01*
X139282857Y-77926190D01*
X138901904Y-77926190D01*
X139949523Y-78402380D02*
X140140000Y-78402380D01*
X140235238Y-78354761D01*
X140282857Y-78307142D01*
X140378095Y-78164285D01*
X140425714Y-77973809D01*
X140425714Y-77592857D01*
X140378095Y-77497619D01*
X140330476Y-77450000D01*
X140235238Y-77402380D01*
X140044761Y-77402380D01*
X139949523Y-77450000D01*
X139901904Y-77497619D01*
X139854285Y-77592857D01*
X139854285Y-77830952D01*
X139901904Y-77926190D01*
X139949523Y-77973809D01*
X140044761Y-78021428D01*
X140235238Y-78021428D01*
X140330476Y-77973809D01*
X140378095Y-77926190D01*
X140425714Y-77830952D01*
%TO.C,R8*%
X139423333Y-80202380D02*
X139090000Y-79726190D01*
X138851904Y-80202380D02*
X138851904Y-79202380D01*
X139232857Y-79202380D01*
X139328095Y-79250000D01*
X139375714Y-79297619D01*
X139423333Y-79392857D01*
X139423333Y-79535714D01*
X139375714Y-79630952D01*
X139328095Y-79678571D01*
X139232857Y-79726190D01*
X138851904Y-79726190D01*
X139994761Y-79630952D02*
X139899523Y-79583333D01*
X139851904Y-79535714D01*
X139804285Y-79440476D01*
X139804285Y-79392857D01*
X139851904Y-79297619D01*
X139899523Y-79250000D01*
X139994761Y-79202380D01*
X140185238Y-79202380D01*
X140280476Y-79250000D01*
X140328095Y-79297619D01*
X140375714Y-79392857D01*
X140375714Y-79440476D01*
X140328095Y-79535714D01*
X140280476Y-79583333D01*
X140185238Y-79630952D01*
X139994761Y-79630952D01*
X139899523Y-79678571D01*
X139851904Y-79726190D01*
X139804285Y-79821428D01*
X139804285Y-80011904D01*
X139851904Y-80107142D01*
X139899523Y-80154761D01*
X139994761Y-80202380D01*
X140185238Y-80202380D01*
X140280476Y-80154761D01*
X140328095Y-80107142D01*
X140375714Y-80011904D01*
X140375714Y-79821428D01*
X140328095Y-79726190D01*
X140280476Y-79678571D01*
X140185238Y-79630952D01*
%TO.C,R7*%
X139423333Y-84052380D02*
X139090000Y-83576190D01*
X138851904Y-84052380D02*
X138851904Y-83052380D01*
X139232857Y-83052380D01*
X139328095Y-83100000D01*
X139375714Y-83147619D01*
X139423333Y-83242857D01*
X139423333Y-83385714D01*
X139375714Y-83480952D01*
X139328095Y-83528571D01*
X139232857Y-83576190D01*
X138851904Y-83576190D01*
X139756666Y-83052380D02*
X140423333Y-83052380D01*
X139994761Y-84052380D01*
%TO.C,R6*%
X139423333Y-81952380D02*
X139090000Y-81476190D01*
X138851904Y-81952380D02*
X138851904Y-80952380D01*
X139232857Y-80952380D01*
X139328095Y-81000000D01*
X139375714Y-81047619D01*
X139423333Y-81142857D01*
X139423333Y-81285714D01*
X139375714Y-81380952D01*
X139328095Y-81428571D01*
X139232857Y-81476190D01*
X138851904Y-81476190D01*
X140280476Y-80952380D02*
X140090000Y-80952380D01*
X139994761Y-81000000D01*
X139947142Y-81047619D01*
X139851904Y-81190476D01*
X139804285Y-81380952D01*
X139804285Y-81761904D01*
X139851904Y-81857142D01*
X139899523Y-81904761D01*
X139994761Y-81952380D01*
X140185238Y-81952380D01*
X140280476Y-81904761D01*
X140328095Y-81857142D01*
X140375714Y-81761904D01*
X140375714Y-81523809D01*
X140328095Y-81428571D01*
X140280476Y-81380952D01*
X140185238Y-81333333D01*
X139994761Y-81333333D01*
X139899523Y-81380952D01*
X139851904Y-81428571D01*
X139804285Y-81523809D01*
%TO.C,R5*%
X139523333Y-76702380D02*
X139190000Y-76226190D01*
X138951904Y-76702380D02*
X138951904Y-75702380D01*
X139332857Y-75702380D01*
X139428095Y-75750000D01*
X139475714Y-75797619D01*
X139523333Y-75892857D01*
X139523333Y-76035714D01*
X139475714Y-76130952D01*
X139428095Y-76178571D01*
X139332857Y-76226190D01*
X138951904Y-76226190D01*
X140428095Y-75702380D02*
X139951904Y-75702380D01*
X139904285Y-76178571D01*
X139951904Y-76130952D01*
X140047142Y-76083333D01*
X140285238Y-76083333D01*
X140380476Y-76130952D01*
X140428095Y-76178571D01*
X140475714Y-76273809D01*
X140475714Y-76511904D01*
X140428095Y-76607142D01*
X140380476Y-76654761D01*
X140285238Y-76702380D01*
X140047142Y-76702380D01*
X139951904Y-76654761D01*
X139904285Y-76607142D01*
%TO.C,R4*%
X128484333Y-69634380D02*
X128151000Y-69158190D01*
X127912904Y-69634380D02*
X127912904Y-68634380D01*
X128293857Y-68634380D01*
X128389095Y-68682000D01*
X128436714Y-68729619D01*
X128484333Y-68824857D01*
X128484333Y-68967714D01*
X128436714Y-69062952D01*
X128389095Y-69110571D01*
X128293857Y-69158190D01*
X127912904Y-69158190D01*
X129341476Y-68967714D02*
X129341476Y-69634380D01*
X129103380Y-68586761D02*
X128865285Y-69301047D01*
X129484333Y-69301047D01*
%TO.C,R3*%
X115824333Y-87687880D02*
X115491000Y-87211690D01*
X115252904Y-87687880D02*
X115252904Y-86687880D01*
X115633857Y-86687880D01*
X115729095Y-86735500D01*
X115776714Y-86783119D01*
X115824333Y-86878357D01*
X115824333Y-87021214D01*
X115776714Y-87116452D01*
X115729095Y-87164071D01*
X115633857Y-87211690D01*
X115252904Y-87211690D01*
X116157666Y-86687880D02*
X116776714Y-86687880D01*
X116443380Y-87068833D01*
X116586238Y-87068833D01*
X116681476Y-87116452D01*
X116729095Y-87164071D01*
X116776714Y-87259309D01*
X116776714Y-87497404D01*
X116729095Y-87592642D01*
X116681476Y-87640261D01*
X116586238Y-87687880D01*
X116300523Y-87687880D01*
X116205285Y-87640261D01*
X116157666Y-87592642D01*
%TO.C,R2*%
X133033333Y-71652380D02*
X132700000Y-71176190D01*
X132461904Y-71652380D02*
X132461904Y-70652380D01*
X132842857Y-70652380D01*
X132938095Y-70700000D01*
X132985714Y-70747619D01*
X133033333Y-70842857D01*
X133033333Y-70985714D01*
X132985714Y-71080952D01*
X132938095Y-71128571D01*
X132842857Y-71176190D01*
X132461904Y-71176190D01*
X133414285Y-70747619D02*
X133461904Y-70700000D01*
X133557142Y-70652380D01*
X133795238Y-70652380D01*
X133890476Y-70700000D01*
X133938095Y-70747619D01*
X133985714Y-70842857D01*
X133985714Y-70938095D01*
X133938095Y-71080952D01*
X133366666Y-71652380D01*
X133985714Y-71652380D01*
%TO.C,R1*%
X133083333Y-69852380D02*
X132750000Y-69376190D01*
X132511904Y-69852380D02*
X132511904Y-68852380D01*
X132892857Y-68852380D01*
X132988095Y-68900000D01*
X133035714Y-68947619D01*
X133083333Y-69042857D01*
X133083333Y-69185714D01*
X133035714Y-69280952D01*
X132988095Y-69328571D01*
X132892857Y-69376190D01*
X132511904Y-69376190D01*
X134035714Y-69852380D02*
X133464285Y-69852380D01*
X133750000Y-69852380D02*
X133750000Y-68852380D01*
X133654761Y-68995238D01*
X133559523Y-69090476D01*
X133464285Y-69138095D01*
%TO.C,J3*%
X135882380Y-66833333D02*
X136596666Y-66833333D01*
X136739523Y-66880952D01*
X136834761Y-66976190D01*
X136882380Y-67119047D01*
X136882380Y-67214285D01*
X135882380Y-66452380D02*
X135882380Y-65833333D01*
X136263333Y-66166666D01*
X136263333Y-66023809D01*
X136310952Y-65928571D01*
X136358571Y-65880952D01*
X136453809Y-65833333D01*
X136691904Y-65833333D01*
X136787142Y-65880952D01*
X136834761Y-65928571D01*
X136882380Y-66023809D01*
X136882380Y-66309523D01*
X136834761Y-66404761D01*
X136787142Y-66452380D01*
%TO.C,J2*%
D13*
X132642428Y-87926333D02*
X133005285Y-87926333D01*
X132569857Y-88216619D02*
X132823857Y-87200619D01*
X133077857Y-88216619D01*
X133223000Y-87200619D02*
X133477000Y-88216619D01*
X133731000Y-87200619D01*
X134420428Y-88216619D02*
X134166428Y-87732809D01*
X133985000Y-88216619D02*
X133985000Y-87200619D01*
X134275285Y-87200619D01*
X134347857Y-87249000D01*
X134384142Y-87297380D01*
X134420428Y-87394142D01*
X134420428Y-87539285D01*
X134384142Y-87636047D01*
X134347857Y-87684428D01*
X134275285Y-87732809D01*
X133985000Y-87732809D01*
X134747000Y-87829571D02*
X135327571Y-87829571D01*
X135690428Y-88216619D02*
X135690428Y-87200619D01*
X136017000Y-88168238D02*
X136125857Y-88216619D01*
X136307285Y-88216619D01*
X136379857Y-88168238D01*
X136416142Y-88119857D01*
X136452428Y-88023095D01*
X136452428Y-87926333D01*
X136416142Y-87829571D01*
X136379857Y-87781190D01*
X136307285Y-87732809D01*
X136162142Y-87684428D01*
X136089571Y-87636047D01*
X136053285Y-87587666D01*
X136017000Y-87490904D01*
X136017000Y-87394142D01*
X136053285Y-87297380D01*
X136089571Y-87249000D01*
X136162142Y-87200619D01*
X136343571Y-87200619D01*
X136452428Y-87249000D01*
X136779000Y-88216619D02*
X136779000Y-87200619D01*
X137069285Y-87200619D01*
X137141857Y-87249000D01*
X137178142Y-87297380D01*
X137214428Y-87394142D01*
X137214428Y-87539285D01*
X137178142Y-87636047D01*
X137141857Y-87684428D01*
X137069285Y-87732809D01*
X136779000Y-87732809D01*
X137541000Y-87829571D02*
X138121571Y-87829571D01*
X138811000Y-87200619D02*
X138665857Y-87200619D01*
X138593285Y-87249000D01*
X138557000Y-87297380D01*
X138484428Y-87442523D01*
X138448142Y-87636047D01*
X138448142Y-88023095D01*
X138484428Y-88119857D01*
X138520714Y-88168238D01*
X138593285Y-88216619D01*
X138738428Y-88216619D01*
X138811000Y-88168238D01*
X138847285Y-88119857D01*
X138883571Y-88023095D01*
X138883571Y-87781190D01*
X138847285Y-87684428D01*
X138811000Y-87636047D01*
X138738428Y-87587666D01*
X138593285Y-87587666D01*
X138520714Y-87636047D01*
X138484428Y-87684428D01*
X138448142Y-87781190D01*
%TO.C,C10*%
D10*
X139803142Y-91066857D02*
X139850761Y-91114476D01*
X139898380Y-91257333D01*
X139898380Y-91352571D01*
X139850761Y-91495428D01*
X139755523Y-91590666D01*
X139660285Y-91638285D01*
X139469809Y-91685904D01*
X139326952Y-91685904D01*
X139136476Y-91638285D01*
X139041238Y-91590666D01*
X138946000Y-91495428D01*
X138898380Y-91352571D01*
X138898380Y-91257333D01*
X138946000Y-91114476D01*
X138993619Y-91066857D01*
X139898380Y-90114476D02*
X139898380Y-90685904D01*
X139898380Y-90400190D02*
X138898380Y-90400190D01*
X139041238Y-90495428D01*
X139136476Y-90590666D01*
X139184095Y-90685904D01*
X138898380Y-89495428D02*
X138898380Y-89400190D01*
X138946000Y-89304952D01*
X138993619Y-89257333D01*
X139088857Y-89209714D01*
X139279333Y-89162095D01*
X139517428Y-89162095D01*
X139707904Y-89209714D01*
X139803142Y-89257333D01*
X139850761Y-89304952D01*
X139898380Y-89400190D01*
X139898380Y-89495428D01*
X139850761Y-89590666D01*
X139803142Y-89638285D01*
X139707904Y-89685904D01*
X139517428Y-89733523D01*
X139279333Y-89733523D01*
X139088857Y-89685904D01*
X138993619Y-89638285D01*
X138946000Y-89590666D01*
X138898380Y-89495428D01*
%TO.C,C9*%
X140783333Y-73807142D02*
X140735714Y-73854761D01*
X140592857Y-73902380D01*
X140497619Y-73902380D01*
X140354761Y-73854761D01*
X140259523Y-73759523D01*
X140211904Y-73664285D01*
X140164285Y-73473809D01*
X140164285Y-73330952D01*
X140211904Y-73140476D01*
X140259523Y-73045238D01*
X140354761Y-72950000D01*
X140497619Y-72902380D01*
X140592857Y-72902380D01*
X140735714Y-72950000D01*
X140783333Y-72997619D01*
X141259523Y-73902380D02*
X141450000Y-73902380D01*
X141545238Y-73854761D01*
X141592857Y-73807142D01*
X141688095Y-73664285D01*
X141735714Y-73473809D01*
X141735714Y-73092857D01*
X141688095Y-72997619D01*
X141640476Y-72950000D01*
X141545238Y-72902380D01*
X141354761Y-72902380D01*
X141259523Y-72950000D01*
X141211904Y-72997619D01*
X141164285Y-73092857D01*
X141164285Y-73330952D01*
X141211904Y-73426190D01*
X141259523Y-73473809D01*
X141354761Y-73521428D01*
X141545238Y-73521428D01*
X141640476Y-73473809D01*
X141688095Y-73426190D01*
X141735714Y-73330952D01*
%TO.C,C8*%
X124309142Y-80009666D02*
X124356761Y-80057285D01*
X124404380Y-80200142D01*
X124404380Y-80295380D01*
X124356761Y-80438238D01*
X124261523Y-80533476D01*
X124166285Y-80581095D01*
X123975809Y-80628714D01*
X123832952Y-80628714D01*
X123642476Y-80581095D01*
X123547238Y-80533476D01*
X123452000Y-80438238D01*
X123404380Y-80295380D01*
X123404380Y-80200142D01*
X123452000Y-80057285D01*
X123499619Y-80009666D01*
X123832952Y-79438238D02*
X123785333Y-79533476D01*
X123737714Y-79581095D01*
X123642476Y-79628714D01*
X123594857Y-79628714D01*
X123499619Y-79581095D01*
X123452000Y-79533476D01*
X123404380Y-79438238D01*
X123404380Y-79247761D01*
X123452000Y-79152523D01*
X123499619Y-79104904D01*
X123594857Y-79057285D01*
X123642476Y-79057285D01*
X123737714Y-79104904D01*
X123785333Y-79152523D01*
X123832952Y-79247761D01*
X123832952Y-79438238D01*
X123880571Y-79533476D01*
X123928190Y-79581095D01*
X124023428Y-79628714D01*
X124213904Y-79628714D01*
X124309142Y-79581095D01*
X124356761Y-79533476D01*
X124404380Y-79438238D01*
X124404380Y-79247761D01*
X124356761Y-79152523D01*
X124309142Y-79104904D01*
X124213904Y-79057285D01*
X124023428Y-79057285D01*
X123928190Y-79104904D01*
X123880571Y-79152523D01*
X123832952Y-79247761D01*
%TO.C,C6*%
X113591142Y-90045666D02*
X113638761Y-90093285D01*
X113686380Y-90236142D01*
X113686380Y-90331380D01*
X113638761Y-90474238D01*
X113543523Y-90569476D01*
X113448285Y-90617095D01*
X113257809Y-90664714D01*
X113114952Y-90664714D01*
X112924476Y-90617095D01*
X112829238Y-90569476D01*
X112734000Y-90474238D01*
X112686380Y-90331380D01*
X112686380Y-90236142D01*
X112734000Y-90093285D01*
X112781619Y-90045666D01*
X112686380Y-89188523D02*
X112686380Y-89379000D01*
X112734000Y-89474238D01*
X112781619Y-89521857D01*
X112924476Y-89617095D01*
X113114952Y-89664714D01*
X113495904Y-89664714D01*
X113591142Y-89617095D01*
X113638761Y-89569476D01*
X113686380Y-89474238D01*
X113686380Y-89283761D01*
X113638761Y-89188523D01*
X113591142Y-89140904D01*
X113495904Y-89093285D01*
X113257809Y-89093285D01*
X113162571Y-89140904D01*
X113114952Y-89188523D01*
X113067333Y-89283761D01*
X113067333Y-89474238D01*
X113114952Y-89569476D01*
X113162571Y-89617095D01*
X113257809Y-89664714D01*
%TO.C,C5*%
X121787333Y-82921142D02*
X121739714Y-82968761D01*
X121596857Y-83016380D01*
X121501619Y-83016380D01*
X121358761Y-82968761D01*
X121263523Y-82873523D01*
X121215904Y-82778285D01*
X121168285Y-82587809D01*
X121168285Y-82444952D01*
X121215904Y-82254476D01*
X121263523Y-82159238D01*
X121358761Y-82064000D01*
X121501619Y-82016380D01*
X121596857Y-82016380D01*
X121739714Y-82064000D01*
X121787333Y-82111619D01*
X122692095Y-82016380D02*
X122215904Y-82016380D01*
X122168285Y-82492571D01*
X122215904Y-82444952D01*
X122311142Y-82397333D01*
X122549238Y-82397333D01*
X122644476Y-82444952D01*
X122692095Y-82492571D01*
X122739714Y-82587809D01*
X122739714Y-82825904D01*
X122692095Y-82921142D01*
X122644476Y-82968761D01*
X122549238Y-83016380D01*
X122311142Y-83016380D01*
X122215904Y-82968761D01*
X122168285Y-82921142D01*
%TO.C,C4*%
X116546333Y-71921642D02*
X116498714Y-71969261D01*
X116355857Y-72016880D01*
X116260619Y-72016880D01*
X116117761Y-71969261D01*
X116022523Y-71874023D01*
X115974904Y-71778785D01*
X115927285Y-71588309D01*
X115927285Y-71445452D01*
X115974904Y-71254976D01*
X116022523Y-71159738D01*
X116117761Y-71064500D01*
X116260619Y-71016880D01*
X116355857Y-71016880D01*
X116498714Y-71064500D01*
X116546333Y-71112119D01*
X117403476Y-71350214D02*
X117403476Y-72016880D01*
X117165380Y-70969261D02*
X116927285Y-71683547D01*
X117546333Y-71683547D01*
%TO.C,C3*%
X137369142Y-74887666D02*
X137416761Y-74935285D01*
X137464380Y-75078142D01*
X137464380Y-75173380D01*
X137416761Y-75316238D01*
X137321523Y-75411476D01*
X137226285Y-75459095D01*
X137035809Y-75506714D01*
X136892952Y-75506714D01*
X136702476Y-75459095D01*
X136607238Y-75411476D01*
X136512000Y-75316238D01*
X136464380Y-75173380D01*
X136464380Y-75078142D01*
X136512000Y-74935285D01*
X136559619Y-74887666D01*
X136464380Y-74554333D02*
X136464380Y-73935285D01*
X136845333Y-74268619D01*
X136845333Y-74125761D01*
X136892952Y-74030523D01*
X136940571Y-73982904D01*
X137035809Y-73935285D01*
X137273904Y-73935285D01*
X137369142Y-73982904D01*
X137416761Y-74030523D01*
X137464380Y-74125761D01*
X137464380Y-74411476D01*
X137416761Y-74506714D01*
X137369142Y-74554333D01*
%TO.C,C2*%
X137374333Y-90781142D02*
X137326714Y-90828761D01*
X137183857Y-90876380D01*
X137088619Y-90876380D01*
X136945761Y-90828761D01*
X136850523Y-90733523D01*
X136802904Y-90638285D01*
X136755285Y-90447809D01*
X136755285Y-90304952D01*
X136802904Y-90114476D01*
X136850523Y-90019238D01*
X136945761Y-89924000D01*
X137088619Y-89876380D01*
X137183857Y-89876380D01*
X137326714Y-89924000D01*
X137374333Y-89971619D01*
X137755285Y-89971619D02*
X137802904Y-89924000D01*
X137898142Y-89876380D01*
X138136238Y-89876380D01*
X138231476Y-89924000D01*
X138279095Y-89971619D01*
X138326714Y-90066857D01*
X138326714Y-90162095D01*
X138279095Y-90304952D01*
X137707666Y-90876380D01*
X138326714Y-90876380D01*
%TO.C,C1*%
X137501333Y-94591142D02*
X137453714Y-94638761D01*
X137310857Y-94686380D01*
X137215619Y-94686380D01*
X137072761Y-94638761D01*
X136977523Y-94543523D01*
X136929904Y-94448285D01*
X136882285Y-94257809D01*
X136882285Y-94114952D01*
X136929904Y-93924476D01*
X136977523Y-93829238D01*
X137072761Y-93734000D01*
X137215619Y-93686380D01*
X137310857Y-93686380D01*
X137453714Y-93734000D01*
X137501333Y-93781619D01*
X138453714Y-94686380D02*
X137882285Y-94686380D01*
X138168000Y-94686380D02*
X138168000Y-93686380D01*
X138072761Y-93829238D01*
X137977523Y-93924476D01*
X137882285Y-93972095D01*
%TD*%
M02*
