%TF.GenerationSoftware,KiCad,Pcbnew,5.1.6-1.fc32*%
%TF.CreationDate,2020-08-28T03:42:22+01:00*%
%TF.ProjectId,ACNodeReader,41434e6f-6465-4526-9561-6465722e6b69,rev?*%
%TF.SameCoordinates,Original*%
%TF.FileFunction,Copper,L3,Inr*%
%TF.FilePolarity,Positive*%
%FSLAX46Y46*%
G04 Gerber Fmt 4.6, Leading zero omitted, Abs format (unit mm)*
G04 Created by KiCad (PCBNEW 5.1.6-1.fc32) date 2020-08-28 03:42:22*
%MOMM*%
%LPD*%
G01*
G04 APERTURE LIST*
%TA.AperFunction,ViaPad*%
%ADD10O,1.700000X1.700000*%
%TD*%
%TA.AperFunction,ViaPad*%
%ADD11R,1.700000X1.700000*%
%TD*%
%TA.AperFunction,ViaPad*%
%ADD12C,0.949960*%
%TD*%
%TA.AperFunction,ViaPad*%
%ADD13C,0.800000*%
%TD*%
%TA.AperFunction,Conductor*%
%ADD14C,0.160000*%
%TD*%
G04 APERTURE END LIST*
D10*
%TO.N,i2c_SDA*%
%TO.C,J7*%
X112522000Y-73660000D03*
%TO.N,i2c_SCL*%
X112522000Y-71120000D03*
%TO.N,GND*%
X112522000Y-68580000D03*
D11*
%TO.N,+5V*%
X112522000Y-66040000D03*
%TD*%
D10*
%TO.N,GND*%
%TO.C,J6*%
X114109500Y-85217000D03*
%TO.N,+5V*%
X114109500Y-82677000D03*
%TO.N,/uC_RX*%
X114109500Y-80137000D03*
D11*
%TO.N,/uC_TX*%
X114109500Y-77597000D03*
%TD*%
D10*
%TO.N,Net-(J5-Pad4)*%
%TO.C,J5*%
X145732500Y-83820000D03*
%TO.N,Net-(J5-Pad3)*%
X145732500Y-81280000D03*
%TO.N,Net-(J5-Pad2)*%
X145732500Y-78740000D03*
D11*
%TO.N,Net-(J5-Pad1)*%
X145732500Y-76200000D03*
%TD*%
D10*
%TO.N,Net-(C10-Pad2)*%
%TO.C,J4*%
X145732500Y-88900000D03*
D11*
%TO.N,Net-(C10-Pad1)*%
X145732500Y-86360000D03*
%TD*%
D10*
%TO.N,/RX+*%
%TO.C,J1*%
X120396000Y-98200000D03*
%TO.N,/RX-*%
X122936000Y-98200000D03*
%TO.N,/TX+*%
X125476000Y-98200000D03*
%TO.N,+12V*%
X128016000Y-98200000D03*
X130556000Y-98200000D03*
%TO.N,/TX-*%
X133096000Y-98200000D03*
%TO.N,GND*%
X135636000Y-98200000D03*
D11*
X138176000Y-98200000D03*
%TD*%
D10*
%TO.N,GND*%
%TO.C,J3*%
X126480000Y-66500000D03*
%TO.N,+5V*%
X129020000Y-66500000D03*
%TO.N,i2c_SDA*%
X131560000Y-66500000D03*
D11*
%TO.N,i2c_SCL*%
X134100000Y-66500000D03*
%TD*%
D12*
%TO.N,N/C*%
%TO.C,J2*%
X138620500Y-92138500D03*
X138620500Y-90106500D03*
X133540500Y-91122500D03*
%TD*%
D13*
%TO.N,GND*%
X140295000Y-73302500D03*
X122428000Y-80899000D03*
X117098500Y-84650000D03*
X121157500Y-73850000D03*
X113220500Y-94805500D03*
X117792500Y-92773500D03*
X129159000Y-90424000D03*
X140295000Y-63667000D03*
X136588500Y-88074500D03*
X115125500Y-97599500D03*
X139699992Y-79755992D03*
X124414990Y-94625000D03*
%TO.N,+12V*%
X116649500Y-101092000D03*
%TO.N,+5V*%
X129857500Y-89217500D03*
X137655500Y-70345500D03*
X136779000Y-82867500D03*
X127889000Y-80137000D03*
X143573500Y-74549000D03*
X143980000Y-91275000D03*
X126844000Y-72800000D03*
X119289490Y-92900500D03*
X139855000Y-77950000D03*
X126111000Y-92583000D03*
X113284000Y-89662000D03*
X134810500Y-88900000D03*
%TO.N,Net-(C10-Pad1)*%
X141351000Y-86614000D03*
X130301978Y-86360000D03*
%TO.N,/TX-*%
X121285000Y-91440006D03*
%TO.N,Net-(J2-Pad5)*%
X130492500Y-78867000D03*
X138271721Y-88066394D03*
%TO.N,Net-(J2-Pad1)*%
X132080000Y-89154000D03*
X132969000Y-86487000D03*
%TO.N,i2c_SDA*%
X132080000Y-71374000D03*
%TO.N,i2c_SCL*%
X130600000Y-68980500D03*
%TO.N,/uC_TX*%
X126111000Y-74993502D03*
X123698000Y-91567000D03*
%TO.N,/uC_RX*%
X116268500Y-92138500D03*
X123190008Y-73787000D03*
%TO.N,/LED2*%
X140398500Y-81534000D03*
X132715000Y-79883000D03*
%TO.N,/LED3*%
X138777000Y-83600000D03*
X134270750Y-84550250D03*
%TD*%
D14*
%TO.N,Net-(C10-Pad1)*%
X133715999Y-85709999D02*
X130951979Y-85709999D01*
X134747000Y-86741000D02*
X133715999Y-85709999D01*
X130951979Y-85709999D02*
X130301978Y-86360000D01*
X136706599Y-89199001D02*
X134747000Y-87239402D01*
X134747000Y-87239402D02*
X134747000Y-86741000D01*
X138765999Y-89199001D02*
X136706599Y-89199001D01*
X141351000Y-86614000D02*
X138765999Y-89199001D01*
%TO.N,/TX-*%
X125841314Y-97069999D02*
X121285000Y-92513685D01*
X133520000Y-98200000D02*
X132389999Y-97069999D01*
X132389999Y-97069999D02*
X125841314Y-97069999D01*
X121285000Y-92513685D02*
X121285000Y-91440006D01*
%TO.N,Net-(J2-Pad5)*%
X130492500Y-78867000D02*
X138271721Y-86646221D01*
X138271721Y-86646221D02*
X138271721Y-88066394D01*
%TO.N,Net-(J2-Pad1)*%
X132080000Y-89154000D02*
X132080000Y-87376000D01*
X132080000Y-87376000D02*
X132969000Y-86487000D01*
%TO.N,i2c_SDA*%
X119126000Y-71374000D02*
X132080000Y-71374000D01*
X116840000Y-73660000D02*
X119126000Y-71374000D01*
X112522000Y-73660000D02*
X116840000Y-73660000D01*
%TO.N,i2c_SCL*%
X131619500Y-68980500D02*
X134100000Y-66500000D01*
X130600000Y-68980500D02*
X131619500Y-68980500D01*
X120249500Y-68980500D02*
X130600000Y-68980500D01*
X117856000Y-71374000D02*
X120249500Y-68980500D01*
X112776000Y-71374000D02*
X117856000Y-71374000D01*
X112522000Y-71120000D02*
X112776000Y-71374000D01*
%TO.N,/uC_TX*%
X126111000Y-73205998D02*
X126111000Y-74993502D01*
X125470501Y-72565499D02*
X126111000Y-73205998D01*
X119141001Y-72565499D02*
X125470501Y-72565499D01*
X114109500Y-77597000D02*
X119141001Y-72565499D01*
X126111000Y-74993502D02*
X126111000Y-89154000D01*
X126111000Y-89154000D02*
X123698000Y-91567000D01*
%TO.N,/uC_RX*%
X116268500Y-80708508D02*
X123190008Y-73787000D01*
X116268500Y-92138500D02*
X116268500Y-80708508D01*
X115696992Y-80137000D02*
X116268500Y-80708508D01*
X114109500Y-80137000D02*
X115696992Y-80137000D01*
%TO.N,/LED2*%
X140398500Y-81534000D02*
X134366000Y-81534000D01*
X134366000Y-81534000D02*
X132715000Y-79883000D01*
%TD*%
M02*
