%TF.GenerationSoftware,KiCad,Pcbnew,5.1.6-1.fc32*%
%TF.CreationDate,2020-09-22T21:06:53+01:00*%
%TF.ProjectId,ACNodeReader,41434e6f-6465-4526-9561-6465722e6b69,rev?*%
%TF.SameCoordinates,Original*%
%TF.FileFunction,Copper,L3,Inr*%
%TF.FilePolarity,Positive*%
%FSLAX46Y46*%
G04 Gerber Fmt 4.6, Leading zero omitted, Abs format (unit mm)*
G04 Created by KiCad (PCBNEW 5.1.6-1.fc32) date 2020-09-22 21:06:53*
%MOMM*%
%LPD*%
G01*
G04 APERTURE LIST*
%TA.AperFunction,ViaPad*%
%ADD10O,1.700000X1.700000*%
%TD*%
%TA.AperFunction,ViaPad*%
%ADD11R,1.700000X1.700000*%
%TD*%
%TA.AperFunction,ViaPad*%
%ADD12C,0.949960*%
%TD*%
%TA.AperFunction,ViaPad*%
%ADD13C,0.800000*%
%TD*%
%TA.AperFunction,Conductor*%
%ADD14C,0.160000*%
%TD*%
G04 APERTURE END LIST*
D10*
%TO.N,i2c_SDA*%
%TO.C,J7*%
X112522000Y-73660000D03*
%TO.N,i2c_SCL*%
X112522000Y-71120000D03*
%TO.N,GND*%
X112522000Y-68580000D03*
D11*
%TO.N,+5V*%
X112522000Y-66040000D03*
%TD*%
D10*
%TO.N,GND*%
%TO.C,J6*%
X114109500Y-85217000D03*
%TO.N,+5V*%
X114109500Y-82677000D03*
%TO.N,/uC_RX*%
X114109500Y-80137000D03*
D11*
%TO.N,/uC_TX*%
X114109500Y-77597000D03*
%TD*%
D10*
%TO.N,Net-(J5-Pad4)*%
%TO.C,J5*%
X145732500Y-83820000D03*
%TO.N,Net-(J5-Pad3)*%
X145732500Y-81280000D03*
%TO.N,Net-(J5-Pad2)*%
X145732500Y-78740000D03*
D11*
%TO.N,Net-(J5-Pad1)*%
X145732500Y-76200000D03*
%TD*%
D10*
%TO.N,Net-(C10-Pad2)*%
%TO.C,J4*%
X145732500Y-88900000D03*
D11*
%TO.N,Net-(C10-Pad1)*%
X145732500Y-86360000D03*
%TD*%
D10*
%TO.N,/RX+*%
%TO.C,J1*%
X120396000Y-98200000D03*
%TO.N,/RX-*%
X122936000Y-98200000D03*
%TO.N,/TX+*%
X125476000Y-98200000D03*
%TO.N,+12V*%
X128016000Y-98200000D03*
X130556000Y-98200000D03*
%TO.N,/TX-*%
X133096000Y-98200000D03*
%TO.N,GND*%
X135636000Y-98200000D03*
D11*
X138176000Y-98200000D03*
%TD*%
D10*
%TO.N,GND*%
%TO.C,J3*%
X126480000Y-66500000D03*
%TO.N,+5V*%
X129020000Y-66500000D03*
%TO.N,i2c_SDA*%
X131560000Y-66500000D03*
D11*
%TO.N,i2c_SCL*%
X134100000Y-66500000D03*
%TD*%
D12*
%TO.N,N/C*%
%TO.C,J2*%
X137287000Y-85979000D03*
X137287000Y-83947000D03*
X132207000Y-84963000D03*
%TD*%
D13*
%TO.N,GND*%
X124414990Y-94625000D03*
X115125500Y-97599500D03*
X140295000Y-63667000D03*
X117792500Y-92773500D03*
X113220500Y-94805500D03*
X140295000Y-73302500D03*
X127240000Y-92470000D03*
X122174000Y-82804000D03*
X117289000Y-82364000D03*
X121920000Y-70231000D03*
X128270000Y-92456000D03*
X122555000Y-77851000D03*
X136525000Y-82804000D03*
X138303000Y-76581000D03*
X138176000Y-79756000D03*
X135890000Y-92075000D03*
X130265660Y-85507340D03*
%TO.N,+12V*%
X116649500Y-101092000D03*
%TO.N,Net-(C10-Pad1)*%
X130302000Y-84201000D03*
X140208000Y-86741000D03*
%TO.N,/TX-*%
X121285000Y-91440006D03*
%TO.N,Net-(J2-Pad5)*%
X130175000Y-79375000D03*
X137922000Y-81915000D03*
%TO.N,Net-(J2-Pad4)*%
X132207000Y-80137000D03*
X135128000Y-82677000D03*
%TO.N,Net-(J2-Pad3)*%
X136017000Y-80772000D03*
X139446000Y-84074000D03*
%TO.N,i2c_SDA*%
X133604000Y-71247000D03*
%TO.N,i2c_SCL*%
X130702500Y-68980500D03*
%TO.N,/uC_TX*%
X123698000Y-91567000D03*
X125476000Y-72771000D03*
%TO.N,/uC_RX*%
X116268500Y-92138500D03*
X123190000Y-73914000D03*
%TO.N,/LED1*%
X129144000Y-77100000D03*
X139573000Y-76200000D03*
%TO.N,/LED2*%
X129032000Y-79502000D03*
X140208004Y-81534000D03*
%TO.N,/LED3*%
X131064000Y-80137000D03*
X141351000Y-84963000D03*
%TO.N,+3V3*%
X122174000Y-87757000D03*
X119289490Y-92837000D03*
X113297000Y-89675000D03*
X128016000Y-77089000D03*
X139855000Y-77950000D03*
X139484000Y-91275000D03*
X134112000Y-83311994D03*
X128143000Y-83439004D03*
X127127008Y-83439000D03*
X126365000Y-70485000D03*
X146106000Y-73350000D03*
X138430000Y-69088000D03*
X120777000Y-86995000D03*
%TD*%
D14*
%TO.N,Net-(C10-Pad1)*%
X130302000Y-84201000D02*
X132842000Y-86741000D01*
X132842000Y-86741000D02*
X140208000Y-86741000D01*
%TO.N,/TX-*%
X121285000Y-92513685D02*
X121285000Y-91440006D01*
X132389999Y-97069999D02*
X125841314Y-97069999D01*
X133520000Y-98200000D02*
X132389999Y-97069999D01*
X125841314Y-97069999D02*
X121285000Y-92513685D01*
%TO.N,Net-(J2-Pad5)*%
X136074689Y-79375000D02*
X137922000Y-81222311D01*
X130175000Y-79375000D02*
X136074689Y-79375000D01*
X137922000Y-81222311D02*
X137922000Y-81915000D01*
%TO.N,Net-(J2-Pad4)*%
X134747000Y-82677000D02*
X135128000Y-82677000D01*
X132207000Y-80137000D02*
X134747000Y-82677000D01*
%TO.N,Net-(J2-Pad3)*%
X136017000Y-80772000D02*
X136017000Y-81210685D01*
X136017000Y-81210685D02*
X138880315Y-84074000D01*
X138880315Y-84074000D02*
X139446000Y-84074000D01*
%TO.N,i2c_SDA*%
X116840000Y-73660000D02*
X119253000Y-71247000D01*
X112522000Y-73660000D02*
X116840000Y-73660000D01*
X119253000Y-71247000D02*
X133604000Y-71247000D01*
%TO.N,i2c_SCL*%
X112522000Y-71120000D02*
X112776000Y-71374000D01*
X112776000Y-71374000D02*
X117856000Y-71374000D01*
X117856000Y-71374000D02*
X120249500Y-68980500D01*
X120249500Y-68980500D02*
X130600000Y-68980500D01*
X131619500Y-68980500D02*
X134100000Y-66500000D01*
X130702500Y-68980500D02*
X131619500Y-68980500D01*
X130600000Y-68980500D02*
X130702500Y-68980500D01*
%TO.N,/uC_TX*%
X126111000Y-89154000D02*
X123698000Y-91567000D01*
X119141001Y-72565499D02*
X125470501Y-72565499D01*
X126111000Y-73205998D02*
X126111000Y-89154000D01*
X114109500Y-77597000D02*
X119141001Y-72565499D01*
X125470501Y-72565499D02*
X126111000Y-73205998D01*
%TO.N,/uC_RX*%
X114109500Y-80137000D02*
X115696992Y-80137000D01*
X115696992Y-80137000D02*
X116268500Y-80708508D01*
X116268500Y-92138500D02*
X116268500Y-80708508D01*
X116967000Y-80137000D02*
X114109500Y-80137000D01*
X123190000Y-73914000D02*
X116967000Y-80137000D01*
%TO.N,/LED1*%
X129543999Y-77499999D02*
X138400001Y-77499999D01*
X129144000Y-77100000D02*
X129543999Y-77499999D01*
X139573000Y-76327000D02*
X139573000Y-76200000D01*
X138400001Y-77499999D02*
X139573000Y-76327000D01*
%TO.N,/LED2*%
X129032000Y-79502000D02*
X130190001Y-78343999D01*
X135747999Y-78343999D02*
X138938000Y-81534000D01*
X130190001Y-78343999D02*
X135747999Y-78343999D01*
X138938000Y-81534000D02*
X140208004Y-81534000D01*
%TO.N,/LED3*%
X131064000Y-81270396D02*
X134756604Y-84963000D01*
X131064000Y-80137000D02*
X131064000Y-81270396D01*
X134756604Y-84963000D02*
X141351000Y-84963000D01*
%TD*%
M02*
