M48
; DRILL file {KiCad 5.1.6-1.fc32} date Fri Aug 28 03:45:37 2020
; FORMAT={-:-/ absolute / metric / decimal}
; #@! TF.CreationDate,2020-08-28T03:45:37+01:00
; #@! TF.GenerationSoftware,Kicad,Pcbnew,5.1.6-1.fc32
FMAT,2
METRIC
T1C0.400
T2C0.950
T3C1.000
T4C3.200
%
G90
G05
T1
X113.221Y-94.805
X113.284Y-89.662
X115.125Y-97.599
X116.268Y-92.138
X116.649Y-101.092
X117.099Y-84.65
X117.792Y-92.773
X119.289Y-92.9
X121.157Y-73.85
X121.285Y-91.44
X122.428Y-80.899
X123.19Y-73.787
X123.698Y-91.567
X124.415Y-94.625
X126.111Y-74.994
X126.111Y-92.583
X126.844Y-72.8
X127.889Y-80.137
X129.159Y-90.424
X129.857Y-89.218
X130.302Y-86.36
X130.493Y-78.867
X130.6Y-68.98
X132.08Y-71.374
X132.08Y-89.154
X132.715Y-79.883
X132.969Y-86.487
X134.271Y-84.55
X134.81Y-88.9
X136.588Y-88.075
X136.779Y-82.867
X137.655Y-70.346
X138.272Y-88.066
X138.777Y-83.6
X139.7Y-79.756
X139.855Y-77.95
X140.295Y-63.667
X140.295Y-73.302
X140.398Y-81.534
X141.351Y-86.614
X143.573Y-74.549
X143.98Y-91.275
T2
X133.54Y-91.123
X138.62Y-90.106
X138.62Y-92.138
T3
X120.396Y-98.2
X122.936Y-98.2
X125.476Y-98.2
X128.016Y-98.2
X130.556Y-98.2
X133.096Y-98.2
X135.636Y-98.2
X138.176Y-98.2
X112.522Y-66.04
X112.522Y-68.58
X112.522Y-71.12
X112.522Y-73.66
X145.732Y-86.36
X145.732Y-88.9
X114.109Y-77.597
X114.109Y-80.137
X114.109Y-82.677
X114.109Y-85.217
X145.732Y-76.2
X145.732Y-78.74
X145.732Y-81.28
X145.732Y-83.82
X126.48Y-66.5
X129.02Y-66.5
X131.56Y-66.5
X134.1Y-66.5
T4
X142.8Y-95.2
X117.5Y-67.5
T0
M30
