%TF.GenerationSoftware,KiCad,Pcbnew,5.1.6-1.fc32*%
%TF.CreationDate,2020-09-22T21:06:53+01:00*%
%TF.ProjectId,ACNodeReader,41434e6f-6465-4526-9561-6465722e6b69,rev?*%
%TF.SameCoordinates,Original*%
%TF.FileFunction,Copper,L2,Inr*%
%TF.FilePolarity,Positive*%
%FSLAX46Y46*%
G04 Gerber Fmt 4.6, Leading zero omitted, Abs format (unit mm)*
G04 Created by KiCad (PCBNEW 5.1.6-1.fc32) date 2020-09-22 21:06:53*
%MOMM*%
%LPD*%
G01*
G04 APERTURE LIST*
%TA.AperFunction,ViaPad*%
%ADD10O,1.700000X1.700000*%
%TD*%
%TA.AperFunction,ViaPad*%
%ADD11R,1.700000X1.700000*%
%TD*%
%TA.AperFunction,ViaPad*%
%ADD12C,0.949960*%
%TD*%
%TA.AperFunction,ViaPad*%
%ADD13C,0.800000*%
%TD*%
%TA.AperFunction,Conductor*%
%ADD14C,0.500000*%
%TD*%
G04 APERTURE END LIST*
D10*
%TO.N,i2c_SDA*%
%TO.C,J7*%
X112522000Y-73660000D03*
%TO.N,i2c_SCL*%
X112522000Y-71120000D03*
%TO.N,GND*%
X112522000Y-68580000D03*
D11*
%TO.N,+5V*%
X112522000Y-66040000D03*
%TD*%
D10*
%TO.N,GND*%
%TO.C,J6*%
X114109500Y-85217000D03*
%TO.N,+5V*%
X114109500Y-82677000D03*
%TO.N,/uC_RX*%
X114109500Y-80137000D03*
D11*
%TO.N,/uC_TX*%
X114109500Y-77597000D03*
%TD*%
D10*
%TO.N,Net-(J5-Pad4)*%
%TO.C,J5*%
X145732500Y-83820000D03*
%TO.N,Net-(J5-Pad3)*%
X145732500Y-81280000D03*
%TO.N,Net-(J5-Pad2)*%
X145732500Y-78740000D03*
D11*
%TO.N,Net-(J5-Pad1)*%
X145732500Y-76200000D03*
%TD*%
D10*
%TO.N,Net-(C10-Pad2)*%
%TO.C,J4*%
X145732500Y-88900000D03*
D11*
%TO.N,Net-(C10-Pad1)*%
X145732500Y-86360000D03*
%TD*%
D10*
%TO.N,/RX+*%
%TO.C,J1*%
X120396000Y-98200000D03*
%TO.N,/RX-*%
X122936000Y-98200000D03*
%TO.N,/TX+*%
X125476000Y-98200000D03*
%TO.N,+12V*%
X128016000Y-98200000D03*
X130556000Y-98200000D03*
%TO.N,/TX-*%
X133096000Y-98200000D03*
%TO.N,GND*%
X135636000Y-98200000D03*
D11*
X138176000Y-98200000D03*
%TD*%
D10*
%TO.N,GND*%
%TO.C,J3*%
X126480000Y-66500000D03*
%TO.N,+5V*%
X129020000Y-66500000D03*
%TO.N,i2c_SDA*%
X131560000Y-66500000D03*
D11*
%TO.N,i2c_SCL*%
X134100000Y-66500000D03*
%TD*%
D12*
%TO.N,N/C*%
%TO.C,J2*%
X137287000Y-85979000D03*
X137287000Y-83947000D03*
X132207000Y-84963000D03*
%TD*%
D13*
%TO.N,GND*%
X124414990Y-94625000D03*
X115125500Y-97599500D03*
X140295000Y-63667000D03*
X117792500Y-92773500D03*
X113220500Y-94805500D03*
X140295000Y-73302500D03*
X127240000Y-92470000D03*
X122174000Y-82804000D03*
X117289000Y-82364000D03*
X121920000Y-70231000D03*
X128270000Y-92456000D03*
X122555000Y-77851000D03*
X136525000Y-82804000D03*
X138303000Y-76581000D03*
X138176000Y-79756000D03*
X135890000Y-92075000D03*
X130265660Y-85507340D03*
%TO.N,+12V*%
X116649500Y-101092000D03*
%TO.N,Net-(C10-Pad1)*%
X130302000Y-84201000D03*
X140208000Y-86741000D03*
%TO.N,/TX-*%
X121285000Y-91440006D03*
%TO.N,Net-(J2-Pad5)*%
X130175000Y-79375000D03*
X137922000Y-81915000D03*
%TO.N,Net-(J2-Pad4)*%
X132207000Y-80137000D03*
X135128000Y-82677000D03*
%TO.N,Net-(J2-Pad3)*%
X136017000Y-80772000D03*
X139446000Y-84074000D03*
%TO.N,i2c_SDA*%
X133604000Y-71247000D03*
%TO.N,i2c_SCL*%
X130702500Y-68980500D03*
%TO.N,/uC_TX*%
X123698000Y-91567000D03*
X125476000Y-72771000D03*
%TO.N,/uC_RX*%
X116268500Y-92138500D03*
X123190000Y-73914000D03*
%TO.N,/LED1*%
X129144000Y-77100000D03*
X139573000Y-76200000D03*
%TO.N,/LED2*%
X129032000Y-79502000D03*
X140208004Y-81534000D03*
%TO.N,/LED3*%
X131064000Y-80137000D03*
X141351000Y-84963000D03*
%TO.N,+3V3*%
X122174000Y-87757000D03*
X119289490Y-92837000D03*
X113297000Y-89675000D03*
X128016000Y-77089000D03*
X139855000Y-77950000D03*
X139484000Y-91275000D03*
X134112000Y-83311994D03*
X128143000Y-83439004D03*
X127127008Y-83439000D03*
X126365000Y-70485000D03*
X146106000Y-73350000D03*
X138430000Y-69088000D03*
X120777000Y-86995000D03*
%TD*%
D14*
%TO.N,+12V*%
X116649500Y-101092000D02*
X125548000Y-101092000D01*
X125548000Y-101092000D02*
X128440000Y-98200000D01*
X128440000Y-98200000D02*
X130980000Y-98200000D01*
%TO.N,+5V*%
X114427000Y-64135000D02*
X112522000Y-66040000D01*
X126655000Y-64135000D02*
X114427000Y-64135000D01*
X129020000Y-66500000D02*
X126655000Y-64135000D01*
X116078000Y-69596000D02*
X112522000Y-66040000D01*
X116078000Y-80708500D02*
X116078000Y-69596000D01*
X114109500Y-82677000D02*
X116078000Y-80708500D01*
%TO.N,+3V3*%
X119289490Y-90641510D02*
X119289490Y-92837000D01*
X113297000Y-89675000D02*
X120028000Y-89675000D01*
X120028000Y-89675000D02*
X120142000Y-89789000D01*
X120142000Y-89789000D02*
X119289490Y-90641510D01*
X122174000Y-87757000D02*
X120142000Y-89789000D01*
X128016000Y-77851000D02*
X128016000Y-77089000D01*
X128115000Y-77950000D02*
X128016000Y-77851000D01*
X139484000Y-91275000D02*
X134112000Y-85903000D01*
X134112000Y-85903000D02*
X134112000Y-83311994D01*
X128270010Y-83311994D02*
X128143000Y-83439004D01*
X134112000Y-83311994D02*
X128270010Y-83311994D01*
X127127012Y-83439004D02*
X127127008Y-83439000D01*
X128143000Y-83439004D02*
X127127012Y-83439004D01*
X128016000Y-72136000D02*
X128016000Y-77089000D01*
X126365000Y-70485000D02*
X128016000Y-72136000D01*
X128143000Y-77978000D02*
X128143000Y-83439004D01*
X128016000Y-77851000D02*
X128143000Y-77978000D01*
X144455000Y-73350000D02*
X139855000Y-77950000D01*
X146106000Y-73350000D02*
X144455000Y-73350000D01*
X137452999Y-77939001D02*
X137442000Y-77950000D01*
X137452999Y-70065001D02*
X137452999Y-77939001D01*
X138430000Y-69088000D02*
X137452999Y-70065001D01*
X137442000Y-77950000D02*
X128115000Y-77950000D01*
X139855000Y-77950000D02*
X137442000Y-77950000D01*
X127127008Y-83439000D02*
X127127008Y-85343991D01*
X127127008Y-85343991D02*
X124713999Y-87757000D01*
X124713999Y-87757000D02*
X122174000Y-87757000D01*
X121412000Y-86995000D02*
X122174000Y-87757000D01*
X120777000Y-86995000D02*
X121412000Y-86995000D01*
%TD*%
M02*
