M48
; DRILL file {KiCad (5.1.2-1)-1} date Thursday, 08 August 2019 at 23:39:32
; FORMAT={3:3/ absolute / metric / suppress leading zeros}
; #@! TF.CreationDate,2019-08-08T23:39:32+01:00
; #@! TF.GenerationSoftware,Kicad,Pcbnew,(5.1.2-1)-1
FMAT,2
METRIC,TZ
T1C0.400
T2C0.760
T3C1.000
T4C1.016
T5C1.100
T6C3.200
%
G90
G05
T1
X135382Y-84836
X135382Y-105918
X136144Y-101346
X138176Y-98298
X139192Y-97282
X140716Y-92202
X140716Y-96266
X142646Y-99898
X142668Y-98478
X143002Y-91186
X143256Y-93472
X143764Y-97993
X144272Y-91186
X144272Y-93472
X145034Y-98044
X145542Y-92202
X146812Y-91186
X147288Y-106648
X147320Y-93472
X148844Y-106680
X152654Y-97859
X154713Y-110961
X155000Y-112500
X155000Y-115000
X155245Y-91059
X155702Y-94488
X156210Y-89790
X156972Y-93726
X158211Y-110961
X158242Y-93726
X158500Y-112500
X158500Y-115000
X160274Y-92456
X161290Y-93980
X162560Y-87630
X162814Y-85649
X164353Y-84288
X164353Y-86781
X164516Y-89611
X164846Y-103886
X165019Y-105237
X165481Y-84201
X165481Y-86817
X165481Y-89687
X173177Y-62916
X173990Y-75692
T2
X140716Y-71882
X141986Y-69342
X143256Y-71882
X144526Y-69342
X145796Y-71882
X147066Y-69342
X148336Y-71882
X149606Y-69342
T3
X167640Y-83058
X167640Y-85598
X167640Y-88138
X135382Y-88900
X135382Y-91440
X135382Y-93980
X171958Y-98806
X171958Y-101346
X171958Y-103886
X171958Y-106426
X171958Y-108966
X126746Y-102870
X126746Y-105410
X126746Y-107950
X126746Y-110490
X176327Y-94463
X178867Y-94463
X181407Y-94463
X183947Y-94463
X177546Y-67310
X177546Y-69850
X177546Y-72390
T4
X158750Y-101346
X158750Y-103886
X158750Y-106426
X161290Y-101346
X161290Y-103886
X161290Y-106426
T5
X172974Y-116840
X172974Y-121340
X179474Y-116840
X179474Y-121340
X156972Y-116840
X156972Y-121340
X163472Y-116840
X163472Y-121340
T6
X139446Y-62992
X150876Y-62992
T0
M30
