M48
; DRILL file {KiCad 5.1.6-1.fc32} date Tue Sep 22 21:08:25 2020
; FORMAT={-:-/ absolute / inch / decimal}
; #@! TF.CreationDate,2020-09-22T21:08:25+01:00
; #@! TF.GenerationSoftware,Kicad,Pcbnew,5.1.6-1.fc32
FMAT,2
INCH
T1C0.0157
T2C0.0374
T3C0.0394
T4C0.1260
%
G90
G05
T1
X4.4575Y-3.7325
X4.4605Y-3.5305
X4.5325Y-3.8425
X4.5775Y-3.6275
X4.5925Y-3.98
X4.6177Y-3.2427
X4.6375Y-3.6525
X4.6964Y-3.655
X4.755Y-3.425
X4.775Y-3.6
X4.8Y-2.765
X4.81Y-3.26
X4.81Y-3.455
X4.825Y-3.065
X4.85Y-2.91
X4.87Y-3.605
X4.8982Y-3.7254
X4.94Y-2.865
X4.975Y-2.775
X5.005Y-3.285
X5.0094Y-3.6406
X5.04Y-3.035
X5.045Y-3.285
X5.05Y-3.64
X5.08Y-3.13
X5.0844Y-3.0354
X5.125Y-3.125
X5.1286Y-3.3664
X5.13Y-3.315
X5.1458Y-2.7158
X5.16Y-3.155
X5.205Y-3.155
X5.26Y-2.805
X5.28Y-3.28
X5.32Y-3.255
X5.35Y-3.625
X5.355Y-3.18
X5.375Y-3.26
X5.43Y-3.225
X5.44Y-3.14
X5.445Y-3.015
X5.45Y-2.72
X5.49Y-3.31
X5.4915Y-3.5935
X5.495Y-3.0
X5.5061Y-3.0689
X5.52Y-3.415
X5.52Y-3.21
X5.5234Y-2.5066
X5.5234Y-2.8859
X5.565Y-3.345
X5.7522Y-2.8878
T2
X5.205Y-3.345
X5.405Y-3.305
X5.405Y-3.385
T3
X4.74Y-3.8661
X4.84Y-3.8661
X4.94Y-3.8661
X5.04Y-3.8661
X5.14Y-3.8661
X5.24Y-3.8661
X5.34Y-3.8661
X5.44Y-3.8661
X4.43Y-2.6
X4.43Y-2.7
X4.43Y-2.8
X4.43Y-2.9
X5.7375Y-3.0
X5.7375Y-3.1
X5.7375Y-3.2
X5.7375Y-3.3
X4.9795Y-2.6181
X5.0795Y-2.6181
X5.1795Y-2.6181
X5.2795Y-2.6181
X4.4925Y-3.055
X4.4925Y-3.155
X4.4925Y-3.255
X4.4925Y-3.355
X5.7375Y-3.4
X5.7375Y-3.5
T4
X5.622Y-3.748
X4.626Y-2.6575
T0
M30
