G04 #@! TF.GenerationSoftware,KiCad,Pcbnew,(5.1.2-1)-1*
G04 #@! TF.CreationDate,2019-08-08T23:38:45+01:00*
G04 #@! TF.ProjectId,ACNodeReader_Debug,41434e6f-6465-4526-9561-6465725f4465,rev?*
G04 #@! TF.SameCoordinates,Original*
G04 #@! TF.FileFunction,Copper,L2,Bot*
G04 #@! TF.FilePolarity,Positive*
%FSLAX46Y46*%
G04 Gerber Fmt 4.6, Leading zero omitted, Abs format (unit mm)*
G04 Created by KiCad (PCBNEW (5.1.2-1)-1) date 2019-08-08 23:38:45*
%MOMM*%
%LPD*%
G04 APERTURE LIST*
%ADD10C,2.000000*%
%ADD11O,1.700000X1.700000*%
%ADD12R,1.700000X1.700000*%
%ADD13O,1.727200X1.727200*%
%ADD14R,1.727200X1.727200*%
%ADD15C,1.500000*%
%ADD16R,1.500000X1.500000*%
%ADD17C,0.800000*%
%ADD18C,0.250000*%
%ADD19C,0.254000*%
G04 APERTURE END LIST*
D10*
X179474000Y-116840000D03*
X179474000Y-121340000D03*
X172974000Y-116840000D03*
X172974000Y-121340000D03*
X163472000Y-116840000D03*
X163472000Y-121340000D03*
X156972000Y-116840000D03*
X156972000Y-121340000D03*
D11*
X177546000Y-72390000D03*
X177546000Y-69850000D03*
D12*
X177546000Y-67310000D03*
D11*
X171958000Y-98806000D03*
X171958000Y-101346000D03*
X171958000Y-103886000D03*
X171958000Y-106426000D03*
D12*
X171958000Y-108966000D03*
D11*
X135382000Y-88900000D03*
X135382000Y-91440000D03*
D12*
X135382000Y-93980000D03*
D11*
X126746000Y-102870000D03*
X126746000Y-105410000D03*
X126746000Y-107950000D03*
D12*
X126746000Y-110490000D03*
D11*
X167640000Y-88138000D03*
X167640000Y-85598000D03*
D12*
X167640000Y-83058000D03*
D11*
X183946800Y-94462600D03*
X181406800Y-94462600D03*
X178866800Y-94462600D03*
D12*
X176326800Y-94462600D03*
D13*
X158750000Y-101346000D03*
X161290000Y-101346000D03*
X158750000Y-103886000D03*
X161290000Y-103886000D03*
X158750000Y-106426000D03*
D14*
X161290000Y-106426000D03*
D15*
X140716000Y-71882000D03*
X141986000Y-69342000D03*
X143256000Y-71882000D03*
X144526000Y-69342000D03*
X145796000Y-71882000D03*
X147066000Y-69342000D03*
X148336000Y-71882000D03*
D16*
X149606000Y-69342000D03*
D17*
X164515800Y-89611200D03*
X165481000Y-89687400D03*
X165481000Y-84201000D03*
X164353000Y-84287600D03*
X164353000Y-86781398D03*
X165481000Y-86817200D03*
X143256000Y-93472000D03*
X143002000Y-91186000D03*
X144272000Y-91186000D03*
X144272000Y-93472000D03*
X135382000Y-84836000D03*
X146812000Y-91186000D03*
X135382000Y-105918000D03*
X136144000Y-101346000D03*
X155702000Y-94488000D03*
X147320000Y-93472000D03*
X173990000Y-75692000D03*
X173177200Y-62915800D03*
X152654000Y-97858990D03*
X142646400Y-99898198D03*
X155000000Y-112500000D03*
X155000000Y-115000000D03*
X158500000Y-115000000D03*
X158500000Y-112500000D03*
X158211116Y-110961010D03*
X154712532Y-110961010D03*
X160274000Y-92456000D03*
X161290000Y-93980000D03*
X147288000Y-106648000D03*
X148844000Y-106680000D03*
X165018601Y-105237399D03*
X164846000Y-103886000D03*
X158242000Y-93726000D03*
X162560000Y-87630000D03*
X156210000Y-89790000D03*
X156972000Y-93726000D03*
X155244800Y-91059000D03*
X162814000Y-85648800D03*
X145542000Y-92202000D03*
X140716000Y-92202000D03*
X138176000Y-98298000D03*
X142668467Y-98478380D03*
X139192000Y-97282000D03*
X143764000Y-97993200D03*
X140716000Y-96266000D03*
X145034000Y-98044000D03*
D18*
X165404800Y-89687400D02*
X165481000Y-89687400D01*
X161290000Y-93980000D02*
X160274000Y-92456000D01*
X160426401Y-102209599D02*
X161290000Y-101346000D01*
X160101399Y-102534601D02*
X160426401Y-102209599D01*
X158342269Y-102534601D02*
X160101399Y-102534601D01*
X157244870Y-103632000D02*
X158342269Y-102534601D01*
X157226000Y-103632000D02*
X157244870Y-103632000D01*
X156972000Y-103886000D02*
X157226000Y-103632000D01*
X156972000Y-116840000D02*
X156972000Y-103886000D01*
X147288000Y-106648000D02*
X148812000Y-106648000D01*
X148812000Y-106648000D02*
X148844000Y-106680000D01*
X158750000Y-103886000D02*
X160101399Y-105237399D01*
X160101399Y-105237399D02*
X165018601Y-105237399D01*
X164846000Y-103886000D02*
X162306000Y-103886000D01*
X161290000Y-103886000D02*
X162306000Y-103886000D01*
X156210000Y-90864081D02*
X157988000Y-92642081D01*
X156210000Y-89662000D02*
X156210000Y-89790000D01*
X157988000Y-93472000D02*
X158242000Y-93726000D01*
X157988000Y-92642081D02*
X157988000Y-93472000D01*
X163068000Y-88138000D02*
X167640000Y-88138000D01*
X162560000Y-87630000D02*
X163068000Y-88138000D01*
X156210000Y-89790000D02*
X156210000Y-90864081D01*
X156634000Y-93726000D02*
X156972000Y-93726000D01*
X156972000Y-93160315D02*
X155371800Y-91560115D01*
X156972000Y-93726000D02*
X156972000Y-93160315D01*
X155371800Y-91186000D02*
X155244800Y-91059000D01*
X155371800Y-91560115D02*
X155371800Y-91186000D01*
X167589200Y-85648800D02*
X167640000Y-85598000D01*
X162814000Y-85648800D02*
X167589200Y-85648800D01*
X145542000Y-92202000D02*
X140716000Y-92202000D01*
X142488087Y-98298000D02*
X142668467Y-98478380D01*
X138176000Y-98298000D02*
X142488087Y-98298000D01*
X139192000Y-97282000D02*
X143052800Y-97282000D01*
X143052800Y-97282000D02*
X143364001Y-97593201D01*
X143364001Y-97593201D02*
X143764000Y-97993200D01*
X141281990Y-96831990D02*
X143720390Y-96831990D01*
X140716000Y-96266000D02*
X141281990Y-96831990D01*
X143720390Y-96831990D02*
X144653000Y-97764600D01*
X144754600Y-97764600D02*
X145034000Y-98044000D01*
X144653000Y-97764600D02*
X144754600Y-97764600D01*
D19*
G36*
X188873000Y-59052606D02*
G01*
X188873000Y-125947394D01*
X185947394Y-128873000D01*
X119052606Y-128873000D01*
X116127000Y-125947394D01*
X116127000Y-122475413D01*
X156016192Y-122475413D01*
X156111956Y-122739814D01*
X156401571Y-122880704D01*
X156713108Y-122962384D01*
X157034595Y-122981718D01*
X157353675Y-122937961D01*
X157658088Y-122832795D01*
X157832044Y-122739814D01*
X157927808Y-122475413D01*
X162516192Y-122475413D01*
X162611956Y-122739814D01*
X162901571Y-122880704D01*
X163213108Y-122962384D01*
X163534595Y-122981718D01*
X163853675Y-122937961D01*
X164158088Y-122832795D01*
X164332044Y-122739814D01*
X164427808Y-122475413D01*
X163472000Y-121519605D01*
X162516192Y-122475413D01*
X157927808Y-122475413D01*
X156972000Y-121519605D01*
X156016192Y-122475413D01*
X116127000Y-122475413D01*
X116127000Y-121402595D01*
X155330282Y-121402595D01*
X155374039Y-121721675D01*
X155479205Y-122026088D01*
X155572186Y-122200044D01*
X155836587Y-122295808D01*
X156792395Y-121340000D01*
X157151605Y-121340000D01*
X158107413Y-122295808D01*
X158371814Y-122200044D01*
X158512704Y-121910429D01*
X158594384Y-121598892D01*
X158606189Y-121402595D01*
X161830282Y-121402595D01*
X161874039Y-121721675D01*
X161979205Y-122026088D01*
X162072186Y-122200044D01*
X162336587Y-122295808D01*
X163292395Y-121340000D01*
X163651605Y-121340000D01*
X164607413Y-122295808D01*
X164871814Y-122200044D01*
X165012704Y-121910429D01*
X165094384Y-121598892D01*
X165113718Y-121277405D01*
X165100219Y-121178967D01*
X171339000Y-121178967D01*
X171339000Y-121501033D01*
X171401832Y-121816912D01*
X171525082Y-122114463D01*
X171704013Y-122382252D01*
X171931748Y-122609987D01*
X172199537Y-122788918D01*
X172497088Y-122912168D01*
X172812967Y-122975000D01*
X173135033Y-122975000D01*
X173450912Y-122912168D01*
X173748463Y-122788918D01*
X174016252Y-122609987D01*
X174243987Y-122382252D01*
X174422918Y-122114463D01*
X174546168Y-121816912D01*
X174609000Y-121501033D01*
X174609000Y-121178967D01*
X177839000Y-121178967D01*
X177839000Y-121501033D01*
X177901832Y-121816912D01*
X178025082Y-122114463D01*
X178204013Y-122382252D01*
X178431748Y-122609987D01*
X178699537Y-122788918D01*
X178997088Y-122912168D01*
X179312967Y-122975000D01*
X179635033Y-122975000D01*
X179950912Y-122912168D01*
X180248463Y-122788918D01*
X180516252Y-122609987D01*
X180743987Y-122382252D01*
X180922918Y-122114463D01*
X181046168Y-121816912D01*
X181109000Y-121501033D01*
X181109000Y-121178967D01*
X181046168Y-120863088D01*
X180922918Y-120565537D01*
X180743987Y-120297748D01*
X180516252Y-120070013D01*
X180248463Y-119891082D01*
X179950912Y-119767832D01*
X179635033Y-119705000D01*
X179312967Y-119705000D01*
X178997088Y-119767832D01*
X178699537Y-119891082D01*
X178431748Y-120070013D01*
X178204013Y-120297748D01*
X178025082Y-120565537D01*
X177901832Y-120863088D01*
X177839000Y-121178967D01*
X174609000Y-121178967D01*
X174546168Y-120863088D01*
X174422918Y-120565537D01*
X174243987Y-120297748D01*
X174016252Y-120070013D01*
X173748463Y-119891082D01*
X173450912Y-119767832D01*
X173135033Y-119705000D01*
X172812967Y-119705000D01*
X172497088Y-119767832D01*
X172199537Y-119891082D01*
X171931748Y-120070013D01*
X171704013Y-120297748D01*
X171525082Y-120565537D01*
X171401832Y-120863088D01*
X171339000Y-121178967D01*
X165100219Y-121178967D01*
X165069961Y-120958325D01*
X164964795Y-120653912D01*
X164871814Y-120479956D01*
X164607413Y-120384192D01*
X163651605Y-121340000D01*
X163292395Y-121340000D01*
X162336587Y-120384192D01*
X162072186Y-120479956D01*
X161931296Y-120769571D01*
X161849616Y-121081108D01*
X161830282Y-121402595D01*
X158606189Y-121402595D01*
X158613718Y-121277405D01*
X158569961Y-120958325D01*
X158464795Y-120653912D01*
X158371814Y-120479956D01*
X158107413Y-120384192D01*
X157151605Y-121340000D01*
X156792395Y-121340000D01*
X155836587Y-120384192D01*
X155572186Y-120479956D01*
X155431296Y-120769571D01*
X155349616Y-121081108D01*
X155330282Y-121402595D01*
X116127000Y-121402595D01*
X116127000Y-120204587D01*
X156016192Y-120204587D01*
X156972000Y-121160395D01*
X157927808Y-120204587D01*
X162516192Y-120204587D01*
X163472000Y-121160395D01*
X164427808Y-120204587D01*
X164332044Y-119940186D01*
X164042429Y-119799296D01*
X163730892Y-119717616D01*
X163409405Y-119698282D01*
X163090325Y-119742039D01*
X162785912Y-119847205D01*
X162611956Y-119940186D01*
X162516192Y-120204587D01*
X157927808Y-120204587D01*
X157832044Y-119940186D01*
X157542429Y-119799296D01*
X157230892Y-119717616D01*
X156909405Y-119698282D01*
X156590325Y-119742039D01*
X156285912Y-119847205D01*
X156111956Y-119940186D01*
X156016192Y-120204587D01*
X116127000Y-120204587D01*
X116127000Y-116678967D01*
X155337000Y-116678967D01*
X155337000Y-117001033D01*
X155399832Y-117316912D01*
X155523082Y-117614463D01*
X155702013Y-117882252D01*
X155929748Y-118109987D01*
X156197537Y-118288918D01*
X156495088Y-118412168D01*
X156810967Y-118475000D01*
X157133033Y-118475000D01*
X157448912Y-118412168D01*
X157746463Y-118288918D01*
X158014252Y-118109987D01*
X158241987Y-117882252D01*
X158420918Y-117614463D01*
X158544168Y-117316912D01*
X158607000Y-117001033D01*
X158607000Y-116678967D01*
X161837000Y-116678967D01*
X161837000Y-117001033D01*
X161899832Y-117316912D01*
X162023082Y-117614463D01*
X162202013Y-117882252D01*
X162429748Y-118109987D01*
X162697537Y-118288918D01*
X162995088Y-118412168D01*
X163310967Y-118475000D01*
X163633033Y-118475000D01*
X163948912Y-118412168D01*
X164246463Y-118288918D01*
X164514252Y-118109987D01*
X164741987Y-117882252D01*
X164920918Y-117614463D01*
X165044168Y-117316912D01*
X165107000Y-117001033D01*
X165107000Y-116678967D01*
X171339000Y-116678967D01*
X171339000Y-117001033D01*
X171401832Y-117316912D01*
X171525082Y-117614463D01*
X171704013Y-117882252D01*
X171931748Y-118109987D01*
X172199537Y-118288918D01*
X172497088Y-118412168D01*
X172812967Y-118475000D01*
X173135033Y-118475000D01*
X173450912Y-118412168D01*
X173748463Y-118288918D01*
X174016252Y-118109987D01*
X174243987Y-117882252D01*
X174422918Y-117614463D01*
X174546168Y-117316912D01*
X174609000Y-117001033D01*
X174609000Y-116678967D01*
X177839000Y-116678967D01*
X177839000Y-117001033D01*
X177901832Y-117316912D01*
X178025082Y-117614463D01*
X178204013Y-117882252D01*
X178431748Y-118109987D01*
X178699537Y-118288918D01*
X178997088Y-118412168D01*
X179312967Y-118475000D01*
X179635033Y-118475000D01*
X179950912Y-118412168D01*
X180248463Y-118288918D01*
X180516252Y-118109987D01*
X180743987Y-117882252D01*
X180922918Y-117614463D01*
X181046168Y-117316912D01*
X181109000Y-117001033D01*
X181109000Y-116678967D01*
X181046168Y-116363088D01*
X180922918Y-116065537D01*
X180743987Y-115797748D01*
X180516252Y-115570013D01*
X180248463Y-115391082D01*
X179950912Y-115267832D01*
X179635033Y-115205000D01*
X179312967Y-115205000D01*
X178997088Y-115267832D01*
X178699537Y-115391082D01*
X178431748Y-115570013D01*
X178204013Y-115797748D01*
X178025082Y-116065537D01*
X177901832Y-116363088D01*
X177839000Y-116678967D01*
X174609000Y-116678967D01*
X174546168Y-116363088D01*
X174422918Y-116065537D01*
X174243987Y-115797748D01*
X174016252Y-115570013D01*
X173748463Y-115391082D01*
X173450912Y-115267832D01*
X173135033Y-115205000D01*
X172812967Y-115205000D01*
X172497088Y-115267832D01*
X172199537Y-115391082D01*
X171931748Y-115570013D01*
X171704013Y-115797748D01*
X171525082Y-116065537D01*
X171401832Y-116363088D01*
X171339000Y-116678967D01*
X165107000Y-116678967D01*
X165044168Y-116363088D01*
X164920918Y-116065537D01*
X164741987Y-115797748D01*
X164514252Y-115570013D01*
X164246463Y-115391082D01*
X163948912Y-115267832D01*
X163633033Y-115205000D01*
X163310967Y-115205000D01*
X162995088Y-115267832D01*
X162697537Y-115391082D01*
X162429748Y-115570013D01*
X162202013Y-115797748D01*
X162023082Y-116065537D01*
X161899832Y-116363088D01*
X161837000Y-116678967D01*
X158607000Y-116678967D01*
X158544168Y-116363088D01*
X158420918Y-116065537D01*
X158241987Y-115797748D01*
X158014252Y-115570013D01*
X157746463Y-115391082D01*
X157732000Y-115385091D01*
X157732000Y-107529202D01*
X157913394Y-107678069D01*
X158173736Y-107817225D01*
X158456223Y-107902916D01*
X158676381Y-107924600D01*
X158823619Y-107924600D01*
X159043777Y-107902916D01*
X159326264Y-107817225D01*
X159586606Y-107678069D01*
X159814797Y-107490797D01*
X159821414Y-107482735D01*
X159836898Y-107533780D01*
X159895863Y-107644094D01*
X159975215Y-107740785D01*
X160071906Y-107820137D01*
X160182220Y-107879102D01*
X160301918Y-107915412D01*
X160426400Y-107927672D01*
X162153600Y-107927672D01*
X162278082Y-107915412D01*
X162397780Y-107879102D01*
X162508094Y-107820137D01*
X162604785Y-107740785D01*
X162684137Y-107644094D01*
X162743102Y-107533780D01*
X162779412Y-107414082D01*
X162791672Y-107289600D01*
X162791672Y-105997399D01*
X164314890Y-105997399D01*
X164358827Y-106041336D01*
X164528345Y-106154604D01*
X164716703Y-106232625D01*
X164916662Y-106272399D01*
X165120540Y-106272399D01*
X165320499Y-106232625D01*
X165508857Y-106154604D01*
X165678375Y-106041336D01*
X165822538Y-105897173D01*
X165935806Y-105727655D01*
X166013827Y-105539297D01*
X166053601Y-105339338D01*
X166053601Y-105135460D01*
X166013827Y-104935501D01*
X165935806Y-104747143D01*
X165822538Y-104577625D01*
X165706313Y-104461400D01*
X165763205Y-104376256D01*
X165841226Y-104187898D01*
X165881000Y-103987939D01*
X165881000Y-103784061D01*
X165841226Y-103584102D01*
X165763205Y-103395744D01*
X165649937Y-103226226D01*
X165505774Y-103082063D01*
X165336256Y-102968795D01*
X165147898Y-102890774D01*
X164947939Y-102851000D01*
X164744061Y-102851000D01*
X164544102Y-102890774D01*
X164355744Y-102968795D01*
X164186226Y-103082063D01*
X164142289Y-103126000D01*
X162583016Y-103126000D01*
X162542069Y-103049394D01*
X162354797Y-102821203D01*
X162126606Y-102633931D01*
X162093060Y-102616000D01*
X162126606Y-102598069D01*
X162354797Y-102410797D01*
X162542069Y-102182606D01*
X162681225Y-101922264D01*
X162766916Y-101639777D01*
X162795851Y-101346000D01*
X170465815Y-101346000D01*
X170494487Y-101637111D01*
X170579401Y-101917034D01*
X170717294Y-102175014D01*
X170902866Y-102401134D01*
X171128986Y-102586706D01*
X171183791Y-102616000D01*
X171128986Y-102645294D01*
X170902866Y-102830866D01*
X170717294Y-103056986D01*
X170579401Y-103314966D01*
X170494487Y-103594889D01*
X170465815Y-103886000D01*
X170494487Y-104177111D01*
X170579401Y-104457034D01*
X170717294Y-104715014D01*
X170902866Y-104941134D01*
X171128986Y-105126706D01*
X171183791Y-105156000D01*
X171128986Y-105185294D01*
X170902866Y-105370866D01*
X170717294Y-105596986D01*
X170579401Y-105854966D01*
X170494487Y-106134889D01*
X170465815Y-106426000D01*
X170494487Y-106717111D01*
X170579401Y-106997034D01*
X170717294Y-107255014D01*
X170902866Y-107481134D01*
X170932687Y-107505607D01*
X170863820Y-107526498D01*
X170753506Y-107585463D01*
X170656815Y-107664815D01*
X170577463Y-107761506D01*
X170518498Y-107871820D01*
X170482188Y-107991518D01*
X170469928Y-108116000D01*
X170469928Y-109816000D01*
X170482188Y-109940482D01*
X170518498Y-110060180D01*
X170577463Y-110170494D01*
X170656815Y-110267185D01*
X170753506Y-110346537D01*
X170863820Y-110405502D01*
X170983518Y-110441812D01*
X171108000Y-110454072D01*
X172808000Y-110454072D01*
X172932482Y-110441812D01*
X173052180Y-110405502D01*
X173162494Y-110346537D01*
X173259185Y-110267185D01*
X173338537Y-110170494D01*
X173397502Y-110060180D01*
X173433812Y-109940482D01*
X173446072Y-109816000D01*
X173446072Y-108116000D01*
X173433812Y-107991518D01*
X173397502Y-107871820D01*
X173338537Y-107761506D01*
X173259185Y-107664815D01*
X173162494Y-107585463D01*
X173052180Y-107526498D01*
X172983313Y-107505607D01*
X173013134Y-107481134D01*
X173198706Y-107255014D01*
X173336599Y-106997034D01*
X173421513Y-106717111D01*
X173450185Y-106426000D01*
X173421513Y-106134889D01*
X173336599Y-105854966D01*
X173198706Y-105596986D01*
X173013134Y-105370866D01*
X172787014Y-105185294D01*
X172732209Y-105156000D01*
X172787014Y-105126706D01*
X173013134Y-104941134D01*
X173198706Y-104715014D01*
X173336599Y-104457034D01*
X173421513Y-104177111D01*
X173450185Y-103886000D01*
X173421513Y-103594889D01*
X173336599Y-103314966D01*
X173198706Y-103056986D01*
X173013134Y-102830866D01*
X172787014Y-102645294D01*
X172732209Y-102616000D01*
X172787014Y-102586706D01*
X173013134Y-102401134D01*
X173198706Y-102175014D01*
X173336599Y-101917034D01*
X173421513Y-101637111D01*
X173450185Y-101346000D01*
X173421513Y-101054889D01*
X173336599Y-100774966D01*
X173198706Y-100516986D01*
X173013134Y-100290866D01*
X172787014Y-100105294D01*
X172722477Y-100070799D01*
X172839355Y-100001178D01*
X173055588Y-99806269D01*
X173229641Y-99572920D01*
X173354825Y-99310099D01*
X173399476Y-99162890D01*
X173278155Y-98933000D01*
X172085000Y-98933000D01*
X172085000Y-98953000D01*
X171831000Y-98953000D01*
X171831000Y-98933000D01*
X170637845Y-98933000D01*
X170516524Y-99162890D01*
X170561175Y-99310099D01*
X170686359Y-99572920D01*
X170860412Y-99806269D01*
X171076645Y-100001178D01*
X171193523Y-100070799D01*
X171128986Y-100105294D01*
X170902866Y-100290866D01*
X170717294Y-100516986D01*
X170579401Y-100774966D01*
X170494487Y-101054889D01*
X170465815Y-101346000D01*
X162795851Y-101346000D01*
X162766916Y-101052223D01*
X162681225Y-100769736D01*
X162542069Y-100509394D01*
X162354797Y-100281203D01*
X162126606Y-100093931D01*
X161866264Y-99954775D01*
X161583777Y-99869084D01*
X161363619Y-99847400D01*
X161216381Y-99847400D01*
X160996223Y-99869084D01*
X160713736Y-99954775D01*
X160453394Y-100093931D01*
X160225203Y-100281203D01*
X160037931Y-100509394D01*
X160016530Y-100549433D01*
X159856854Y-100335707D01*
X159638488Y-100139183D01*
X159385978Y-99989036D01*
X159109027Y-99891037D01*
X158877000Y-100011536D01*
X158877000Y-101219000D01*
X158897000Y-101219000D01*
X158897000Y-101473000D01*
X158877000Y-101473000D01*
X158877000Y-101493000D01*
X158623000Y-101493000D01*
X158623000Y-101473000D01*
X157416183Y-101473000D01*
X157295042Y-101705026D01*
X157340778Y-101855814D01*
X157467316Y-102120944D01*
X157558746Y-102243323D01*
X156808854Y-102993215D01*
X156801724Y-102997026D01*
X156685999Y-103091999D01*
X156662196Y-103121003D01*
X156460998Y-103322201D01*
X156432000Y-103345999D01*
X156408202Y-103374997D01*
X156408201Y-103374998D01*
X156337026Y-103461724D01*
X156266454Y-103593754D01*
X156222998Y-103737015D01*
X156208324Y-103886000D01*
X156212001Y-103923332D01*
X156212000Y-115385091D01*
X156197537Y-115391082D01*
X155929748Y-115570013D01*
X155702013Y-115797748D01*
X155523082Y-116065537D01*
X155399832Y-116363088D01*
X155337000Y-116678967D01*
X116127000Y-116678967D01*
X116127000Y-109640000D01*
X125257928Y-109640000D01*
X125257928Y-111340000D01*
X125270188Y-111464482D01*
X125306498Y-111584180D01*
X125365463Y-111694494D01*
X125444815Y-111791185D01*
X125541506Y-111870537D01*
X125651820Y-111929502D01*
X125771518Y-111965812D01*
X125896000Y-111978072D01*
X127596000Y-111978072D01*
X127720482Y-111965812D01*
X127840180Y-111929502D01*
X127950494Y-111870537D01*
X128047185Y-111791185D01*
X128126537Y-111694494D01*
X128185502Y-111584180D01*
X128221812Y-111464482D01*
X128234072Y-111340000D01*
X128234072Y-109640000D01*
X128221812Y-109515518D01*
X128185502Y-109395820D01*
X128126537Y-109285506D01*
X128047185Y-109188815D01*
X127950494Y-109109463D01*
X127840180Y-109050498D01*
X127759534Y-109026034D01*
X127843588Y-108950269D01*
X128017641Y-108716920D01*
X128142825Y-108454099D01*
X128187476Y-108306890D01*
X128066155Y-108077000D01*
X126873000Y-108077000D01*
X126873000Y-108097000D01*
X126619000Y-108097000D01*
X126619000Y-108077000D01*
X125425845Y-108077000D01*
X125304524Y-108306890D01*
X125349175Y-108454099D01*
X125474359Y-108716920D01*
X125648412Y-108950269D01*
X125732466Y-109026034D01*
X125651820Y-109050498D01*
X125541506Y-109109463D01*
X125444815Y-109188815D01*
X125365463Y-109285506D01*
X125306498Y-109395820D01*
X125270188Y-109515518D01*
X125257928Y-109640000D01*
X116127000Y-109640000D01*
X116127000Y-102870000D01*
X125253815Y-102870000D01*
X125282487Y-103161111D01*
X125367401Y-103441034D01*
X125505294Y-103699014D01*
X125690866Y-103925134D01*
X125916986Y-104110706D01*
X125971791Y-104140000D01*
X125916986Y-104169294D01*
X125690866Y-104354866D01*
X125505294Y-104580986D01*
X125367401Y-104838966D01*
X125282487Y-105118889D01*
X125253815Y-105410000D01*
X125282487Y-105701111D01*
X125367401Y-105981034D01*
X125505294Y-106239014D01*
X125690866Y-106465134D01*
X125916986Y-106650706D01*
X125981523Y-106685201D01*
X125864645Y-106754822D01*
X125648412Y-106949731D01*
X125474359Y-107183080D01*
X125349175Y-107445901D01*
X125304524Y-107593110D01*
X125425845Y-107823000D01*
X126619000Y-107823000D01*
X126619000Y-107803000D01*
X126873000Y-107803000D01*
X126873000Y-107823000D01*
X128066155Y-107823000D01*
X128187476Y-107593110D01*
X128142825Y-107445901D01*
X128017641Y-107183080D01*
X127843588Y-106949731D01*
X127627355Y-106754822D01*
X127510477Y-106685201D01*
X127575014Y-106650706D01*
X127702524Y-106546061D01*
X146253000Y-106546061D01*
X146253000Y-106749939D01*
X146292774Y-106949898D01*
X146370795Y-107138256D01*
X146484063Y-107307774D01*
X146628226Y-107451937D01*
X146797744Y-107565205D01*
X146986102Y-107643226D01*
X147186061Y-107683000D01*
X147389939Y-107683000D01*
X147589898Y-107643226D01*
X147778256Y-107565205D01*
X147947774Y-107451937D01*
X147991711Y-107408000D01*
X148108289Y-107408000D01*
X148184226Y-107483937D01*
X148353744Y-107597205D01*
X148542102Y-107675226D01*
X148742061Y-107715000D01*
X148945939Y-107715000D01*
X149145898Y-107675226D01*
X149334256Y-107597205D01*
X149503774Y-107483937D01*
X149647937Y-107339774D01*
X149761205Y-107170256D01*
X149839226Y-106981898D01*
X149879000Y-106781939D01*
X149879000Y-106578061D01*
X149839226Y-106378102D01*
X149761205Y-106189744D01*
X149647937Y-106020226D01*
X149503774Y-105876063D01*
X149334256Y-105762795D01*
X149145898Y-105684774D01*
X148945939Y-105645000D01*
X148742061Y-105645000D01*
X148542102Y-105684774D01*
X148353744Y-105762795D01*
X148184226Y-105876063D01*
X148172289Y-105888000D01*
X147991711Y-105888000D01*
X147947774Y-105844063D01*
X147778256Y-105730795D01*
X147589898Y-105652774D01*
X147389939Y-105613000D01*
X147186061Y-105613000D01*
X146986102Y-105652774D01*
X146797744Y-105730795D01*
X146628226Y-105844063D01*
X146484063Y-105988226D01*
X146370795Y-106157744D01*
X146292774Y-106346102D01*
X146253000Y-106546061D01*
X127702524Y-106546061D01*
X127801134Y-106465134D01*
X127986706Y-106239014D01*
X128124599Y-105981034D01*
X128209513Y-105701111D01*
X128238185Y-105410000D01*
X128209513Y-105118889D01*
X128124599Y-104838966D01*
X127986706Y-104580986D01*
X127801134Y-104354866D01*
X127575014Y-104169294D01*
X127520209Y-104140000D01*
X127575014Y-104110706D01*
X127801134Y-103925134D01*
X127986706Y-103699014D01*
X128124599Y-103441034D01*
X128209513Y-103161111D01*
X128238185Y-102870000D01*
X128209513Y-102578889D01*
X128124599Y-102298966D01*
X127986706Y-102040986D01*
X127801134Y-101814866D01*
X127575014Y-101629294D01*
X127317034Y-101491401D01*
X127037111Y-101406487D01*
X126818950Y-101385000D01*
X126673050Y-101385000D01*
X126454889Y-101406487D01*
X126174966Y-101491401D01*
X125916986Y-101629294D01*
X125690866Y-101814866D01*
X125505294Y-102040986D01*
X125367401Y-102298966D01*
X125282487Y-102578889D01*
X125253815Y-102870000D01*
X116127000Y-102870000D01*
X116127000Y-100986974D01*
X157295042Y-100986974D01*
X157416183Y-101219000D01*
X158623000Y-101219000D01*
X158623000Y-100011536D01*
X158390973Y-99891037D01*
X158114022Y-99989036D01*
X157861512Y-100139183D01*
X157643146Y-100335707D01*
X157467316Y-100571056D01*
X157340778Y-100836186D01*
X157295042Y-100986974D01*
X116127000Y-100986974D01*
X116127000Y-98196061D01*
X137141000Y-98196061D01*
X137141000Y-98399939D01*
X137180774Y-98599898D01*
X137258795Y-98788256D01*
X137372063Y-98957774D01*
X137516226Y-99101937D01*
X137685744Y-99215205D01*
X137874102Y-99293226D01*
X138074061Y-99333000D01*
X138277939Y-99333000D01*
X138477898Y-99293226D01*
X138666256Y-99215205D01*
X138835774Y-99101937D01*
X138879711Y-99058000D01*
X141810973Y-99058000D01*
X141864530Y-99138154D01*
X142008693Y-99282317D01*
X142178211Y-99395585D01*
X142366569Y-99473606D01*
X142566528Y-99513380D01*
X142770406Y-99513380D01*
X142970365Y-99473606D01*
X143158723Y-99395585D01*
X143328241Y-99282317D01*
X143472404Y-99138154D01*
X143559503Y-99007800D01*
X143662061Y-99028200D01*
X143865939Y-99028200D01*
X144065898Y-98988426D01*
X144254256Y-98910405D01*
X144363620Y-98837331D01*
X144374226Y-98847937D01*
X144543744Y-98961205D01*
X144732102Y-99039226D01*
X144932061Y-99079000D01*
X145135939Y-99079000D01*
X145335898Y-99039226D01*
X145524256Y-98961205D01*
X145693774Y-98847937D01*
X145837937Y-98703774D01*
X145951205Y-98534256D01*
X145986473Y-98449110D01*
X170516524Y-98449110D01*
X170637845Y-98679000D01*
X171831000Y-98679000D01*
X171831000Y-97485186D01*
X172085000Y-97485186D01*
X172085000Y-98679000D01*
X173278155Y-98679000D01*
X173399476Y-98449110D01*
X173354825Y-98301901D01*
X173229641Y-98039080D01*
X173055588Y-97805731D01*
X172839355Y-97610822D01*
X172589252Y-97461843D01*
X172314891Y-97364519D01*
X172085000Y-97485186D01*
X171831000Y-97485186D01*
X171601109Y-97364519D01*
X171326748Y-97461843D01*
X171076645Y-97610822D01*
X170860412Y-97805731D01*
X170686359Y-98039080D01*
X170561175Y-98301901D01*
X170516524Y-98449110D01*
X145986473Y-98449110D01*
X146029226Y-98345898D01*
X146069000Y-98145939D01*
X146069000Y-97942061D01*
X146029226Y-97742102D01*
X145951205Y-97553744D01*
X145837937Y-97384226D01*
X145693774Y-97240063D01*
X145524256Y-97126795D01*
X145335898Y-97048774D01*
X145135939Y-97009000D01*
X144972202Y-97009000D01*
X144284194Y-96320992D01*
X144260391Y-96291989D01*
X144144666Y-96197016D01*
X144012637Y-96126444D01*
X143869376Y-96082987D01*
X143757723Y-96071990D01*
X143757712Y-96071990D01*
X143720390Y-96068314D01*
X143683068Y-96071990D01*
X141732686Y-96071990D01*
X141711226Y-95964102D01*
X141633205Y-95775744D01*
X141519937Y-95606226D01*
X141375774Y-95462063D01*
X141206256Y-95348795D01*
X141017898Y-95270774D01*
X140817939Y-95231000D01*
X140614061Y-95231000D01*
X140414102Y-95270774D01*
X140225744Y-95348795D01*
X140056226Y-95462063D01*
X139912063Y-95606226D01*
X139798795Y-95775744D01*
X139720774Y-95964102D01*
X139681000Y-96164061D01*
X139681000Y-96364275D01*
X139493898Y-96286774D01*
X139293939Y-96247000D01*
X139090061Y-96247000D01*
X138890102Y-96286774D01*
X138701744Y-96364795D01*
X138532226Y-96478063D01*
X138388063Y-96622226D01*
X138274795Y-96791744D01*
X138196774Y-96980102D01*
X138157000Y-97180061D01*
X138157000Y-97263000D01*
X138074061Y-97263000D01*
X137874102Y-97302774D01*
X137685744Y-97380795D01*
X137516226Y-97494063D01*
X137372063Y-97638226D01*
X137258795Y-97807744D01*
X137180774Y-97996102D01*
X137141000Y-98196061D01*
X116127000Y-98196061D01*
X116127000Y-91440000D01*
X133889815Y-91440000D01*
X133918487Y-91731111D01*
X134003401Y-92011034D01*
X134141294Y-92269014D01*
X134326866Y-92495134D01*
X134356687Y-92519607D01*
X134287820Y-92540498D01*
X134177506Y-92599463D01*
X134080815Y-92678815D01*
X134001463Y-92775506D01*
X133942498Y-92885820D01*
X133906188Y-93005518D01*
X133893928Y-93130000D01*
X133893928Y-94830000D01*
X133906188Y-94954482D01*
X133942498Y-95074180D01*
X134001463Y-95184494D01*
X134080815Y-95281185D01*
X134177506Y-95360537D01*
X134287820Y-95419502D01*
X134407518Y-95455812D01*
X134532000Y-95468072D01*
X136232000Y-95468072D01*
X136356482Y-95455812D01*
X136476180Y-95419502D01*
X136586494Y-95360537D01*
X136683185Y-95281185D01*
X136762537Y-95184494D01*
X136821502Y-95074180D01*
X136857812Y-94954482D01*
X136870072Y-94830000D01*
X136870072Y-93130000D01*
X136857812Y-93005518D01*
X136821502Y-92885820D01*
X136762537Y-92775506D01*
X136683185Y-92678815D01*
X136586494Y-92599463D01*
X136476180Y-92540498D01*
X136407313Y-92519607D01*
X136437134Y-92495134D01*
X136622706Y-92269014D01*
X136713013Y-92100061D01*
X139681000Y-92100061D01*
X139681000Y-92303939D01*
X139720774Y-92503898D01*
X139798795Y-92692256D01*
X139912063Y-92861774D01*
X140056226Y-93005937D01*
X140225744Y-93119205D01*
X140414102Y-93197226D01*
X140614061Y-93237000D01*
X140817939Y-93237000D01*
X141017898Y-93197226D01*
X141206256Y-93119205D01*
X141375774Y-93005937D01*
X141419711Y-92962000D01*
X144838289Y-92962000D01*
X144882226Y-93005937D01*
X145051744Y-93119205D01*
X145240102Y-93197226D01*
X145440061Y-93237000D01*
X145643939Y-93237000D01*
X145843898Y-93197226D01*
X146032256Y-93119205D01*
X146201774Y-93005937D01*
X146345937Y-92861774D01*
X146459205Y-92692256D01*
X146537226Y-92503898D01*
X146577000Y-92303939D01*
X146577000Y-92100061D01*
X146537226Y-91900102D01*
X146459205Y-91711744D01*
X146345937Y-91542226D01*
X146201774Y-91398063D01*
X146032256Y-91284795D01*
X145843898Y-91206774D01*
X145643939Y-91167000D01*
X145440061Y-91167000D01*
X145240102Y-91206774D01*
X145051744Y-91284795D01*
X144882226Y-91398063D01*
X144838289Y-91442000D01*
X141419711Y-91442000D01*
X141375774Y-91398063D01*
X141206256Y-91284795D01*
X141017898Y-91206774D01*
X140817939Y-91167000D01*
X140614061Y-91167000D01*
X140414102Y-91206774D01*
X140225744Y-91284795D01*
X140056226Y-91398063D01*
X139912063Y-91542226D01*
X139798795Y-91711744D01*
X139720774Y-91900102D01*
X139681000Y-92100061D01*
X136713013Y-92100061D01*
X136760599Y-92011034D01*
X136845513Y-91731111D01*
X136874185Y-91440000D01*
X136845513Y-91148889D01*
X136787323Y-90957061D01*
X154209800Y-90957061D01*
X154209800Y-91160939D01*
X154249574Y-91360898D01*
X154327595Y-91549256D01*
X154440863Y-91718774D01*
X154585026Y-91862937D01*
X154720176Y-91953241D01*
X154736826Y-91984391D01*
X154752398Y-92003365D01*
X154831799Y-92100116D01*
X154860803Y-92123919D01*
X156016867Y-93279984D01*
X155999026Y-93301724D01*
X155928454Y-93433753D01*
X155884997Y-93577014D01*
X155870323Y-93726000D01*
X155884997Y-93874986D01*
X155928454Y-94018247D01*
X155999026Y-94150276D01*
X156061896Y-94226883D01*
X156168063Y-94385774D01*
X156312226Y-94529937D01*
X156481744Y-94643205D01*
X156670102Y-94721226D01*
X156870061Y-94761000D01*
X157073939Y-94761000D01*
X157273898Y-94721226D01*
X157462256Y-94643205D01*
X157607000Y-94546490D01*
X157751744Y-94643205D01*
X157940102Y-94721226D01*
X158140061Y-94761000D01*
X158343939Y-94761000D01*
X158543898Y-94721226D01*
X158732256Y-94643205D01*
X158901774Y-94529937D01*
X159045937Y-94385774D01*
X159159205Y-94216256D01*
X159237226Y-94027898D01*
X159277000Y-93827939D01*
X159277000Y-93624061D01*
X159237226Y-93424102D01*
X159159205Y-93235744D01*
X159045937Y-93066226D01*
X158901774Y-92922063D01*
X158748000Y-92819315D01*
X158748000Y-92679406D01*
X158751676Y-92642081D01*
X158748000Y-92604756D01*
X158748000Y-92604748D01*
X158737003Y-92493095D01*
X158694829Y-92354061D01*
X159239000Y-92354061D01*
X159239000Y-92557939D01*
X159278774Y-92757898D01*
X159356795Y-92946256D01*
X159470063Y-93115774D01*
X159614226Y-93259937D01*
X159783744Y-93373205D01*
X159972102Y-93451226D01*
X160032024Y-93463145D01*
X160267325Y-93816097D01*
X160255000Y-93878061D01*
X160255000Y-94081939D01*
X160294774Y-94281898D01*
X160372795Y-94470256D01*
X160486063Y-94639774D01*
X160630226Y-94783937D01*
X160799744Y-94897205D01*
X160988102Y-94975226D01*
X161188061Y-95015000D01*
X161391939Y-95015000D01*
X161591898Y-94975226D01*
X161780256Y-94897205D01*
X161949774Y-94783937D01*
X162093937Y-94639774D01*
X162207205Y-94470256D01*
X162285226Y-94281898D01*
X162325000Y-94081939D01*
X162325000Y-93878061D01*
X162285226Y-93678102D01*
X162258094Y-93612600D01*
X174838728Y-93612600D01*
X174838728Y-95312600D01*
X174850988Y-95437082D01*
X174887298Y-95556780D01*
X174946263Y-95667094D01*
X175025615Y-95763785D01*
X175122306Y-95843137D01*
X175232620Y-95902102D01*
X175352318Y-95938412D01*
X175476800Y-95950672D01*
X177176800Y-95950672D01*
X177301282Y-95938412D01*
X177420980Y-95902102D01*
X177531294Y-95843137D01*
X177627985Y-95763785D01*
X177707337Y-95667094D01*
X177766302Y-95556780D01*
X177787193Y-95487913D01*
X177811666Y-95517734D01*
X178037786Y-95703306D01*
X178295766Y-95841199D01*
X178575689Y-95926113D01*
X178793850Y-95947600D01*
X178939750Y-95947600D01*
X179157911Y-95926113D01*
X179437834Y-95841199D01*
X179695814Y-95703306D01*
X179921934Y-95517734D01*
X180107506Y-95291614D01*
X180136800Y-95236809D01*
X180166094Y-95291614D01*
X180351666Y-95517734D01*
X180577786Y-95703306D01*
X180835766Y-95841199D01*
X181115689Y-95926113D01*
X181333850Y-95947600D01*
X181479750Y-95947600D01*
X181697911Y-95926113D01*
X181977834Y-95841199D01*
X182235814Y-95703306D01*
X182461934Y-95517734D01*
X182647506Y-95291614D01*
X182682001Y-95227077D01*
X182751622Y-95343955D01*
X182946531Y-95560188D01*
X183179880Y-95734241D01*
X183442701Y-95859425D01*
X183589910Y-95904076D01*
X183819800Y-95782755D01*
X183819800Y-94589600D01*
X184073800Y-94589600D01*
X184073800Y-95782755D01*
X184303690Y-95904076D01*
X184450899Y-95859425D01*
X184713720Y-95734241D01*
X184947069Y-95560188D01*
X185141978Y-95343955D01*
X185290957Y-95093852D01*
X185388281Y-94819491D01*
X185267614Y-94589600D01*
X184073800Y-94589600D01*
X183819800Y-94589600D01*
X183799800Y-94589600D01*
X183799800Y-94335600D01*
X183819800Y-94335600D01*
X183819800Y-93142445D01*
X184073800Y-93142445D01*
X184073800Y-94335600D01*
X185267614Y-94335600D01*
X185388281Y-94105709D01*
X185290957Y-93831348D01*
X185141978Y-93581245D01*
X184947069Y-93365012D01*
X184713720Y-93190959D01*
X184450899Y-93065775D01*
X184303690Y-93021124D01*
X184073800Y-93142445D01*
X183819800Y-93142445D01*
X183589910Y-93021124D01*
X183442701Y-93065775D01*
X183179880Y-93190959D01*
X182946531Y-93365012D01*
X182751622Y-93581245D01*
X182682001Y-93698123D01*
X182647506Y-93633586D01*
X182461934Y-93407466D01*
X182235814Y-93221894D01*
X181977834Y-93084001D01*
X181697911Y-92999087D01*
X181479750Y-92977600D01*
X181333850Y-92977600D01*
X181115689Y-92999087D01*
X180835766Y-93084001D01*
X180577786Y-93221894D01*
X180351666Y-93407466D01*
X180166094Y-93633586D01*
X180136800Y-93688391D01*
X180107506Y-93633586D01*
X179921934Y-93407466D01*
X179695814Y-93221894D01*
X179437834Y-93084001D01*
X179157911Y-92999087D01*
X178939750Y-92977600D01*
X178793850Y-92977600D01*
X178575689Y-92999087D01*
X178295766Y-93084001D01*
X178037786Y-93221894D01*
X177811666Y-93407466D01*
X177787193Y-93437287D01*
X177766302Y-93368420D01*
X177707337Y-93258106D01*
X177627985Y-93161415D01*
X177531294Y-93082063D01*
X177420980Y-93023098D01*
X177301282Y-92986788D01*
X177176800Y-92974528D01*
X175476800Y-92974528D01*
X175352318Y-92986788D01*
X175232620Y-93023098D01*
X175122306Y-93082063D01*
X175025615Y-93161415D01*
X174946263Y-93258106D01*
X174887298Y-93368420D01*
X174850988Y-93488118D01*
X174838728Y-93612600D01*
X162258094Y-93612600D01*
X162207205Y-93489744D01*
X162093937Y-93320226D01*
X161949774Y-93176063D01*
X161780256Y-93062795D01*
X161591898Y-92984774D01*
X161531976Y-92972855D01*
X161296675Y-92619903D01*
X161309000Y-92557939D01*
X161309000Y-92354061D01*
X161269226Y-92154102D01*
X161191205Y-91965744D01*
X161077937Y-91796226D01*
X160933774Y-91652063D01*
X160764256Y-91538795D01*
X160575898Y-91460774D01*
X160375939Y-91421000D01*
X160172061Y-91421000D01*
X159972102Y-91460774D01*
X159783744Y-91538795D01*
X159614226Y-91652063D01*
X159470063Y-91796226D01*
X159356795Y-91965744D01*
X159278774Y-92154102D01*
X159239000Y-92354061D01*
X158694829Y-92354061D01*
X158693546Y-92349834D01*
X158622974Y-92217805D01*
X158528001Y-92102080D01*
X158499004Y-92078283D01*
X156970000Y-90549280D01*
X156970000Y-90493711D01*
X157013937Y-90449774D01*
X157127205Y-90280256D01*
X157205226Y-90091898D01*
X157245000Y-89891939D01*
X157245000Y-89688061D01*
X157205226Y-89488102D01*
X157127205Y-89299744D01*
X157013937Y-89130226D01*
X156869774Y-88986063D01*
X156700256Y-88872795D01*
X156511898Y-88794774D01*
X156311939Y-88755000D01*
X156108061Y-88755000D01*
X155908102Y-88794774D01*
X155719744Y-88872795D01*
X155550226Y-88986063D01*
X155406063Y-89130226D01*
X155292795Y-89299744D01*
X155214774Y-89488102D01*
X155175000Y-89688061D01*
X155175000Y-89891939D01*
X155201268Y-90024000D01*
X155142861Y-90024000D01*
X154942902Y-90063774D01*
X154754544Y-90141795D01*
X154585026Y-90255063D01*
X154440863Y-90399226D01*
X154327595Y-90568744D01*
X154249574Y-90757102D01*
X154209800Y-90957061D01*
X136787323Y-90957061D01*
X136760599Y-90868966D01*
X136622706Y-90610986D01*
X136437134Y-90384866D01*
X136211014Y-90199294D01*
X136146477Y-90164799D01*
X136263355Y-90095178D01*
X136479588Y-89900269D01*
X136653641Y-89666920D01*
X136778825Y-89404099D01*
X136823476Y-89256890D01*
X136702155Y-89027000D01*
X135509000Y-89027000D01*
X135509000Y-89047000D01*
X135255000Y-89047000D01*
X135255000Y-89027000D01*
X134061845Y-89027000D01*
X133940524Y-89256890D01*
X133985175Y-89404099D01*
X134110359Y-89666920D01*
X134284412Y-89900269D01*
X134500645Y-90095178D01*
X134617523Y-90164799D01*
X134552986Y-90199294D01*
X134326866Y-90384866D01*
X134141294Y-90610986D01*
X134003401Y-90868966D01*
X133918487Y-91148889D01*
X133889815Y-91440000D01*
X116127000Y-91440000D01*
X116127000Y-88543110D01*
X133940524Y-88543110D01*
X134061845Y-88773000D01*
X135255000Y-88773000D01*
X135255000Y-87579186D01*
X135509000Y-87579186D01*
X135509000Y-88773000D01*
X136702155Y-88773000D01*
X136823476Y-88543110D01*
X136778825Y-88395901D01*
X136653641Y-88133080D01*
X136479588Y-87899731D01*
X136263355Y-87704822D01*
X136013252Y-87555843D01*
X135934934Y-87528061D01*
X161525000Y-87528061D01*
X161525000Y-87731939D01*
X161564774Y-87931898D01*
X161642795Y-88120256D01*
X161756063Y-88289774D01*
X161900226Y-88433937D01*
X162069744Y-88547205D01*
X162258102Y-88625226D01*
X162458061Y-88665000D01*
X162517329Y-88665000D01*
X162527999Y-88678001D01*
X162643724Y-88772974D01*
X162775753Y-88843546D01*
X162919014Y-88887003D01*
X163030667Y-88898000D01*
X163030676Y-88898000D01*
X163067999Y-88901676D01*
X163105322Y-88898000D01*
X166362405Y-88898000D01*
X166399294Y-88967014D01*
X166584866Y-89193134D01*
X166810986Y-89378706D01*
X167068966Y-89516599D01*
X167348889Y-89601513D01*
X167567050Y-89623000D01*
X167712950Y-89623000D01*
X167931111Y-89601513D01*
X168211034Y-89516599D01*
X168469014Y-89378706D01*
X168695134Y-89193134D01*
X168880706Y-88967014D01*
X169018599Y-88709034D01*
X169103513Y-88429111D01*
X169132185Y-88138000D01*
X169103513Y-87846889D01*
X169018599Y-87566966D01*
X168880706Y-87308986D01*
X168695134Y-87082866D01*
X168469014Y-86897294D01*
X168414209Y-86868000D01*
X168469014Y-86838706D01*
X168695134Y-86653134D01*
X168880706Y-86427014D01*
X169018599Y-86169034D01*
X169103513Y-85889111D01*
X169132185Y-85598000D01*
X169103513Y-85306889D01*
X169018599Y-85026966D01*
X168880706Y-84768986D01*
X168695134Y-84542866D01*
X168665313Y-84518393D01*
X168734180Y-84497502D01*
X168844494Y-84438537D01*
X168941185Y-84359185D01*
X169020537Y-84262494D01*
X169079502Y-84152180D01*
X169115812Y-84032482D01*
X169128072Y-83908000D01*
X169125000Y-83343750D01*
X168966250Y-83185000D01*
X167767000Y-83185000D01*
X167767000Y-83205000D01*
X167513000Y-83205000D01*
X167513000Y-83185000D01*
X166313750Y-83185000D01*
X166155000Y-83343750D01*
X166151928Y-83908000D01*
X166164188Y-84032482D01*
X166200498Y-84152180D01*
X166259463Y-84262494D01*
X166338815Y-84359185D01*
X166435506Y-84438537D01*
X166545820Y-84497502D01*
X166614687Y-84518393D01*
X166584866Y-84542866D01*
X166399294Y-84768986D01*
X166335252Y-84888800D01*
X163517711Y-84888800D01*
X163473774Y-84844863D01*
X163304256Y-84731595D01*
X163115898Y-84653574D01*
X162915939Y-84613800D01*
X162712061Y-84613800D01*
X162512102Y-84653574D01*
X162323744Y-84731595D01*
X162154226Y-84844863D01*
X162010063Y-84989026D01*
X161896795Y-85158544D01*
X161818774Y-85346902D01*
X161779000Y-85546861D01*
X161779000Y-85750739D01*
X161818774Y-85950698D01*
X161896795Y-86139056D01*
X162010063Y-86308574D01*
X162154226Y-86452737D01*
X162323744Y-86566005D01*
X162414609Y-86603643D01*
X162258102Y-86634774D01*
X162069744Y-86712795D01*
X161900226Y-86826063D01*
X161756063Y-86970226D01*
X161642795Y-87139744D01*
X161564774Y-87328102D01*
X161525000Y-87528061D01*
X135934934Y-87528061D01*
X135738891Y-87458519D01*
X135509000Y-87579186D01*
X135255000Y-87579186D01*
X135025109Y-87458519D01*
X134750748Y-87555843D01*
X134500645Y-87704822D01*
X134284412Y-87899731D01*
X134110359Y-88133080D01*
X133985175Y-88395901D01*
X133940524Y-88543110D01*
X116127000Y-88543110D01*
X116127000Y-82208000D01*
X166151928Y-82208000D01*
X166155000Y-82772250D01*
X166313750Y-82931000D01*
X167513000Y-82931000D01*
X167513000Y-81731750D01*
X167767000Y-81731750D01*
X167767000Y-82931000D01*
X168966250Y-82931000D01*
X169125000Y-82772250D01*
X169128072Y-82208000D01*
X169115812Y-82083518D01*
X169079502Y-81963820D01*
X169020537Y-81853506D01*
X168941185Y-81756815D01*
X168844494Y-81677463D01*
X168734180Y-81618498D01*
X168614482Y-81582188D01*
X168490000Y-81569928D01*
X167925750Y-81573000D01*
X167767000Y-81731750D01*
X167513000Y-81731750D01*
X167354250Y-81573000D01*
X166790000Y-81569928D01*
X166665518Y-81582188D01*
X166545820Y-81618498D01*
X166435506Y-81677463D01*
X166338815Y-81756815D01*
X166259463Y-81853506D01*
X166200498Y-81963820D01*
X166164188Y-82083518D01*
X166151928Y-82208000D01*
X116127000Y-82208000D01*
X116127000Y-72838993D01*
X139938612Y-72838993D01*
X140004137Y-73077860D01*
X140251116Y-73193760D01*
X140515960Y-73259250D01*
X140788492Y-73271812D01*
X141058238Y-73230965D01*
X141314832Y-73138277D01*
X141427863Y-73077860D01*
X141493388Y-72838993D01*
X140716000Y-72061605D01*
X139938612Y-72838993D01*
X116127000Y-72838993D01*
X116127000Y-71954492D01*
X139326188Y-71954492D01*
X139367035Y-72224238D01*
X139459723Y-72480832D01*
X139520140Y-72593863D01*
X139759007Y-72659388D01*
X140536395Y-71882000D01*
X140895605Y-71882000D01*
X141672993Y-72659388D01*
X141911860Y-72593863D01*
X141986164Y-72435523D01*
X142028629Y-72538043D01*
X142180201Y-72764886D01*
X142373114Y-72957799D01*
X142599957Y-73109371D01*
X142852011Y-73213775D01*
X143119589Y-73267000D01*
X143392411Y-73267000D01*
X143659989Y-73213775D01*
X143912043Y-73109371D01*
X144138886Y-72957799D01*
X144331799Y-72764886D01*
X144483371Y-72538043D01*
X144526000Y-72435127D01*
X144568629Y-72538043D01*
X144720201Y-72764886D01*
X144913114Y-72957799D01*
X145139957Y-73109371D01*
X145392011Y-73213775D01*
X145659589Y-73267000D01*
X145932411Y-73267000D01*
X146199989Y-73213775D01*
X146452043Y-73109371D01*
X146678886Y-72957799D01*
X146871799Y-72764886D01*
X147023371Y-72538043D01*
X147066000Y-72435127D01*
X147108629Y-72538043D01*
X147260201Y-72764886D01*
X147453114Y-72957799D01*
X147679957Y-73109371D01*
X147932011Y-73213775D01*
X148199589Y-73267000D01*
X148472411Y-73267000D01*
X148739989Y-73213775D01*
X148992043Y-73109371D01*
X149218886Y-72957799D01*
X149411799Y-72764886D01*
X149563371Y-72538043D01*
X149624692Y-72390000D01*
X176053815Y-72390000D01*
X176082487Y-72681111D01*
X176167401Y-72961034D01*
X176305294Y-73219014D01*
X176490866Y-73445134D01*
X176716986Y-73630706D01*
X176974966Y-73768599D01*
X177254889Y-73853513D01*
X177473050Y-73875000D01*
X177618950Y-73875000D01*
X177837111Y-73853513D01*
X178117034Y-73768599D01*
X178375014Y-73630706D01*
X178601134Y-73445134D01*
X178786706Y-73219014D01*
X178924599Y-72961034D01*
X179009513Y-72681111D01*
X179038185Y-72390000D01*
X179009513Y-72098889D01*
X178924599Y-71818966D01*
X178786706Y-71560986D01*
X178601134Y-71334866D01*
X178375014Y-71149294D01*
X178310477Y-71114799D01*
X178427355Y-71045178D01*
X178643588Y-70850269D01*
X178817641Y-70616920D01*
X178942825Y-70354099D01*
X178987476Y-70206890D01*
X178866155Y-69977000D01*
X177673000Y-69977000D01*
X177673000Y-69997000D01*
X177419000Y-69997000D01*
X177419000Y-69977000D01*
X176225845Y-69977000D01*
X176104524Y-70206890D01*
X176149175Y-70354099D01*
X176274359Y-70616920D01*
X176448412Y-70850269D01*
X176664645Y-71045178D01*
X176781523Y-71114799D01*
X176716986Y-71149294D01*
X176490866Y-71334866D01*
X176305294Y-71560986D01*
X176167401Y-71818966D01*
X176082487Y-72098889D01*
X176053815Y-72390000D01*
X149624692Y-72390000D01*
X149667775Y-72285989D01*
X149721000Y-72018411D01*
X149721000Y-71745589D01*
X149667775Y-71478011D01*
X149563371Y-71225957D01*
X149411799Y-70999114D01*
X149218886Y-70806201D01*
X149104951Y-70730072D01*
X150356000Y-70730072D01*
X150480482Y-70717812D01*
X150600180Y-70681502D01*
X150710494Y-70622537D01*
X150807185Y-70543185D01*
X150886537Y-70446494D01*
X150945502Y-70336180D01*
X150981812Y-70216482D01*
X150994072Y-70092000D01*
X150994072Y-68592000D01*
X150981812Y-68467518D01*
X150945502Y-68347820D01*
X150886537Y-68237506D01*
X150807185Y-68140815D01*
X150710494Y-68061463D01*
X150600180Y-68002498D01*
X150480482Y-67966188D01*
X150356000Y-67953928D01*
X148856000Y-67953928D01*
X148731518Y-67966188D01*
X148611820Y-68002498D01*
X148501506Y-68061463D01*
X148404815Y-68140815D01*
X148325463Y-68237506D01*
X148266498Y-68347820D01*
X148230188Y-68467518D01*
X148219555Y-68575483D01*
X148141799Y-68459114D01*
X147948886Y-68266201D01*
X147722043Y-68114629D01*
X147469989Y-68010225D01*
X147202411Y-67957000D01*
X146929589Y-67957000D01*
X146662011Y-68010225D01*
X146409957Y-68114629D01*
X146183114Y-68266201D01*
X145990201Y-68459114D01*
X145838629Y-68685957D01*
X145796000Y-68788873D01*
X145753371Y-68685957D01*
X145601799Y-68459114D01*
X145408886Y-68266201D01*
X145182043Y-68114629D01*
X144929989Y-68010225D01*
X144662411Y-67957000D01*
X144389589Y-67957000D01*
X144122011Y-68010225D01*
X143869957Y-68114629D01*
X143643114Y-68266201D01*
X143450201Y-68459114D01*
X143298629Y-68685957D01*
X143257489Y-68785279D01*
X143242277Y-68743168D01*
X143181860Y-68630137D01*
X142942993Y-68564612D01*
X142165605Y-69342000D01*
X142942993Y-70119388D01*
X143181860Y-70053863D01*
X143256164Y-69895523D01*
X143298629Y-69998043D01*
X143450201Y-70224886D01*
X143643114Y-70417799D01*
X143869957Y-70569371D01*
X144122011Y-70673775D01*
X144389589Y-70727000D01*
X144662411Y-70727000D01*
X144929989Y-70673775D01*
X145182043Y-70569371D01*
X145408886Y-70417799D01*
X145601799Y-70224886D01*
X145753371Y-69998043D01*
X145796000Y-69895127D01*
X145838629Y-69998043D01*
X145990201Y-70224886D01*
X146183114Y-70417799D01*
X146409957Y-70569371D01*
X146662011Y-70673775D01*
X146929589Y-70727000D01*
X147202411Y-70727000D01*
X147469989Y-70673775D01*
X147722043Y-70569371D01*
X147948886Y-70417799D01*
X148141799Y-70224886D01*
X148219555Y-70108517D01*
X148230188Y-70216482D01*
X148266498Y-70336180D01*
X148325463Y-70446494D01*
X148366912Y-70497000D01*
X148199589Y-70497000D01*
X147932011Y-70550225D01*
X147679957Y-70654629D01*
X147453114Y-70806201D01*
X147260201Y-70999114D01*
X147108629Y-71225957D01*
X147066000Y-71328873D01*
X147023371Y-71225957D01*
X146871799Y-70999114D01*
X146678886Y-70806201D01*
X146452043Y-70654629D01*
X146199989Y-70550225D01*
X145932411Y-70497000D01*
X145659589Y-70497000D01*
X145392011Y-70550225D01*
X145139957Y-70654629D01*
X144913114Y-70806201D01*
X144720201Y-70999114D01*
X144568629Y-71225957D01*
X144526000Y-71328873D01*
X144483371Y-71225957D01*
X144331799Y-70999114D01*
X144138886Y-70806201D01*
X143912043Y-70654629D01*
X143659989Y-70550225D01*
X143392411Y-70497000D01*
X143119589Y-70497000D01*
X142852011Y-70550225D01*
X142599957Y-70654629D01*
X142373114Y-70806201D01*
X142180201Y-70999114D01*
X142028629Y-71225957D01*
X141987489Y-71325279D01*
X141972277Y-71283168D01*
X141911860Y-71170137D01*
X141672993Y-71104612D01*
X140895605Y-71882000D01*
X140536395Y-71882000D01*
X139759007Y-71104612D01*
X139520140Y-71170137D01*
X139404240Y-71417116D01*
X139338750Y-71681960D01*
X139326188Y-71954492D01*
X116127000Y-71954492D01*
X116127000Y-70925007D01*
X139938612Y-70925007D01*
X140716000Y-71702395D01*
X141493388Y-70925007D01*
X141427863Y-70686140D01*
X141180884Y-70570240D01*
X140916040Y-70504750D01*
X140643508Y-70492188D01*
X140373762Y-70533035D01*
X140117168Y-70625723D01*
X140004137Y-70686140D01*
X139938612Y-70925007D01*
X116127000Y-70925007D01*
X116127000Y-70298993D01*
X141208612Y-70298993D01*
X141274137Y-70537860D01*
X141521116Y-70653760D01*
X141785960Y-70719250D01*
X142058492Y-70731812D01*
X142328238Y-70690965D01*
X142584832Y-70598277D01*
X142697863Y-70537860D01*
X142763388Y-70298993D01*
X141986000Y-69521605D01*
X141208612Y-70298993D01*
X116127000Y-70298993D01*
X116127000Y-69414492D01*
X140596188Y-69414492D01*
X140637035Y-69684238D01*
X140729723Y-69940832D01*
X140790140Y-70053863D01*
X141029007Y-70119388D01*
X141806395Y-69342000D01*
X141029007Y-68564612D01*
X140790140Y-68630137D01*
X140674240Y-68877116D01*
X140608750Y-69141960D01*
X140596188Y-69414492D01*
X116127000Y-69414492D01*
X116127000Y-68385007D01*
X141208612Y-68385007D01*
X141986000Y-69162395D01*
X142763388Y-68385007D01*
X142697863Y-68146140D01*
X142450884Y-68030240D01*
X142186040Y-67964750D01*
X141913508Y-67952188D01*
X141643762Y-67993035D01*
X141387168Y-68085723D01*
X141274137Y-68146140D01*
X141208612Y-68385007D01*
X116127000Y-68385007D01*
X116127000Y-66460000D01*
X176057928Y-66460000D01*
X176057928Y-68160000D01*
X176070188Y-68284482D01*
X176106498Y-68404180D01*
X176165463Y-68514494D01*
X176244815Y-68611185D01*
X176341506Y-68690537D01*
X176451820Y-68749502D01*
X176532466Y-68773966D01*
X176448412Y-68849731D01*
X176274359Y-69083080D01*
X176149175Y-69345901D01*
X176104524Y-69493110D01*
X176225845Y-69723000D01*
X177419000Y-69723000D01*
X177419000Y-69703000D01*
X177673000Y-69703000D01*
X177673000Y-69723000D01*
X178866155Y-69723000D01*
X178987476Y-69493110D01*
X178942825Y-69345901D01*
X178817641Y-69083080D01*
X178643588Y-68849731D01*
X178559534Y-68773966D01*
X178640180Y-68749502D01*
X178750494Y-68690537D01*
X178847185Y-68611185D01*
X178926537Y-68514494D01*
X178985502Y-68404180D01*
X179021812Y-68284482D01*
X179034072Y-68160000D01*
X179034072Y-66460000D01*
X179021812Y-66335518D01*
X178985502Y-66215820D01*
X178926537Y-66105506D01*
X178847185Y-66008815D01*
X178750494Y-65929463D01*
X178640180Y-65870498D01*
X178520482Y-65834188D01*
X178396000Y-65821928D01*
X176696000Y-65821928D01*
X176571518Y-65834188D01*
X176451820Y-65870498D01*
X176341506Y-65929463D01*
X176244815Y-66008815D01*
X176165463Y-66105506D01*
X176106498Y-66215820D01*
X176070188Y-66335518D01*
X176057928Y-66460000D01*
X116127000Y-66460000D01*
X116127000Y-62771872D01*
X137211000Y-62771872D01*
X137211000Y-63212128D01*
X137296890Y-63643925D01*
X137465369Y-64050669D01*
X137709962Y-64416729D01*
X138021271Y-64728038D01*
X138387331Y-64972631D01*
X138794075Y-65141110D01*
X139225872Y-65227000D01*
X139666128Y-65227000D01*
X140097925Y-65141110D01*
X140504669Y-64972631D01*
X140870729Y-64728038D01*
X141182038Y-64416729D01*
X141426631Y-64050669D01*
X141595110Y-63643925D01*
X141681000Y-63212128D01*
X141681000Y-62771872D01*
X148641000Y-62771872D01*
X148641000Y-63212128D01*
X148726890Y-63643925D01*
X148895369Y-64050669D01*
X149139962Y-64416729D01*
X149451271Y-64728038D01*
X149817331Y-64972631D01*
X150224075Y-65141110D01*
X150655872Y-65227000D01*
X151096128Y-65227000D01*
X151527925Y-65141110D01*
X151934669Y-64972631D01*
X152300729Y-64728038D01*
X152612038Y-64416729D01*
X152856631Y-64050669D01*
X153025110Y-63643925D01*
X153111000Y-63212128D01*
X153111000Y-62771872D01*
X153025110Y-62340075D01*
X152856631Y-61933331D01*
X152612038Y-61567271D01*
X152300729Y-61255962D01*
X151934669Y-61011369D01*
X151527925Y-60842890D01*
X151096128Y-60757000D01*
X150655872Y-60757000D01*
X150224075Y-60842890D01*
X149817331Y-61011369D01*
X149451271Y-61255962D01*
X149139962Y-61567271D01*
X148895369Y-61933331D01*
X148726890Y-62340075D01*
X148641000Y-62771872D01*
X141681000Y-62771872D01*
X141595110Y-62340075D01*
X141426631Y-61933331D01*
X141182038Y-61567271D01*
X140870729Y-61255962D01*
X140504669Y-61011369D01*
X140097925Y-60842890D01*
X139666128Y-60757000D01*
X139225872Y-60757000D01*
X138794075Y-60842890D01*
X138387331Y-61011369D01*
X138021271Y-61255962D01*
X137709962Y-61567271D01*
X137465369Y-61933331D01*
X137296890Y-62340075D01*
X137211000Y-62771872D01*
X116127000Y-62771872D01*
X116127000Y-59052606D01*
X119052606Y-56127000D01*
X185947394Y-56127000D01*
X188873000Y-59052606D01*
X188873000Y-59052606D01*
G37*
X188873000Y-59052606D02*
X188873000Y-125947394D01*
X185947394Y-128873000D01*
X119052606Y-128873000D01*
X116127000Y-125947394D01*
X116127000Y-122475413D01*
X156016192Y-122475413D01*
X156111956Y-122739814D01*
X156401571Y-122880704D01*
X156713108Y-122962384D01*
X157034595Y-122981718D01*
X157353675Y-122937961D01*
X157658088Y-122832795D01*
X157832044Y-122739814D01*
X157927808Y-122475413D01*
X162516192Y-122475413D01*
X162611956Y-122739814D01*
X162901571Y-122880704D01*
X163213108Y-122962384D01*
X163534595Y-122981718D01*
X163853675Y-122937961D01*
X164158088Y-122832795D01*
X164332044Y-122739814D01*
X164427808Y-122475413D01*
X163472000Y-121519605D01*
X162516192Y-122475413D01*
X157927808Y-122475413D01*
X156972000Y-121519605D01*
X156016192Y-122475413D01*
X116127000Y-122475413D01*
X116127000Y-121402595D01*
X155330282Y-121402595D01*
X155374039Y-121721675D01*
X155479205Y-122026088D01*
X155572186Y-122200044D01*
X155836587Y-122295808D01*
X156792395Y-121340000D01*
X157151605Y-121340000D01*
X158107413Y-122295808D01*
X158371814Y-122200044D01*
X158512704Y-121910429D01*
X158594384Y-121598892D01*
X158606189Y-121402595D01*
X161830282Y-121402595D01*
X161874039Y-121721675D01*
X161979205Y-122026088D01*
X162072186Y-122200044D01*
X162336587Y-122295808D01*
X163292395Y-121340000D01*
X163651605Y-121340000D01*
X164607413Y-122295808D01*
X164871814Y-122200044D01*
X165012704Y-121910429D01*
X165094384Y-121598892D01*
X165113718Y-121277405D01*
X165100219Y-121178967D01*
X171339000Y-121178967D01*
X171339000Y-121501033D01*
X171401832Y-121816912D01*
X171525082Y-122114463D01*
X171704013Y-122382252D01*
X171931748Y-122609987D01*
X172199537Y-122788918D01*
X172497088Y-122912168D01*
X172812967Y-122975000D01*
X173135033Y-122975000D01*
X173450912Y-122912168D01*
X173748463Y-122788918D01*
X174016252Y-122609987D01*
X174243987Y-122382252D01*
X174422918Y-122114463D01*
X174546168Y-121816912D01*
X174609000Y-121501033D01*
X174609000Y-121178967D01*
X177839000Y-121178967D01*
X177839000Y-121501033D01*
X177901832Y-121816912D01*
X178025082Y-122114463D01*
X178204013Y-122382252D01*
X178431748Y-122609987D01*
X178699537Y-122788918D01*
X178997088Y-122912168D01*
X179312967Y-122975000D01*
X179635033Y-122975000D01*
X179950912Y-122912168D01*
X180248463Y-122788918D01*
X180516252Y-122609987D01*
X180743987Y-122382252D01*
X180922918Y-122114463D01*
X181046168Y-121816912D01*
X181109000Y-121501033D01*
X181109000Y-121178967D01*
X181046168Y-120863088D01*
X180922918Y-120565537D01*
X180743987Y-120297748D01*
X180516252Y-120070013D01*
X180248463Y-119891082D01*
X179950912Y-119767832D01*
X179635033Y-119705000D01*
X179312967Y-119705000D01*
X178997088Y-119767832D01*
X178699537Y-119891082D01*
X178431748Y-120070013D01*
X178204013Y-120297748D01*
X178025082Y-120565537D01*
X177901832Y-120863088D01*
X177839000Y-121178967D01*
X174609000Y-121178967D01*
X174546168Y-120863088D01*
X174422918Y-120565537D01*
X174243987Y-120297748D01*
X174016252Y-120070013D01*
X173748463Y-119891082D01*
X173450912Y-119767832D01*
X173135033Y-119705000D01*
X172812967Y-119705000D01*
X172497088Y-119767832D01*
X172199537Y-119891082D01*
X171931748Y-120070013D01*
X171704013Y-120297748D01*
X171525082Y-120565537D01*
X171401832Y-120863088D01*
X171339000Y-121178967D01*
X165100219Y-121178967D01*
X165069961Y-120958325D01*
X164964795Y-120653912D01*
X164871814Y-120479956D01*
X164607413Y-120384192D01*
X163651605Y-121340000D01*
X163292395Y-121340000D01*
X162336587Y-120384192D01*
X162072186Y-120479956D01*
X161931296Y-120769571D01*
X161849616Y-121081108D01*
X161830282Y-121402595D01*
X158606189Y-121402595D01*
X158613718Y-121277405D01*
X158569961Y-120958325D01*
X158464795Y-120653912D01*
X158371814Y-120479956D01*
X158107413Y-120384192D01*
X157151605Y-121340000D01*
X156792395Y-121340000D01*
X155836587Y-120384192D01*
X155572186Y-120479956D01*
X155431296Y-120769571D01*
X155349616Y-121081108D01*
X155330282Y-121402595D01*
X116127000Y-121402595D01*
X116127000Y-120204587D01*
X156016192Y-120204587D01*
X156972000Y-121160395D01*
X157927808Y-120204587D01*
X162516192Y-120204587D01*
X163472000Y-121160395D01*
X164427808Y-120204587D01*
X164332044Y-119940186D01*
X164042429Y-119799296D01*
X163730892Y-119717616D01*
X163409405Y-119698282D01*
X163090325Y-119742039D01*
X162785912Y-119847205D01*
X162611956Y-119940186D01*
X162516192Y-120204587D01*
X157927808Y-120204587D01*
X157832044Y-119940186D01*
X157542429Y-119799296D01*
X157230892Y-119717616D01*
X156909405Y-119698282D01*
X156590325Y-119742039D01*
X156285912Y-119847205D01*
X156111956Y-119940186D01*
X156016192Y-120204587D01*
X116127000Y-120204587D01*
X116127000Y-116678967D01*
X155337000Y-116678967D01*
X155337000Y-117001033D01*
X155399832Y-117316912D01*
X155523082Y-117614463D01*
X155702013Y-117882252D01*
X155929748Y-118109987D01*
X156197537Y-118288918D01*
X156495088Y-118412168D01*
X156810967Y-118475000D01*
X157133033Y-118475000D01*
X157448912Y-118412168D01*
X157746463Y-118288918D01*
X158014252Y-118109987D01*
X158241987Y-117882252D01*
X158420918Y-117614463D01*
X158544168Y-117316912D01*
X158607000Y-117001033D01*
X158607000Y-116678967D01*
X161837000Y-116678967D01*
X161837000Y-117001033D01*
X161899832Y-117316912D01*
X162023082Y-117614463D01*
X162202013Y-117882252D01*
X162429748Y-118109987D01*
X162697537Y-118288918D01*
X162995088Y-118412168D01*
X163310967Y-118475000D01*
X163633033Y-118475000D01*
X163948912Y-118412168D01*
X164246463Y-118288918D01*
X164514252Y-118109987D01*
X164741987Y-117882252D01*
X164920918Y-117614463D01*
X165044168Y-117316912D01*
X165107000Y-117001033D01*
X165107000Y-116678967D01*
X171339000Y-116678967D01*
X171339000Y-117001033D01*
X171401832Y-117316912D01*
X171525082Y-117614463D01*
X171704013Y-117882252D01*
X171931748Y-118109987D01*
X172199537Y-118288918D01*
X172497088Y-118412168D01*
X172812967Y-118475000D01*
X173135033Y-118475000D01*
X173450912Y-118412168D01*
X173748463Y-118288918D01*
X174016252Y-118109987D01*
X174243987Y-117882252D01*
X174422918Y-117614463D01*
X174546168Y-117316912D01*
X174609000Y-117001033D01*
X174609000Y-116678967D01*
X177839000Y-116678967D01*
X177839000Y-117001033D01*
X177901832Y-117316912D01*
X178025082Y-117614463D01*
X178204013Y-117882252D01*
X178431748Y-118109987D01*
X178699537Y-118288918D01*
X178997088Y-118412168D01*
X179312967Y-118475000D01*
X179635033Y-118475000D01*
X179950912Y-118412168D01*
X180248463Y-118288918D01*
X180516252Y-118109987D01*
X180743987Y-117882252D01*
X180922918Y-117614463D01*
X181046168Y-117316912D01*
X181109000Y-117001033D01*
X181109000Y-116678967D01*
X181046168Y-116363088D01*
X180922918Y-116065537D01*
X180743987Y-115797748D01*
X180516252Y-115570013D01*
X180248463Y-115391082D01*
X179950912Y-115267832D01*
X179635033Y-115205000D01*
X179312967Y-115205000D01*
X178997088Y-115267832D01*
X178699537Y-115391082D01*
X178431748Y-115570013D01*
X178204013Y-115797748D01*
X178025082Y-116065537D01*
X177901832Y-116363088D01*
X177839000Y-116678967D01*
X174609000Y-116678967D01*
X174546168Y-116363088D01*
X174422918Y-116065537D01*
X174243987Y-115797748D01*
X174016252Y-115570013D01*
X173748463Y-115391082D01*
X173450912Y-115267832D01*
X173135033Y-115205000D01*
X172812967Y-115205000D01*
X172497088Y-115267832D01*
X172199537Y-115391082D01*
X171931748Y-115570013D01*
X171704013Y-115797748D01*
X171525082Y-116065537D01*
X171401832Y-116363088D01*
X171339000Y-116678967D01*
X165107000Y-116678967D01*
X165044168Y-116363088D01*
X164920918Y-116065537D01*
X164741987Y-115797748D01*
X164514252Y-115570013D01*
X164246463Y-115391082D01*
X163948912Y-115267832D01*
X163633033Y-115205000D01*
X163310967Y-115205000D01*
X162995088Y-115267832D01*
X162697537Y-115391082D01*
X162429748Y-115570013D01*
X162202013Y-115797748D01*
X162023082Y-116065537D01*
X161899832Y-116363088D01*
X161837000Y-116678967D01*
X158607000Y-116678967D01*
X158544168Y-116363088D01*
X158420918Y-116065537D01*
X158241987Y-115797748D01*
X158014252Y-115570013D01*
X157746463Y-115391082D01*
X157732000Y-115385091D01*
X157732000Y-107529202D01*
X157913394Y-107678069D01*
X158173736Y-107817225D01*
X158456223Y-107902916D01*
X158676381Y-107924600D01*
X158823619Y-107924600D01*
X159043777Y-107902916D01*
X159326264Y-107817225D01*
X159586606Y-107678069D01*
X159814797Y-107490797D01*
X159821414Y-107482735D01*
X159836898Y-107533780D01*
X159895863Y-107644094D01*
X159975215Y-107740785D01*
X160071906Y-107820137D01*
X160182220Y-107879102D01*
X160301918Y-107915412D01*
X160426400Y-107927672D01*
X162153600Y-107927672D01*
X162278082Y-107915412D01*
X162397780Y-107879102D01*
X162508094Y-107820137D01*
X162604785Y-107740785D01*
X162684137Y-107644094D01*
X162743102Y-107533780D01*
X162779412Y-107414082D01*
X162791672Y-107289600D01*
X162791672Y-105997399D01*
X164314890Y-105997399D01*
X164358827Y-106041336D01*
X164528345Y-106154604D01*
X164716703Y-106232625D01*
X164916662Y-106272399D01*
X165120540Y-106272399D01*
X165320499Y-106232625D01*
X165508857Y-106154604D01*
X165678375Y-106041336D01*
X165822538Y-105897173D01*
X165935806Y-105727655D01*
X166013827Y-105539297D01*
X166053601Y-105339338D01*
X166053601Y-105135460D01*
X166013827Y-104935501D01*
X165935806Y-104747143D01*
X165822538Y-104577625D01*
X165706313Y-104461400D01*
X165763205Y-104376256D01*
X165841226Y-104187898D01*
X165881000Y-103987939D01*
X165881000Y-103784061D01*
X165841226Y-103584102D01*
X165763205Y-103395744D01*
X165649937Y-103226226D01*
X165505774Y-103082063D01*
X165336256Y-102968795D01*
X165147898Y-102890774D01*
X164947939Y-102851000D01*
X164744061Y-102851000D01*
X164544102Y-102890774D01*
X164355744Y-102968795D01*
X164186226Y-103082063D01*
X164142289Y-103126000D01*
X162583016Y-103126000D01*
X162542069Y-103049394D01*
X162354797Y-102821203D01*
X162126606Y-102633931D01*
X162093060Y-102616000D01*
X162126606Y-102598069D01*
X162354797Y-102410797D01*
X162542069Y-102182606D01*
X162681225Y-101922264D01*
X162766916Y-101639777D01*
X162795851Y-101346000D01*
X170465815Y-101346000D01*
X170494487Y-101637111D01*
X170579401Y-101917034D01*
X170717294Y-102175014D01*
X170902866Y-102401134D01*
X171128986Y-102586706D01*
X171183791Y-102616000D01*
X171128986Y-102645294D01*
X170902866Y-102830866D01*
X170717294Y-103056986D01*
X170579401Y-103314966D01*
X170494487Y-103594889D01*
X170465815Y-103886000D01*
X170494487Y-104177111D01*
X170579401Y-104457034D01*
X170717294Y-104715014D01*
X170902866Y-104941134D01*
X171128986Y-105126706D01*
X171183791Y-105156000D01*
X171128986Y-105185294D01*
X170902866Y-105370866D01*
X170717294Y-105596986D01*
X170579401Y-105854966D01*
X170494487Y-106134889D01*
X170465815Y-106426000D01*
X170494487Y-106717111D01*
X170579401Y-106997034D01*
X170717294Y-107255014D01*
X170902866Y-107481134D01*
X170932687Y-107505607D01*
X170863820Y-107526498D01*
X170753506Y-107585463D01*
X170656815Y-107664815D01*
X170577463Y-107761506D01*
X170518498Y-107871820D01*
X170482188Y-107991518D01*
X170469928Y-108116000D01*
X170469928Y-109816000D01*
X170482188Y-109940482D01*
X170518498Y-110060180D01*
X170577463Y-110170494D01*
X170656815Y-110267185D01*
X170753506Y-110346537D01*
X170863820Y-110405502D01*
X170983518Y-110441812D01*
X171108000Y-110454072D01*
X172808000Y-110454072D01*
X172932482Y-110441812D01*
X173052180Y-110405502D01*
X173162494Y-110346537D01*
X173259185Y-110267185D01*
X173338537Y-110170494D01*
X173397502Y-110060180D01*
X173433812Y-109940482D01*
X173446072Y-109816000D01*
X173446072Y-108116000D01*
X173433812Y-107991518D01*
X173397502Y-107871820D01*
X173338537Y-107761506D01*
X173259185Y-107664815D01*
X173162494Y-107585463D01*
X173052180Y-107526498D01*
X172983313Y-107505607D01*
X173013134Y-107481134D01*
X173198706Y-107255014D01*
X173336599Y-106997034D01*
X173421513Y-106717111D01*
X173450185Y-106426000D01*
X173421513Y-106134889D01*
X173336599Y-105854966D01*
X173198706Y-105596986D01*
X173013134Y-105370866D01*
X172787014Y-105185294D01*
X172732209Y-105156000D01*
X172787014Y-105126706D01*
X173013134Y-104941134D01*
X173198706Y-104715014D01*
X173336599Y-104457034D01*
X173421513Y-104177111D01*
X173450185Y-103886000D01*
X173421513Y-103594889D01*
X173336599Y-103314966D01*
X173198706Y-103056986D01*
X173013134Y-102830866D01*
X172787014Y-102645294D01*
X172732209Y-102616000D01*
X172787014Y-102586706D01*
X173013134Y-102401134D01*
X173198706Y-102175014D01*
X173336599Y-101917034D01*
X173421513Y-101637111D01*
X173450185Y-101346000D01*
X173421513Y-101054889D01*
X173336599Y-100774966D01*
X173198706Y-100516986D01*
X173013134Y-100290866D01*
X172787014Y-100105294D01*
X172722477Y-100070799D01*
X172839355Y-100001178D01*
X173055588Y-99806269D01*
X173229641Y-99572920D01*
X173354825Y-99310099D01*
X173399476Y-99162890D01*
X173278155Y-98933000D01*
X172085000Y-98933000D01*
X172085000Y-98953000D01*
X171831000Y-98953000D01*
X171831000Y-98933000D01*
X170637845Y-98933000D01*
X170516524Y-99162890D01*
X170561175Y-99310099D01*
X170686359Y-99572920D01*
X170860412Y-99806269D01*
X171076645Y-100001178D01*
X171193523Y-100070799D01*
X171128986Y-100105294D01*
X170902866Y-100290866D01*
X170717294Y-100516986D01*
X170579401Y-100774966D01*
X170494487Y-101054889D01*
X170465815Y-101346000D01*
X162795851Y-101346000D01*
X162766916Y-101052223D01*
X162681225Y-100769736D01*
X162542069Y-100509394D01*
X162354797Y-100281203D01*
X162126606Y-100093931D01*
X161866264Y-99954775D01*
X161583777Y-99869084D01*
X161363619Y-99847400D01*
X161216381Y-99847400D01*
X160996223Y-99869084D01*
X160713736Y-99954775D01*
X160453394Y-100093931D01*
X160225203Y-100281203D01*
X160037931Y-100509394D01*
X160016530Y-100549433D01*
X159856854Y-100335707D01*
X159638488Y-100139183D01*
X159385978Y-99989036D01*
X159109027Y-99891037D01*
X158877000Y-100011536D01*
X158877000Y-101219000D01*
X158897000Y-101219000D01*
X158897000Y-101473000D01*
X158877000Y-101473000D01*
X158877000Y-101493000D01*
X158623000Y-101493000D01*
X158623000Y-101473000D01*
X157416183Y-101473000D01*
X157295042Y-101705026D01*
X157340778Y-101855814D01*
X157467316Y-102120944D01*
X157558746Y-102243323D01*
X156808854Y-102993215D01*
X156801724Y-102997026D01*
X156685999Y-103091999D01*
X156662196Y-103121003D01*
X156460998Y-103322201D01*
X156432000Y-103345999D01*
X156408202Y-103374997D01*
X156408201Y-103374998D01*
X156337026Y-103461724D01*
X156266454Y-103593754D01*
X156222998Y-103737015D01*
X156208324Y-103886000D01*
X156212001Y-103923332D01*
X156212000Y-115385091D01*
X156197537Y-115391082D01*
X155929748Y-115570013D01*
X155702013Y-115797748D01*
X155523082Y-116065537D01*
X155399832Y-116363088D01*
X155337000Y-116678967D01*
X116127000Y-116678967D01*
X116127000Y-109640000D01*
X125257928Y-109640000D01*
X125257928Y-111340000D01*
X125270188Y-111464482D01*
X125306498Y-111584180D01*
X125365463Y-111694494D01*
X125444815Y-111791185D01*
X125541506Y-111870537D01*
X125651820Y-111929502D01*
X125771518Y-111965812D01*
X125896000Y-111978072D01*
X127596000Y-111978072D01*
X127720482Y-111965812D01*
X127840180Y-111929502D01*
X127950494Y-111870537D01*
X128047185Y-111791185D01*
X128126537Y-111694494D01*
X128185502Y-111584180D01*
X128221812Y-111464482D01*
X128234072Y-111340000D01*
X128234072Y-109640000D01*
X128221812Y-109515518D01*
X128185502Y-109395820D01*
X128126537Y-109285506D01*
X128047185Y-109188815D01*
X127950494Y-109109463D01*
X127840180Y-109050498D01*
X127759534Y-109026034D01*
X127843588Y-108950269D01*
X128017641Y-108716920D01*
X128142825Y-108454099D01*
X128187476Y-108306890D01*
X128066155Y-108077000D01*
X126873000Y-108077000D01*
X126873000Y-108097000D01*
X126619000Y-108097000D01*
X126619000Y-108077000D01*
X125425845Y-108077000D01*
X125304524Y-108306890D01*
X125349175Y-108454099D01*
X125474359Y-108716920D01*
X125648412Y-108950269D01*
X125732466Y-109026034D01*
X125651820Y-109050498D01*
X125541506Y-109109463D01*
X125444815Y-109188815D01*
X125365463Y-109285506D01*
X125306498Y-109395820D01*
X125270188Y-109515518D01*
X125257928Y-109640000D01*
X116127000Y-109640000D01*
X116127000Y-102870000D01*
X125253815Y-102870000D01*
X125282487Y-103161111D01*
X125367401Y-103441034D01*
X125505294Y-103699014D01*
X125690866Y-103925134D01*
X125916986Y-104110706D01*
X125971791Y-104140000D01*
X125916986Y-104169294D01*
X125690866Y-104354866D01*
X125505294Y-104580986D01*
X125367401Y-104838966D01*
X125282487Y-105118889D01*
X125253815Y-105410000D01*
X125282487Y-105701111D01*
X125367401Y-105981034D01*
X125505294Y-106239014D01*
X125690866Y-106465134D01*
X125916986Y-106650706D01*
X125981523Y-106685201D01*
X125864645Y-106754822D01*
X125648412Y-106949731D01*
X125474359Y-107183080D01*
X125349175Y-107445901D01*
X125304524Y-107593110D01*
X125425845Y-107823000D01*
X126619000Y-107823000D01*
X126619000Y-107803000D01*
X126873000Y-107803000D01*
X126873000Y-107823000D01*
X128066155Y-107823000D01*
X128187476Y-107593110D01*
X128142825Y-107445901D01*
X128017641Y-107183080D01*
X127843588Y-106949731D01*
X127627355Y-106754822D01*
X127510477Y-106685201D01*
X127575014Y-106650706D01*
X127702524Y-106546061D01*
X146253000Y-106546061D01*
X146253000Y-106749939D01*
X146292774Y-106949898D01*
X146370795Y-107138256D01*
X146484063Y-107307774D01*
X146628226Y-107451937D01*
X146797744Y-107565205D01*
X146986102Y-107643226D01*
X147186061Y-107683000D01*
X147389939Y-107683000D01*
X147589898Y-107643226D01*
X147778256Y-107565205D01*
X147947774Y-107451937D01*
X147991711Y-107408000D01*
X148108289Y-107408000D01*
X148184226Y-107483937D01*
X148353744Y-107597205D01*
X148542102Y-107675226D01*
X148742061Y-107715000D01*
X148945939Y-107715000D01*
X149145898Y-107675226D01*
X149334256Y-107597205D01*
X149503774Y-107483937D01*
X149647937Y-107339774D01*
X149761205Y-107170256D01*
X149839226Y-106981898D01*
X149879000Y-106781939D01*
X149879000Y-106578061D01*
X149839226Y-106378102D01*
X149761205Y-106189744D01*
X149647937Y-106020226D01*
X149503774Y-105876063D01*
X149334256Y-105762795D01*
X149145898Y-105684774D01*
X148945939Y-105645000D01*
X148742061Y-105645000D01*
X148542102Y-105684774D01*
X148353744Y-105762795D01*
X148184226Y-105876063D01*
X148172289Y-105888000D01*
X147991711Y-105888000D01*
X147947774Y-105844063D01*
X147778256Y-105730795D01*
X147589898Y-105652774D01*
X147389939Y-105613000D01*
X147186061Y-105613000D01*
X146986102Y-105652774D01*
X146797744Y-105730795D01*
X146628226Y-105844063D01*
X146484063Y-105988226D01*
X146370795Y-106157744D01*
X146292774Y-106346102D01*
X146253000Y-106546061D01*
X127702524Y-106546061D01*
X127801134Y-106465134D01*
X127986706Y-106239014D01*
X128124599Y-105981034D01*
X128209513Y-105701111D01*
X128238185Y-105410000D01*
X128209513Y-105118889D01*
X128124599Y-104838966D01*
X127986706Y-104580986D01*
X127801134Y-104354866D01*
X127575014Y-104169294D01*
X127520209Y-104140000D01*
X127575014Y-104110706D01*
X127801134Y-103925134D01*
X127986706Y-103699014D01*
X128124599Y-103441034D01*
X128209513Y-103161111D01*
X128238185Y-102870000D01*
X128209513Y-102578889D01*
X128124599Y-102298966D01*
X127986706Y-102040986D01*
X127801134Y-101814866D01*
X127575014Y-101629294D01*
X127317034Y-101491401D01*
X127037111Y-101406487D01*
X126818950Y-101385000D01*
X126673050Y-101385000D01*
X126454889Y-101406487D01*
X126174966Y-101491401D01*
X125916986Y-101629294D01*
X125690866Y-101814866D01*
X125505294Y-102040986D01*
X125367401Y-102298966D01*
X125282487Y-102578889D01*
X125253815Y-102870000D01*
X116127000Y-102870000D01*
X116127000Y-100986974D01*
X157295042Y-100986974D01*
X157416183Y-101219000D01*
X158623000Y-101219000D01*
X158623000Y-100011536D01*
X158390973Y-99891037D01*
X158114022Y-99989036D01*
X157861512Y-100139183D01*
X157643146Y-100335707D01*
X157467316Y-100571056D01*
X157340778Y-100836186D01*
X157295042Y-100986974D01*
X116127000Y-100986974D01*
X116127000Y-98196061D01*
X137141000Y-98196061D01*
X137141000Y-98399939D01*
X137180774Y-98599898D01*
X137258795Y-98788256D01*
X137372063Y-98957774D01*
X137516226Y-99101937D01*
X137685744Y-99215205D01*
X137874102Y-99293226D01*
X138074061Y-99333000D01*
X138277939Y-99333000D01*
X138477898Y-99293226D01*
X138666256Y-99215205D01*
X138835774Y-99101937D01*
X138879711Y-99058000D01*
X141810973Y-99058000D01*
X141864530Y-99138154D01*
X142008693Y-99282317D01*
X142178211Y-99395585D01*
X142366569Y-99473606D01*
X142566528Y-99513380D01*
X142770406Y-99513380D01*
X142970365Y-99473606D01*
X143158723Y-99395585D01*
X143328241Y-99282317D01*
X143472404Y-99138154D01*
X143559503Y-99007800D01*
X143662061Y-99028200D01*
X143865939Y-99028200D01*
X144065898Y-98988426D01*
X144254256Y-98910405D01*
X144363620Y-98837331D01*
X144374226Y-98847937D01*
X144543744Y-98961205D01*
X144732102Y-99039226D01*
X144932061Y-99079000D01*
X145135939Y-99079000D01*
X145335898Y-99039226D01*
X145524256Y-98961205D01*
X145693774Y-98847937D01*
X145837937Y-98703774D01*
X145951205Y-98534256D01*
X145986473Y-98449110D01*
X170516524Y-98449110D01*
X170637845Y-98679000D01*
X171831000Y-98679000D01*
X171831000Y-97485186D01*
X172085000Y-97485186D01*
X172085000Y-98679000D01*
X173278155Y-98679000D01*
X173399476Y-98449110D01*
X173354825Y-98301901D01*
X173229641Y-98039080D01*
X173055588Y-97805731D01*
X172839355Y-97610822D01*
X172589252Y-97461843D01*
X172314891Y-97364519D01*
X172085000Y-97485186D01*
X171831000Y-97485186D01*
X171601109Y-97364519D01*
X171326748Y-97461843D01*
X171076645Y-97610822D01*
X170860412Y-97805731D01*
X170686359Y-98039080D01*
X170561175Y-98301901D01*
X170516524Y-98449110D01*
X145986473Y-98449110D01*
X146029226Y-98345898D01*
X146069000Y-98145939D01*
X146069000Y-97942061D01*
X146029226Y-97742102D01*
X145951205Y-97553744D01*
X145837937Y-97384226D01*
X145693774Y-97240063D01*
X145524256Y-97126795D01*
X145335898Y-97048774D01*
X145135939Y-97009000D01*
X144972202Y-97009000D01*
X144284194Y-96320992D01*
X144260391Y-96291989D01*
X144144666Y-96197016D01*
X144012637Y-96126444D01*
X143869376Y-96082987D01*
X143757723Y-96071990D01*
X143757712Y-96071990D01*
X143720390Y-96068314D01*
X143683068Y-96071990D01*
X141732686Y-96071990D01*
X141711226Y-95964102D01*
X141633205Y-95775744D01*
X141519937Y-95606226D01*
X141375774Y-95462063D01*
X141206256Y-95348795D01*
X141017898Y-95270774D01*
X140817939Y-95231000D01*
X140614061Y-95231000D01*
X140414102Y-95270774D01*
X140225744Y-95348795D01*
X140056226Y-95462063D01*
X139912063Y-95606226D01*
X139798795Y-95775744D01*
X139720774Y-95964102D01*
X139681000Y-96164061D01*
X139681000Y-96364275D01*
X139493898Y-96286774D01*
X139293939Y-96247000D01*
X139090061Y-96247000D01*
X138890102Y-96286774D01*
X138701744Y-96364795D01*
X138532226Y-96478063D01*
X138388063Y-96622226D01*
X138274795Y-96791744D01*
X138196774Y-96980102D01*
X138157000Y-97180061D01*
X138157000Y-97263000D01*
X138074061Y-97263000D01*
X137874102Y-97302774D01*
X137685744Y-97380795D01*
X137516226Y-97494063D01*
X137372063Y-97638226D01*
X137258795Y-97807744D01*
X137180774Y-97996102D01*
X137141000Y-98196061D01*
X116127000Y-98196061D01*
X116127000Y-91440000D01*
X133889815Y-91440000D01*
X133918487Y-91731111D01*
X134003401Y-92011034D01*
X134141294Y-92269014D01*
X134326866Y-92495134D01*
X134356687Y-92519607D01*
X134287820Y-92540498D01*
X134177506Y-92599463D01*
X134080815Y-92678815D01*
X134001463Y-92775506D01*
X133942498Y-92885820D01*
X133906188Y-93005518D01*
X133893928Y-93130000D01*
X133893928Y-94830000D01*
X133906188Y-94954482D01*
X133942498Y-95074180D01*
X134001463Y-95184494D01*
X134080815Y-95281185D01*
X134177506Y-95360537D01*
X134287820Y-95419502D01*
X134407518Y-95455812D01*
X134532000Y-95468072D01*
X136232000Y-95468072D01*
X136356482Y-95455812D01*
X136476180Y-95419502D01*
X136586494Y-95360537D01*
X136683185Y-95281185D01*
X136762537Y-95184494D01*
X136821502Y-95074180D01*
X136857812Y-94954482D01*
X136870072Y-94830000D01*
X136870072Y-93130000D01*
X136857812Y-93005518D01*
X136821502Y-92885820D01*
X136762537Y-92775506D01*
X136683185Y-92678815D01*
X136586494Y-92599463D01*
X136476180Y-92540498D01*
X136407313Y-92519607D01*
X136437134Y-92495134D01*
X136622706Y-92269014D01*
X136713013Y-92100061D01*
X139681000Y-92100061D01*
X139681000Y-92303939D01*
X139720774Y-92503898D01*
X139798795Y-92692256D01*
X139912063Y-92861774D01*
X140056226Y-93005937D01*
X140225744Y-93119205D01*
X140414102Y-93197226D01*
X140614061Y-93237000D01*
X140817939Y-93237000D01*
X141017898Y-93197226D01*
X141206256Y-93119205D01*
X141375774Y-93005937D01*
X141419711Y-92962000D01*
X144838289Y-92962000D01*
X144882226Y-93005937D01*
X145051744Y-93119205D01*
X145240102Y-93197226D01*
X145440061Y-93237000D01*
X145643939Y-93237000D01*
X145843898Y-93197226D01*
X146032256Y-93119205D01*
X146201774Y-93005937D01*
X146345937Y-92861774D01*
X146459205Y-92692256D01*
X146537226Y-92503898D01*
X146577000Y-92303939D01*
X146577000Y-92100061D01*
X146537226Y-91900102D01*
X146459205Y-91711744D01*
X146345937Y-91542226D01*
X146201774Y-91398063D01*
X146032256Y-91284795D01*
X145843898Y-91206774D01*
X145643939Y-91167000D01*
X145440061Y-91167000D01*
X145240102Y-91206774D01*
X145051744Y-91284795D01*
X144882226Y-91398063D01*
X144838289Y-91442000D01*
X141419711Y-91442000D01*
X141375774Y-91398063D01*
X141206256Y-91284795D01*
X141017898Y-91206774D01*
X140817939Y-91167000D01*
X140614061Y-91167000D01*
X140414102Y-91206774D01*
X140225744Y-91284795D01*
X140056226Y-91398063D01*
X139912063Y-91542226D01*
X139798795Y-91711744D01*
X139720774Y-91900102D01*
X139681000Y-92100061D01*
X136713013Y-92100061D01*
X136760599Y-92011034D01*
X136845513Y-91731111D01*
X136874185Y-91440000D01*
X136845513Y-91148889D01*
X136787323Y-90957061D01*
X154209800Y-90957061D01*
X154209800Y-91160939D01*
X154249574Y-91360898D01*
X154327595Y-91549256D01*
X154440863Y-91718774D01*
X154585026Y-91862937D01*
X154720176Y-91953241D01*
X154736826Y-91984391D01*
X154752398Y-92003365D01*
X154831799Y-92100116D01*
X154860803Y-92123919D01*
X156016867Y-93279984D01*
X155999026Y-93301724D01*
X155928454Y-93433753D01*
X155884997Y-93577014D01*
X155870323Y-93726000D01*
X155884997Y-93874986D01*
X155928454Y-94018247D01*
X155999026Y-94150276D01*
X156061896Y-94226883D01*
X156168063Y-94385774D01*
X156312226Y-94529937D01*
X156481744Y-94643205D01*
X156670102Y-94721226D01*
X156870061Y-94761000D01*
X157073939Y-94761000D01*
X157273898Y-94721226D01*
X157462256Y-94643205D01*
X157607000Y-94546490D01*
X157751744Y-94643205D01*
X157940102Y-94721226D01*
X158140061Y-94761000D01*
X158343939Y-94761000D01*
X158543898Y-94721226D01*
X158732256Y-94643205D01*
X158901774Y-94529937D01*
X159045937Y-94385774D01*
X159159205Y-94216256D01*
X159237226Y-94027898D01*
X159277000Y-93827939D01*
X159277000Y-93624061D01*
X159237226Y-93424102D01*
X159159205Y-93235744D01*
X159045937Y-93066226D01*
X158901774Y-92922063D01*
X158748000Y-92819315D01*
X158748000Y-92679406D01*
X158751676Y-92642081D01*
X158748000Y-92604756D01*
X158748000Y-92604748D01*
X158737003Y-92493095D01*
X158694829Y-92354061D01*
X159239000Y-92354061D01*
X159239000Y-92557939D01*
X159278774Y-92757898D01*
X159356795Y-92946256D01*
X159470063Y-93115774D01*
X159614226Y-93259937D01*
X159783744Y-93373205D01*
X159972102Y-93451226D01*
X160032024Y-93463145D01*
X160267325Y-93816097D01*
X160255000Y-93878061D01*
X160255000Y-94081939D01*
X160294774Y-94281898D01*
X160372795Y-94470256D01*
X160486063Y-94639774D01*
X160630226Y-94783937D01*
X160799744Y-94897205D01*
X160988102Y-94975226D01*
X161188061Y-95015000D01*
X161391939Y-95015000D01*
X161591898Y-94975226D01*
X161780256Y-94897205D01*
X161949774Y-94783937D01*
X162093937Y-94639774D01*
X162207205Y-94470256D01*
X162285226Y-94281898D01*
X162325000Y-94081939D01*
X162325000Y-93878061D01*
X162285226Y-93678102D01*
X162258094Y-93612600D01*
X174838728Y-93612600D01*
X174838728Y-95312600D01*
X174850988Y-95437082D01*
X174887298Y-95556780D01*
X174946263Y-95667094D01*
X175025615Y-95763785D01*
X175122306Y-95843137D01*
X175232620Y-95902102D01*
X175352318Y-95938412D01*
X175476800Y-95950672D01*
X177176800Y-95950672D01*
X177301282Y-95938412D01*
X177420980Y-95902102D01*
X177531294Y-95843137D01*
X177627985Y-95763785D01*
X177707337Y-95667094D01*
X177766302Y-95556780D01*
X177787193Y-95487913D01*
X177811666Y-95517734D01*
X178037786Y-95703306D01*
X178295766Y-95841199D01*
X178575689Y-95926113D01*
X178793850Y-95947600D01*
X178939750Y-95947600D01*
X179157911Y-95926113D01*
X179437834Y-95841199D01*
X179695814Y-95703306D01*
X179921934Y-95517734D01*
X180107506Y-95291614D01*
X180136800Y-95236809D01*
X180166094Y-95291614D01*
X180351666Y-95517734D01*
X180577786Y-95703306D01*
X180835766Y-95841199D01*
X181115689Y-95926113D01*
X181333850Y-95947600D01*
X181479750Y-95947600D01*
X181697911Y-95926113D01*
X181977834Y-95841199D01*
X182235814Y-95703306D01*
X182461934Y-95517734D01*
X182647506Y-95291614D01*
X182682001Y-95227077D01*
X182751622Y-95343955D01*
X182946531Y-95560188D01*
X183179880Y-95734241D01*
X183442701Y-95859425D01*
X183589910Y-95904076D01*
X183819800Y-95782755D01*
X183819800Y-94589600D01*
X184073800Y-94589600D01*
X184073800Y-95782755D01*
X184303690Y-95904076D01*
X184450899Y-95859425D01*
X184713720Y-95734241D01*
X184947069Y-95560188D01*
X185141978Y-95343955D01*
X185290957Y-95093852D01*
X185388281Y-94819491D01*
X185267614Y-94589600D01*
X184073800Y-94589600D01*
X183819800Y-94589600D01*
X183799800Y-94589600D01*
X183799800Y-94335600D01*
X183819800Y-94335600D01*
X183819800Y-93142445D01*
X184073800Y-93142445D01*
X184073800Y-94335600D01*
X185267614Y-94335600D01*
X185388281Y-94105709D01*
X185290957Y-93831348D01*
X185141978Y-93581245D01*
X184947069Y-93365012D01*
X184713720Y-93190959D01*
X184450899Y-93065775D01*
X184303690Y-93021124D01*
X184073800Y-93142445D01*
X183819800Y-93142445D01*
X183589910Y-93021124D01*
X183442701Y-93065775D01*
X183179880Y-93190959D01*
X182946531Y-93365012D01*
X182751622Y-93581245D01*
X182682001Y-93698123D01*
X182647506Y-93633586D01*
X182461934Y-93407466D01*
X182235814Y-93221894D01*
X181977834Y-93084001D01*
X181697911Y-92999087D01*
X181479750Y-92977600D01*
X181333850Y-92977600D01*
X181115689Y-92999087D01*
X180835766Y-93084001D01*
X180577786Y-93221894D01*
X180351666Y-93407466D01*
X180166094Y-93633586D01*
X180136800Y-93688391D01*
X180107506Y-93633586D01*
X179921934Y-93407466D01*
X179695814Y-93221894D01*
X179437834Y-93084001D01*
X179157911Y-92999087D01*
X178939750Y-92977600D01*
X178793850Y-92977600D01*
X178575689Y-92999087D01*
X178295766Y-93084001D01*
X178037786Y-93221894D01*
X177811666Y-93407466D01*
X177787193Y-93437287D01*
X177766302Y-93368420D01*
X177707337Y-93258106D01*
X177627985Y-93161415D01*
X177531294Y-93082063D01*
X177420980Y-93023098D01*
X177301282Y-92986788D01*
X177176800Y-92974528D01*
X175476800Y-92974528D01*
X175352318Y-92986788D01*
X175232620Y-93023098D01*
X175122306Y-93082063D01*
X175025615Y-93161415D01*
X174946263Y-93258106D01*
X174887298Y-93368420D01*
X174850988Y-93488118D01*
X174838728Y-93612600D01*
X162258094Y-93612600D01*
X162207205Y-93489744D01*
X162093937Y-93320226D01*
X161949774Y-93176063D01*
X161780256Y-93062795D01*
X161591898Y-92984774D01*
X161531976Y-92972855D01*
X161296675Y-92619903D01*
X161309000Y-92557939D01*
X161309000Y-92354061D01*
X161269226Y-92154102D01*
X161191205Y-91965744D01*
X161077937Y-91796226D01*
X160933774Y-91652063D01*
X160764256Y-91538795D01*
X160575898Y-91460774D01*
X160375939Y-91421000D01*
X160172061Y-91421000D01*
X159972102Y-91460774D01*
X159783744Y-91538795D01*
X159614226Y-91652063D01*
X159470063Y-91796226D01*
X159356795Y-91965744D01*
X159278774Y-92154102D01*
X159239000Y-92354061D01*
X158694829Y-92354061D01*
X158693546Y-92349834D01*
X158622974Y-92217805D01*
X158528001Y-92102080D01*
X158499004Y-92078283D01*
X156970000Y-90549280D01*
X156970000Y-90493711D01*
X157013937Y-90449774D01*
X157127205Y-90280256D01*
X157205226Y-90091898D01*
X157245000Y-89891939D01*
X157245000Y-89688061D01*
X157205226Y-89488102D01*
X157127205Y-89299744D01*
X157013937Y-89130226D01*
X156869774Y-88986063D01*
X156700256Y-88872795D01*
X156511898Y-88794774D01*
X156311939Y-88755000D01*
X156108061Y-88755000D01*
X155908102Y-88794774D01*
X155719744Y-88872795D01*
X155550226Y-88986063D01*
X155406063Y-89130226D01*
X155292795Y-89299744D01*
X155214774Y-89488102D01*
X155175000Y-89688061D01*
X155175000Y-89891939D01*
X155201268Y-90024000D01*
X155142861Y-90024000D01*
X154942902Y-90063774D01*
X154754544Y-90141795D01*
X154585026Y-90255063D01*
X154440863Y-90399226D01*
X154327595Y-90568744D01*
X154249574Y-90757102D01*
X154209800Y-90957061D01*
X136787323Y-90957061D01*
X136760599Y-90868966D01*
X136622706Y-90610986D01*
X136437134Y-90384866D01*
X136211014Y-90199294D01*
X136146477Y-90164799D01*
X136263355Y-90095178D01*
X136479588Y-89900269D01*
X136653641Y-89666920D01*
X136778825Y-89404099D01*
X136823476Y-89256890D01*
X136702155Y-89027000D01*
X135509000Y-89027000D01*
X135509000Y-89047000D01*
X135255000Y-89047000D01*
X135255000Y-89027000D01*
X134061845Y-89027000D01*
X133940524Y-89256890D01*
X133985175Y-89404099D01*
X134110359Y-89666920D01*
X134284412Y-89900269D01*
X134500645Y-90095178D01*
X134617523Y-90164799D01*
X134552986Y-90199294D01*
X134326866Y-90384866D01*
X134141294Y-90610986D01*
X134003401Y-90868966D01*
X133918487Y-91148889D01*
X133889815Y-91440000D01*
X116127000Y-91440000D01*
X116127000Y-88543110D01*
X133940524Y-88543110D01*
X134061845Y-88773000D01*
X135255000Y-88773000D01*
X135255000Y-87579186D01*
X135509000Y-87579186D01*
X135509000Y-88773000D01*
X136702155Y-88773000D01*
X136823476Y-88543110D01*
X136778825Y-88395901D01*
X136653641Y-88133080D01*
X136479588Y-87899731D01*
X136263355Y-87704822D01*
X136013252Y-87555843D01*
X135934934Y-87528061D01*
X161525000Y-87528061D01*
X161525000Y-87731939D01*
X161564774Y-87931898D01*
X161642795Y-88120256D01*
X161756063Y-88289774D01*
X161900226Y-88433937D01*
X162069744Y-88547205D01*
X162258102Y-88625226D01*
X162458061Y-88665000D01*
X162517329Y-88665000D01*
X162527999Y-88678001D01*
X162643724Y-88772974D01*
X162775753Y-88843546D01*
X162919014Y-88887003D01*
X163030667Y-88898000D01*
X163030676Y-88898000D01*
X163067999Y-88901676D01*
X163105322Y-88898000D01*
X166362405Y-88898000D01*
X166399294Y-88967014D01*
X166584866Y-89193134D01*
X166810986Y-89378706D01*
X167068966Y-89516599D01*
X167348889Y-89601513D01*
X167567050Y-89623000D01*
X167712950Y-89623000D01*
X167931111Y-89601513D01*
X168211034Y-89516599D01*
X168469014Y-89378706D01*
X168695134Y-89193134D01*
X168880706Y-88967014D01*
X169018599Y-88709034D01*
X169103513Y-88429111D01*
X169132185Y-88138000D01*
X169103513Y-87846889D01*
X169018599Y-87566966D01*
X168880706Y-87308986D01*
X168695134Y-87082866D01*
X168469014Y-86897294D01*
X168414209Y-86868000D01*
X168469014Y-86838706D01*
X168695134Y-86653134D01*
X168880706Y-86427014D01*
X169018599Y-86169034D01*
X169103513Y-85889111D01*
X169132185Y-85598000D01*
X169103513Y-85306889D01*
X169018599Y-85026966D01*
X168880706Y-84768986D01*
X168695134Y-84542866D01*
X168665313Y-84518393D01*
X168734180Y-84497502D01*
X168844494Y-84438537D01*
X168941185Y-84359185D01*
X169020537Y-84262494D01*
X169079502Y-84152180D01*
X169115812Y-84032482D01*
X169128072Y-83908000D01*
X169125000Y-83343750D01*
X168966250Y-83185000D01*
X167767000Y-83185000D01*
X167767000Y-83205000D01*
X167513000Y-83205000D01*
X167513000Y-83185000D01*
X166313750Y-83185000D01*
X166155000Y-83343750D01*
X166151928Y-83908000D01*
X166164188Y-84032482D01*
X166200498Y-84152180D01*
X166259463Y-84262494D01*
X166338815Y-84359185D01*
X166435506Y-84438537D01*
X166545820Y-84497502D01*
X166614687Y-84518393D01*
X166584866Y-84542866D01*
X166399294Y-84768986D01*
X166335252Y-84888800D01*
X163517711Y-84888800D01*
X163473774Y-84844863D01*
X163304256Y-84731595D01*
X163115898Y-84653574D01*
X162915939Y-84613800D01*
X162712061Y-84613800D01*
X162512102Y-84653574D01*
X162323744Y-84731595D01*
X162154226Y-84844863D01*
X162010063Y-84989026D01*
X161896795Y-85158544D01*
X161818774Y-85346902D01*
X161779000Y-85546861D01*
X161779000Y-85750739D01*
X161818774Y-85950698D01*
X161896795Y-86139056D01*
X162010063Y-86308574D01*
X162154226Y-86452737D01*
X162323744Y-86566005D01*
X162414609Y-86603643D01*
X162258102Y-86634774D01*
X162069744Y-86712795D01*
X161900226Y-86826063D01*
X161756063Y-86970226D01*
X161642795Y-87139744D01*
X161564774Y-87328102D01*
X161525000Y-87528061D01*
X135934934Y-87528061D01*
X135738891Y-87458519D01*
X135509000Y-87579186D01*
X135255000Y-87579186D01*
X135025109Y-87458519D01*
X134750748Y-87555843D01*
X134500645Y-87704822D01*
X134284412Y-87899731D01*
X134110359Y-88133080D01*
X133985175Y-88395901D01*
X133940524Y-88543110D01*
X116127000Y-88543110D01*
X116127000Y-82208000D01*
X166151928Y-82208000D01*
X166155000Y-82772250D01*
X166313750Y-82931000D01*
X167513000Y-82931000D01*
X167513000Y-81731750D01*
X167767000Y-81731750D01*
X167767000Y-82931000D01*
X168966250Y-82931000D01*
X169125000Y-82772250D01*
X169128072Y-82208000D01*
X169115812Y-82083518D01*
X169079502Y-81963820D01*
X169020537Y-81853506D01*
X168941185Y-81756815D01*
X168844494Y-81677463D01*
X168734180Y-81618498D01*
X168614482Y-81582188D01*
X168490000Y-81569928D01*
X167925750Y-81573000D01*
X167767000Y-81731750D01*
X167513000Y-81731750D01*
X167354250Y-81573000D01*
X166790000Y-81569928D01*
X166665518Y-81582188D01*
X166545820Y-81618498D01*
X166435506Y-81677463D01*
X166338815Y-81756815D01*
X166259463Y-81853506D01*
X166200498Y-81963820D01*
X166164188Y-82083518D01*
X166151928Y-82208000D01*
X116127000Y-82208000D01*
X116127000Y-72838993D01*
X139938612Y-72838993D01*
X140004137Y-73077860D01*
X140251116Y-73193760D01*
X140515960Y-73259250D01*
X140788492Y-73271812D01*
X141058238Y-73230965D01*
X141314832Y-73138277D01*
X141427863Y-73077860D01*
X141493388Y-72838993D01*
X140716000Y-72061605D01*
X139938612Y-72838993D01*
X116127000Y-72838993D01*
X116127000Y-71954492D01*
X139326188Y-71954492D01*
X139367035Y-72224238D01*
X139459723Y-72480832D01*
X139520140Y-72593863D01*
X139759007Y-72659388D01*
X140536395Y-71882000D01*
X140895605Y-71882000D01*
X141672993Y-72659388D01*
X141911860Y-72593863D01*
X141986164Y-72435523D01*
X142028629Y-72538043D01*
X142180201Y-72764886D01*
X142373114Y-72957799D01*
X142599957Y-73109371D01*
X142852011Y-73213775D01*
X143119589Y-73267000D01*
X143392411Y-73267000D01*
X143659989Y-73213775D01*
X143912043Y-73109371D01*
X144138886Y-72957799D01*
X144331799Y-72764886D01*
X144483371Y-72538043D01*
X144526000Y-72435127D01*
X144568629Y-72538043D01*
X144720201Y-72764886D01*
X144913114Y-72957799D01*
X145139957Y-73109371D01*
X145392011Y-73213775D01*
X145659589Y-73267000D01*
X145932411Y-73267000D01*
X146199989Y-73213775D01*
X146452043Y-73109371D01*
X146678886Y-72957799D01*
X146871799Y-72764886D01*
X147023371Y-72538043D01*
X147066000Y-72435127D01*
X147108629Y-72538043D01*
X147260201Y-72764886D01*
X147453114Y-72957799D01*
X147679957Y-73109371D01*
X147932011Y-73213775D01*
X148199589Y-73267000D01*
X148472411Y-73267000D01*
X148739989Y-73213775D01*
X148992043Y-73109371D01*
X149218886Y-72957799D01*
X149411799Y-72764886D01*
X149563371Y-72538043D01*
X149624692Y-72390000D01*
X176053815Y-72390000D01*
X176082487Y-72681111D01*
X176167401Y-72961034D01*
X176305294Y-73219014D01*
X176490866Y-73445134D01*
X176716986Y-73630706D01*
X176974966Y-73768599D01*
X177254889Y-73853513D01*
X177473050Y-73875000D01*
X177618950Y-73875000D01*
X177837111Y-73853513D01*
X178117034Y-73768599D01*
X178375014Y-73630706D01*
X178601134Y-73445134D01*
X178786706Y-73219014D01*
X178924599Y-72961034D01*
X179009513Y-72681111D01*
X179038185Y-72390000D01*
X179009513Y-72098889D01*
X178924599Y-71818966D01*
X178786706Y-71560986D01*
X178601134Y-71334866D01*
X178375014Y-71149294D01*
X178310477Y-71114799D01*
X178427355Y-71045178D01*
X178643588Y-70850269D01*
X178817641Y-70616920D01*
X178942825Y-70354099D01*
X178987476Y-70206890D01*
X178866155Y-69977000D01*
X177673000Y-69977000D01*
X177673000Y-69997000D01*
X177419000Y-69997000D01*
X177419000Y-69977000D01*
X176225845Y-69977000D01*
X176104524Y-70206890D01*
X176149175Y-70354099D01*
X176274359Y-70616920D01*
X176448412Y-70850269D01*
X176664645Y-71045178D01*
X176781523Y-71114799D01*
X176716986Y-71149294D01*
X176490866Y-71334866D01*
X176305294Y-71560986D01*
X176167401Y-71818966D01*
X176082487Y-72098889D01*
X176053815Y-72390000D01*
X149624692Y-72390000D01*
X149667775Y-72285989D01*
X149721000Y-72018411D01*
X149721000Y-71745589D01*
X149667775Y-71478011D01*
X149563371Y-71225957D01*
X149411799Y-70999114D01*
X149218886Y-70806201D01*
X149104951Y-70730072D01*
X150356000Y-70730072D01*
X150480482Y-70717812D01*
X150600180Y-70681502D01*
X150710494Y-70622537D01*
X150807185Y-70543185D01*
X150886537Y-70446494D01*
X150945502Y-70336180D01*
X150981812Y-70216482D01*
X150994072Y-70092000D01*
X150994072Y-68592000D01*
X150981812Y-68467518D01*
X150945502Y-68347820D01*
X150886537Y-68237506D01*
X150807185Y-68140815D01*
X150710494Y-68061463D01*
X150600180Y-68002498D01*
X150480482Y-67966188D01*
X150356000Y-67953928D01*
X148856000Y-67953928D01*
X148731518Y-67966188D01*
X148611820Y-68002498D01*
X148501506Y-68061463D01*
X148404815Y-68140815D01*
X148325463Y-68237506D01*
X148266498Y-68347820D01*
X148230188Y-68467518D01*
X148219555Y-68575483D01*
X148141799Y-68459114D01*
X147948886Y-68266201D01*
X147722043Y-68114629D01*
X147469989Y-68010225D01*
X147202411Y-67957000D01*
X146929589Y-67957000D01*
X146662011Y-68010225D01*
X146409957Y-68114629D01*
X146183114Y-68266201D01*
X145990201Y-68459114D01*
X145838629Y-68685957D01*
X145796000Y-68788873D01*
X145753371Y-68685957D01*
X145601799Y-68459114D01*
X145408886Y-68266201D01*
X145182043Y-68114629D01*
X144929989Y-68010225D01*
X144662411Y-67957000D01*
X144389589Y-67957000D01*
X144122011Y-68010225D01*
X143869957Y-68114629D01*
X143643114Y-68266201D01*
X143450201Y-68459114D01*
X143298629Y-68685957D01*
X143257489Y-68785279D01*
X143242277Y-68743168D01*
X143181860Y-68630137D01*
X142942993Y-68564612D01*
X142165605Y-69342000D01*
X142942993Y-70119388D01*
X143181860Y-70053863D01*
X143256164Y-69895523D01*
X143298629Y-69998043D01*
X143450201Y-70224886D01*
X143643114Y-70417799D01*
X143869957Y-70569371D01*
X144122011Y-70673775D01*
X144389589Y-70727000D01*
X144662411Y-70727000D01*
X144929989Y-70673775D01*
X145182043Y-70569371D01*
X145408886Y-70417799D01*
X145601799Y-70224886D01*
X145753371Y-69998043D01*
X145796000Y-69895127D01*
X145838629Y-69998043D01*
X145990201Y-70224886D01*
X146183114Y-70417799D01*
X146409957Y-70569371D01*
X146662011Y-70673775D01*
X146929589Y-70727000D01*
X147202411Y-70727000D01*
X147469989Y-70673775D01*
X147722043Y-70569371D01*
X147948886Y-70417799D01*
X148141799Y-70224886D01*
X148219555Y-70108517D01*
X148230188Y-70216482D01*
X148266498Y-70336180D01*
X148325463Y-70446494D01*
X148366912Y-70497000D01*
X148199589Y-70497000D01*
X147932011Y-70550225D01*
X147679957Y-70654629D01*
X147453114Y-70806201D01*
X147260201Y-70999114D01*
X147108629Y-71225957D01*
X147066000Y-71328873D01*
X147023371Y-71225957D01*
X146871799Y-70999114D01*
X146678886Y-70806201D01*
X146452043Y-70654629D01*
X146199989Y-70550225D01*
X145932411Y-70497000D01*
X145659589Y-70497000D01*
X145392011Y-70550225D01*
X145139957Y-70654629D01*
X144913114Y-70806201D01*
X144720201Y-70999114D01*
X144568629Y-71225957D01*
X144526000Y-71328873D01*
X144483371Y-71225957D01*
X144331799Y-70999114D01*
X144138886Y-70806201D01*
X143912043Y-70654629D01*
X143659989Y-70550225D01*
X143392411Y-70497000D01*
X143119589Y-70497000D01*
X142852011Y-70550225D01*
X142599957Y-70654629D01*
X142373114Y-70806201D01*
X142180201Y-70999114D01*
X142028629Y-71225957D01*
X141987489Y-71325279D01*
X141972277Y-71283168D01*
X141911860Y-71170137D01*
X141672993Y-71104612D01*
X140895605Y-71882000D01*
X140536395Y-71882000D01*
X139759007Y-71104612D01*
X139520140Y-71170137D01*
X139404240Y-71417116D01*
X139338750Y-71681960D01*
X139326188Y-71954492D01*
X116127000Y-71954492D01*
X116127000Y-70925007D01*
X139938612Y-70925007D01*
X140716000Y-71702395D01*
X141493388Y-70925007D01*
X141427863Y-70686140D01*
X141180884Y-70570240D01*
X140916040Y-70504750D01*
X140643508Y-70492188D01*
X140373762Y-70533035D01*
X140117168Y-70625723D01*
X140004137Y-70686140D01*
X139938612Y-70925007D01*
X116127000Y-70925007D01*
X116127000Y-70298993D01*
X141208612Y-70298993D01*
X141274137Y-70537860D01*
X141521116Y-70653760D01*
X141785960Y-70719250D01*
X142058492Y-70731812D01*
X142328238Y-70690965D01*
X142584832Y-70598277D01*
X142697863Y-70537860D01*
X142763388Y-70298993D01*
X141986000Y-69521605D01*
X141208612Y-70298993D01*
X116127000Y-70298993D01*
X116127000Y-69414492D01*
X140596188Y-69414492D01*
X140637035Y-69684238D01*
X140729723Y-69940832D01*
X140790140Y-70053863D01*
X141029007Y-70119388D01*
X141806395Y-69342000D01*
X141029007Y-68564612D01*
X140790140Y-68630137D01*
X140674240Y-68877116D01*
X140608750Y-69141960D01*
X140596188Y-69414492D01*
X116127000Y-69414492D01*
X116127000Y-68385007D01*
X141208612Y-68385007D01*
X141986000Y-69162395D01*
X142763388Y-68385007D01*
X142697863Y-68146140D01*
X142450884Y-68030240D01*
X142186040Y-67964750D01*
X141913508Y-67952188D01*
X141643762Y-67993035D01*
X141387168Y-68085723D01*
X141274137Y-68146140D01*
X141208612Y-68385007D01*
X116127000Y-68385007D01*
X116127000Y-66460000D01*
X176057928Y-66460000D01*
X176057928Y-68160000D01*
X176070188Y-68284482D01*
X176106498Y-68404180D01*
X176165463Y-68514494D01*
X176244815Y-68611185D01*
X176341506Y-68690537D01*
X176451820Y-68749502D01*
X176532466Y-68773966D01*
X176448412Y-68849731D01*
X176274359Y-69083080D01*
X176149175Y-69345901D01*
X176104524Y-69493110D01*
X176225845Y-69723000D01*
X177419000Y-69723000D01*
X177419000Y-69703000D01*
X177673000Y-69703000D01*
X177673000Y-69723000D01*
X178866155Y-69723000D01*
X178987476Y-69493110D01*
X178942825Y-69345901D01*
X178817641Y-69083080D01*
X178643588Y-68849731D01*
X178559534Y-68773966D01*
X178640180Y-68749502D01*
X178750494Y-68690537D01*
X178847185Y-68611185D01*
X178926537Y-68514494D01*
X178985502Y-68404180D01*
X179021812Y-68284482D01*
X179034072Y-68160000D01*
X179034072Y-66460000D01*
X179021812Y-66335518D01*
X178985502Y-66215820D01*
X178926537Y-66105506D01*
X178847185Y-66008815D01*
X178750494Y-65929463D01*
X178640180Y-65870498D01*
X178520482Y-65834188D01*
X178396000Y-65821928D01*
X176696000Y-65821928D01*
X176571518Y-65834188D01*
X176451820Y-65870498D01*
X176341506Y-65929463D01*
X176244815Y-66008815D01*
X176165463Y-66105506D01*
X176106498Y-66215820D01*
X176070188Y-66335518D01*
X176057928Y-66460000D01*
X116127000Y-66460000D01*
X116127000Y-62771872D01*
X137211000Y-62771872D01*
X137211000Y-63212128D01*
X137296890Y-63643925D01*
X137465369Y-64050669D01*
X137709962Y-64416729D01*
X138021271Y-64728038D01*
X138387331Y-64972631D01*
X138794075Y-65141110D01*
X139225872Y-65227000D01*
X139666128Y-65227000D01*
X140097925Y-65141110D01*
X140504669Y-64972631D01*
X140870729Y-64728038D01*
X141182038Y-64416729D01*
X141426631Y-64050669D01*
X141595110Y-63643925D01*
X141681000Y-63212128D01*
X141681000Y-62771872D01*
X148641000Y-62771872D01*
X148641000Y-63212128D01*
X148726890Y-63643925D01*
X148895369Y-64050669D01*
X149139962Y-64416729D01*
X149451271Y-64728038D01*
X149817331Y-64972631D01*
X150224075Y-65141110D01*
X150655872Y-65227000D01*
X151096128Y-65227000D01*
X151527925Y-65141110D01*
X151934669Y-64972631D01*
X152300729Y-64728038D01*
X152612038Y-64416729D01*
X152856631Y-64050669D01*
X153025110Y-63643925D01*
X153111000Y-63212128D01*
X153111000Y-62771872D01*
X153025110Y-62340075D01*
X152856631Y-61933331D01*
X152612038Y-61567271D01*
X152300729Y-61255962D01*
X151934669Y-61011369D01*
X151527925Y-60842890D01*
X151096128Y-60757000D01*
X150655872Y-60757000D01*
X150224075Y-60842890D01*
X149817331Y-61011369D01*
X149451271Y-61255962D01*
X149139962Y-61567271D01*
X148895369Y-61933331D01*
X148726890Y-62340075D01*
X148641000Y-62771872D01*
X141681000Y-62771872D01*
X141595110Y-62340075D01*
X141426631Y-61933331D01*
X141182038Y-61567271D01*
X140870729Y-61255962D01*
X140504669Y-61011369D01*
X140097925Y-60842890D01*
X139666128Y-60757000D01*
X139225872Y-60757000D01*
X138794075Y-60842890D01*
X138387331Y-61011369D01*
X138021271Y-61255962D01*
X137709962Y-61567271D01*
X137465369Y-61933331D01*
X137296890Y-62340075D01*
X137211000Y-62771872D01*
X116127000Y-62771872D01*
X116127000Y-59052606D01*
X119052606Y-56127000D01*
X185947394Y-56127000D01*
X188873000Y-59052606D01*
G36*
X166399294Y-86427014D02*
G01*
X166584866Y-86653134D01*
X166810986Y-86838706D01*
X166865791Y-86868000D01*
X166810986Y-86897294D01*
X166584866Y-87082866D01*
X166399294Y-87308986D01*
X166362405Y-87378000D01*
X163565151Y-87378000D01*
X163555226Y-87328102D01*
X163477205Y-87139744D01*
X163363937Y-86970226D01*
X163219774Y-86826063D01*
X163050256Y-86712795D01*
X162959391Y-86675157D01*
X163115898Y-86644026D01*
X163304256Y-86566005D01*
X163473774Y-86452737D01*
X163517711Y-86408800D01*
X166389558Y-86408800D01*
X166399294Y-86427014D01*
X166399294Y-86427014D01*
G37*
X166399294Y-86427014D02*
X166584866Y-86653134D01*
X166810986Y-86838706D01*
X166865791Y-86868000D01*
X166810986Y-86897294D01*
X166584866Y-87082866D01*
X166399294Y-87308986D01*
X166362405Y-87378000D01*
X163565151Y-87378000D01*
X163555226Y-87328102D01*
X163477205Y-87139744D01*
X163363937Y-86970226D01*
X163219774Y-86826063D01*
X163050256Y-86712795D01*
X162959391Y-86675157D01*
X163115898Y-86644026D01*
X163304256Y-86566005D01*
X163473774Y-86452737D01*
X163517711Y-86408800D01*
X166389558Y-86408800D01*
X166399294Y-86427014D01*
M02*
