%TF.GenerationSoftware,KiCad,Pcbnew,5.1.6-1.fc32*%
%TF.CreationDate,2020-09-22T21:16:30+01:00*%
%TF.ProjectId,ACNodeAdaptor,41434e6f-6465-4416-9461-70746f722e6b,rev?*%
%TF.SameCoordinates,Original*%
%TF.FileFunction,Copper,L1,Top*%
%TF.FilePolarity,Positive*%
%FSLAX46Y46*%
G04 Gerber Fmt 4.6, Leading zero omitted, Abs format (unit mm)*
G04 Created by KiCad (PCBNEW 5.1.6-1.fc32) date 2020-09-22 21:16:30*
%MOMM*%
%LPD*%
G01*
G04 APERTURE LIST*
%TA.AperFunction,ComponentPad*%
%ADD10C,2.540000*%
%TD*%
%TA.AperFunction,ComponentPad*%
%ADD11C,1.500000*%
%TD*%
%TA.AperFunction,ComponentPad*%
%ADD12R,1.500000X1.500000*%
%TD*%
%TA.AperFunction,ComponentPad*%
%ADD13O,1.700000X1.700000*%
%TD*%
%TA.AperFunction,ComponentPad*%
%ADD14R,1.700000X1.700000*%
%TD*%
%TA.AperFunction,ViaPad*%
%ADD15C,0.800000*%
%TD*%
%TA.AperFunction,Conductor*%
%ADD16C,0.250000*%
%TD*%
G04 APERTURE END LIST*
D10*
%TO.P,J1,2*%
%TO.N,+12V*%
X139950000Y-86520000D03*
%TO.P,J1,1*%
%TO.N,GND*%
X139950000Y-81440000D03*
%TD*%
%TO.P,U1,14*%
%TO.N,+5V*%
%TA.AperFunction,SMDPad,CuDef*%
G36*
G01*
X154660000Y-86500000D02*
X154960000Y-86500000D01*
G75*
G02*
X155110000Y-86650000I0J-150000D01*
G01*
X155110000Y-88300000D01*
G75*
G02*
X154960000Y-88450000I-150000J0D01*
G01*
X154660000Y-88450000D01*
G75*
G02*
X154510000Y-88300000I0J150000D01*
G01*
X154510000Y-86650000D01*
G75*
G02*
X154660000Y-86500000I150000J0D01*
G01*
G37*
%TD.AperFunction*%
%TO.P,U1,13*%
%TO.N,N/C*%
%TA.AperFunction,SMDPad,CuDef*%
G36*
G01*
X153390000Y-86500000D02*
X153690000Y-86500000D01*
G75*
G02*
X153840000Y-86650000I0J-150000D01*
G01*
X153840000Y-88300000D01*
G75*
G02*
X153690000Y-88450000I-150000J0D01*
G01*
X153390000Y-88450000D01*
G75*
G02*
X153240000Y-88300000I0J150000D01*
G01*
X153240000Y-86650000D01*
G75*
G02*
X153390000Y-86500000I150000J0D01*
G01*
G37*
%TD.AperFunction*%
%TO.P,U1,12*%
%TO.N,Net-(J3-Pad3)*%
%TA.AperFunction,SMDPad,CuDef*%
G36*
G01*
X152120000Y-86500000D02*
X152420000Y-86500000D01*
G75*
G02*
X152570000Y-86650000I0J-150000D01*
G01*
X152570000Y-88300000D01*
G75*
G02*
X152420000Y-88450000I-150000J0D01*
G01*
X152120000Y-88450000D01*
G75*
G02*
X151970000Y-88300000I0J150000D01*
G01*
X151970000Y-86650000D01*
G75*
G02*
X152120000Y-86500000I150000J0D01*
G01*
G37*
%TD.AperFunction*%
%TO.P,U1,11*%
%TO.N,Net-(J3-Pad6)*%
%TA.AperFunction,SMDPad,CuDef*%
G36*
G01*
X150850000Y-86500000D02*
X151150000Y-86500000D01*
G75*
G02*
X151300000Y-86650000I0J-150000D01*
G01*
X151300000Y-88300000D01*
G75*
G02*
X151150000Y-88450000I-150000J0D01*
G01*
X150850000Y-88450000D01*
G75*
G02*
X150700000Y-88300000I0J150000D01*
G01*
X150700000Y-86650000D01*
G75*
G02*
X150850000Y-86500000I150000J0D01*
G01*
G37*
%TD.AperFunction*%
%TO.P,U1,10*%
%TO.N,Net-(J3-Pad2)*%
%TA.AperFunction,SMDPad,CuDef*%
G36*
G01*
X149580000Y-86500000D02*
X149880000Y-86500000D01*
G75*
G02*
X150030000Y-86650000I0J-150000D01*
G01*
X150030000Y-88300000D01*
G75*
G02*
X149880000Y-88450000I-150000J0D01*
G01*
X149580000Y-88450000D01*
G75*
G02*
X149430000Y-88300000I0J150000D01*
G01*
X149430000Y-86650000D01*
G75*
G02*
X149580000Y-86500000I150000J0D01*
G01*
G37*
%TD.AperFunction*%
%TO.P,U1,9*%
%TO.N,Net-(J3-Pad1)*%
%TA.AperFunction,SMDPad,CuDef*%
G36*
G01*
X148310000Y-86500000D02*
X148610000Y-86500000D01*
G75*
G02*
X148760000Y-86650000I0J-150000D01*
G01*
X148760000Y-88300000D01*
G75*
G02*
X148610000Y-88450000I-150000J0D01*
G01*
X148310000Y-88450000D01*
G75*
G02*
X148160000Y-88300000I0J150000D01*
G01*
X148160000Y-86650000D01*
G75*
G02*
X148310000Y-86500000I150000J0D01*
G01*
G37*
%TD.AperFunction*%
%TO.P,U1,8*%
%TO.N,N/C*%
%TA.AperFunction,SMDPad,CuDef*%
G36*
G01*
X147040000Y-86500000D02*
X147340000Y-86500000D01*
G75*
G02*
X147490000Y-86650000I0J-150000D01*
G01*
X147490000Y-88300000D01*
G75*
G02*
X147340000Y-88450000I-150000J0D01*
G01*
X147040000Y-88450000D01*
G75*
G02*
X146890000Y-88300000I0J150000D01*
G01*
X146890000Y-86650000D01*
G75*
G02*
X147040000Y-86500000I150000J0D01*
G01*
G37*
%TD.AperFunction*%
%TO.P,U1,7*%
%TO.N,GND*%
%TA.AperFunction,SMDPad,CuDef*%
G36*
G01*
X147040000Y-81550000D02*
X147340000Y-81550000D01*
G75*
G02*
X147490000Y-81700000I0J-150000D01*
G01*
X147490000Y-83350000D01*
G75*
G02*
X147340000Y-83500000I-150000J0D01*
G01*
X147040000Y-83500000D01*
G75*
G02*
X146890000Y-83350000I0J150000D01*
G01*
X146890000Y-81700000D01*
G75*
G02*
X147040000Y-81550000I150000J0D01*
G01*
G37*
%TD.AperFunction*%
%TO.P,U1,6*%
%TA.AperFunction,SMDPad,CuDef*%
G36*
G01*
X148310000Y-81550000D02*
X148610000Y-81550000D01*
G75*
G02*
X148760000Y-81700000I0J-150000D01*
G01*
X148760000Y-83350000D01*
G75*
G02*
X148610000Y-83500000I-150000J0D01*
G01*
X148310000Y-83500000D01*
G75*
G02*
X148160000Y-83350000I0J150000D01*
G01*
X148160000Y-81700000D01*
G75*
G02*
X148310000Y-81550000I150000J0D01*
G01*
G37*
%TD.AperFunction*%
%TO.P,U1,5*%
%TO.N,Net-(J2-Pad4)*%
%TA.AperFunction,SMDPad,CuDef*%
G36*
G01*
X149580000Y-81550000D02*
X149880000Y-81550000D01*
G75*
G02*
X150030000Y-81700000I0J-150000D01*
G01*
X150030000Y-83350000D01*
G75*
G02*
X149880000Y-83500000I-150000J0D01*
G01*
X149580000Y-83500000D01*
G75*
G02*
X149430000Y-83350000I0J150000D01*
G01*
X149430000Y-81700000D01*
G75*
G02*
X149580000Y-81550000I150000J0D01*
G01*
G37*
%TD.AperFunction*%
%TO.P,U1,4*%
%TO.N,+5V*%
%TA.AperFunction,SMDPad,CuDef*%
G36*
G01*
X150850000Y-81550000D02*
X151150000Y-81550000D01*
G75*
G02*
X151300000Y-81700000I0J-150000D01*
G01*
X151300000Y-83350000D01*
G75*
G02*
X151150000Y-83500000I-150000J0D01*
G01*
X150850000Y-83500000D01*
G75*
G02*
X150700000Y-83350000I0J150000D01*
G01*
X150700000Y-81700000D01*
G75*
G02*
X150850000Y-81550000I150000J0D01*
G01*
G37*
%TD.AperFunction*%
%TO.P,U1,3*%
%TO.N,GND*%
%TA.AperFunction,SMDPad,CuDef*%
G36*
G01*
X152120000Y-81550000D02*
X152420000Y-81550000D01*
G75*
G02*
X152570000Y-81700000I0J-150000D01*
G01*
X152570000Y-83350000D01*
G75*
G02*
X152420000Y-83500000I-150000J0D01*
G01*
X152120000Y-83500000D01*
G75*
G02*
X151970000Y-83350000I0J150000D01*
G01*
X151970000Y-81700000D01*
G75*
G02*
X152120000Y-81550000I150000J0D01*
G01*
G37*
%TD.AperFunction*%
%TO.P,U1,2*%
%TO.N,Net-(J2-Pad3)*%
%TA.AperFunction,SMDPad,CuDef*%
G36*
G01*
X153390000Y-81550000D02*
X153690000Y-81550000D01*
G75*
G02*
X153840000Y-81700000I0J-150000D01*
G01*
X153840000Y-83350000D01*
G75*
G02*
X153690000Y-83500000I-150000J0D01*
G01*
X153390000Y-83500000D01*
G75*
G02*
X153240000Y-83350000I0J150000D01*
G01*
X153240000Y-81700000D01*
G75*
G02*
X153390000Y-81550000I150000J0D01*
G01*
G37*
%TD.AperFunction*%
%TO.P,U1,1*%
%TO.N,N/C*%
%TA.AperFunction,SMDPad,CuDef*%
G36*
G01*
X154660000Y-81550000D02*
X154960000Y-81550000D01*
G75*
G02*
X155110000Y-81700000I0J-150000D01*
G01*
X155110000Y-83350000D01*
G75*
G02*
X154960000Y-83500000I-150000J0D01*
G01*
X154660000Y-83500000D01*
G75*
G02*
X154510000Y-83350000I0J150000D01*
G01*
X154510000Y-81700000D01*
G75*
G02*
X154660000Y-81550000I150000J0D01*
G01*
G37*
%TD.AperFunction*%
%TD*%
%TO.P,R1,2*%
%TO.N,Net-(J3-Pad6)*%
%TA.AperFunction,SMDPad,CuDef*%
G36*
G01*
X151150000Y-90243750D02*
X151150000Y-90756250D01*
G75*
G02*
X150931250Y-90975000I-218750J0D01*
G01*
X150493750Y-90975000D01*
G75*
G02*
X150275000Y-90756250I0J218750D01*
G01*
X150275000Y-90243750D01*
G75*
G02*
X150493750Y-90025000I218750J0D01*
G01*
X150931250Y-90025000D01*
G75*
G02*
X151150000Y-90243750I0J-218750D01*
G01*
G37*
%TD.AperFunction*%
%TO.P,R1,1*%
%TO.N,Net-(J3-Pad3)*%
%TA.AperFunction,SMDPad,CuDef*%
G36*
G01*
X152725000Y-90243750D02*
X152725000Y-90756250D01*
G75*
G02*
X152506250Y-90975000I-218750J0D01*
G01*
X152068750Y-90975000D01*
G75*
G02*
X151850000Y-90756250I0J218750D01*
G01*
X151850000Y-90243750D01*
G75*
G02*
X152068750Y-90025000I218750J0D01*
G01*
X152506250Y-90025000D01*
G75*
G02*
X152725000Y-90243750I0J-218750D01*
G01*
G37*
%TD.AperFunction*%
%TD*%
D11*
%TO.P,J3,8*%
%TO.N,GND*%
X148890000Y-93460000D03*
%TO.P,J3,7*%
X147620000Y-96000000D03*
%TO.P,J3,6*%
%TO.N,Net-(J3-Pad6)*%
X146350000Y-93460000D03*
%TO.P,J3,5*%
%TO.N,+12V*%
X145080000Y-96000000D03*
%TO.P,J3,4*%
X143810000Y-93460000D03*
%TO.P,J3,3*%
%TO.N,Net-(J3-Pad3)*%
X142540000Y-96000000D03*
%TO.P,J3,2*%
%TO.N,Net-(J3-Pad2)*%
X141270000Y-93460000D03*
D12*
%TO.P,J3,1*%
%TO.N,Net-(J3-Pad1)*%
X140000000Y-96000000D03*
%TD*%
D13*
%TO.P,J2,4*%
%TO.N,Net-(J2-Pad4)*%
X141380000Y-72000000D03*
%TO.P,J2,3*%
%TO.N,Net-(J2-Pad3)*%
X143920000Y-72000000D03*
%TO.P,J2,2*%
%TO.N,+5V*%
X146460000Y-72000000D03*
D14*
%TO.P,J2,1*%
%TO.N,GND*%
X149000000Y-72000000D03*
%TD*%
%TO.P,C1,2*%
%TO.N,GND*%
%TA.AperFunction,SMDPad,CuDef*%
G36*
G01*
X158256250Y-84862500D02*
X157743750Y-84862500D01*
G75*
G02*
X157525000Y-84643750I0J218750D01*
G01*
X157525000Y-84206250D01*
G75*
G02*
X157743750Y-83987500I218750J0D01*
G01*
X158256250Y-83987500D01*
G75*
G02*
X158475000Y-84206250I0J-218750D01*
G01*
X158475000Y-84643750D01*
G75*
G02*
X158256250Y-84862500I-218750J0D01*
G01*
G37*
%TD.AperFunction*%
%TO.P,C1,1*%
%TO.N,+5V*%
%TA.AperFunction,SMDPad,CuDef*%
G36*
G01*
X158256250Y-86437500D02*
X157743750Y-86437500D01*
G75*
G02*
X157525000Y-86218750I0J218750D01*
G01*
X157525000Y-85781250D01*
G75*
G02*
X157743750Y-85562500I218750J0D01*
G01*
X158256250Y-85562500D01*
G75*
G02*
X158475000Y-85781250I0J-218750D01*
G01*
X158475000Y-86218750D01*
G75*
G02*
X158256250Y-86437500I-218750J0D01*
G01*
G37*
%TD.AperFunction*%
%TD*%
D15*
%TO.N,GND*%
X147000000Y-80000000D03*
X158000000Y-82000000D03*
X152200000Y-80100000D03*
%TO.N,Net-(J2-Pad3)*%
X149900000Y-78700000D03*
X152000000Y-78800000D03*
%TD*%
D16*
%TO.N,GND*%
X147190000Y-82525000D02*
X147190000Y-80190000D01*
X147190000Y-80190000D02*
X147000000Y-80000000D01*
X148460000Y-81460000D02*
X147000000Y-80000000D01*
X148460000Y-82525000D02*
X148460000Y-81460000D01*
X158000000Y-84425000D02*
X158000000Y-82000000D01*
X152270000Y-80170000D02*
X152200000Y-80100000D01*
X152270000Y-82525000D02*
X152270000Y-80170000D01*
%TO.N,+5V*%
X156525000Y-87475000D02*
X158000000Y-86000000D01*
X154810000Y-87475000D02*
X156525000Y-87475000D01*
X146460000Y-73202081D02*
X146460000Y-72000000D01*
X146732920Y-73475001D02*
X146460000Y-73202081D01*
X149725001Y-73475001D02*
X146732920Y-73475001D01*
X155735010Y-79485010D02*
X149725001Y-73475001D01*
X155735010Y-84210010D02*
X155735010Y-79485010D01*
X157525000Y-86000000D02*
X155735010Y-84210010D01*
X158000000Y-86000000D02*
X157525000Y-86000000D01*
X150974999Y-81524999D02*
X151000000Y-81550000D01*
X150974999Y-77717080D02*
X150974999Y-81524999D01*
X151000000Y-81550000D02*
X151000000Y-82525000D01*
X146460000Y-73202081D02*
X150974999Y-77717080D01*
%TO.N,+12V*%
X139950000Y-89600000D02*
X143810000Y-93460000D01*
X139950000Y-86520000D02*
X139950000Y-89600000D01*
X143810000Y-94730000D02*
X145080000Y-96000000D01*
X143810000Y-93460000D02*
X143810000Y-94730000D01*
%TO.N,Net-(J2-Pad4)*%
X149730000Y-79603002D02*
X146026998Y-75900000D01*
X149730000Y-82525000D02*
X149730000Y-79603002D01*
X145280000Y-75900000D02*
X141380000Y-72000000D01*
X146026998Y-75900000D02*
X145280000Y-75900000D01*
%TO.N,Net-(J2-Pad3)*%
X143920000Y-72000000D02*
X150000000Y-78080000D01*
X150000000Y-78600000D02*
X149900000Y-78700000D01*
X150000000Y-78080000D02*
X150000000Y-78600000D01*
X152700000Y-78800000D02*
X152000000Y-78800000D01*
X153540000Y-79640000D02*
X152700000Y-78800000D01*
X153540000Y-82525000D02*
X153540000Y-79640000D01*
%TO.N,Net-(J3-Pad6)*%
X151000000Y-90212500D02*
X150712500Y-90500000D01*
X151000000Y-87475000D02*
X151000000Y-90212500D01*
X149310000Y-90500000D02*
X146350000Y-93460000D01*
X150712500Y-90500000D02*
X149310000Y-90500000D01*
%TO.N,Net-(J3-Pad3)*%
X152270000Y-90482500D02*
X152287500Y-90500000D01*
X152270000Y-87475000D02*
X152270000Y-90482500D01*
X143915001Y-97375001D02*
X142540000Y-96000000D01*
X148280001Y-97375001D02*
X143915001Y-97375001D01*
X152287500Y-93367502D02*
X148280001Y-97375001D01*
X152287500Y-90500000D02*
X152287500Y-93367502D01*
%TO.N,Net-(J3-Pad2)*%
X141270000Y-96321002D02*
X141270000Y-93460000D01*
X153050010Y-93241402D02*
X148466401Y-97825011D01*
X153050010Y-90018516D02*
X153050010Y-93241402D01*
X152895010Y-89863516D02*
X153050010Y-90018516D01*
X152895010Y-86453242D02*
X152895010Y-89863516D01*
X152616758Y-86174990D02*
X152895010Y-86453242D01*
X150055010Y-86174990D02*
X152616758Y-86174990D01*
X142774009Y-97825011D02*
X141270000Y-96321002D01*
X149730000Y-86500000D02*
X150055010Y-86174990D01*
X148466401Y-97825011D02*
X142774009Y-97825011D01*
X149730000Y-87475000D02*
X149730000Y-86500000D01*
%TO.N,Net-(J3-Pad1)*%
X148460000Y-88450000D02*
X148460000Y-87475000D01*
X147810000Y-89100000D02*
X148460000Y-88450000D01*
X146300000Y-89100000D02*
X147810000Y-89100000D01*
X141200000Y-84000000D02*
X146300000Y-89100000D01*
X138054999Y-84945001D02*
X139000000Y-84000000D01*
X138054999Y-94054999D02*
X138054999Y-84945001D01*
X139000000Y-84000000D02*
X141200000Y-84000000D01*
X140000000Y-96000000D02*
X138054999Y-94054999D01*
%TD*%
M02*
