%TF.GenerationSoftware,KiCad,Pcbnew,5.1.6-1.fc32*%
%TF.CreationDate,2020-09-22T21:16:30+01:00*%
%TF.ProjectId,ACNodeAdaptor,41434e6f-6465-4416-9461-70746f722e6b,rev?*%
%TF.SameCoordinates,Original*%
%TF.FileFunction,Paste,Top*%
%TF.FilePolarity,Positive*%
%FSLAX46Y46*%
G04 Gerber Fmt 4.6, Leading zero omitted, Abs format (unit mm)*
G04 Created by KiCad (PCBNEW 5.1.6-1.fc32) date 2020-09-22 21:16:30*
%MOMM*%
%LPD*%
G01*
G04 APERTURE LIST*
G04 APERTURE END LIST*
%TO.C,U1*%
G36*
G01*
X154660000Y-86500000D02*
X154960000Y-86500000D01*
G75*
G02*
X155110000Y-86650000I0J-150000D01*
G01*
X155110000Y-88300000D01*
G75*
G02*
X154960000Y-88450000I-150000J0D01*
G01*
X154660000Y-88450000D01*
G75*
G02*
X154510000Y-88300000I0J150000D01*
G01*
X154510000Y-86650000D01*
G75*
G02*
X154660000Y-86500000I150000J0D01*
G01*
G37*
G36*
G01*
X153390000Y-86500000D02*
X153690000Y-86500000D01*
G75*
G02*
X153840000Y-86650000I0J-150000D01*
G01*
X153840000Y-88300000D01*
G75*
G02*
X153690000Y-88450000I-150000J0D01*
G01*
X153390000Y-88450000D01*
G75*
G02*
X153240000Y-88300000I0J150000D01*
G01*
X153240000Y-86650000D01*
G75*
G02*
X153390000Y-86500000I150000J0D01*
G01*
G37*
G36*
G01*
X152120000Y-86500000D02*
X152420000Y-86500000D01*
G75*
G02*
X152570000Y-86650000I0J-150000D01*
G01*
X152570000Y-88300000D01*
G75*
G02*
X152420000Y-88450000I-150000J0D01*
G01*
X152120000Y-88450000D01*
G75*
G02*
X151970000Y-88300000I0J150000D01*
G01*
X151970000Y-86650000D01*
G75*
G02*
X152120000Y-86500000I150000J0D01*
G01*
G37*
G36*
G01*
X150850000Y-86500000D02*
X151150000Y-86500000D01*
G75*
G02*
X151300000Y-86650000I0J-150000D01*
G01*
X151300000Y-88300000D01*
G75*
G02*
X151150000Y-88450000I-150000J0D01*
G01*
X150850000Y-88450000D01*
G75*
G02*
X150700000Y-88300000I0J150000D01*
G01*
X150700000Y-86650000D01*
G75*
G02*
X150850000Y-86500000I150000J0D01*
G01*
G37*
G36*
G01*
X149580000Y-86500000D02*
X149880000Y-86500000D01*
G75*
G02*
X150030000Y-86650000I0J-150000D01*
G01*
X150030000Y-88300000D01*
G75*
G02*
X149880000Y-88450000I-150000J0D01*
G01*
X149580000Y-88450000D01*
G75*
G02*
X149430000Y-88300000I0J150000D01*
G01*
X149430000Y-86650000D01*
G75*
G02*
X149580000Y-86500000I150000J0D01*
G01*
G37*
G36*
G01*
X148310000Y-86500000D02*
X148610000Y-86500000D01*
G75*
G02*
X148760000Y-86650000I0J-150000D01*
G01*
X148760000Y-88300000D01*
G75*
G02*
X148610000Y-88450000I-150000J0D01*
G01*
X148310000Y-88450000D01*
G75*
G02*
X148160000Y-88300000I0J150000D01*
G01*
X148160000Y-86650000D01*
G75*
G02*
X148310000Y-86500000I150000J0D01*
G01*
G37*
G36*
G01*
X147040000Y-86500000D02*
X147340000Y-86500000D01*
G75*
G02*
X147490000Y-86650000I0J-150000D01*
G01*
X147490000Y-88300000D01*
G75*
G02*
X147340000Y-88450000I-150000J0D01*
G01*
X147040000Y-88450000D01*
G75*
G02*
X146890000Y-88300000I0J150000D01*
G01*
X146890000Y-86650000D01*
G75*
G02*
X147040000Y-86500000I150000J0D01*
G01*
G37*
G36*
G01*
X147040000Y-81550000D02*
X147340000Y-81550000D01*
G75*
G02*
X147490000Y-81700000I0J-150000D01*
G01*
X147490000Y-83350000D01*
G75*
G02*
X147340000Y-83500000I-150000J0D01*
G01*
X147040000Y-83500000D01*
G75*
G02*
X146890000Y-83350000I0J150000D01*
G01*
X146890000Y-81700000D01*
G75*
G02*
X147040000Y-81550000I150000J0D01*
G01*
G37*
G36*
G01*
X148310000Y-81550000D02*
X148610000Y-81550000D01*
G75*
G02*
X148760000Y-81700000I0J-150000D01*
G01*
X148760000Y-83350000D01*
G75*
G02*
X148610000Y-83500000I-150000J0D01*
G01*
X148310000Y-83500000D01*
G75*
G02*
X148160000Y-83350000I0J150000D01*
G01*
X148160000Y-81700000D01*
G75*
G02*
X148310000Y-81550000I150000J0D01*
G01*
G37*
G36*
G01*
X149580000Y-81550000D02*
X149880000Y-81550000D01*
G75*
G02*
X150030000Y-81700000I0J-150000D01*
G01*
X150030000Y-83350000D01*
G75*
G02*
X149880000Y-83500000I-150000J0D01*
G01*
X149580000Y-83500000D01*
G75*
G02*
X149430000Y-83350000I0J150000D01*
G01*
X149430000Y-81700000D01*
G75*
G02*
X149580000Y-81550000I150000J0D01*
G01*
G37*
G36*
G01*
X150850000Y-81550000D02*
X151150000Y-81550000D01*
G75*
G02*
X151300000Y-81700000I0J-150000D01*
G01*
X151300000Y-83350000D01*
G75*
G02*
X151150000Y-83500000I-150000J0D01*
G01*
X150850000Y-83500000D01*
G75*
G02*
X150700000Y-83350000I0J150000D01*
G01*
X150700000Y-81700000D01*
G75*
G02*
X150850000Y-81550000I150000J0D01*
G01*
G37*
G36*
G01*
X152120000Y-81550000D02*
X152420000Y-81550000D01*
G75*
G02*
X152570000Y-81700000I0J-150000D01*
G01*
X152570000Y-83350000D01*
G75*
G02*
X152420000Y-83500000I-150000J0D01*
G01*
X152120000Y-83500000D01*
G75*
G02*
X151970000Y-83350000I0J150000D01*
G01*
X151970000Y-81700000D01*
G75*
G02*
X152120000Y-81550000I150000J0D01*
G01*
G37*
G36*
G01*
X153390000Y-81550000D02*
X153690000Y-81550000D01*
G75*
G02*
X153840000Y-81700000I0J-150000D01*
G01*
X153840000Y-83350000D01*
G75*
G02*
X153690000Y-83500000I-150000J0D01*
G01*
X153390000Y-83500000D01*
G75*
G02*
X153240000Y-83350000I0J150000D01*
G01*
X153240000Y-81700000D01*
G75*
G02*
X153390000Y-81550000I150000J0D01*
G01*
G37*
G36*
G01*
X154660000Y-81550000D02*
X154960000Y-81550000D01*
G75*
G02*
X155110000Y-81700000I0J-150000D01*
G01*
X155110000Y-83350000D01*
G75*
G02*
X154960000Y-83500000I-150000J0D01*
G01*
X154660000Y-83500000D01*
G75*
G02*
X154510000Y-83350000I0J150000D01*
G01*
X154510000Y-81700000D01*
G75*
G02*
X154660000Y-81550000I150000J0D01*
G01*
G37*
%TD*%
%TO.C,R1*%
G36*
G01*
X151150000Y-90243750D02*
X151150000Y-90756250D01*
G75*
G02*
X150931250Y-90975000I-218750J0D01*
G01*
X150493750Y-90975000D01*
G75*
G02*
X150275000Y-90756250I0J218750D01*
G01*
X150275000Y-90243750D01*
G75*
G02*
X150493750Y-90025000I218750J0D01*
G01*
X150931250Y-90025000D01*
G75*
G02*
X151150000Y-90243750I0J-218750D01*
G01*
G37*
G36*
G01*
X152725000Y-90243750D02*
X152725000Y-90756250D01*
G75*
G02*
X152506250Y-90975000I-218750J0D01*
G01*
X152068750Y-90975000D01*
G75*
G02*
X151850000Y-90756250I0J218750D01*
G01*
X151850000Y-90243750D01*
G75*
G02*
X152068750Y-90025000I218750J0D01*
G01*
X152506250Y-90025000D01*
G75*
G02*
X152725000Y-90243750I0J-218750D01*
G01*
G37*
%TD*%
%TO.C,C1*%
G36*
G01*
X158256250Y-84862500D02*
X157743750Y-84862500D01*
G75*
G02*
X157525000Y-84643750I0J218750D01*
G01*
X157525000Y-84206250D01*
G75*
G02*
X157743750Y-83987500I218750J0D01*
G01*
X158256250Y-83987500D01*
G75*
G02*
X158475000Y-84206250I0J-218750D01*
G01*
X158475000Y-84643750D01*
G75*
G02*
X158256250Y-84862500I-218750J0D01*
G01*
G37*
G36*
G01*
X158256250Y-86437500D02*
X157743750Y-86437500D01*
G75*
G02*
X157525000Y-86218750I0J218750D01*
G01*
X157525000Y-85781250D01*
G75*
G02*
X157743750Y-85562500I218750J0D01*
G01*
X158256250Y-85562500D01*
G75*
G02*
X158475000Y-85781250I0J-218750D01*
G01*
X158475000Y-86218750D01*
G75*
G02*
X158256250Y-86437500I-218750J0D01*
G01*
G37*
%TD*%
M02*
