M48
; DRILL file {KiCad 5.1.6-1.fc32} date Tue Sep 22 21:16:39 2020
; FORMAT={-:-/ absolute / inch / decimal}
; #@! TF.CreationDate,2020-09-22T21:16:39+01:00
; #@! TF.GenerationSoftware,Kicad,Pcbnew,5.1.6-1.fc32
FMAT,2
INCH
T1C0.0157
T2C0.0299
T3C0.0394
T4C0.0669
T5C0.1260
%
G90
G05
T1
X5.7874Y-3.1496
X5.9016Y-3.0984
X5.9843Y-3.1024
X5.9921Y-3.1535
X6.2205Y-3.2283
T2
X5.5118Y-3.7795
X5.5618Y-3.6795
X5.6118Y-3.7795
X5.6618Y-3.6795
X5.7118Y-3.7795
X5.7618Y-3.6795
X5.8118Y-3.7795
X5.8618Y-3.6795
T3
X5.5661Y-2.8346
X5.6661Y-2.8346
X5.7661Y-2.8346
X5.8661Y-2.8346
T4
X5.5098Y-3.2063
X5.5098Y-3.4063
T5
X5.4618Y-4.0295
X5.9118Y-4.0295
X6.1417Y-4.1339
X5.315Y-2.9528
T0
M30
