M48
; DRILL file {KiCad 5.1.6-1.fc32} date Sat Aug 29 01:18:21 2020
; FORMAT={-:-/ absolute / metric / decimal}
; #@! TF.CreationDate,2020-08-29T01:18:21+01:00
; #@! TF.GenerationSoftware,Kicad,Pcbnew,5.1.6-1.fc32
FMAT,2
METRIC
T1C0.400
T2C0.760
T3C1.000
T4C1.700
T5C3.200
%
G90
G05
T1
X147.0Y-80.0
X149.9Y-78.7
X152.0Y-78.8
X152.2Y-80.1
X158.0Y-82.0
T2
X140.0Y-96.0
X141.27Y-93.46
X142.54Y-96.0
X143.81Y-93.46
X145.08Y-96.0
X146.35Y-93.46
X147.62Y-96.0
X148.89Y-93.46
T3
X141.38Y-72.0
X143.92Y-72.0
X146.46Y-72.0
X149.0Y-72.0
T4
X139.95Y-81.44
X139.95Y-86.52
T5
X138.73Y-102.35
X150.16Y-102.35
X135.0Y-75.0
X156.0Y-105.0
T0
M30
