%TF.GenerationSoftware,KiCad,Pcbnew,5.1.6-1.fc32*%
%TF.CreationDate,2020-08-29T01:18:13+01:00*%
%TF.ProjectId,ACNodeAdaptor,41434e6f-6465-4416-9461-70746f722e6b,rev?*%
%TF.SameCoordinates,Original*%
%TF.FileFunction,Legend,Top*%
%TF.FilePolarity,Positive*%
%FSLAX46Y46*%
G04 Gerber Fmt 4.6, Leading zero omitted, Abs format (unit mm)*
G04 Created by KiCad (PCBNEW 5.1.6-1.fc32) date 2020-08-29 01:18:13*
%MOMM*%
%LPD*%
G01*
G04 APERTURE LIST*
%ADD10C,0.150000*%
%ADD11C,0.120000*%
G04 APERTURE END LIST*
D10*
X156941666Y-100847619D02*
X156941666Y-100371428D01*
X157227380Y-100942857D02*
X156227380Y-100609523D01*
X157227380Y-100276190D01*
X157132142Y-99371428D02*
X157179761Y-99419047D01*
X157227380Y-99561904D01*
X157227380Y-99657142D01*
X157179761Y-99800000D01*
X157084523Y-99895238D01*
X156989285Y-99942857D01*
X156798809Y-99990476D01*
X156655952Y-99990476D01*
X156465476Y-99942857D01*
X156370238Y-99895238D01*
X156275000Y-99800000D01*
X156227380Y-99657142D01*
X156227380Y-99561904D01*
X156275000Y-99419047D01*
X156322619Y-99371428D01*
X157227380Y-98942857D02*
X156227380Y-98942857D01*
X157227380Y-98371428D01*
X156227380Y-98371428D01*
X157227380Y-97752380D02*
X157179761Y-97847619D01*
X157132142Y-97895238D01*
X157036904Y-97942857D01*
X156751190Y-97942857D01*
X156655952Y-97895238D01*
X156608333Y-97847619D01*
X156560714Y-97752380D01*
X156560714Y-97609523D01*
X156608333Y-97514285D01*
X156655952Y-97466666D01*
X156751190Y-97419047D01*
X157036904Y-97419047D01*
X157132142Y-97466666D01*
X157179761Y-97514285D01*
X157227380Y-97609523D01*
X157227380Y-97752380D01*
X157227380Y-96561904D02*
X156227380Y-96561904D01*
X157179761Y-96561904D02*
X157227380Y-96657142D01*
X157227380Y-96847619D01*
X157179761Y-96942857D01*
X157132142Y-96990476D01*
X157036904Y-97038095D01*
X156751190Y-97038095D01*
X156655952Y-96990476D01*
X156608333Y-96942857D01*
X156560714Y-96847619D01*
X156560714Y-96657142D01*
X156608333Y-96561904D01*
X157179761Y-95704761D02*
X157227380Y-95800000D01*
X157227380Y-95990476D01*
X157179761Y-96085714D01*
X157084523Y-96133333D01*
X156703571Y-96133333D01*
X156608333Y-96085714D01*
X156560714Y-95990476D01*
X156560714Y-95800000D01*
X156608333Y-95704761D01*
X156703571Y-95657142D01*
X156798809Y-95657142D01*
X156894047Y-96133333D01*
X157227380Y-93895238D02*
X156751190Y-94228571D01*
X157227380Y-94466666D02*
X156227380Y-94466666D01*
X156227380Y-94085714D01*
X156275000Y-93990476D01*
X156322619Y-93942857D01*
X156417857Y-93895238D01*
X156560714Y-93895238D01*
X156655952Y-93942857D01*
X156703571Y-93990476D01*
X156751190Y-94085714D01*
X156751190Y-94466666D01*
X157179761Y-93085714D02*
X157227380Y-93180952D01*
X157227380Y-93371428D01*
X157179761Y-93466666D01*
X157084523Y-93514285D01*
X156703571Y-93514285D01*
X156608333Y-93466666D01*
X156560714Y-93371428D01*
X156560714Y-93180952D01*
X156608333Y-93085714D01*
X156703571Y-93038095D01*
X156798809Y-93038095D01*
X156894047Y-93514285D01*
X157227380Y-92180952D02*
X156703571Y-92180952D01*
X156608333Y-92228571D01*
X156560714Y-92323809D01*
X156560714Y-92514285D01*
X156608333Y-92609523D01*
X157179761Y-92180952D02*
X157227380Y-92276190D01*
X157227380Y-92514285D01*
X157179761Y-92609523D01*
X157084523Y-92657142D01*
X156989285Y-92657142D01*
X156894047Y-92609523D01*
X156846428Y-92514285D01*
X156846428Y-92276190D01*
X156798809Y-92180952D01*
X157227380Y-91276190D02*
X156227380Y-91276190D01*
X157179761Y-91276190D02*
X157227380Y-91371428D01*
X157227380Y-91561904D01*
X157179761Y-91657142D01*
X157132142Y-91704761D01*
X157036904Y-91752380D01*
X156751190Y-91752380D01*
X156655952Y-91704761D01*
X156608333Y-91657142D01*
X156560714Y-91561904D01*
X156560714Y-91371428D01*
X156608333Y-91276190D01*
X157179761Y-90419047D02*
X157227380Y-90514285D01*
X157227380Y-90704761D01*
X157179761Y-90800000D01*
X157084523Y-90847619D01*
X156703571Y-90847619D01*
X156608333Y-90800000D01*
X156560714Y-90704761D01*
X156560714Y-90514285D01*
X156608333Y-90419047D01*
X156703571Y-90371428D01*
X156798809Y-90371428D01*
X156894047Y-90847619D01*
X157227380Y-89942857D02*
X156560714Y-89942857D01*
X156751190Y-89942857D02*
X156655952Y-89895238D01*
X156608333Y-89847619D01*
X156560714Y-89752380D01*
X156560714Y-89657142D01*
X158591666Y-99942857D02*
X158591666Y-99466666D01*
X158877380Y-100038095D02*
X157877380Y-99704761D01*
X158877380Y-99371428D01*
X158877380Y-98609523D02*
X157877380Y-98609523D01*
X158829761Y-98609523D02*
X158877380Y-98704761D01*
X158877380Y-98895238D01*
X158829761Y-98990476D01*
X158782142Y-99038095D01*
X158686904Y-99085714D01*
X158401190Y-99085714D01*
X158305952Y-99038095D01*
X158258333Y-98990476D01*
X158210714Y-98895238D01*
X158210714Y-98704761D01*
X158258333Y-98609523D01*
X158877380Y-97704761D02*
X158353571Y-97704761D01*
X158258333Y-97752380D01*
X158210714Y-97847619D01*
X158210714Y-98038095D01*
X158258333Y-98133333D01*
X158829761Y-97704761D02*
X158877380Y-97800000D01*
X158877380Y-98038095D01*
X158829761Y-98133333D01*
X158734523Y-98180952D01*
X158639285Y-98180952D01*
X158544047Y-98133333D01*
X158496428Y-98038095D01*
X158496428Y-97800000D01*
X158448809Y-97704761D01*
X158210714Y-97228571D02*
X159210714Y-97228571D01*
X158258333Y-97228571D02*
X158210714Y-97133333D01*
X158210714Y-96942857D01*
X158258333Y-96847619D01*
X158305952Y-96800000D01*
X158401190Y-96752380D01*
X158686904Y-96752380D01*
X158782142Y-96800000D01*
X158829761Y-96847619D01*
X158877380Y-96942857D01*
X158877380Y-97133333D01*
X158829761Y-97228571D01*
X158210714Y-96466666D02*
X158210714Y-96085714D01*
X157877380Y-96323809D02*
X158734523Y-96323809D01*
X158829761Y-96276190D01*
X158877380Y-96180952D01*
X158877380Y-96085714D01*
X158877380Y-95609523D02*
X158829761Y-95704761D01*
X158782142Y-95752380D01*
X158686904Y-95800000D01*
X158401190Y-95800000D01*
X158305952Y-95752380D01*
X158258333Y-95704761D01*
X158210714Y-95609523D01*
X158210714Y-95466666D01*
X158258333Y-95371428D01*
X158305952Y-95323809D01*
X158401190Y-95276190D01*
X158686904Y-95276190D01*
X158782142Y-95323809D01*
X158829761Y-95371428D01*
X158877380Y-95466666D01*
X158877380Y-95609523D01*
X158877380Y-94847619D02*
X158210714Y-94847619D01*
X158401190Y-94847619D02*
X158305952Y-94800000D01*
X158258333Y-94752380D01*
X158210714Y-94657142D01*
X158210714Y-94561904D01*
X157877380Y-93609523D02*
X158877380Y-93276190D01*
X157877380Y-92942857D01*
X158877380Y-92085714D02*
X158877380Y-92657142D01*
X158877380Y-92371428D02*
X157877380Y-92371428D01*
X158020238Y-92466666D01*
X158115476Y-92561904D01*
X158163095Y-92657142D01*
X158782142Y-91657142D02*
X158829761Y-91609523D01*
X158877380Y-91657142D01*
X158829761Y-91704761D01*
X158782142Y-91657142D01*
X158877380Y-91657142D01*
X157877380Y-90990476D02*
X157877380Y-90895238D01*
X157925000Y-90800000D01*
X157972619Y-90752380D01*
X158067857Y-90704761D01*
X158258333Y-90657142D01*
X158496428Y-90657142D01*
X158686904Y-90704761D01*
X158782142Y-90752380D01*
X158829761Y-90800000D01*
X158877380Y-90895238D01*
X158877380Y-90990476D01*
X158829761Y-91085714D01*
X158782142Y-91133333D01*
X158686904Y-91180952D01*
X158496428Y-91228571D01*
X158258333Y-91228571D01*
X158067857Y-91180952D01*
X157972619Y-91133333D01*
X157925000Y-91085714D01*
X157877380Y-90990476D01*
X134652380Y-105490476D02*
X134652380Y-104919047D01*
X135652380Y-105204761D02*
X134652380Y-105204761D01*
X135652380Y-104442857D02*
X135604761Y-104538095D01*
X135557142Y-104585714D01*
X135461904Y-104633333D01*
X135176190Y-104633333D01*
X135080952Y-104585714D01*
X135033333Y-104538095D01*
X134985714Y-104442857D01*
X134985714Y-104300000D01*
X135033333Y-104204761D01*
X135080952Y-104157142D01*
X135176190Y-104109523D01*
X135461904Y-104109523D01*
X135557142Y-104157142D01*
X135604761Y-104204761D01*
X135652380Y-104300000D01*
X135652380Y-104442857D01*
X135652380Y-102347619D02*
X135176190Y-102680952D01*
X135652380Y-102919047D02*
X134652380Y-102919047D01*
X134652380Y-102538095D01*
X134700000Y-102442857D01*
X134747619Y-102395238D01*
X134842857Y-102347619D01*
X134985714Y-102347619D01*
X135080952Y-102395238D01*
X135128571Y-102442857D01*
X135176190Y-102538095D01*
X135176190Y-102919047D01*
X135604761Y-101538095D02*
X135652380Y-101633333D01*
X135652380Y-101823809D01*
X135604761Y-101919047D01*
X135509523Y-101966666D01*
X135128571Y-101966666D01*
X135033333Y-101919047D01*
X134985714Y-101823809D01*
X134985714Y-101633333D01*
X135033333Y-101538095D01*
X135128571Y-101490476D01*
X135223809Y-101490476D01*
X135319047Y-101966666D01*
X135652380Y-100633333D02*
X135128571Y-100633333D01*
X135033333Y-100680952D01*
X134985714Y-100776190D01*
X134985714Y-100966666D01*
X135033333Y-101061904D01*
X135604761Y-100633333D02*
X135652380Y-100728571D01*
X135652380Y-100966666D01*
X135604761Y-101061904D01*
X135509523Y-101109523D01*
X135414285Y-101109523D01*
X135319047Y-101061904D01*
X135271428Y-100966666D01*
X135271428Y-100728571D01*
X135223809Y-100633333D01*
X135652380Y-99728571D02*
X134652380Y-99728571D01*
X135604761Y-99728571D02*
X135652380Y-99823809D01*
X135652380Y-100014285D01*
X135604761Y-100109523D01*
X135557142Y-100157142D01*
X135461904Y-100204761D01*
X135176190Y-100204761D01*
X135080952Y-100157142D01*
X135033333Y-100109523D01*
X134985714Y-100014285D01*
X134985714Y-99823809D01*
X135033333Y-99728571D01*
X135604761Y-98871428D02*
X135652380Y-98966666D01*
X135652380Y-99157142D01*
X135604761Y-99252380D01*
X135509523Y-99300000D01*
X135128571Y-99300000D01*
X135033333Y-99252380D01*
X134985714Y-99157142D01*
X134985714Y-98966666D01*
X135033333Y-98871428D01*
X135128571Y-98823809D01*
X135223809Y-98823809D01*
X135319047Y-99300000D01*
X135652380Y-98395238D02*
X134985714Y-98395238D01*
X135176190Y-98395238D02*
X135080952Y-98347619D01*
X135033333Y-98300000D01*
X134985714Y-98204761D01*
X134985714Y-98109523D01*
X143080952Y-86952380D02*
X142509523Y-86952380D01*
X142795238Y-86952380D02*
X142795238Y-85952380D01*
X142700000Y-86095238D01*
X142604761Y-86190476D01*
X142509523Y-86238095D01*
X143461904Y-86047619D02*
X143509523Y-86000000D01*
X143604761Y-85952380D01*
X143842857Y-85952380D01*
X143938095Y-86000000D01*
X143985714Y-86047619D01*
X144033333Y-86142857D01*
X144033333Y-86238095D01*
X143985714Y-86380952D01*
X143414285Y-86952380D01*
X144033333Y-86952380D01*
X144319047Y-85952380D02*
X144652380Y-86952380D01*
X144985714Y-85952380D01*
X143238095Y-81000000D02*
X143142857Y-80952380D01*
X143000000Y-80952380D01*
X142857142Y-81000000D01*
X142761904Y-81095238D01*
X142714285Y-81190476D01*
X142666666Y-81380952D01*
X142666666Y-81523809D01*
X142714285Y-81714285D01*
X142761904Y-81809523D01*
X142857142Y-81904761D01*
X143000000Y-81952380D01*
X143095238Y-81952380D01*
X143238095Y-81904761D01*
X143285714Y-81857142D01*
X143285714Y-81523809D01*
X143095238Y-81523809D01*
X143714285Y-81952380D02*
X143714285Y-80952380D01*
X144285714Y-81952380D01*
X144285714Y-80952380D01*
X144761904Y-81952380D02*
X144761904Y-80952380D01*
X145000000Y-80952380D01*
X145142857Y-81000000D01*
X145238095Y-81095238D01*
X145285714Y-81190476D01*
X145333333Y-81380952D01*
X145333333Y-81523809D01*
X145285714Y-81714285D01*
X145238095Y-81809523D01*
X145142857Y-81904761D01*
X145000000Y-81952380D01*
X144761904Y-81952380D01*
X148904761Y-78047619D02*
X148333333Y-78047619D01*
X148619047Y-77047619D02*
X148619047Y-78047619D01*
X147857142Y-77047619D02*
X147952380Y-77095238D01*
X148000000Y-77142857D01*
X148047619Y-77238095D01*
X148047619Y-77523809D01*
X148000000Y-77619047D01*
X147952380Y-77666666D01*
X147857142Y-77714285D01*
X147714285Y-77714285D01*
X147619047Y-77666666D01*
X147571428Y-77619047D01*
X147523809Y-77523809D01*
X147523809Y-77238095D01*
X147571428Y-77142857D01*
X147619047Y-77095238D01*
X147714285Y-77047619D01*
X147857142Y-77047619D01*
X146380952Y-77333333D02*
X145904761Y-77333333D01*
X146476190Y-77047619D02*
X146142857Y-78047619D01*
X145809523Y-77047619D01*
X144904761Y-77142857D02*
X144952380Y-77095238D01*
X145095238Y-77047619D01*
X145190476Y-77047619D01*
X145333333Y-77095238D01*
X145428571Y-77190476D01*
X145476190Y-77285714D01*
X145523809Y-77476190D01*
X145523809Y-77619047D01*
X145476190Y-77809523D01*
X145428571Y-77904761D01*
X145333333Y-78000000D01*
X145190476Y-78047619D01*
X145095238Y-78047619D01*
X144952380Y-78000000D01*
X144904761Y-77952380D01*
X144476190Y-77047619D02*
X144476190Y-78047619D01*
X143904761Y-77047619D01*
X143904761Y-78047619D01*
X143285714Y-77047619D02*
X143380952Y-77095238D01*
X143428571Y-77142857D01*
X143476190Y-77238095D01*
X143476190Y-77523809D01*
X143428571Y-77619047D01*
X143380952Y-77666666D01*
X143285714Y-77714285D01*
X143142857Y-77714285D01*
X143047619Y-77666666D01*
X143000000Y-77619047D01*
X142952380Y-77523809D01*
X142952380Y-77238095D01*
X143000000Y-77142857D01*
X143047619Y-77095238D01*
X143142857Y-77047619D01*
X143285714Y-77047619D01*
X142095238Y-77047619D02*
X142095238Y-78047619D01*
X142095238Y-77095238D02*
X142190476Y-77047619D01*
X142380952Y-77047619D01*
X142476190Y-77095238D01*
X142523809Y-77142857D01*
X142571428Y-77238095D01*
X142571428Y-77523809D01*
X142523809Y-77619047D01*
X142476190Y-77666666D01*
X142380952Y-77714285D01*
X142190476Y-77714285D01*
X142095238Y-77666666D01*
X141238095Y-77095238D02*
X141333333Y-77047619D01*
X141523809Y-77047619D01*
X141619047Y-77095238D01*
X141666666Y-77190476D01*
X141666666Y-77571428D01*
X141619047Y-77666666D01*
X141523809Y-77714285D01*
X141333333Y-77714285D01*
X141238095Y-77666666D01*
X141190476Y-77571428D01*
X141190476Y-77476190D01*
X141666666Y-77380952D01*
X143447619Y-74733333D02*
X143923809Y-74400000D01*
X143447619Y-74161904D02*
X144447619Y-74161904D01*
X144447619Y-74542857D01*
X144400000Y-74638095D01*
X144352380Y-74685714D01*
X144257142Y-74733333D01*
X144114285Y-74733333D01*
X144019047Y-74685714D01*
X143971428Y-74638095D01*
X143923809Y-74542857D01*
X143923809Y-74161904D01*
X144447619Y-75066666D02*
X143447619Y-75733333D01*
X144447619Y-75733333D02*
X143447619Y-75066666D01*
X141847619Y-74038095D02*
X141847619Y-74609523D01*
X140847619Y-74323809D02*
X141847619Y-74323809D01*
X141847619Y-74847619D02*
X140847619Y-75514285D01*
X141847619Y-75514285D02*
X140847619Y-74847619D01*
X147147619Y-74609523D02*
X147147619Y-74133333D01*
X146671428Y-74085714D01*
X146719047Y-74133333D01*
X146766666Y-74228571D01*
X146766666Y-74466666D01*
X146719047Y-74561904D01*
X146671428Y-74609523D01*
X146576190Y-74657142D01*
X146338095Y-74657142D01*
X146242857Y-74609523D01*
X146195238Y-74561904D01*
X146147619Y-74466666D01*
X146147619Y-74228571D01*
X146195238Y-74133333D01*
X146242857Y-74085714D01*
X147147619Y-74942857D02*
X146147619Y-75276190D01*
X147147619Y-75609523D01*
X149500000Y-74538095D02*
X149547619Y-74442857D01*
X149547619Y-74300000D01*
X149500000Y-74157142D01*
X149404761Y-74061904D01*
X149309523Y-74014285D01*
X149119047Y-73966666D01*
X148976190Y-73966666D01*
X148785714Y-74014285D01*
X148690476Y-74061904D01*
X148595238Y-74157142D01*
X148547619Y-74300000D01*
X148547619Y-74395238D01*
X148595238Y-74538095D01*
X148642857Y-74585714D01*
X148976190Y-74585714D01*
X148976190Y-74395238D01*
X148547619Y-75014285D02*
X149547619Y-75014285D01*
X148547619Y-75585714D01*
X149547619Y-75585714D01*
X148547619Y-76061904D02*
X149547619Y-76061904D01*
X149547619Y-76300000D01*
X149500000Y-76442857D01*
X149404761Y-76538095D01*
X149309523Y-76585714D01*
X149119047Y-76633333D01*
X148976190Y-76633333D01*
X148785714Y-76585714D01*
X148690476Y-76538095D01*
X148595238Y-76442857D01*
X148547619Y-76300000D01*
X148547619Y-76061904D01*
D11*
%TO.C,J1*%
X129900000Y-78300000D02*
X142050000Y-78300000D01*
X129900000Y-89700000D02*
X129900000Y-78300000D01*
X142050000Y-89700000D02*
X129900000Y-89700000D01*
X142050000Y-78300000D02*
X142050000Y-89700000D01*
%TO.C,U1*%
X155435000Y-85000000D02*
X155435000Y-81550000D01*
X155435000Y-85000000D02*
X155435000Y-86950000D01*
X146565000Y-85000000D02*
X146565000Y-83050000D01*
X146565000Y-85000000D02*
X146565000Y-86950000D01*
%TO.C,R1*%
X151662779Y-89990000D02*
X151337221Y-89990000D01*
X151662779Y-91010000D02*
X151337221Y-91010000D01*
%TO.C,J3*%
X136685000Y-92120000D02*
X136685000Y-110080000D01*
X152205000Y-92120000D02*
X136685000Y-92120000D01*
X152205000Y-92120000D02*
X152205000Y-110080000D01*
X136685000Y-110080000D02*
X152205000Y-110080000D01*
X136500000Y-96000000D02*
X136000000Y-95500000D01*
X136000000Y-95500000D02*
X136000000Y-96500000D01*
X136000000Y-96500000D02*
X136500000Y-96000000D01*
%TO.C,J2*%
X150330000Y-70670000D02*
X150330000Y-72000000D01*
X149000000Y-70670000D02*
X150330000Y-70670000D01*
X147730000Y-70670000D02*
X147730000Y-73330000D01*
X147730000Y-73330000D02*
X140050000Y-73330000D01*
X147730000Y-70670000D02*
X140050000Y-70670000D01*
X140050000Y-70670000D02*
X140050000Y-73330000D01*
%TO.C,C1*%
X158510000Y-85375279D02*
X158510000Y-85049721D01*
X157490000Y-85375279D02*
X157490000Y-85049721D01*
%TO.C,J1*%
D10*
X133452380Y-84333333D02*
X134166666Y-84333333D01*
X134309523Y-84380952D01*
X134404761Y-84476190D01*
X134452380Y-84619047D01*
X134452380Y-84714285D01*
X134452380Y-83333333D02*
X134452380Y-83904761D01*
X134452380Y-83619047D02*
X133452380Y-83619047D01*
X133595238Y-83714285D01*
X133690476Y-83809523D01*
X133738095Y-83904761D01*
%TO.C,U1*%
X150452380Y-85761904D02*
X151261904Y-85761904D01*
X151357142Y-85714285D01*
X151404761Y-85666666D01*
X151452380Y-85571428D01*
X151452380Y-85380952D01*
X151404761Y-85285714D01*
X151357142Y-85238095D01*
X151261904Y-85190476D01*
X150452380Y-85190476D01*
X151452380Y-84190476D02*
X151452380Y-84761904D01*
X151452380Y-84476190D02*
X150452380Y-84476190D01*
X150595238Y-84571428D01*
X150690476Y-84666666D01*
X150738095Y-84761904D01*
%TO.C,R1*%
X154333333Y-90952380D02*
X154000000Y-90476190D01*
X153761904Y-90952380D02*
X153761904Y-89952380D01*
X154142857Y-89952380D01*
X154238095Y-90000000D01*
X154285714Y-90047619D01*
X154333333Y-90142857D01*
X154333333Y-90285714D01*
X154285714Y-90380952D01*
X154238095Y-90428571D01*
X154142857Y-90476190D01*
X153761904Y-90476190D01*
X155285714Y-90952380D02*
X154714285Y-90952380D01*
X155000000Y-90952380D02*
X155000000Y-89952380D01*
X154904761Y-90095238D01*
X154809523Y-90190476D01*
X154714285Y-90238095D01*
%TO.C,J3*%
X144111666Y-90452380D02*
X144111666Y-91166666D01*
X144064047Y-91309523D01*
X143968809Y-91404761D01*
X143825952Y-91452380D01*
X143730714Y-91452380D01*
X144492619Y-90452380D02*
X145111666Y-90452380D01*
X144778333Y-90833333D01*
X144921190Y-90833333D01*
X145016428Y-90880952D01*
X145064047Y-90928571D01*
X145111666Y-91023809D01*
X145111666Y-91261904D01*
X145064047Y-91357142D01*
X145016428Y-91404761D01*
X144921190Y-91452380D01*
X144635476Y-91452380D01*
X144540238Y-91404761D01*
X144492619Y-91357142D01*
%TO.C,J2*%
X150782380Y-72333333D02*
X151496666Y-72333333D01*
X151639523Y-72380952D01*
X151734761Y-72476190D01*
X151782380Y-72619047D01*
X151782380Y-72714285D01*
X150877619Y-71904761D02*
X150830000Y-71857142D01*
X150782380Y-71761904D01*
X150782380Y-71523809D01*
X150830000Y-71428571D01*
X150877619Y-71380952D01*
X150972857Y-71333333D01*
X151068095Y-71333333D01*
X151210952Y-71380952D01*
X151782380Y-71952380D01*
X151782380Y-71333333D01*
%TO.C,C1*%
X158357142Y-88166666D02*
X158404761Y-88214285D01*
X158452380Y-88357142D01*
X158452380Y-88452380D01*
X158404761Y-88595238D01*
X158309523Y-88690476D01*
X158214285Y-88738095D01*
X158023809Y-88785714D01*
X157880952Y-88785714D01*
X157690476Y-88738095D01*
X157595238Y-88690476D01*
X157500000Y-88595238D01*
X157452380Y-88452380D01*
X157452380Y-88357142D01*
X157500000Y-88214285D01*
X157547619Y-88166666D01*
X158452380Y-87214285D02*
X158452380Y-87785714D01*
X158452380Y-87500000D02*
X157452380Y-87500000D01*
X157595238Y-87595238D01*
X157690476Y-87690476D01*
X157738095Y-87785714D01*
%TD*%
M02*
